<svg id="圖層_1" data-name="圖層 1" xmlns="http://www.w3.org/2000/svg" viewBox="0 0 60 60"><defs><style>.cls-1{fill:#699c33;}</style></defs><title>city</title><path class="cls-1" d="M45.82,40.65h0a.94.94,0,0,0,0,1.88h0a.94.94,0,1,0,0-1.88Z"/><path class="cls-1" d="M51.06,38.85h0l-7.76-2.3a.53.53,0,0,1-.37-.36v-2.3s0-.06,0-.09l3-1.7.05,0a5.61,5.61,0,0,0,2.38-4.27s0,0,0-.07v-1a3.31,3.31,0,0,0,1.65-5.25c.42.13.84.27,1.24.42a.94.94,0,0,0,1.08-1.43l-4.34-6.08V9.86a.94.94,0,0,0-.6-.88,30.65,30.65,0,0,0-9.52-1.86A30.65,30.65,0,0,0,28.26,9a.94.94,0,0,0-.6.88v4.54l-4.32,6.08a.94.94,0,0,0,1.09,1.42c.4-.14.8-.28,1.21-.41a3.31,3.31,0,0,0,1.66,5.24v1s0,0,0,.07a5.6,5.6,0,0,0,2.37,4.27l.05,0,3,1.71s0,.05,0,.08v1.88a.94.94,0,0,0,0,.16v.23c0,.15-.15.31-.38.39l-7.76,2.3h0a4.33,4.33,0,0,0-2.95,4V51h-6V41.81h1.78a3.29,3.29,0,0,0,3.28-3.28V25.68a.94.94,0,1,0-1.88,0V38.53a1.41,1.41,0,0,1-1.41,1.41h-1V25.6a.94.94,0,1,0-1.88,0V39.94H12.13V25.6a.94.94,0,1,0-1.88,0V39.94h-1a1.41,1.41,0,0,1-1.41-1.41V25.68a.94.94,0,1,0-1.88,0V38.53a3.29,3.29,0,0,0,3.28,3.28h1.78V51H9.75a.94.94,0,1,0,0,1.88H53.06a.94.94,0,0,0,.94-.94V42.82A4.33,4.33,0,0,0,51.06,38.85ZM13.69,51h-.75V41.81h.75ZM29.54,10.53A28.27,28.27,0,0,1,37.79,9,28.33,28.33,0,0,1,46,10.53v3a44,44,0,0,0-8.47-.73,39.38,39.38,0,0,0-8,.71v-3Zm-.36,5a34.12,34.12,0,0,1,8.39-.85,39.58,39.58,0,0,1,8.84.86l2.69,3.76a43.59,43.59,0,0,0-11.3-1.42A43.58,43.58,0,0,0,26.49,19.3Zm1.5,15a3.72,3.72,0,0,1-1.51-2.8V25.94a.94.94,0,0,0-.94-.94,1.44,1.44,0,0,1,0-2.88.94.94,0,0,0,.94-.89l0-.65a44.73,44.73,0,0,1,17.2,0v.6a.94.94,0,0,0,.94.94,1.44,1.44,0,0,1,0,2.88.94.94,0,0,0-.94.94v1.74a3.73,3.73,0,0,1-1.52,2.8l-5.7,3.27-.05,0a2.37,2.37,0,0,1-2.68,0l-.05,0ZM41,36.23v.61L37.8,40l-3.22-3.2v-2l.86.49a4.24,4.24,0,0,0,4.69,0l.88-.5v1s0,0,0,.07v.23S41,36.2,41,36.23ZM26,51H23.44V42.82a2.49,2.49,0,0,1,1.67-2.19l.86-.25V51Zm21.76,0h-1.1v-6.6a.94.94,0,1,0-1.88,0V51H30.81v-6.6a.94.94,0,1,0-1.88,0V51h-1.1V39.82l5-1.49h0l.35-.15L37.14,42a.94.94,0,0,0,1.32,0l3.86-3.85.33.14h0l5,1.49Zm4.41,0H49.6V40.37l.86.26a2.49,2.49,0,0,1,1.67,2.19Z"/><path class="cls-1" d="M34.25,22.63a1.06,1.06,0,1,0,1.06,1.06A1.06,1.06,0,0,0,34.25,22.63Z"/><path class="cls-1" d="M41.57,22.63a1.06,1.06,0,1,0,1.06,1.06A1.06,1.06,0,0,0,41.57,22.63Z"/><path class="cls-1" d="M30,40.65a.94.94,0,0,0-.94.94h0a.94.94,0,1,0,1.88,0h0A.94.94,0,0,0,30,40.65Z"/><path class="cls-1" d="M30,40.65a.94.94,0,0,0-.94.94h0a.94.94,0,0,0,1.88,0h0A.94.94,0,0,0,30,40.65Z"/><path class="cls-1" d="M39.52,28.06a.94.94,0,0,0-1.27-.15,1,1,0,0,1-.39.06.94.94,0,0,1-.37-.06.94.94,0,0,0-1.18,1.46,2.33,2.33,0,0,0,1.55.47,2.37,2.37,0,0,0,1.54-.46A.94.94,0,0,0,39.52,28.06Z"/></svg>