<svg id="圖層_1" data-name="圖層 1" xmlns="http://www.w3.org/2000/svg" viewBox="0 0 60 60"><defs><style>.cls-1{fill:#699c33;}</style></defs><title>city</title><path class="cls-1" d="M37.47,56.23H22.53a2.08,2.08,0,0,1-2.25-1.92V54c-5.12-2.55-8.15-6.83-8.15-11.56s3-9,8.08-11.52a2.87,2.87,0,0,0,1.18-1A2.29,2.29,0,0,1,20,29.13a1.71,1.71,0,0,1-.36-1.45,2.23,2.23,0,0,1,2.28-1.56H38.15a2.38,2.38,0,0,1,1.85.82,1.71,1.71,0,0,1,.36,1.45,2.11,2.11,0,0,1-1.75,1.51,2.86,2.86,0,0,0,1.19,1c5.06,2.55,8.08,6.86,8.08,11.52s-3,9-8.15,11.56v.29A2.08,2.08,0,0,1,37.47,56.23ZM21.38,28.08a1.68,1.68,0,0,0,.47.1h1.57v.89A4,4,0,0,1,21,32.53c-4.45,2.24-7.1,6-7.1,9.93,0,4.17,2.86,8,7.64,10.19l.52.24v1.42a.77.77,0,0,0,.47.14H37.47a.59.59,0,0,0,.47-.17V52.89l.52-.24c4.78-2.21,7.64-6,7.64-10.19,0-4-2.66-7.69-7.1-9.93a4,4,0,0,1-2.41-3.46v-.89h1.5a.77.77,0,0,0,.55-.19s-.2-.1-.48-.1H21.92a.77.77,0,0,0-.55.19Z"/><path class="cls-1" d="M30,53.69c-8.28,0-15-5.2-15-11.59a9.62,9.62,0,0,1,1.86-5.6l.22-.31H42.93l.22.31A9.62,9.62,0,0,1,45,42.1C45,48.49,38.28,53.69,30,53.69Zm-12.16-16a8.07,8.07,0,0,0-1.37,4.42c0,5.57,6.07,10.1,13.52,10.1s13.52-4.53,13.52-10.1a8.07,8.07,0,0,0-1.37-4.42Z"/><path class="cls-1" cx="22.87" cy="45.96" r="0.34"/><path class="cls-1" cx="23.89" cy="44.26" r="0.68"/><path class="cls-1" cx="22.19" cy="41.88" r="1.02"/><path class="cls-1" d="M34.76,45.06a.34.34,0,0,0-.5-.3,6.45,6.45,0,0,0-1.51,1.07.34.34,0,0,1-.46,0A4.42,4.42,0,0,0,30.76,45a1.63,1.63,0,0,1,0-1.15.34.34,0,0,0-.29-.52,4.42,4.42,0,0,0-2.37,1.26.52.52,0,0,1-.3.12A5.68,5.68,0,0,0,24,46.88a.34.34,0,0,0,0,.44,6,6,0,0,0,2.77,1.92h0l.1,0a5.11,5.11,0,0,0,.55.13l.18,0a5.34,5.34,0,0,0,.73.05c.32,0,.62,0,.9,0a.5.5,0,0,1,.37.12,2.4,2.4,0,0,0,1.45.76.34.34,0,0,0,.3-.5,1,1,0,0,1-.09-.36,2.38,2.38,0,0,1,0-.49,4.27,4.27,0,0,0,1.05-.65.34.34,0,0,1,.46,0,6.45,6.45,0,0,0,1.51,1.07.34.34,0,0,0,.5-.37h0a15.34,15.34,0,0,1-.33-2,15.34,15.34,0,0,1,.33-2A.33.33,0,0,0,34.76,45.06Zm-8.41,2.46a.34.34,0,1,1,.34-.34A.34.34,0,0,1,26.34,47.52Z"/><path class="cls-1" d="M42.27,4.57a.85.85,0,0,0-1.48-.52s-1.57,1.66-5.92,3.11a7.1,7.1,0,0,0-4.36,4.44,7.1,7.1,0,0,0-4.36-4.44c-4.35-1.45-5.9-3.09-5.91-3.1a.85.85,0,0,0-1.48.47A16.3,16.3,0,0,0,18.65,8,10.46,10.46,0,0,0,21,14.26c2.51,2.81,6.81,3.32,8.65,3.41v1a6.48,6.48,0,0,0-.92-.64c-2.2-1.27-4.64-1-5.55.54s.1,3.8,2.31,5.08a5.77,5.77,0,0,0,2.84.82,3.79,3.79,0,0,0,1.32-.23V38.15l-4.29,2.53A.77.77,0,0,0,26.14,42l3.6-2.13V42.7a.77.77,0,1,0,1.53,0V40.26l4.88,2.13a.75.75,0,0,0,.31.06A.77.77,0,0,0,36.77,41l-5.4-2.36V24.28a3.79,3.79,0,0,0,1.33.23,5.77,5.77,0,0,0,2.84-.82,5.69,5.69,0,0,0,2.24-2.26,2.92,2.92,0,0,0,.07-2.82c-.91-1.57-3.35-1.81-5.55-.54a6.43,6.43,0,0,0-.93.65V17.67c1.84-.09,6.14-.6,8.66-3.41A10.46,10.46,0,0,0,42.37,8,16.44,16.44,0,0,0,42.27,4.57Zm-20,8.55c-1.79-2-2-5-2-6.83a21.66,21.66,0,0,0,5.29,2.49c3.39,1.13,4,5.33,4,7.18C28,15.87,24.32,15.4,22.28,13.12Zm7.28,9.17c-.36.63-1.77.75-3.22-.08s-2-2.12-1.68-2.74,1.77-.75,3.22.08a3.34,3.34,0,0,1,1.77,2.17v.06c0,.07,0,.14,0,.21v0A.78.78,0,0,1,29.56,22.3Zm2-1.19a4,4,0,0,1,1.57-1.56,4.08,4.08,0,0,1,2-.59,1.37,1.37,0,0,1,1.23.51,1.28,1.28,0,0,1-.11,1.19,4,4,0,0,1-1.57,1.56c-1.44.83-2.85.71-3.22.08a.77.77,0,0,1-.09-.28q0-.14,0-.28A1.89,1.89,0,0,1,31.57,21.11Zm7.18-8C36.7,15.4,33,15.87,31.37,16c.08-1.85.64-6,4-7.18A21.66,21.66,0,0,0,40.7,6.29C40.76,8.1,40.54,11.11,38.75,13.12Z"/></svg>