<svg id="圖層_1" data-name="圖層 1" xmlns="http://www.w3.org/2000/svg" viewBox="0 0 60 60"><defs><style>.cls-donate-1{fill:#699c33;}</style></defs><title>city</title><path class="cls-donate-1" d="M41.87,50.47A35.62,35.62,0,0,1,38,48.3c-1-.6-2.11-1.28-3.47-2.07-5.9-3.41-13.61-2.47-16.43-1.2A1.06,1.06,0,0,0,19,47c1.82-.82,8.92-2.13,14.51,1.1,1.33.77,2.45,1.45,3.43,2A36.75,36.75,0,0,0,41,52.4a1.06,1.06,0,1,0,.85-1.94Z"/><path class="cls-donate-1" d="M41.87,45c-2.82-1.27-10.54-2.21-16.43,1.2C24.09,47,23,47.7,22,48.3a36,36,0,0,1-3.84,2.16A1.06,1.06,0,1,0,19,52.39a37.11,37.11,0,0,0,4.09-2.29c1-.6,2.09-1.27,3.43-2C32.08,44.83,39.19,46.14,41,47A1.06,1.06,0,1,0,41.87,45Z"/><path class="cls-donate-1" d="M36,28.62A5.28,5.28,0,0,0,33,25.51a3.79,3.79,0,0,0-4.63,1.42,4.42,4.42,0,0,0-.64,2.72,2.35,2.35,0,0,1-.28,1.48,1.89,1.89,0,0,1-1.11.81,4.61,4.61,0,0,0-1.85,1.18,3.66,3.66,0,0,0-.88,2.79A4.27,4.27,0,0,0,25.34,39a4.64,4.64,0,0,0,2.8.84,6.6,6.6,0,0,0,1.37-.15,8.54,8.54,0,0,0,5.68-4.54A7.58,7.58,0,0,0,36,28.62Zm-2.64,5.48a6.47,6.47,0,0,1-4.26,3.49,3.15,3.15,0,0,1-2.46-.3,2.17,2.17,0,0,1-.89-1.56A1.56,1.56,0,0,1,26,34.56a2.59,2.59,0,0,1,1.09-.66,3.93,3.93,0,0,0,2.1-1.61,4.33,4.33,0,0,0,.63-2.67,2.45,2.45,0,0,1,.3-1.53,1.55,1.55,0,0,1,1.35-.74,2.32,2.32,0,0,1,.79.15A3.14,3.14,0,0,1,34,29.37,5.56,5.56,0,0,1,33.34,34.11Z"/><path class="cls-donate-1" d="M35.76,41.67a4.42,4.42,0,0,0-2-1.92,2.35,2.35,0,0,1-1.14-1,1.89,1.89,0,0,1-.14-1.37,4.61,4.61,0,0,0-.09-2.19,3.66,3.66,0,0,0-2-2.16,4.27,4.27,0,0,0-3.52,0,5.21,5.21,0,0,0-2.68,3.27,8.54,8.54,0,0,0,1.1,7.19,7.58,7.58,0,0,0,5.23,3.93,5.82,5.82,0,0,0,.94.08,5.05,5.05,0,0,0,3.22-1.07A3.79,3.79,0,0,0,35.76,41.67Zm-2.45,3.1a3.14,3.14,0,0,1-2.46.53,5.56,5.56,0,0,1-3.77-2.94,6.46,6.46,0,0,1-.89-5.44,3.15,3.15,0,0,1,1.49-2,2.3,2.3,0,0,1,.9-.19,2.12,2.12,0,0,1,.9.2,1.56,1.56,0,0,1,.85.86,2.59,2.59,0,0,1,0,1.28,3.93,3.93,0,0,0,.34,2.63,4.33,4.33,0,0,0,2,1.88,2.46,2.46,0,0,1,1.18,1A1.68,1.68,0,0,1,33.32,44.77Z"/><path class="cls-donate-1" d="M57.06,21.69a3.89,3.89,0,0,0-1.43-2.81L45.46,10.6a13.9,13.9,0,0,0-8.72-3.09H20.46a16.21,16.21,0,0,0-8.4,2.34L7.67,12.51H4a1.06,1.06,0,0,0-1.06,1.06V29.51A1.06,1.06,0,0,0,4,30.56H16.08a10.5,10.5,0,0,0,7.47-3.09l4.85-4.85A2.29,2.29,0,0,1,30,21.95h9a3.28,3.28,0,0,0,2.33-1,3.61,3.61,0,0,0,1-2l7.93,6.18,0,0a4.27,4.27,0,0,0,5.44-.5l.11-.11A3.89,3.89,0,0,0,57.06,21.69Zm-2.63,1.45-.11.11a2.15,2.15,0,0,1-2.72.27l-10.39-8.1a1.05,1.05,0,0,0-.72-.22,3.65,3.65,0,0,0-1.68-.4H26a6.16,6.16,0,0,0-3.36,1L19,18.13h0a1.06,1.06,0,0,0,1.15,1.78l3.61-2.35A4,4,0,0,1,26,16.91H38.81a1.51,1.51,0,0,1,1.07,2.58,1.18,1.18,0,0,1-.84.35H30a4.39,4.39,0,0,0-3.12,1.29L22.06,26a8.4,8.4,0,0,1-6,2.47h-11V14.63H8a1.06,1.06,0,0,0,.55-.15l4.65-2.81a14.09,14.09,0,0,1,7.3-2H36.73a11.78,11.78,0,0,1,7.39,2.62l10.17,8.28a1.77,1.77,0,0,1,.14,2.63Z"/></svg>