<svg id="farm" data-name="farm" xmlns="http://www.w3.org/2000/svg" viewBox="0 0 60 60"><defs><style>.cls-1{fill:#699c33;}</style></defs><title>city</title><path class="cls-1" d="M54.79,39.7,44.9,35.07a1,1,0,0,0-1.25,1.43l2,3.11H33.37V33.92a9.36,9.36,0,0,0,6.45-8l.35-1.32a12,12,0,0,1,6.77-7.94,1,1,0,0,0,.46-1.4l-1.48-2.59a4.39,4.39,0,0,0-2.37-7.29,4.21,4.21,0,0,0-2.35.25,4.43,4.43,0,0,0-5.31-.17,4.52,4.52,0,0,0-1.81,2.67,4,4,0,0,0,.28,7.16l0,.08A6.4,6.4,0,0,1,33,16.94a7.55,7.55,0,0,1-8.81.76l-3-1.75A8,8,0,0,0,8.74,25.62l3.5,7a1,1,0,0,0,1.47.36L15,32.1a7.85,7.85,0,0,1,9.5.18,9.68,9.68,0,0,0,2.18,1.3v6H20.36l-2.19-3.68a1,1,0,0,0-.85-.48H5.63a1,1,0,0,0-.85,1.5L7,40.6,4.78,44.25a1,1,0,0,0,.85,1.5H17.32a1,1,0,0,0,.85-.48l2.19-3.68h6.27V54.37a1,1,0,0,0,1,1h4.75a1,1,0,0,0,1-1V41.59H45.65l-2,3.11a1,1,0,0,0,1.25,1.43l9.89-4.64a1,1,0,0,0,0-1.79Zm-38,4.07H7.37L9,41.11a1,1,0,0,0,0-1L7.37,37.43h9.38l1.89,3.17ZM34,11.28a2,2,0,0,1,1.29-1.53,1,1,0,0,0,.67-.83V8.87s0-.08,0-.12A2.57,2.57,0,0,1,37,7.07a2.45,2.45,0,0,1,3.26.4,1,1,0,0,0,1.28.18,2.25,2.25,0,0,1,1.63-.33,2.38,2.38,0,0,1,1.88,2.76,2.42,2.42,0,0,1-.27.77,5.3,5.3,0,0,0-4.12-2h-.06a5.16,5.16,0,0,0-4.66,3l-.76,1.64h0A2,2,0,0,1,34,11.28ZM28.61,53.38V34.19a9.65,9.65,0,0,0,1.87.18h0q.44,0,.87,0v19Zm1.9-21h0a7.76,7.76,0,0,1-4.8-1.67,9.83,9.83,0,0,0-11.83-.27c0-1.67.52-4.51,3.51-5.44a1,1,0,1,0-.59-1.89,6.63,6.63,0,0,0-4.59,5l-.94-1.88a5.71,5.71,0,0,1,5.08-5.68,1,1,0,0,0-.33-2A7.52,7.52,0,0,0,10,23L10,23a6.06,6.06,0,0,1,10-5.55l.16.11,3.07,1.8a9.53,9.53,0,0,0,11.12-1,8.35,8.35,0,0,0,1.76-2.12l0-.07,1.66-3.55a3.17,3.17,0,0,1,2.87-1.83h.06a3.3,3.3,0,0,1,2.86,1.65l1.39,2.43.21.37a13.93,13.93,0,0,0-6.9,8.77l-.37,1.4a1,1,0,0,0,0,.17A7.34,7.34,0,0,1,30.52,32.39ZM47.18,42.87l1.12-1.74a1,1,0,0,0,0-1.07l-1.12-1.74L52,40.6Z"/><path class="cls-1" d="M20.3,22.28a1,1,0,1,0,.29.7A1,1,0,0,0,20.3,22.28Z"/><path class="cls-1" d="M19.85,18.85a1,1,0,1,0,.29.7A1,1,0,0,0,19.85,18.85Z"/><path class="cls-1" d="M41.33,13.69a1,1,0,1,0,.29.7A1,1,0,0,0,41.33,13.69Z"/><path class="cls-1" d="M35.67,21.47a1,1,0,0,0-1.59-.63s-4.87,3.73-8.35,1.64a1,1,0,0,0-1.5.87c.06,2.67,1.13,4.71,3,5.73a5.76,5.76,0,0,0,2.76.69A5.55,5.55,0,0,0,32.84,29C36.46,26.8,35.71,21.69,35.67,21.47ZM31.8,27.34a3.87,3.87,0,0,1-3.61,0,3.67,3.67,0,0,1-1.76-2.44c2.77.71,5.63-.5,7.33-1.48A4.83,4.83,0,0,1,31.8,27.34Z"/></svg>