<svg id="圖層_1" data-name="圖層 1" xmlns="http://www.w3.org/2000/svg" viewBox="0 0 400 300"><defs><style>.clsstepone-1{fill:#d98074;}.clsstepone-2{fill:#d05e58;}.clsstepone-3{font-size:34.6px;fill:#736961;font-family:OpenSans-Extrabold, Open Sans;}.clsstepone-3,.clsstepone-4{font-weight:700;}.clsstepone-4{font-size:27.03px;fill:#fff;font-family:MicrosoftJhengHeiBold, Microsoft JhengHei;letter-spacing:0.2em;}.clsstepone-5{fill:none;stroke:#fff;stroke-miterlimit:10;stroke-width:2.31px;}</style></defs><title>index</title><path class="clsstepone-1" d="M358.1,85.5c0-5.44-5.17-9.84-11.55-9.84h-94c.1,1.11.2,2.22.2,3.36,0,24.81-23.6,44.93-52.71,44.93S147.29,103.83,147.29,79c0-1.13.1-2.24.2-3.36h-94c-6.38,0-11.55,4.41-11.55,9.84V223H358.1Z"/><path class="clsstepone-2" d="M147.29,79.6a52.71,52.71,0,1,0,105.42,0c0-1.33-.1-2.63-.2-3.94h-16.7a36,36,0,1,1-71.63,0h-16.7C147.39,77,147.29,78.27,147.29,79.6Z"/><text class="clsstepone-3" transform="translate(179.13 92.45)">01</text><path class="clsstepone-1" d="M200,43.56h0a36,36,0,0,1,35.81,32.1h16.7a52.66,52.66,0,0,0-105,0h16.7A36,36,0,0,1,200,43.56Z"/><path class="clsstepone-2" d="M41.9,220.3v13.26c0,5.44,5.17,9.84,11.55,9.84H164l36,29.72,36-29.72H346.56c6.38,0,11.55-4.41,11.55-9.84V220.3Z"/><text class="clsstepone-4" transform="translate(86.48 168.8)">下載資助計畫表</text><line class="clsstepone-5" x1="70.29" y1="184.13" x2="329.71" y2="184.13"/></svg>