<svg id="圖層_1" data-name="圖層 1" xmlns="http://www.w3.org/2000/svg" viewBox="0 0 400 300"><defs><style>.cls-1{fill:#edc15f;}.cls-2{fill:#e8b232;}.cls-3{font-size:34.6px;fill:#736961;font-family:OpenSans-Extrabold, Open Sans;}.cls-3,.cls-4{font-weight:700;}.cls-4{font-size:27.03px;fill:#fff;font-family:MicrosoftJhengHeiBold, Microsoft JhengHei;letter-spacing:0.2em;}.cls-5{fill:none;stroke:#fff;stroke-miterlimit:10;stroke-width:2.31px;}</style></defs><title>index</title><path class="cls-1" d="M357.65,87.75c0-5.44-5.17-9.84-11.55-9.84h-94c.1,1.11.2,2.22.2,3.36,0,24.81-23.6,44.93-52.71,44.93s-52.71-20.12-52.71-44.93c0-1.13.1-2.24.2-3.36H53c-6.38,0-11.55,4.41-11.55,9.84V219.85h316.2Z"/><path class="cls-2" d="M146.84,81.85a52.71,52.71,0,1,0,105.42,0c0-1.33-.1-2.63-.2-3.94h-16.7a36,36,0,1,1-71.63,0H147C146.94,79.22,146.84,80.52,146.84,81.85Z"/><text class="cls-3" transform="translate(178.57 94.88)">03</text><path class="cls-1" d="M199.55,45.81h0a36,36,0,0,1,35.81,32.1h16.7a52.66,52.66,0,0,0-105,0h16.7A36,36,0,0,1,199.55,45.81Z"/><path class="cls-2" d="M42.35,218V231.3c0,5.44,5.17,9.84,11.55,9.84H164.49l36,29.72,36-29.72H347c6.38,0,11.55-4.41,11.55-9.84V218Z"/><text class="cls-4" transform="translate(118.46 171.05)">上傳計畫表</text><line class="cls-5" x1="69.84" y1="186.39" x2="329.26" y2="186.39"/></svg>