<svg id="圖層_1" data-name="圖層 1" xmlns="http://www.w3.org/2000/svg" viewBox="0 0 400 300"><defs><style>.clssteptwo-1{fill:#82b397;}.clssteptwo-2{fill:#5aa17f;}.clssteptwo-3{font-size:34.6px;fill:#736961;font-family:OpenSans-Extrabold, Open Sans;}.clssteptwo-3,.clssteptwo-4{font-weight:700;}.clssteptwo-4{font-size:27.03px;fill:#fff;font-family:MicrosoftJhengHeiBold, Microsoft JhengHei;letter-spacing:0.2em;}.clssteptwo-5{fill:none;stroke:#fff;stroke-miterlimit:10;stroke-width:2.31px;}</style></defs><title>index</title><path class="clssteptwo-1" d="M358.1,87.29c0-5.44-5.17-9.84-11.55-9.84h-94c.1,1.11.2,2.22.2,3.36,0,24.81-23.6,44.93-52.71,44.93s-52.71-20.12-52.71-44.93c0-1.13.1-2.24.2-3.36h-94c-6.38,0-11.55,4.41-11.55,9.84V219.38H358.1Z"/><path class="clssteptwo-2" d="M147.29,81.38a52.71,52.71,0,1,0,105.42,0c0-1.33-.1-2.63-.2-3.94h-16.7a36,36,0,1,1-71.63,0h-16.7C147.39,78.75,147.29,80.05,147.29,81.38Z"/><text class="clssteptwo-3" transform="translate(179.02 94.42)">02</text><path class="clssteptwo-1" d="M200,45.34h0a36,36,0,0,1,35.81,32.1h16.7a52.66,52.66,0,0,0-105,0h16.7A36,36,0,0,1,200,45.34Z"/><path class="clssteptwo-2" d="M41.9,218.51v13.26c0,5.44,5.17,9.84,11.55,9.84H164l36,29.72,36-29.72H346.56c6.38,0,11.55-4.41,11.55-9.84V218.51Z"/><text class="clssteptwo-4" transform="translate(68.4 170.59)">線上填寫基本資料</text><line class="clssteptwo-5" x1="70.29" y1="185.92" x2="329.71" y2="185.92"/></svg>