<svg id="圖層_1" data-name="圖層 1" xmlns="http://www.w3.org/2000/svg" viewBox="0 0 200 200"><defs><style>.cls-1{fill:#659e34;}</style></defs><title>index</title><path class="cls-1" d="M137,53.67a3.22,3.22,0,0,0,3.22-3.22V40.28a7.06,7.06,0,0,0-7-7H65a3.23,3.23,0,0,0-2.28.94L36,60.87A3.22,3.22,0,0,0,35,63.15v96.57a7.06,7.06,0,0,0,7,7h91.07a7.06,7.06,0,0,0,7-7V110.51a3.22,3.22,0,1,0-6.45,0v49.21a.6.6,0,0,1-.6.6H42.08a.6.6,0,0,1-.6-.6V66.38H61.13a7.05,7.05,0,0,0,7-7V39.67h65a.6.6,0,0,1,.6.6V50.45A3.22,3.22,0,0,0,137,53.67ZM61.73,59.33a.6.6,0,0,1-.6.6H46l15.7-15.7Z"/><path class="cls-1" d="M161.78,59.41,158,55.62a10.92,10.92,0,0,0-15.43,0L112.46,85.73H60.24a3.22,3.22,0,1,0,0,6.45H106l-19.4,19.4H60.24a3.22,3.22,0,0,0,0,6.45H80.16l-.05.05a3.22,3.22,0,0,0-.83,1.42l-5,17.93H60.24a3.22,3.22,0,0,0,0,6.45H76.76s.71-.08.81-.11l20.34-5.64a3.22,3.22,0,0,0,1.42-.83l62.45-62.45A10.92,10.92,0,0,0,161.78,59.41ZM81.39,136,84,126.54l6.84,6.84Zm15.66-5.56L87,120.35,138.5,68.8l10.1,10.1Zm60.17-60.17-4.06,4.06-10.1-10.1,4.06-4.06a4.46,4.46,0,0,1,6.31,0L157.22,64A4.46,4.46,0,0,1,157.22,70.28Z"/></svg>