<svg id="圖層_1" data-name="圖層 1" xmlns="http://www.w3.org/2000/svg" viewBox="0 0 768 320.22"><defs><style>.cls-1{fill:#daedf2;}.cls-2{fill:#e1b273;}.cls-3{fill:#fada91;}.cls-4{fill:#dadce3;}.cls-5{fill:#1e9fc3;}.cls-6{fill:#75c1a5;}.cls-7{fill:#fff;}.cls-8{fill:#d55567;}.cls-9{fill:#238884;}.cls-10{fill:none;}.cls-11{fill:#40b6bd;}.cls-12{fill:#42ab4b;}.cls-13{fill:#69482c;}.cls-14{fill:#2e9aa8;}.cls-15{fill:#14769c;}.cls-16{fill:#1285b3;}</style></defs><title>魚菜V2</title><rect class="cls-1" x="-0.15" width="768.3" height="320.22"/><rect class="cls-2" x="151.95" y="294.53" width="10.22" height="22.41"/><rect class="cls-2" x="169.37" y="294.64" width="10.1" height="23.11"/><rect class="cls-2" x="162.75" y="310.9" width="5.81" height="8.94"/><path class="cls-3" d="M168.64,293.25v6.3h-5.89v-8.77l-11.41,2.47v27.14h28.72V290.78Zm-14,22.79h-2v-3h2Zm0-7.27v3h-2v-3h2Zm0-4.28v3h-2v-3h2Zm0-4.28v3h-2v-3h2Zm0-3.39v2.1h-2v-3h2ZM158.07,316h-2v-3h2Zm0-7.27v3h-2v-3h2Zm0-4.28v3h-2v-3h2Zm0-4.28v3h-2v-3h2Zm0-4.13v2.83h-2v-3h2Zm3.39,20h-2v-3h2Zm0-4.29h-2v-3h2Zm0-4.28h-2v-3h2Zm0-4.28h-2v-3h2Zm0-4.28h-2v-3h2Zm6.29,20.51h-4.11V312.5h4.11ZM172,316h-2v-3h2Zm0-7.27v3h-2v-3h2Zm0-4.28v3h-2v-3h2Zm0-4.28v3h-2v-3h2Zm0-3.39v2.1h-2v-3h2ZM175.37,316h-2v-3h2Zm0-7.27v3h-2v-3h2Zm0-4.28v3h-2v-3h2Zm0-4.28v3h-2v-3h2Zm0-4.13v2.83h-2v-3h2Zm3.39,20h-2v-3h2Zm0-4.29h-2v-3h2Zm0-4.28h-2v-3h2Zm0-4.28h-2v-3h2Zm0-4.28h-2v-3h2Z"/><rect class="cls-4" x="179.85" y="276.21" width="27.15" height="44.18"/><path class="cls-5" d="M205.87,272.12v-1.86h-4.31v1.86H178v48.27h11.43V308.5h7.45v11.89h11.43V272.12Zm-18.49,34.16h-7.22V304h7.22Zm0-3.56h-7.22v-2.23h7.22Zm0-3.56h-7.22v-2.23h7.22Zm0-3.38h-7.22v-2.23h7.22Zm0-8.82h-7.22v-2.23h7.22Zm0-3.56h-7.22v-2.23h7.22Zm0-3.56h-7.22v-2.23h7.22Zm9.39,26.46h-7.22V304h7.22Zm0-3.56h-7.22v-2.23h7.22Zm0-3.56h-7.22v-2.23h7.22Zm0-3.38h-7.22v-2.23h7.22Zm0-8.82h-7.22v-2.23h7.22Zm0-3.56h-7.22v-2.23h7.22Zm0-3.56h-7.22v-2.23h7.22Zm9.39,26.46h-7.22V304h7.22Zm0-3.56h-7.22v-2.23h7.22Zm0-3.56h-7.22v-2.23h7.22Zm0-3.38h-7.22v-2.23h7.22Zm0-8.82h-7.22v-2.23h7.22Zm0-3.56h-7.22v-2.23h7.22Zm0-3.56h-7.22v-2.23h7.22Z"/><path class="cls-3" d="M208.09,286.55v33.84h13.47V286.55Zm5.61,29.66h-3.86v-3.86h3.86Zm0-5h-3.86v-3.86h3.86Zm0-5h-3.86v-3.86h3.86Zm0-5h-3.86v-3.86h3.86Zm0-5h-3.86v-3.86h3.86Zm0-5h-3.86v-3.86h3.86Zm6.12,24.76h-3.86v-3.86h3.86Zm0-5h-3.86v-3.86h3.86Zm0-5h-3.86v-3.86h3.86Zm0-5h-3.86v-3.86h3.86Zm0-5h-3.86v-3.86h3.86Zm0-5h-3.86v-3.86h3.86Z"/><polygon class="cls-4" points="246.03 292.49 245.43 320.39 263.73 320.39 263.73 291.8 257.04 283.54 252.91 284.42 246.03 292.49"/><rect class="cls-6" x="226.03" y="302.97" width="19.4" height="17.42"/><rect class="cls-7" x="227.31" y="305.76" width="2.94" height="2.94"/><rect class="cls-7" x="231.94" y="305.76" width="2.94" height="2.94"/><rect class="cls-7" x="236.57" y="305.76" width="2.94" height="2.94"/><rect class="cls-7" x="241.2" y="305.76" width="2.94" height="2.94"/><rect class="cls-7" x="227.31" y="310.16" width="2.94" height="2.94"/><rect class="cls-7" x="231.94" y="310.16" width="2.94" height="2.94"/><rect class="cls-7" x="236.57" y="310.16" width="2.94" height="2.94"/><rect class="cls-7" x="241.2" y="310.16" width="2.94" height="2.94"/><rect class="cls-7" x="227.31" y="314.66" width="2.94" height="2.94"/><rect class="cls-7" x="231.94" y="314.66" width="2.94" height="2.94"/><rect class="cls-7" x="236.57" y="314.66" width="2.94" height="2.94"/><rect class="cls-7" x="241.2" y="314.66" width="2.94" height="2.94"/><path class="cls-8" d="M258.92,283.73v-2h-8.13v2l-5.57,7.57v29.09h19.27V291.3Zm-5.47,2h2.81V290h-2.81ZM257.71,320H252v-7.69h5.71Zm5.47-8.69H246.53v-2.9h16.66Zm0-5H246.53v-2.9h16.66Zm0-5H246.53v-2.9h16.66Zm0-5H246.53v-2.9h16.66Z"/><rect class="cls-7" x="219.51" y="259.19" width="7.74" height="4.34"/><rect class="cls-7" x="216.65" y="261.53" width="16" height="57.95"/><polygon class="cls-9" points="226.09 253.74 224.93 253.74 224.93 242.79 224.07 242.79 224.07 253.74 222.82 253.74 222.82 259.21 226.09 259.21 226.09 253.74"/><rect class="cls-10" x="217.39" y="266.97" width="1.81" height="1.81"/><rect class="cls-10" x="217.39" y="262.45" width="1.81" height="1.81"/><rect class="cls-10" x="217.39" y="266.97" width="1.81" height="1.81"/><rect class="cls-10" x="217.39" y="262.45" width="1.81" height="1.81"/><rect class="cls-10" x="216.98" y="272.27" width="1.85" height="1.81"/><rect class="cls-10" x="217.39" y="266.97" width="1.81" height="1.81"/><rect class="cls-10" x="217.24" y="281.81" width="1.85" height="1.81"/><rect class="cls-10" x="217.39" y="262.45" width="1.81" height="1.81"/><rect class="cls-10" x="216.98" y="272.27" width="1.85" height="1.81"/><rect class="cls-10" x="216.98" y="291.23" width="1.85" height="1.81"/><rect class="cls-10" x="217.24" y="281.81" width="1.85" height="1.81"/><rect class="cls-10" x="216.98" y="272.27" width="1.85" height="1.81"/><rect class="cls-10" x="217.39" y="266.97" width="1.81" height="1.81"/><rect class="cls-10" x="217.39" y="262.45" width="1.81" height="1.81"/><rect class="cls-10" x="217.24" y="281.81" width="1.85" height="1.81"/><rect class="cls-10" x="216.98" y="272.27" width="1.85" height="1.81"/><rect class="cls-10" x="216.98" y="291.23" width="1.85" height="1.81"/><rect class="cls-10" x="216.83" y="299.83" width="1.85" height="1.81"/><rect class="cls-10" x="217.39" y="266.97" width="1.81" height="1.81"/><rect class="cls-10" x="217.39" y="262.45" width="1.81" height="1.81"/><path class="cls-9" d="M216.64,261.54v58.85h2.64V261.54Zm.34,10.73h1.85v1.81H217Zm0,19h1.85V293H217Zm-.15,8.61h1.85v1.81h-1.85ZM219.06,310H217.2v-1.81h1.85Zm0-26.34h-1.85v-1.81h1.85Zm.1-19.36h-1.81v-1.81h1.81Z"/><rect class="cls-10" x="230.05" y="269.22" width="1.85" height="1.81"/><rect class="cls-10" x="230.1" y="262.45" width="1.85" height="1.81"/><rect class="cls-10" x="230.02" y="309.77" width="1.85" height="1.81"/><rect class="cls-10" x="230.05" y="269.22" width="1.85" height="1.81"/><rect class="cls-10" x="230.1" y="262.45" width="1.85" height="1.81"/><rect class="cls-10" x="230.05" y="269.22" width="1.85" height="1.81"/><rect class="cls-10" x="230.1" y="262.45" width="1.85" height="1.81"/><rect class="cls-10" x="230.02" y="309.77" width="1.85" height="1.81"/><rect class="cls-10" x="230.61" y="302.12" width="1.85" height="1.81"/><rect class="cls-10" x="230.1" y="262.45" width="1.85" height="1.81"/><rect class="cls-10" x="230.06" y="294.85" width="1.85" height="1.81"/><rect class="cls-10" x="230.05" y="269.22" width="1.85" height="1.81"/><rect class="cls-10" x="230.02" y="309.77" width="1.85" height="1.81"/><rect class="cls-10" x="230.61" y="302.12" width="1.85" height="1.81"/><rect class="cls-10" x="230.05" y="269.22" width="1.85" height="1.81"/><rect class="cls-10" x="230.06" y="294.85" width="1.85" height="1.81"/><rect class="cls-10" x="230.1" y="262.45" width="1.85" height="1.81"/><rect class="cls-10" x="230.39" y="287.9" width="1.85" height="1.81"/><rect class="cls-10" x="230.61" y="302.12" width="1.85" height="1.81"/><rect class="cls-10" x="230.02" y="309.77" width="1.85" height="1.81"/><path class="cls-9" d="M231.59,261.54h-2v58.85h3V261.54Zm-1.2,28.17V287.9h1.85v1.81Zm1.52,5.13v1.81h-1.85v-1.81Zm0-11.93H230.1V281.1h1.85Zm-1.85-20.47h1.85v1.81H230.1Zm0,6.77h1.85V271h-1.85Zm1.83,42.37H230v-1.81h1.85Zm.59-7.65h-1.85v-1.81h1.85Z"/><path class="cls-11" d="M229.59,261.54v-2.33h-10.3v61.18h10.35V261.54Zm-3.11,30.16v-2.37h2.31v2.37Zm.16,13.31H229v2.32h-2.31Zm.19-19.49V283.2h2.31v2.32Zm.16-20.87h1.81v1.81H227Zm0,4.57h1.81V271H227Zm-.39,7.8h2.31v2.37h-2.31Zm-1.94-17.2h1.85v1.81h-1.85ZM226,289.33v2.37h-2.31v-2.37Zm-1.83-.77h-2.31v-2.32h2.31Zm-1.87-8.45v2.37H220v-2.37Zm-1.37-3.86V274h2.37v2.2Zm1.27,19.61v2.2h-2.37v-2.2Zm-2.31-4.16v-2.37h2.31v2.37Zm.38,10.22h2.31v2.37h-2.31Zm1.91-37.27H224v1.81h-1.85Zm-2.33-4.83h1.81v1.85h-1.81Zm0,9.4h1.81V271H219.8Zm2.33,44.29h-2.31v-2.37h2.31Zm2-3.15h-2.31V308h2.31Zm.66.77h2.31v2.37h-2.31Zm4.3,5.51H226.8v-2.37h2.31Zm0-15.45h-2.31v-2.37h2.31Z"/><path class="cls-12" d="M226,309.24a1.09,1.09,0,0,0-.49-.24,1,1,0,0,0-.3,0,.84.84,0,0,0-.22,0,.95.95,0,0,0-.92-.55H224a1,1,0,0,0-.66.32l0,0a1,1,0,0,0-1.12.23.92.92,0,0,0-.1.15.8.8,0,0,0-1.18,0,.85.85,0,0,1-.78.88.84.84,0,0,1-.81.91.79.79,0,0,0-.21.59.83.83,0,0,0,0,1.12,1,1,0,0,0,.15,1.27l.05,0a1,1,0,0,0,.22.14.95.95,0,0,0,1.1,1.29.94.94,0,0,0,.3.54,1,1,0,0,0,1.2.05.92.92,0,0,0,.22.3,4.63,4.63,0,0,0,2.31-.14l.08-.11h0a1,1,0,0,0,1.35-.08.93.93,0,0,1,.53-.8.94.94,0,0,1,.47-.95,1,1,0,0,0,.23-.54,1,1,0,0,0-.14-1h0a.95.95,0,0,1,0-.82,1,1,0,0,0-.19-.51h0a1,1,0,0,0-.1-.38,1,1,0,0,0-.26-1.05.94.94,0,0,1-.62-.73Z"/><path class="cls-13" d="M225.23,313.7l-.29-.1.13-.1a.19.19,0,0,0-.25-.29l-1.08.88v-1.67a.34.34,0,0,0-.67,0v.85l-.71-.55a.19.19,0,0,0-.23.3l.95.73v1.88l-1.12-1-.17-1a.19.19,0,0,0-.38.06l.09.59-.31-.26a.19.19,0,1,0-.26.28l2.14,1.82v3.92a.34.34,0,0,0,.67,0v-5.47l.85-.69.52.18h.06a.19.19,0,0,0,.06-.37Z"/><path class="cls-12" d="M199.75,309.24a1.09,1.09,0,0,0-.49-.24,1,1,0,0,0-.3,0,.84.84,0,0,0-.22,0,.95.95,0,0,0-.92-.55h-.1a1,1,0,0,0-.66.32l0,0a1,1,0,0,0-1.12.23.91.91,0,0,0-.1.15.8.8,0,0,0-1.18,0,.85.85,0,0,1-.78.88.84.84,0,0,1-.81.91.78.78,0,0,0-.21.59.83.83,0,0,0,0,1.12A1,1,0,0,0,193,314l.05,0a1,1,0,0,0,.22.14.95.95,0,0,0,1.1,1.29.94.94,0,0,0,.3.54,1,1,0,0,0,1.2.05.92.92,0,0,0,.22.3,4.63,4.63,0,0,0,2.31-.14l.08-.11h0a1,1,0,0,0,1.35-.08.93.93,0,0,1,.53-.8.94.94,0,0,1,.47-.95,1,1,0,0,0,.23-.54,1,1,0,0,0-.14-1h0a.95.95,0,0,1,0-.82,1,1,0,0,0-.19-.51h0a1,1,0,0,0-.1-.38,1,1,0,0,0-.26-1.05.94.94,0,0,0-.32-.18A.93.93,0,0,0,199.75,309.24Z"/><path class="cls-13" d="M198.95,313.7l-.29-.1.13-.1a.19.19,0,0,0-.25-.29l-1.08.88v-1.67a.34.34,0,0,0-.67,0v.85l-.71-.55a.19.19,0,0,0-.24.3l.95.73v1.88l-1.12-1-.17-1a.19.19,0,1,0-.38.06l.09.59-.31-.26a.19.19,0,1,0-.26.28l2.14,1.82v3.92a.34.34,0,0,0,.67,0v-5.47l.85-.69.52.18h.06a.19.19,0,0,0,.06-.37Z"/><rect class="cls-14" x="273.53" y="265.34" width="12.47" height="55.05"/><rect class="cls-7" x="275.13" y="270.78" width="8.96" height="1.75"/><rect class="cls-14" x="275.13" y="276.68" width="8.96" height="1.75"/><rect class="cls-14" x="275.13" y="282.58" width="8.96" height="1.75"/><rect class="cls-14" x="275.13" y="288.48" width="8.96" height="1.75"/><rect class="cls-7" x="275.13" y="294.39" width="8.96" height="1.75"/><rect class="cls-14" x="275.13" y="300.29" width="8.96" height="1.75"/><rect class="cls-7" x="275.13" y="306.19" width="8.96" height="1.75"/><rect class="cls-14" x="275.13" y="312.09" width="8.96" height="1.75"/><rect class="cls-5" x="273.53" y="265.34" width="12.47" height="55.05"/><rect class="cls-15" x="275.13" y="270.78" width="8.96" height="1.75"/><rect class="cls-15" x="275.13" y="276.68" width="8.96" height="1.75"/><rect class="cls-15" x="275.13" y="282.58" width="8.96" height="1.75"/><rect class="cls-15" x="275.13" y="288.48" width="8.96" height="1.75"/><rect class="cls-15" x="275.13" y="294.39" width="8.96" height="1.75"/><rect class="cls-15" x="275.13" y="300.29" width="8.96" height="1.75"/><rect class="cls-15" x="275.13" y="306.19" width="8.96" height="1.75"/><rect class="cls-15" x="275.13" y="312.09" width="8.96" height="1.75"/><polygon class="cls-16" points="273.54 275.4 264.38 284.49 264.38 320.39 273.54 320.39 273.54 275.4"/><rect class="cls-7" x="264.87" y="287.85" width="1.14" height="3.2"/><rect class="cls-7" x="266.63" y="287.85" width="1.14" height="3.2"/><rect class="cls-7" x="268.39" y="287.85" width="1.14" height="3.2"/><rect class="cls-7" x="270.15" y="287.85" width="1.14" height="3.2"/><rect class="cls-7" x="271.91" y="287.85" width="1.14" height="3.2"/><rect class="cls-7" x="264.87" y="291.95" width="1.14" height="3.2"/><rect class="cls-7" x="266.63" y="291.95" width="1.14" height="3.2"/><rect class="cls-7" x="268.39" y="291.95" width="1.14" height="3.2"/><rect class="cls-7" x="270.15" y="291.95" width="1.14" height="3.2"/><rect class="cls-7" x="271.91" y="291.95" width="1.14" height="3.2"/><rect class="cls-7" x="264.87" y="296.05" width="1.14" height="3.2"/><rect class="cls-7" x="266.63" y="296.05" width="1.14" height="3.2"/><rect class="cls-7" x="268.39" y="296.05" width="1.14" height="3.2"/><rect class="cls-7" x="270.15" y="296.05" width="1.14" height="3.2"/><rect class="cls-7" x="271.91" y="296.05" width="1.14" height="3.2"/><rect class="cls-7" x="264.87" y="300.14" width="1.14" height="3.2"/><rect class="cls-7" x="266.63" y="300.14" width="1.14" height="3.2"/><rect class="cls-7" x="268.39" y="300.14" width="1.14" height="3.2"/><rect class="cls-7" x="270.15" y="300.14" width="1.14" height="3.2"/><rect class="cls-7" x="271.91" y="300.14" width="1.14" height="3.2"/><rect class="cls-7" x="264.87" y="304.24" width="1.14" height="3.2"/><rect class="cls-7" x="266.63" y="304.24" width="1.14" height="3.2"/><rect class="cls-7" x="268.39" y="304.24" width="1.14" height="3.2"/><rect class="cls-7" x="270.15" y="304.24" width="1.14" height="3.2"/><rect class="cls-7" x="271.91" y="304.24" width="1.14" height="3.2"/><rect class="cls-7" x="264.87" y="308.34" width="1.14" height="3.2"/><rect class="cls-7" x="266.63" y="308.34" width="1.14" height="3.2"/><rect class="cls-7" x="268.39" y="308.34" width="1.14" height="3.2"/><rect class="cls-7" x="270.15" y="308.34" width="1.14" height="3.2"/><rect class="cls-7" x="271.91" y="308.34" width="1.14" height="3.2"/><rect class="cls-7" x="264.87" y="312.44" width="1.14" height="3.2"/><rect class="cls-7" x="266.63" y="312.44" width="1.14" height="3.2"/><rect class="cls-7" x="268.39" y="312.44" width="1.14" height="3.2"/><rect class="cls-7" x="270.15" y="312.44" width="1.14" height="3.2"/><rect class="cls-7" x="271.91" y="312.44" width="1.14" height="3.2"/><polygon class="cls-16" points="285.9 275.4 295.06 284.49 295.06 320.39 285.9 320.39 285.9 275.4"/><rect class="cls-7" x="293.44" y="287.85" width="1.14" height="3.2"/><rect class="cls-7" x="291.67" y="287.85" width="1.14" height="3.2"/><rect class="cls-7" x="289.91" y="287.85" width="1.14" height="3.2"/><rect class="cls-7" x="288.15" y="287.85" width="1.14" height="3.2"/><rect class="cls-7" x="286.39" y="287.85" width="1.14" height="3.2"/><rect class="cls-7" x="293.44" y="291.95" width="1.14" height="3.2"/><rect class="cls-7" x="291.67" y="291.95" width="1.14" height="3.2"/><rect class="cls-7" x="289.91" y="291.95" width="1.14" height="3.2"/><rect class="cls-7" x="288.15" y="291.95" width="1.14" height="3.2"/><rect class="cls-7" x="286.39" y="291.95" width="1.14" height="3.2"/><rect class="cls-7" x="293.44" y="296.05" width="1.14" height="3.2"/><rect class="cls-7" x="291.67" y="296.05" width="1.14" height="3.2"/><rect class="cls-7" x="289.91" y="296.05" width="1.14" height="3.2"/><rect class="cls-7" x="288.15" y="296.05" width="1.14" height="3.2"/><rect class="cls-7" x="286.39" y="296.05" width="1.14" height="3.2"/><rect class="cls-7" x="293.44" y="300.14" width="1.14" height="3.2"/><rect class="cls-7" x="291.67" y="300.14" width="1.14" height="3.2"/><rect class="cls-7" x="289.91" y="300.14" width="1.14" height="3.2"/><rect class="cls-7" x="288.15" y="300.14" width="1.14" height="3.2"/><rect class="cls-7" x="286.39" y="300.14" width="1.14" height="3.2"/><rect class="cls-7" x="293.44" y="304.24" width="1.14" height="3.2"/><rect class="cls-7" x="291.67" y="304.24" width="1.14" height="3.2"/><rect class="cls-7" x="289.91" y="304.24" width="1.14" height="3.2"/><rect class="cls-7" x="288.15" y="304.24" width="1.14" height="3.2"/><rect class="cls-7" x="286.39" y="304.24" width="1.14" height="3.2"/><rect class="cls-7" x="293.44" y="308.34" width="1.14" height="3.2"/><rect class="cls-7" x="291.67" y="308.34" width="1.14" height="3.2"/><rect class="cls-7" x="289.91" y="308.34" width="1.14" height="3.2"/><rect class="cls-7" x="288.15" y="308.34" width="1.14" height="3.2"/><rect class="cls-7" x="286.39" y="308.34" width="1.14" height="3.2"/><rect class="cls-7" x="293.44" y="312.44" width="1.14" height="3.2"/><rect class="cls-7" x="291.67" y="312.44" width="1.14" height="3.2"/><rect class="cls-7" x="289.91" y="312.44" width="1.14" height="3.2"/><rect class="cls-7" x="288.15" y="312.44" width="1.14" height="3.2"/><rect class="cls-7" x="286.39" y="312.44" width="1.14" height="3.2"/><rect class="cls-2" x="137.9" y="294.36" width="10.22" height="22.41"/><rect class="cls-2" x="120.6" y="294.47" width="10.1" height="23.11"/><rect class="cls-2" x="131.52" y="310.73" width="5.81" height="8.94"/><path class="cls-3" d="M120,290.6v29.61h28.72V293.07l-11.41-2.47v8.77h-5.89v-6.3Zm25.38,22.27h2v3h-2Zm0-4.29h2v3h-2v-3Zm0-4.28h2v3h-2v-3Zm0-4.28h2v3h-2v-3Zm0-4.28h2v3h-2v-3ZM142,312.87h2v3h-2Zm0-4.29h2v3h-2v-3Zm0-4.28h2v3h-2v-3Zm0-4.28h2v3h-2v-3Zm0-4.28h2v3h-2v-3Zm-3.39,17.13h2v3h-2Zm0-4.29h2v3h-2Zm0-4.28h2v3h-2Zm0-4.28h2v3h-2Zm0-4.28h2v3h-2Zm-6.29,16.58h4.11v6.92h-4.11Zm-4.23.55h2v3h-2Zm0-4.29h2v3h-2v-3Zm0-4.28h2v3h-2v-3Zm0-4.28h2v3h-2v-3Zm0-4.28h2v3h-2v-3Zm-3.39,17.13h2v3h-2Zm0-4.29h2v3h-2v-3Zm0-4.28h2v3h-2v-3Zm0-4.28h2v3h-2v-3Zm0-4.28h2v3h-2v-3Zm-3.39,17.13h2v3h-2Zm0-4.29h2v3h-2Zm0-4.28h2v3h-2Zm0-4.28h2v3h-2Zm0-4.28h2v3h-2Z"/><rect class="cls-4" x="93.08" y="276.03" width="27.15" height="44.18"/><path class="cls-5" d="M91.76,271.95v48.27h11.43V308.33h7.45v11.89h11.43V271.95H98.51v-1.86H94.2v1.86Zm20.94,31.93h7.22v2.23h-7.22Zm0-3.56h7.22v2.23h-7.22Zm0-3.56h7.22V299h-7.22Zm0-3.38h7.22v2.23h-7.22Zm0-8.82h7.22v2.23h-7.22Zm0-3.56h7.22v2.23h-7.22Zm0-3.56h7.22v2.23h-7.22Zm-9.39,26.46h7.22v2.23h-7.22Zm0-3.56h7.22v2.23h-7.22Zm0-3.56h7.22V299h-7.22Zm0-3.38h7.22v2.23h-7.22Zm0-8.82h7.22v2.23h-7.22Zm0-3.56h7.22v2.23h-7.22Zm0-3.56h7.22v2.23h-7.22Zm-9.39,26.46h7.22v2.23H93.92Zm0-3.56h7.22v2.23H93.92Zm0-3.56h7.22V299H93.92Zm0-3.38h7.22v2.23H93.92Zm0-8.82h7.22v2.23H93.92Zm0-3.56h7.22v2.23H93.92Zm0-3.56h7.22v2.23H93.92Z"/><path class="cls-3" d="M78.52,286.37v33.84H92V286.37Zm7.86,25.8h3.86V316H86.38Zm0-5h3.86v3.86H86.38Zm0-5h3.86v3.86H86.38Zm0-5h3.86v3.86H86.38Zm0-5h3.86v3.86H86.38Zm0-5h3.86v3.86H86.38Zm-6.12,24.76h3.86V316H80.26Zm0-5h3.86v3.86H80.26Zm0-5h3.86v3.86H80.26Zm0-5h3.86v3.86H80.26Zm0-5h3.86v3.86H80.26Zm0-5h3.86v3.86H80.26Z"/><polygon class="cls-4" points="54.05 292.31 54.65 320.22 36.35 320.22 36.35 291.62 43.03 283.36 47.16 284.25 54.05 292.31"/><rect class="cls-6" x="54.65" y="302.8" width="19.4" height="17.42"/><rect class="cls-7" x="69.82" y="305.59" width="2.94" height="2.94"/><rect class="cls-7" x="65.19" y="305.59" width="2.94" height="2.94"/><rect class="cls-7" x="60.56" y="305.59" width="2.94" height="2.94"/><rect class="cls-7" x="55.93" y="305.59" width="2.94" height="2.94"/><rect class="cls-7" x="69.82" y="309.99" width="2.94" height="2.94"/><rect class="cls-7" x="65.19" y="309.99" width="2.94" height="2.94"/><rect class="cls-7" x="60.56" y="309.99" width="2.94" height="2.94"/><rect class="cls-7" x="55.93" y="309.99" width="2.94" height="2.94"/><rect class="cls-7" x="69.82" y="314.48" width="2.94" height="2.94"/><rect class="cls-7" x="65.19" y="314.48" width="2.94" height="2.94"/><rect class="cls-7" x="60.56" y="314.48" width="2.94" height="2.94"/><rect class="cls-7" x="55.93" y="314.48" width="2.94" height="2.94"/><path class="cls-8" d="M35.58,291.12v29.09H54.85V291.12l-5.57-7.57v-2H41.15v2Zm11-1.25H43.81v-4.35h2.81Zm-4.26,22.28h5.71v7.69H42.36Zm-5.47-3.89H53.55v2.9H36.89Zm0-5H53.55v2.9H36.89Zm0-5H53.55v2.9H36.89Zm0-5H53.55V296H36.89Z"/><rect class="cls-7" x="71.83" y="259.02" width="7.74" height="4.34"/><rect class="cls-7" x="66.42" y="261.36" width="16" height="57.95"/><polygon class="cls-9" points="72.98 253.56 74.14 253.56 74.14 242.61 75.01 242.61 75.01 253.56 76.26 253.56 76.26 259.04 72.98 259.04 72.98 253.56"/><rect class="cls-10" x="79.88" y="266.8" width="1.81" height="1.81"/><rect class="cls-10" x="79.88" y="262.27" width="1.81" height="1.81"/><rect class="cls-10" x="79.88" y="266.8" width="1.81" height="1.81"/><rect class="cls-10" x="79.88" y="262.27" width="1.81" height="1.81"/><rect class="cls-10" x="80.24" y="272.1" width="1.85" height="1.81"/><rect class="cls-10" x="79.88" y="266.8" width="1.81" height="1.81"/><rect class="cls-10" x="79.98" y="281.63" width="1.85" height="1.81"/><rect class="cls-10" x="79.88" y="262.27" width="1.81" height="1.81"/><rect class="cls-10" x="80.24" y="272.1" width="1.85" height="1.81"/><rect class="cls-10" x="80.24" y="291.05" width="1.85" height="1.81"/><rect class="cls-10" x="79.98" y="281.63" width="1.85" height="1.81"/><rect class="cls-10" x="80.24" y="272.1" width="1.85" height="1.81"/><rect class="cls-10" x="79.88" y="266.8" width="1.81" height="1.81"/><rect class="cls-10" x="79.88" y="262.27" width="1.81" height="1.81"/><rect class="cls-10" x="79.98" y="281.63" width="1.85" height="1.81"/><rect class="cls-10" x="80.24" y="272.1" width="1.85" height="1.81"/><rect class="cls-10" x="80.24" y="291.05" width="1.85" height="1.81"/><rect class="cls-10" x="80.39" y="299.66" width="1.85" height="1.81"/><rect class="cls-10" x="79.88" y="266.8" width="1.81" height="1.81"/><rect class="cls-10" x="79.88" y="262.27" width="1.81" height="1.81"/><path class="cls-9" d="M79.79,261.37v58.85h2.64V261.37Zm2.3,12.54H80.24V272.1h1.85Zm0,19H80.24v-1.81h1.85Zm.15,8.61H80.39v-1.81h1.85ZM80,308h1.85v1.81H80Zm0-26.34h1.85v1.81H80Zm-.1-19.36h1.81v1.81H79.88Z"/><rect class="cls-10" x="67.17" y="269.04" width="1.85" height="1.81"/><rect class="cls-10" x="67.12" y="262.27" width="1.85" height="1.81"/><rect class="cls-10" x="67.2" y="309.6" width="1.85" height="1.81"/><rect class="cls-10" x="67.17" y="269.04" width="1.85" height="1.81"/><rect class="cls-10" x="67.12" y="262.27" width="1.85" height="1.81"/><rect class="cls-10" x="67.17" y="269.04" width="1.85" height="1.81"/><rect class="cls-10" x="67.12" y="262.27" width="1.85" height="1.81"/><rect class="cls-10" x="67.2" y="309.6" width="1.85" height="1.81"/><rect class="cls-10" x="66.61" y="301.95" width="1.85" height="1.81"/><rect class="cls-10" x="67.12" y="262.27" width="1.85" height="1.81"/><rect class="cls-10" x="67.16" y="294.67" width="1.85" height="1.81"/><rect class="cls-10" x="67.17" y="269.04" width="1.85" height="1.81"/><rect class="cls-10" x="67.2" y="309.6" width="1.85" height="1.81"/><rect class="cls-10" x="66.61" y="301.95" width="1.85" height="1.81"/><rect class="cls-10" x="67.17" y="269.04" width="1.85" height="1.81"/><rect class="cls-10" x="67.16" y="294.67" width="1.85" height="1.81"/><rect class="cls-10" x="67.12" y="262.27" width="1.85" height="1.81"/><rect class="cls-10" x="66.83" y="287.73" width="1.85" height="1.81"/><rect class="cls-10" x="66.61" y="301.95" width="1.85" height="1.81"/><rect class="cls-10" x="67.2" y="309.6" width="1.85" height="1.81"/><path class="cls-9" d="M66.43,261.37v58.85h3V261.37h-3Zm.4,28.17v-1.81h1.85v1.81ZM69,294.67v1.81H67.16v-1.81Zm-1.89-13.74H69v1.81H67.12ZM69,264.09H67.12v-1.81H69Zm0,6.77H67.17V269H69ZM67.2,309.6h1.85v1.81H67.2ZM66.61,302h1.85v1.81H66.61Z"/><path class="cls-11" d="M69.44,261.37v58.85H79.79V259H69.49v2.33Zm.84,30.16v-2.37h2.31v2.37Zm2.15,15.63H70.12v-2.32h2.31Zm-2.51-21.81V283h2.31v2.32Zm2.15-19.06H70.26v-1.81h1.81Zm0,4.57H70.26V269h1.81Zm.39,8.36H70.15v-2.37h2.31Zm1.94-17.76H72.55v-1.81H74.4Zm1,27.7v2.37H73.09v-2.37Zm-.48-3.09h2.31v2.32H74.92Zm4.18-6.13v2.37H76.78v-2.37Zm-3.31-3.86v-2.2h2.37v2.2Zm3.46,19.61v2.2H76.88v-2.2Zm-2.37-4.16v-2.37h2.31v2.37Zm1.93,12.59H76.5v-2.37h2.31ZM76.9,266.28H75v-1.81H76.9Zm2.33-4.79H77.42v-1.85h1.81Zm0,9.36H77.46V269h1.81ZM76.95,311h2.31v2.37H76.95Zm-2-3.09h2.31v2.32H74.92Zm-.66,5.47H71.94V311h2.31Zm-4.3.76h2.31v2.37H70Zm0-15.45h2.31V301H69.93Z"/><path class="cls-12" d="M74,309.07a1.09,1.09,0,0,1,.49-.24,1,1,0,0,1,.3,0,.84.84,0,0,1,.22,0,.95.95,0,0,1,.92-.55h.1a1,1,0,0,1,.66.32l0,0a1,1,0,0,1,1.12.23.92.92,0,0,1,.1.15.8.8,0,0,1,1.18,0,.85.85,0,0,0,.78.88.84.84,0,0,0,.81.91.79.79,0,0,1,.21.59.83.83,0,0,1,0,1.12,1,1,0,0,1-.15,1.27l-.05,0a1,1,0,0,1-.22.14.95.95,0,0,1-1.1,1.29.94.94,0,0,1-.3.54,1,1,0,0,1-1.2.05.92.92,0,0,1-.22.3,1,1,0,0,1-1.16.08,1,1,0,0,1-1.15-.22l-.08-.11h0a1,1,0,0,1-1.35-.08.93.93,0,0,0-.53-.8.94.94,0,0,0-.47-.95,1,1,0,0,1-.23-.54,1,1,0,0,1,.14-1h0a.95.95,0,0,0,0-.82,1,1,0,0,1,.19-.51h0a1,1,0,0,1,.1-.38,1,1,0,0,1,.26-1.05.94.94,0,0,0,.62-.73Z"/><path class="cls-13" d="M74.84,313.53l.29-.1-.13-.1a.19.19,0,0,1,.25-.29l1.08.88v-1.67a.34.34,0,0,1,.67,0v.85l.71-.55a.19.19,0,0,1,.23.3l-.95.73v1.88l1.12-1,.17-1a.19.19,0,0,1,.38.06l-.09.59.31-.26a.19.19,0,1,1,.26.28L77,316v3.92a.34.34,0,0,1-.67,0v-5.47l-.85-.69-.52.18H74.9a.19.19,0,0,1-.06-.37Z"/><path class="cls-12" d="M100.32,309.07a1.09,1.09,0,0,1,.49-.24,1,1,0,0,1,.3,0,.84.84,0,0,1,.22,0,.95.95,0,0,1,.92-.55h.1a1,1,0,0,1,.66.32l0,0a1,1,0,0,1,1.12.23.91.91,0,0,1,.1.15.8.8,0,0,1,1.18,0,.85.85,0,0,0,.78.88.84.84,0,0,0,.81.91.78.78,0,0,1,.21.59.83.83,0,0,1,0,1.12,1,1,0,0,1-.15,1.27l-.05,0a1,1,0,0,1-.22.14.95.95,0,0,1-1.1,1.29.94.94,0,0,1-.3.54,1,1,0,0,1-1.2.05.92.92,0,0,1-.22.3,4.63,4.63,0,0,1-2.31-.14l-.08-.11h0a1,1,0,0,1-1.35-.08.93.93,0,0,0-.53-.8.94.94,0,0,0-.47-.95,1,1,0,0,1-.23-.54,1,1,0,0,1,.14-1h0a.95.95,0,0,0,0-.82,1,1,0,0,1,.19-.51h0a1,1,0,0,1,.1-.38,1,1,0,0,1,.26-1.05.94.94,0,0,1,.32-.18A.93.93,0,0,1,100.32,309.07Z"/><path class="cls-13" d="M101.13,313.53l.29-.1-.13-.1a.19.19,0,0,1,.25-.29l1.08.88v-1.67a.34.34,0,0,1,.67,0v.85l.71-.55a.19.19,0,0,1,.24.3l-.95.73v1.88l1.12-1,.17-1a.19.19,0,1,1,.38.06l-.09.59.31-.26a.19.19,0,1,1,.26.28L103.29,316v3.92a.34.34,0,0,1-.67,0v-5.47l-.85-.69-.52.18h-.06a.19.19,0,0,1-.06-.37Z"/><rect class="cls-14" x="14.07" y="265.16" width="12.47" height="55.05"/><rect class="cls-7" x="15.98" y="270.61" width="8.96" height="1.75"/><rect class="cls-14" x="15.98" y="276.51" width="8.96" height="1.75"/><rect class="cls-14" x="15.98" y="282.41" width="8.96" height="1.75"/><rect class="cls-14" x="15.98" y="288.31" width="8.96" height="1.75"/><rect class="cls-7" x="15.98" y="294.21" width="8.96" height="1.75"/><rect class="cls-14" x="15.98" y="300.12" width="8.96" height="1.75"/><rect class="cls-7" x="15.98" y="306.02" width="8.96" height="1.75"/><rect class="cls-14" x="15.98" y="311.92" width="8.96" height="1.75"/><rect class="cls-5" x="14.07" y="265.16" width="12.47" height="55.05"/><rect class="cls-15" x="15.98" y="270.61" width="8.96" height="1.75"/><rect class="cls-15" x="15.98" y="276.51" width="8.96" height="1.75"/><rect class="cls-15" x="15.98" y="282.41" width="8.96" height="1.75"/><rect class="cls-15" x="15.98" y="288.31" width="8.96" height="1.75"/><rect class="cls-15" x="15.98" y="294.21" width="8.96" height="1.75"/><rect class="cls-15" x="15.98" y="300.12" width="8.96" height="1.75"/><rect class="cls-15" x="15.98" y="306.02" width="8.96" height="1.75"/><rect class="cls-15" x="15.98" y="311.92" width="8.96" height="1.75"/><polygon class="cls-16" points="26.54 275.23 35.7 284.32 35.7 320.22 26.54 320.22 26.54 275.23"/><rect class="cls-7" x="34.07" y="287.68" width="1.14" height="3.2"/><rect class="cls-7" x="32.31" y="287.68" width="1.14" height="3.2"/><rect class="cls-7" x="30.55" y="287.68" width="1.14" height="3.2"/><rect class="cls-7" x="28.78" y="287.68" width="1.14" height="3.2"/><rect class="cls-7" x="27.02" y="287.68" width="1.14" height="3.2"/><rect class="cls-7" x="34.07" y="291.77" width="1.14" height="3.2"/><rect class="cls-7" x="32.31" y="291.77" width="1.14" height="3.2"/><rect class="cls-7" x="30.55" y="291.77" width="1.14" height="3.2"/><rect class="cls-7" x="28.78" y="291.77" width="1.14" height="3.2"/><rect class="cls-7" x="27.02" y="291.77" width="1.14" height="3.2"/><rect class="cls-7" x="34.07" y="295.87" width="1.14" height="3.2"/><rect class="cls-7" x="32.31" y="295.87" width="1.14" height="3.2"/><rect class="cls-7" x="30.55" y="295.87" width="1.14" height="3.2"/><rect class="cls-7" x="28.78" y="295.87" width="1.14" height="3.2"/><rect class="cls-7" x="27.02" y="295.87" width="1.14" height="3.2"/><rect class="cls-7" x="34.07" y="299.97" width="1.14" height="3.2"/><rect class="cls-7" x="32.31" y="299.97" width="1.14" height="3.2"/><rect class="cls-7" x="30.55" y="299.97" width="1.14" height="3.2"/><rect class="cls-7" x="28.78" y="299.97" width="1.14" height="3.2"/><rect class="cls-7" x="27.02" y="299.97" width="1.14" height="3.2"/><rect class="cls-7" x="34.07" y="304.07" width="1.14" height="3.2"/><rect class="cls-7" x="32.31" y="304.07" width="1.14" height="3.2"/><rect class="cls-7" x="30.55" y="304.07" width="1.14" height="3.2"/><rect class="cls-7" x="28.78" y="304.07" width="1.14" height="3.2"/><rect class="cls-7" x="27.02" y="304.07" width="1.14" height="3.2"/><rect class="cls-7" x="34.07" y="308.16" width="1.14" height="3.2"/><rect class="cls-7" x="32.31" y="308.16" width="1.14" height="3.2"/><rect class="cls-7" x="30.55" y="308.16" width="1.14" height="3.2"/><rect class="cls-7" x="28.78" y="308.16" width="1.14" height="3.2"/><rect class="cls-7" x="27.02" y="308.16" width="1.14" height="3.2"/><rect class="cls-7" x="34.07" y="312.26" width="1.14" height="3.2"/><rect class="cls-7" x="32.31" y="312.26" width="1.14" height="3.2"/><rect class="cls-7" x="30.55" y="312.26" width="1.14" height="3.2"/><rect class="cls-7" x="28.78" y="312.26" width="1.14" height="3.2"/><rect class="cls-7" x="27.02" y="312.26" width="1.14" height="3.2"/><polygon class="cls-16" points="14.17 275.23 5.01 284.32 5.01 320.22 14.17 320.22 14.17 275.23"/><rect class="cls-7" x="5.5" y="287.68" width="1.14" height="3.2"/><rect class="cls-7" x="7.26" y="287.68" width="1.14" height="3.2"/><rect class="cls-7" x="9.02" y="287.68" width="1.14" height="3.2"/><rect class="cls-7" x="10.78" y="287.68" width="1.14" height="3.2"/><rect class="cls-7" x="12.55" y="287.68" width="1.14" height="3.2"/><rect class="cls-7" x="5.5" y="291.77" width="1.14" height="3.2"/><rect class="cls-7" x="7.26" y="291.77" width="1.14" height="3.2"/><rect class="cls-7" x="9.02" y="291.77" width="1.14" height="3.2"/><rect class="cls-7" x="10.78" y="291.77" width="1.14" height="3.2"/><rect class="cls-7" x="12.55" y="291.77" width="1.14" height="3.2"/><rect class="cls-7" x="5.5" y="295.87" width="1.14" height="3.2"/><rect class="cls-7" x="7.26" y="295.87" width="1.14" height="3.2"/><rect class="cls-7" x="9.02" y="295.87" width="1.14" height="3.2"/><rect class="cls-7" x="10.78" y="295.87" width="1.14" height="3.2"/><rect class="cls-7" x="12.55" y="295.87" width="1.14" height="3.2"/><rect class="cls-7" x="5.5" y="299.97" width="1.14" height="3.2"/><rect class="cls-7" x="7.26" y="299.97" width="1.14" height="3.2"/><rect class="cls-7" x="9.02" y="299.97" width="1.14" height="3.2"/><rect class="cls-7" x="10.78" y="299.97" width="1.14" height="3.2"/><rect class="cls-7" x="12.55" y="299.97" width="1.14" height="3.2"/><rect class="cls-7" x="5.5" y="304.07" width="1.14" height="3.2"/><rect class="cls-7" x="7.26" y="304.07" width="1.14" height="3.2"/><rect class="cls-7" x="9.02" y="304.07" width="1.14" height="3.2"/><rect class="cls-7" x="10.78" y="304.07" width="1.14" height="3.2"/><rect class="cls-7" x="12.55" y="304.07" width="1.14" height="3.2"/><rect class="cls-7" x="5.5" y="308.16" width="1.14" height="3.2"/><rect class="cls-7" x="7.26" y="308.16" width="1.14" height="3.2"/><rect class="cls-7" x="9.02" y="308.16" width="1.14" height="3.2"/><rect class="cls-7" x="10.78" y="308.16" width="1.14" height="3.2"/><rect class="cls-7" x="12.55" y="308.16" width="1.14" height="3.2"/><rect class="cls-7" x="5.5" y="312.26" width="1.14" height="3.2"/><rect class="cls-7" x="7.26" y="312.26" width="1.14" height="3.2"/><rect class="cls-7" x="9.02" y="312.26" width="1.14" height="3.2"/><rect class="cls-7" x="10.78" y="312.26" width="1.14" height="3.2"/><rect class="cls-7" x="12.55" y="312.26" width="1.14" height="3.2"/></svg>