<svg id="圖層_1" data-name="圖層 1" xmlns="http://www.w3.org/2000/svg" viewBox="0 0 500 500"><defs><style>.cls-1{fill:#31aee5;}.cls-2{fill:#6fba42;}</style></defs><title>魚菜V2</title><g id="_群組_" data-name="&lt;群組&gt;"><circle id="_路徑_" data-name="&lt;路徑&gt;" class="cls-1" cx="250" cy="250" r="220.23"/><g id="_群組_2" data-name="&lt;群組&gt;"><g id="_群組_3" data-name="&lt;群組&gt;"><path class="cls-2" d="M43.57,173.12c.13,1.87.34,3.73.62,5.58.8,5.15,2.38,10.44,6.06,14.13,9.93,9.92,27.81,2.76,40.17,9.41,3,1.59,5.52,3.95,8.7,5A12.18,12.18,0,0,0,112.48,203c2.51-3.43,3-7.88,4.37-11.89,2.33-6.77,7.21-12.3,12-17.64,2.16-2.42,4.37-4.88,7.21-6.46,10.39-5.78,23.26,2.51,35,.86,13.67-1.91,21.92-16.65,23.71-30.34s-.62-27.78,2.16-41.3A54.82,54.82,0,0,1,207,74.12c2.46-3.21,5.37-6.36,6.14-10.33s-1.91-8.92-5.95-8.66c-2.15.14-3.92,1.66-5.52,3.1L184.12,74.1c-4,3.63-10,7.41-14.34,4.16s-2.37-10-1.74-15.37a24.27,24.27,0,0,0-3.75-15.82A220.93,220.93,0,0,0,43.57,173.12Z"/></g><g id="_群組_4" data-name="&lt;群組&gt;"><path class="cls-2" d="M228.91,62.58c-8.05,5-10.86,16.59-6.76,25.16,1.27,2.66,3.08,5.92,1.28,8.26a8.67,8.67,0,0,1-3.13,2.06c-7.2,3.71-10.5,13.49-7,20.81,1.61,3.41,4.53,6.64,3.92,10.36-.47,2.91-3,5.08-3.79,7.92-1.48,5.41,4.42,10.53,10,10.52S234,144.29,238.57,141l9.67-6.85c6.28-4.45,12.59-8.92,18.14-14.27a77.15,77.15,0,0,0,21.81-39.44l-.39.25c-2.38-3.93-7.13-5.9-11.72-6.21s-9.13.8-13.64,1.68a8.13,8.13,0,0,1-4.21.06c-2.82-1-3.69-4.41-5-7.1C249.21,60.58,237,57.53,228.91,62.58Z"/></g><g id="_群組_5" data-name="&lt;群組&gt;"><path class="cls-2" d="M414.75,103.88a15.71,15.71,0,0,1-6.39,3.41c-5.9,1.46-11.94-1.18-18-1.92-7.32-.9-14.66,1-21.79,2.94-6.15,1.65-12.56,3.44-17.23,7.77s-6.85,12.05-3.06,17.17c4.57,6.16,15.37,6.05,18.3,13.14,2.42,5.84-2.37,12-6.8,16.49-6.09,6.21-12.31,12.52-20,16.61-3.7,2-7.72,3.42-11.08,5.93a21.17,21.17,0,0,0-8.32,15.85A39.8,39.8,0,0,0,295,209c-2,1.46-3.91,3.39-4,5.82a6.31,6.31,0,0,0,3,5.05c5.87,4.06,13.75,1,20.6-1A58.79,58.79,0,0,1,337.5,217a18,18,0,0,1,7.85,2.35,10.54,10.54,0,0,1-6.57,19.35C302.13,235.77,266,254.23,246,285.08c-4.76,7.35-8.68,16.16-6.58,24.67,3.55,14.4,21.8,20.16,28.32,33.48,1,2,1.76,4.25,3.58,5.53s4,1.26,6.06,1.25c18.36,0,39.12.05,51.76,13.37,5.79,6.1,8.93,14.18,11.94,22l12.71,33.19a10.85,10.85,0,0,1,1,4.8c-.23,2.45-2,4.39-3.48,6.39-3.82,5.35-5.13,11.83-5.48,18.49a220.23,220.23,0,0,0,37.85-23.35c.28-9.78.55-19.55,4.09-28.58,4.21-10.74,12.59-19.2,19.57-28.39s12.88-20.47,10.81-31.82c-1.17-6.39-4.74-12-7.24-18s-3.86-13.15-.66-18.8c1.65-2.91,4.33-5.08,6.42-7.7a22.64,22.64,0,0,0-14.34-36.52c-6.63-1-13.51,1-20.06-.48s-12-6.29-17-10.92c-2.59-2.38-5.4-5.39-4.85-8.87.47-2.91,3.12-4.85,5.17-7A21.28,21.28,0,0,0,371,208.41l24.47,9.22c3.07,1.16,6.36,2.49,8.07,5.3,2.55,4.21.49,10,2.69,14.36,2,4.08,7.07,5.69,11.63,5.77s9.12-1,13.64-.39c11.12,1.41,19.23,13.33,17.9,24.46-1.16,9.63-7.89,17.72-10.16,27.15a30.87,30.87,0,0,0,11.41,31.28,24.93,24.93,0,0,0,5.18,2.91,220.41,220.41,0,0,0-41.07-224.6Z"/></g><g id="_群組_6" data-name="&lt;群組&gt;"><path class="cls-2" d="M316.37,158.16c-1.19,1.92-2.44,4-2.14,6.28.47,3.56,4.52,5.48,8.1,5.8a21.36,21.36,0,0,0,19.73-10c6.9-11.39-4.77-10.64-11.51-14.2,0-.1-.13-.14-.28-.16a11.4,11.4,0,0,1-1-.61l.53.64a26.49,26.49,0,0,0-5.95,2.61C320.71,151,318.45,154.83,316.37,158.16Z"/></g><g id="_群組_7" data-name="&lt;群組&gt;"><path class="cls-2" d="M105.87,260.76a7,7,0,0,0,1.88,1.07c2.12.76,6.4-.7,8.9-.42,3.88.43,7.28,2.56,11.31,1.44a3.39,3.39,0,0,0,1.82-1.05c.82-1,.49-2.56-.06-3.76-2.84-6.21-9.84-9.09-15.62-12.73a48.46,48.46,0,0,1-12.32-11.14c-2.21-2.83-4.11-5.91-6.62-8.48s-5.8-4.62-9.39-4.68a4.45,4.45,0,0,0-3.38,1.15c-1.57,1.7-.58,4.43.56,6.44A80.91,80.91,0,0,0,93.44,243C97,247,101.12,257.11,105.87,260.76Z"/></g><g id="_群組_8" data-name="&lt;群組&gt;"><path class="cls-2" d="M127.76,350.12c4.51-2.44,9.52-4.24,13.14-7.87,7.38-7.41,6.3-20.36.15-28.81s-16-13.3-25.81-17c-3.91-1.5-7.95-2.92-11.23-5.52-4.54-3.6-7.13-9.06-10.72-13.6a37.41,37.41,0,0,0-29.88-13.94c-4.87.14-10.53,1-13.9-2.56-2.82-3-2.59-7.61-4.1-11.4a13.13,13.13,0,0,0-14.68-7.69c-.27.06-.53.14-.79.23-.1,2.69-.16,5.38-.16,8.09A219.45,219.45,0,0,0,89.32,400.59,24.82,24.82,0,0,0,94,396.33c7.08-8.2,9.62-19.34,15.24-28.6A49,49,0,0,1,127.76,350.12Z"/></g><g id="_群組_9" data-name="&lt;群組&gt;"><path class="cls-2" d="M294.25,392.43c-2.09-.7-4.37.18-6.29,1.27-4.27,2.42-8.13,6-13,6.67a5.85,5.85,0,0,0-3.07.87,3.69,3.69,0,0,0-.94,1.38c-2.91,6.65,2.93,14,2.67,21.22a12.89,12.89,0,0,0,.07,4.1c.78,2.63,3.93,3.9,6.66,3.64,3.68-.34,6.92-2.73,9.15-5.67a40.12,40.12,0,0,0,4.93-9.89l2.49-6.42c1.81-4.67,3.49-10.4.37-14.31l-.66,1.17A3.74,3.74,0,0,0,294.25,392.43Z"/></g></g></g></svg>