<svg xmlns="http://www.w3.org/2000/svg" viewBox="0 0 768 320.22"><defs><style>.cls-field-1{isolation:isolate;}.cls-field-2{fill:#4a9137;}.cls-field-3{fill:#ed6b35;}.cls-field-4{fill:#ee7940;}.cls-field-5{fill:#f18b43;}.cls-field-6{fill:#fff;opacity:0.5;mix-blend-mode:soft-light;}.cls-field-7{fill:#3e7f38;}.cls-field-8{fill:#ea7c43;}.cls-field-9{fill:#d86a3b;}.cls-field-10{fill:#9ec143;}.cls-field-11{fill:#77923d;}.cls-field-12{fill:#617633;}.cls-field-13{fill:#81a441;}.cls-field-14{fill:#6bbfb5;}.cls-field-15{fill:#735524;}.cls-field-16{fill:#f4b02c;}.cls-field-17{fill:#f2d330;}.cls-field-18{fill:#69b42e;}.cls-field-19{fill:#9ac334;opacity:0.2;}.cls-field-20{fill:#d23820;}.cls-field-21{fill:#62ada2;}.cls-field-22{fill:#d3e494;}</style></defs><title>魚菜V2</title><g class="cls-field-1"><g id="圖層_1" data-name="圖層 1"><path class="cls-field-2" d="M484.12,97.25l-.82-.37s.7-1.7-.57-1.5-1.1,4.06,1.31,4.09l-1.36.29-1.08.23-1.19.25-1.53.32h0a2.53,2.53,0,0,0,1.24-2.34,5.93,5.93,0,0,1,.58-2.57,2.2,2.2,0,0,1,1.83-1.24C485.71,94.13,485.08,97.11,484.12,97.25Z"/><path class="cls-field-2" d="M486.73,100.17c.07.36-.33.77-1.06,1.17a12.13,12.13,0,0,1-2.87,1l-.69.15-.88.15a11.65,11.65,0,0,1-2.91.11c-.8-.1-1.31-.32-1.38-.67s.23-.65.77-1a7.21,7.21,0,0,1,1.18-.59h0a15,15,0,0,1,2.6-.76h0a15.36,15.36,0,0,1,2.49-.3,8.25,8.25,0,0,1,1.35,0C486.16,99.61,486.66,99.83,486.73,100.17Z"/><path class="cls-field-3" d="M487.3,119.52a24.91,24.91,0,0,1,.12,9.39.63.63,0,0,1,0,.09,20.45,20.45,0,0,1-1.34,4.41,16.77,16.77,0,0,1-2.13,3.63,12.76,12.76,0,0,1-5.34,4.14,11.33,11.33,0,0,1-2,.59c-8,1.61-16.28-5.75-18.42-16.43s2.65-20.65,10.69-22.25a11.26,11.26,0,0,1,2.51-.22,13,13,0,0,1,6.22,1.85,17.07,17.07,0,0,1,3.21,2.45,20.41,20.41,0,0,1,2.87,3.47l.06.09A24.91,24.91,0,0,1,487.3,119.52Z"/><path class="cls-field-4" d="M490.5,119.07a31.22,31.22,0,0,1-.07,13.44,18.39,18.39,0,0,1-1.46,4l-.05.1a11.62,11.62,0,0,1-2.24,3.06,7.22,7.22,0,0,1-8.09,1.53c-5-2-9.56-8.8-11.3-17.47-1.79-9,0-17.24,4.09-20.84a7.39,7.39,0,0,1,3.46-1.76,7.1,7.1,0,0,1,2.86,0,8.11,8.11,0,0,1,1.35.4,10.74,10.74,0,0,1,2.17,1.15c.33.22.66.47,1,.74l.09.08a18,18,0,0,1,2.67,2.8A30.89,30.89,0,0,1,490.5,119.07Z"/><ellipse class="cls-field-3" cx="498.36" cy="117.12" rx="14.84" ry="19.72" transform="translate(-13.29 99.99) rotate(-11.31)"/><ellipse class="cls-field-4" cx="492.28" cy="118.52" rx="11.83" ry="20.68" transform="translate(-13.68 98.83) rotate(-11.31)"/><path class="cls-field-5" d="M493.5,118.47c1.28,6.42,1.26,12.39.18,16.46a11.3,11.3,0,0,1-1.47,3.48,4.18,4.18,0,0,1-2.55,1.91h0a4.06,4.06,0,0,1-3-.68,10.85,10.85,0,0,1-2.75-2.61c-2.61-3.34-5-8.89-6.27-15.41-1.33-6.67-1.26-12.83-.06-16.91a12.66,12.66,0,0,1,.72-1.92,7.92,7.92,0,0,1,.74-1.26,4.74,4.74,0,0,1,1.34-1.31,3.34,3.34,0,0,1,1.11-.45h0a3.27,3.27,0,0,1,1.12,0,4.61,4.61,0,0,1,1.69.63,7.91,7.91,0,0,1,1.29,1,13.06,13.06,0,0,1,1.32,1.4C489.69,106,492.16,111.75,493.5,118.47Z"/><path class="cls-field-6" d="M480.73,95.62l8.94,44.7h0a4.06,4.06,0,0,1-3-.68,7.22,7.22,0,0,1-8.09,1.53,11.33,11.33,0,0,1-2,.59c-8,1.61-16.28-5.75-18.42-16.43s2.65-20.65,10.69-22.25a11.26,11.26,0,0,1,2.51-.22,7.39,7.39,0,0,1,3.46-1.76,7.1,7.1,0,0,1,2.86,0,7.21,7.21,0,0,1,1.18-.59h0a2.53,2.53,0,0,0,1.24-2.34A5.93,5.93,0,0,1,480.73,95.62Z"/><path class="cls-field-7" d="M387.75,181.91q1.52,1.8,3.18,3.93l.7.9-1.69,1.5-.69-.55c-.83-.67-2.34-1.9-4.12-3.49-.74-.66-1.52-1.37-2.32-2.14a58.88,58.88,0,0,1-6.66-7.37l2.52-2.24A76.5,76.5,0,0,1,385.2,179Q386.43,180.33,387.75,181.91Z"/><path class="cls-field-2" d="M390.22,187.43l-.34.09-.62.17-3.8,1a13.57,13.57,0,0,0-2-2.34A31,31,0,0,0,371,179.29l1.78-1.59c1.84.06,4.92,1,10,4.36.82.54,1.7,1.13,2.64,1.79,1.23.87,2.56,1.86,4,3Z"/><path class="cls-field-2" d="M392,183.33l-1.08,2.5-.86,2-.2-.32-.42-.69a78,78,0,0,1-4.25-7.86c-2.33-5.07-2.79-8.17-2.56-10.07l2-1.76C386.46,178.73,392,183.33,392,183.33Z"/><path class="cls-field-8" d="M398.68,181.46c1.27,1.42,3.92,4.83,7.14,9.11l1.83,2.46c3.68,4.93,7.83,10.64,11.42,15.68l1.36,1.91c4.14,5.87,7.26,10.49,7.51,11.37,1.29,4.54.69,5.85-.63,7s-2.69,1.62-7-.18a35.2,35.2,0,0,1-4.52-3.55l-1.33-1.15c-7-6.12-18.66-16.79-25.71-23.58-.82-.79-1.58-1.53-2.26-2.2-1.41-1.39-2.49-2.49-3.12-3.2-2.61-2.92-1.42-6.32.16-8.78a17.77,17.77,0,0,1,1.67-2.18l.32-.35c.49-.53.83-.83.83-.83s.24-.22.67-.55c.22-.17.49-.36.79-.57a17.72,17.72,0,0,1,2-1.2C392.39,179.37,396,178.47,398.68,181.46Z"/><path class="cls-field-9" d="M386.44,198.36a20.32,20.32,0,0,1,6.17-5.5s-4.48,6-3.91,7.7Z"/><path class="cls-field-9" d="M398.29,209.39a20.32,20.32,0,0,1,6.17-5.5s-4.48,6-3.91,7.7Z"/><path class="cls-field-9" d="M418.55,221a43.52,43.52,0,0,0-2.81,4.32l-1.33-1.15A22.09,22.09,0,0,1,418.55,221Z"/><path class="cls-field-9" d="M405.82,190.57a20.32,20.32,0,0,0-6.17,5.5s6.5-3.77,8.1-3Z"/><path class="cls-field-9" d="M419.07,208.71l1.36,1.91a34.59,34.59,0,0,0-6.45,2.94A21.76,21.76,0,0,1,419.07,208.71Z"/><path class="cls-field-6" d="M377.66,173.36,427.31,229c-1.32,1.17-2.69,1.62-7-.18a35.2,35.2,0,0,1-4.52-3.55l-1.33-1.15c-7-6.12-18.66-16.79-25.71-23.58-.82-.79-1.58-1.53-2.26-2.2-1.41-1.39-2.49-2.49-3.12-3.2-2.61-2.92-1.42-6.32.16-8.78A31,31,0,0,0,371,179.29l1.78-1.59c1.84.06,4.92,1,10,4.36a58.88,58.88,0,0,1-6.66-7.37Z"/><path class="cls-field-10" d="M568.92,123.86c-109.77,0-198.79,87.91-199.08,196.36H768C767.71,211.77,678.69,123.86,568.92,123.86Z"/><path class="cls-field-11" d="M574.59,156a18.84,18.84,0,0,0,9.65-6.93c4.27-5.66,31.14-43.3,59.91-38.58L634.89,167l-60.69-10Z"/><path class="cls-field-12" d="M695.54,175.84a18.84,18.84,0,0,1-6.93-9.65c-2.24-6.73-15.68-51-44.45-55.7L634.89,167l60.69,10Z"/><path class="cls-field-13" d="M633.69,166.48a12.41,12.41,0,0,1-4.57-6.36c-1.48-4.43-10.33-33.59-29.29-36.7l-6.1,37.22,40,6.56Z"/><path class="cls-field-10" d="M554,153.41a12.42,12.42,0,0,0,6.36-4.57c2.81-3.73,20.52-28.53,39.47-25.42L593,177.28l-39.24-23.2Z"/><path class="cls-field-14" d="M689.08,200c5.27,11.26,27,24.92,55,33.51q1.94.6,3.87,1.14a196,196,0,0,0-11.43-20.1Z"/><path class="cls-field-11" d="M420.33,200.16a13,13,0,0,0,2.84-7.71c.25-4.9,1-36.86,19.34-45.3l16.59,35.93-38.6,17.82Z"/><path class="cls-field-12" d="M497.25,164.64a13,13,0,0,1-7.71-2.84c-3.89-3-28.73-23.11-47-14.66l16.59,35.93,38.6-17.82Z"/><path class="cls-field-13" d="M692.77,235.25a3,3,0,0,1,1.35-.68,2.71,2.71,0,0,1,.83-.07,2.35,2.35,0,0,1,.62.09,2.64,2.64,0,0,1,2.57-1.54l.27,0a2.66,2.66,0,0,1,1.82.89l.07.09a2.68,2.68,0,0,1,3.11.64,2.55,2.55,0,0,1,.29.4,2.22,2.22,0,0,1,3.27.14,2.35,2.35,0,0,0,2.16,2.44,2.16,2.16,0,0,1,.58,1.74,2.35,2.35,0,0,1,2.25,2.42,2.31,2.31,0,0,1,0,3.12,2.65,2.65,0,0,1-.4,3.52l-.14.13a2.65,2.65,0,0,1-.6.4,2.64,2.64,0,0,1-3.06,3.6,2.62,2.62,0,0,1-.84,1.5,2.68,2.68,0,0,1-3.33.14,2.57,2.57,0,0,1-.62.82,12.89,12.89,0,0,1-6.42-.39,2.64,2.64,0,0,1-.23-.31l0,0a2.68,2.68,0,0,1-3.74-.23,2.59,2.59,0,0,0-1.47-2.24,2.65,2.65,0,0,1-.63-2.08,2.61,2.61,0,0,1-1.33-2,2.7,2.7,0,0,1,.4-2.8h0a2.63,2.63,0,0,0,0-2.28,2.66,2.66,0,0,1,.52-1.43s0,0,0,0a2.77,2.77,0,0,1,.27-1,2.68,2.68,0,0,1,.71-2.92,2.62,2.62,0,0,0,1.74-2Z"/><path class="cls-field-15" d="M695,247.66l.81-.28-.36-.29a.53.53,0,0,1,.69-.82l3,2.45v-4.64a.93.93,0,1,1,1.87,0v2.36l2-1.54a.53.53,0,0,1,.65.85l-2.64,2V253l3.13-2.66.46-2.86a.53.53,0,0,1,1.06.17l-.26,1.63.86-.73a.53.53,0,1,1,.72.79l-6,5.06v10.9a.93.93,0,0,1-1.87,0V250.1l-2.37-1.93-1.45.49-.17,0a.53.53,0,0,1-.17-1Z"/><ellipse class="cls-field-16" cx="671.77" cy="132.26" rx="41.55" ry="12.71" transform="translate(157.01 583.69) rotate(-52.39)"/><path class="cls-field-17" d="M684.47,108.31a1.8,1.8,0,0,1-2.53.33l-2.27-1.75a1.8,1.8,0,0,1-.33-2.53h0a1.8,1.8,0,0,1,2.53-.33l2.27,1.75a1.8,1.8,0,0,1,.33,2.53Z"/><path class="cls-field-17" d="M689.82,112.43a1.8,1.8,0,0,1-2.53.33L685,111a1.8,1.8,0,0,1-.33-2.53h0a1.8,1.8,0,0,1,2.53-.33l2.27,1.75a1.8,1.8,0,0,1,.33,2.53Z"/><path class="cls-field-17" d="M695.17,116.55a1.8,1.8,0,0,1-2.53.33l-2.27-1.75a1.8,1.8,0,0,1-.33-2.53h0a1.8,1.8,0,0,1,2.53-.33l2.27,1.75a1.8,1.8,0,0,1,.33,2.53Z"/><path class="cls-field-17" d="M686.92,105.65a1.52,1.52,0,0,1-2.13.28l-1.91-1.47a1.52,1.52,0,0,1-.28-2.13h0a1.52,1.52,0,0,1,2.13-.28l1.91,1.47a1.52,1.52,0,0,1,.28,2.13Z"/><path class="cls-field-17" d="M691.61,109.26a1.52,1.52,0,0,1-2.13.28l-1.91-1.47a1.52,1.52,0,0,1-.28-2.13h0a1.52,1.52,0,0,1,2.13-.28l1.91,1.47a1.52,1.52,0,0,1,.28,2.13Z"/><path class="cls-field-17" d="M696.24,112.83a1.52,1.52,0,0,1-2.13.28l-1.91-1.47a1.52,1.52,0,0,1-.28-2.13h0a1.52,1.52,0,0,1,2.13-.28L696,110.7a1.52,1.52,0,0,1,.28,2.13Z"/><path class="cls-field-17" d="M689.27,103.71a1.32,1.32,0,0,1-1.85.24l-1.66-1.28a1.32,1.32,0,0,1-.24-1.85h0a1.32,1.32,0,0,1,1.85-.24l1.66,1.28a1.32,1.32,0,0,1,.24,1.85Z"/><path class="cls-field-17" d="M693.23,106.76a1.32,1.32,0,0,1-1.84.24l-1.66-1.28a1.32,1.32,0,0,1-.24-1.84h0a1.32,1.32,0,0,1,1.84-.24l1.66,1.28a1.32,1.32,0,0,1,.24,1.84Z"/><path class="cls-field-17" d="M697.26,109.86a1.32,1.32,0,0,1-1.84.24l-1.66-1.28a1.32,1.32,0,0,1-.24-1.84h0a1.32,1.32,0,0,1,1.84-.24L697,108a1.32,1.32,0,0,1,.24,1.84Z"/><path class="cls-field-17" d="M691.39,102a1.17,1.17,0,0,1-1.64.21l-1.48-1.14a1.17,1.17,0,0,1-.21-1.64h0a1.17,1.17,0,0,1,1.64-.21l1.48,1.14a1.17,1.17,0,0,1,.21,1.64Z"/><path class="cls-field-17" d="M695.1,104.85a1.17,1.17,0,0,1-1.64.21L692,103.92a1.17,1.17,0,0,1-.21-1.64h0a1.17,1.17,0,0,1,1.64-.21l1.48,1.14a1.17,1.17,0,0,1,.21,1.64Z"/><path class="cls-field-17" d="M698.79,107.69a1.17,1.17,0,0,1-1.64.21l-1.48-1.14a1.17,1.17,0,0,1-.21-1.64h0a1.17,1.17,0,0,1,1.64-.21l1.48,1.14a1.17,1.17,0,0,1,.21,1.64Z"/><path class="cls-field-17" d="M693.87,100.76a1.1,1.1,0,0,1-1.55.2l-1.39-1.07a1.1,1.1,0,0,1-.2-1.55h0a1.1,1.1,0,0,1,1.55-.2l1.39,1.07a1.1,1.1,0,0,1,.2,1.55Z"/><path class="cls-field-17" d="M697.23,103.35a1.1,1.1,0,0,1-1.55.2l-1.39-1.07a1.1,1.1,0,0,1-.2-1.55h0a1.1,1.1,0,0,1,1.55-.2L697,101.8a1.1,1.1,0,0,1,.2,1.55Z"/><path class="cls-field-17" d="M700.5,105.87a1.1,1.1,0,0,1-1.55.2L697.56,105a1.1,1.1,0,0,1-.2-1.55h0a1.1,1.1,0,0,1,1.55-.2l1.39,1.07a1.1,1.1,0,0,1,.2,1.55Z"/><path class="cls-field-17" d="M696.48,99.74a1.1,1.1,0,0,1-1.55.2l-1.39-1.07a1.1,1.1,0,0,1-.2-1.55h0a1.1,1.1,0,0,1,1.55-.2l1.39,1.07a1.1,1.1,0,0,1,.2,1.55Z"/><path class="cls-field-17" d="M699.92,102.39a1.1,1.1,0,0,1-1.55.2L697,101.52a1.1,1.1,0,0,1-.2-1.55h0a1.1,1.1,0,0,1,1.55-.2l1.39,1.07a1.1,1.1,0,0,1,.2,1.55Z"/><path class="cls-field-17" d="M681.39,110.91a1.8,1.8,0,0,1-2.53.33l-2.27-1.75a1.8,1.8,0,0,1-.33-2.53h0a1.8,1.8,0,0,1,2.53-.33l2.27,1.75a1.8,1.8,0,0,1,.33,2.53Z"/><path class="cls-field-17" d="M686.81,115.08a1.8,1.8,0,0,1-2.53.33L682,113.66a1.8,1.8,0,0,1-.33-2.53h0a1.8,1.8,0,0,1,2.53-.33l2.27,1.75a1.8,1.8,0,0,1,.33,2.53Z"/><path class="cls-field-17" d="M692.22,119.26a1.8,1.8,0,0,1-2.53.33l-2.27-1.75a1.8,1.8,0,0,1-.33-2.53h0a1.8,1.8,0,0,1,2.53-.33l2.27,1.75a1.8,1.8,0,0,1,.33,2.53Z"/><path class="cls-field-17" d="M678.29,113.57a1.8,1.8,0,0,1-2.53.33l-2.27-1.75a1.8,1.8,0,0,1-.33-2.53h0a1.8,1.8,0,0,1,2.53-.33L678,111a1.8,1.8,0,0,1,.33,2.53Z"/><path class="cls-field-17" d="M683.66,117.71a1.8,1.8,0,0,1-2.53.33l-2.27-1.75a1.8,1.8,0,0,1-.33-2.53h0a1.8,1.8,0,0,1,2.53-.33l2.27,1.75a1.8,1.8,0,0,1,.33,2.53Z"/><path class="cls-field-17" d="M689,121.85a1.8,1.8,0,0,1-2.53.33l-2.27-1.75a1.8,1.8,0,0,1-.33-2.53h0a1.8,1.8,0,0,1,2.53-.33l2.27,1.75a1.8,1.8,0,0,1,.33,2.53Z"/><path class="cls-field-17" d="M675.43,116.38a1.8,1.8,0,0,1-2.53.33L670.64,115a1.8,1.8,0,0,1-.33-2.53h0a1.8,1.8,0,0,1,2.53-.33l2.27,1.75a1.8,1.8,0,0,1,.33,2.53Z"/><path class="cls-field-17" d="M680.82,120.53a1.8,1.8,0,0,1-2.53.33L676,119.11a1.8,1.8,0,0,1-.33-2.53h0a1.8,1.8,0,0,1,2.53-.33l2.27,1.75a1.8,1.8,0,0,1,.33,2.53Z"/><path class="cls-field-17" d="M686.21,124.68a1.8,1.8,0,0,1-2.53.33l-2.27-1.75a1.8,1.8,0,0,1-.33-2.53h0a1.8,1.8,0,0,1,2.53-.33l2.27,1.75a1.8,1.8,0,0,1,.33,2.53Z"/><path class="cls-field-17" d="M672.45,119.09a1.8,1.8,0,0,1-2.53.33l-2.27-1.75a1.8,1.8,0,0,1-.33-2.53h0a1.8,1.8,0,0,1,2.53-.33l2.27,1.75a1.8,1.8,0,0,1,.33,2.53Z"/><path class="cls-field-17" d="M677.9,123.29a1.8,1.8,0,0,1-2.53.33l-2.27-1.75a1.8,1.8,0,0,1-.33-2.53h0a1.8,1.8,0,0,1,2.53-.33l2.27,1.75a1.8,1.8,0,0,1,.33,2.53Z"/><path class="cls-field-17" d="M683.35,127.49a1.8,1.8,0,0,1-2.53.33l-2.27-1.75a1.8,1.8,0,0,1-.33-2.53h0a1.8,1.8,0,0,1,2.53-.33L683,125a1.8,1.8,0,0,1,.33,2.53Z"/><path class="cls-field-17" d="M669.84,122.06a1.8,1.8,0,0,1-2.53.33L665,120.64a1.8,1.8,0,0,1-.33-2.53h0a1.8,1.8,0,0,1,2.53-.33l2.27,1.75a1.8,1.8,0,0,1,.33,2.53Z"/><path class="cls-field-17" d="M675.16,126.16a1.8,1.8,0,0,1-2.53.33l-2.27-1.75a1.8,1.8,0,0,1-.33-2.53h0a1.8,1.8,0,0,1,2.53-.33l2.27,1.75a1.8,1.8,0,0,1,.33,2.53Z"/><path class="cls-field-17" d="M680.49,130.26a1.8,1.8,0,0,1-2.53.33l-2.27-1.75a1.8,1.8,0,0,1-.33-2.53h0a1.8,1.8,0,0,1,2.53-.33l2.27,1.75a1.8,1.8,0,0,1,.33,2.53Z"/><path class="cls-field-17" d="M667.25,125.08a1.8,1.8,0,0,1-2.53.33l-2.27-1.75a1.8,1.8,0,0,1-.33-2.53h0a1.8,1.8,0,0,1,2.53-.33l2.27,1.75a1.8,1.8,0,0,1,.33,2.53Z"/><path class="cls-field-17" d="M672.53,129.15a1.8,1.8,0,0,1-2.53.33l-2.27-1.75a1.8,1.8,0,0,1-.33-2.53h0a1.8,1.8,0,0,1,2.53-.33l2.27,1.75a1.8,1.8,0,0,1,.33,2.53Z"/><path class="cls-field-17" d="M678,133.33a1.8,1.8,0,0,1-2.53.33l-2.27-1.75a1.8,1.8,0,0,1-.33-2.53h0a1.8,1.8,0,0,1,2.53-.33l2.27,1.75a1.8,1.8,0,0,1,.33,2.53Z"/><path class="cls-field-17" d="M664.69,128.11a1.8,1.8,0,0,1-2.53.33l-2.27-1.75a1.8,1.8,0,0,1-.33-2.53h0a1.8,1.8,0,0,1,2.53-.33l2.27,1.75a1.8,1.8,0,0,1,.33,2.53Z"/><path class="cls-field-17" d="M670.12,132.29a1.8,1.8,0,0,1-2.53.33l-2.27-1.75a1.8,1.8,0,0,1-.33-2.53h0a1.8,1.8,0,0,1,2.53-.33l2.27,1.75a1.8,1.8,0,0,1,.33,2.53Z"/><path class="cls-field-17" d="M675.55,136.47a1.8,1.8,0,0,1-2.53.33l-2.27-1.75a1.8,1.8,0,0,1-.33-2.53h0a1.8,1.8,0,0,1,2.53-.33l2.27,1.75a1.8,1.8,0,0,1,.33,2.53Z"/><path class="cls-field-17" d="M662.27,131.26a1.8,1.8,0,0,1-2.53.33l-2.27-1.75a1.8,1.8,0,0,1-.33-2.53h0a1.8,1.8,0,0,1,2.53-.33l2.27,1.75a1.8,1.8,0,0,1,.33,2.53Z"/><path class="cls-field-17" d="M667.69,135.43a1.8,1.8,0,0,1-2.53.33L662.9,134a1.8,1.8,0,0,1-.33-2.53h0a1.8,1.8,0,0,1,2.53-.33l2.27,1.75a1.8,1.8,0,0,1,.33,2.53Z"/><path class="cls-field-17" d="M673.12,139.62a1.8,1.8,0,0,1-2.53.33l-2.27-1.75a1.8,1.8,0,0,1-.33-2.53h0a1.8,1.8,0,0,1,2.53-.33l2.27,1.75a1.8,1.8,0,0,1,.33,2.53Z"/><path class="cls-field-17" d="M659.85,134.4a1.8,1.8,0,0,1-2.53.33L655.05,133a1.8,1.8,0,0,1-.33-2.53h0a1.8,1.8,0,0,1,2.53-.33l2.27,1.75a1.8,1.8,0,0,1,.33,2.53Z"/><path class="cls-field-17" d="M665.27,138.58a1.8,1.8,0,0,1-2.53.33l-2.27-1.75a1.8,1.8,0,0,1-.33-2.53h0a1.8,1.8,0,0,1,2.53-.33l2.27,1.75a1.8,1.8,0,0,1,.33,2.53Z"/><path class="cls-field-17" d="M670.7,142.76a1.8,1.8,0,0,1-2.53.33l-2.27-1.75a1.8,1.8,0,0,1-.33-2.53h0a1.8,1.8,0,0,1,2.53-.33l2.27,1.75a1.8,1.8,0,0,1,.33,2.53Z"/><path class="cls-field-17" d="M657.42,137.55a1.8,1.8,0,0,1-2.53.33l-2.27-1.75a1.8,1.8,0,0,1-.33-2.53h0a1.8,1.8,0,0,1,2.53-.33L657.1,135a1.8,1.8,0,0,1,.33,2.53Z"/><path class="cls-field-17" d="M662.85,141.72a1.8,1.8,0,0,1-2.53.33l-2.27-1.75a1.8,1.8,0,0,1-.33-2.53h0a1.8,1.8,0,0,1,2.53-.33l2.27,1.75a1.8,1.8,0,0,1,.33,2.53Z"/><path class="cls-field-17" d="M668.28,145.91a1.8,1.8,0,0,1-2.53.33l-2.27-1.75a1.8,1.8,0,0,1-.33-2.53h0a1.8,1.8,0,0,1,2.53-.33l2.27,1.75a1.8,1.8,0,0,1,.33,2.53Z"/><path class="cls-field-17" d="M655,140.69a1.8,1.8,0,0,1-2.53.33l-2.27-1.75a1.8,1.8,0,0,1-.33-2.53h0a1.8,1.8,0,0,1,2.53-.33l2.27,1.75a1.8,1.8,0,0,1,.33,2.53Z"/><path class="cls-field-17" d="M660.42,144.87a1.8,1.8,0,0,1-2.53.33l-2.27-1.75a1.8,1.8,0,0,1-.33-2.53h0a1.8,1.8,0,0,1,2.53-.33l2.27,1.75a1.8,1.8,0,0,1,.33,2.53Z"/><path class="cls-field-17" d="M658,148.41a1.8,1.8,0,0,1-2.53.33L653.23,147a1.8,1.8,0,0,1-.33-2.53h0a1.8,1.8,0,0,1,2.53-.33l2.27,1.75a1.8,1.8,0,0,1,.33,2.53Z"/><path class="cls-field-17" d="M656.56,152.57a1.8,1.8,0,0,1-2.53.33l-2.27-1.75a1.8,1.8,0,0,1-.33-2.53h0a1.8,1.8,0,0,1,2.53-.33l2.27,1.75a1.8,1.8,0,0,1,.33,2.53Z"/><path class="cls-field-17" d="M654.93,156.6a1.8,1.8,0,0,1-2.53.33l-2.27-1.75a1.8,1.8,0,0,1-.33-2.53h0a1.8,1.8,0,0,1,2.53-.33l2.27,1.75a1.8,1.8,0,0,1,.33,2.53Z"/><path class="cls-field-17" d="M665.85,149.05a1.8,1.8,0,0,1-2.53.33l-2.27-1.75a1.8,1.8,0,0,1-.33-2.53h0a1.8,1.8,0,0,1,2.53-.33l2.27,1.75a1.8,1.8,0,0,1,.33,2.53Z"/><path class="cls-field-17" d="M664.08,152.23a1.8,1.8,0,0,1-2.53.33l-2.27-1.75a1.8,1.8,0,0,1-.33-2.53h0a1.8,1.8,0,0,1,2.53-.33l2.27,1.75a1.8,1.8,0,0,1,.33,2.53Z"/><path class="cls-field-18" d="M644.59,167s42.48-56.34,58.73-63.33C703.33,103.63,676.35,169.49,644.59,167Z"/><path class="cls-field-18" d="M644.59,167s-8.06-23.3,8.85-42.5C653.44,124.45,661.58,148.4,644.59,167Z"/><path class="cls-field-19" d="M644.59,167a84,84,0,0,0,8.85-42.5S653.4,143.41,644.59,167Z"/><path class="cls-field-19" d="M653.44,124.45s-9.51,20.07-8.85,42.5C644.59,167,647.07,138,653.44,124.45Z"/><path class="cls-field-19" d="M703.33,103.63s-36,62-58.31,63.35C645,167,660.16,170,703.33,103.63Z"/><path class="cls-field-19" d="M703.33,103.63S651.79,167,644.59,167C644.59,167,661,154.14,703.33,103.63Z"/><path class="cls-field-7" d="M590.56,90.58q-.23,2.35-.6,5c0,.37-.1.75-.16,1.13l-2.25-.16s0-.32-.09-.88c-.1-1.06-.27-3-.37-5.39,0-1-.07-2-.08-3.15a58.88,58.88,0,0,1,.65-9.91l3.36.24a76.5,76.5,0,0,1-.13,9.23C590.81,87.92,590.7,89.21,590.56,90.58Z"/><path class="cls-field-2" d="M588.32,96.2,588,96l-.55-.33-3.39-2a13.57,13.57,0,0,0,.3-3,31,31,0,0,0-3.6-13.88l2.38.17c1.24,1.36,2.69,4.25,3.87,10.24.19,1,.38,2,.56,3.14.23,1.49.45,3.13.65,4.94C588.25,95.55,588.28,95.87,588.32,96.2Z"/><path class="cls-field-2" d="M592.51,94.62l-2.55,1-2,.78L588,96c.07-.27.13-.53.2-.79a78,78,0,0,1,2.67-8.53c2-5.21,3.91-7.7,5.44-8.85L599,78C591.93,87.44,592.51,94.62,592.51,94.62Z"/><path class="cls-field-8" d="M598.5,98.1c-.14,1.9-.73,6.18-1.56,11.47-.16,1-.31,2-.48,3-1,6.07-2.17,13-3.28,19.12-.14.78-.28,1.55-.42,2.3-1.32,7.06-2.46,12.52-2.92,13.31-2.35,4.09-3.71,4.57-5.47,4.45s-3-.8-4.79-5.18a35.2,35.2,0,0,1-.6-5.72c0-.56-.07-1.14-.1-1.75-.53-9.32-1-25.08-1-34.87,0-1.14,0-2.2,0-3.15,0-2,.05-3.52.12-4.47.28-3.9,3.54-5.43,6.4-6a17.77,17.77,0,0,1,2.73-.33h.47c.72,0,1.17,0,1.17,0s.33,0,.86.1l1,.17a17.72,17.72,0,0,1,2.26.6C595.62,92.13,598.79,94.1,598.5,98.1Z"/><path class="cls-field-9" d="M577.85,101.1a20.32,20.32,0,0,1,8.25.59s-7.44,1-8.25,2.57Z"/><path class="cls-field-9" d="M578.2,117.29a20.32,20.32,0,0,1,8.24.59s-7.44,1-8.25,2.57Z"/><path class="cls-field-9" d="M584,139.88a43.52,43.52,0,0,0-5.06,1c0-.56-.07-1.14-.1-1.75A22.09,22.09,0,0,1,584,139.88Z"/><path class="cls-field-9" d="M596.95,109.57a20.32,20.32,0,0,0-8.24-.59s7.23,2,7.8,3.71Z"/><path class="cls-field-9" d="M593.18,131.71c-.14.78-.28,1.55-.42,2.31a34.59,34.59,0,0,0-6.6-2.58A21.76,21.76,0,0,1,593.18,131.71Z"/><path class="cls-field-6" d="M589.66,77.38l-5.3,74.39c-1.76-.13-3-.8-4.79-5.18a35.2,35.2,0,0,1-.6-5.72c0-.56-.07-1.14-.1-1.75-.53-9.32-1-25.08-1-34.87,0-1.14,0-2.2,0-3.15,0-2,.05-3.52.12-4.47.28-3.9,3.54-5.43,6.4-6a31,31,0,0,0-3.6-13.88l2.38.17c1.24,1.36,2.69,4.25,3.87,10.24a58.88,58.88,0,0,1,.65-9.91Z"/><path class="cls-field-2" d="M436.86,151.81a9.46,9.46,0,0,0-2.21,3.28,6.69,6.69,0,0,0-.43,1.51l-3.87,1.26h0l-4.06.64a6.6,6.6,0,0,0-1.12-1.2,9.42,9.42,0,0,0-3.4-1.86s2.37-1.11,3.82.15l-.87-2.93s2.32,1.9,3.11,1.63.78-3.64.78-3.64l.08.18c.33.7,1.55,3.15,2.48,2.88s1.47-3.11,1.47-3.11l.91,3.07A4.18,4.18,0,0,1,436.86,151.81Z"/><path class="cls-field-20" d="M447.12,164.34l.06.25q.18.75.3,1.56a13.67,13.67,0,0,1,.13,1.45q0,.24,0,.48a.09.09,0,0,1,0,0,16.78,16.78,0,0,1-4,10.42,17.17,17.17,0,0,1-2.63,2.57,14,14,0,0,1-2.89,1.76,10.69,10.69,0,0,1-1.6.57l-.28.07c-6.08,1.47-14.84-2.1-18-10.33-2.4-6.31-.16-12.55,6.88-15.87a23.13,23.13,0,0,1,4.42-1.52l.29-.07a23.61,23.61,0,0,1,4.81-.64c4.7-.11,8.26,1.54,10.47,4.7l.11.17A13.79,13.79,0,0,1,447.12,164.34Z"/><path class="cls-field-6" d="M428.67,150.84l7.86,32.61-.28.07c-6.08,1.47-14.84-2.1-18-10.33-2.4-6.31-.16-12.55,6.88-15.87a9.42,9.42,0,0,0-3.4-1.86s2.37-1.11,3.82.15l-.87-2.93s2.32,1.9,3.11,1.63.78-3.64.78-3.64Z"/><path class="cls-field-13" d="M438.39,221.08a1.67,1.67,0,0,0-.83.11,1.5,1.5,0,0,0-.4.23,1.31,1.31,0,0,0-.25.23,1.46,1.46,0,0,0-1.65.09l-.12.09a1.47,1.47,0,0,0-.56,1s0,0,0,.06a1.48,1.48,0,0,0-1.22,1.26,1.38,1.38,0,0,0,0,.27,1.23,1.23,0,0,0-1.45,1.08,1.3,1.3,0,0,1-.23,1.78,1.29,1.29,0,0,1-.24,1.85,1.2,1.2,0,0,0,.23.93,1.27,1.27,0,0,0,1,1.43,1.46,1.46,0,0,0,1.28,1.49h.1a1.46,1.46,0,0,0,.4,0,1.46,1.46,0,0,0,2.51.7,1.45,1.45,0,0,0,.85.43,1.48,1.48,0,0,0,1.57-1,1.42,1.42,0,0,0,.54.18,7.12,7.12,0,0,0,2.81-2.17,1.44,1.44,0,0,0,0-.21h0a1.48,1.48,0,0,0,1.64-1.26,1.43,1.43,0,0,1,0-1.48,1.44,1.44,0,0,1-.21-1.61,1.47,1.47,0,0,0-.17-.88,1.49,1.49,0,0,0-1.05-1.16h0a1.46,1.46,0,0,1-.71-1,1.47,1.47,0,0,0-.68-.49h0a1.53,1.53,0,0,0-.45-.39,1.48,1.48,0,0,0-1.23-1.12,1.45,1.45,0,0,1-1.43-.4Z"/><path class="cls-field-15" d="M441.2,227.45l-.46.13.07-.24a.3.3,0,0,0-.57-.16l-.62,2.06-1.44-2.12a.52.52,0,0,0-.86.58l.73,1.08-1.38-.09a.29.29,0,0,0,0,.59l1.84.12,1.61,2.39-2.25-.25-1.1-1.17a.3.3,0,0,0-.43.4l.62.66-.62-.07a.29.29,0,1,0-.08.58l4.29.47,3.37,5a.52.52,0,0,0,.86-.58l-4.7-7,.49-1.61.81-.22.09,0a.29.29,0,0,0-.24-.53Z"/><path class="cls-field-7" d="M738.4,164.6q-2,1.28-4.3,2.66l-1,.58L731.83,166l.63-.62c.77-.74,2.19-2.08,4-3.64.74-.65,1.56-1.33,2.41-2A58.88,58.88,0,0,1,747,154l1.91,2.78a76.5,76.5,0,0,1-7.3,5.64Q740.13,163.48,738.4,164.6Z"/><path class="cls-field-2" d="M732.6,166.34l0-.35-.09-.63-.54-3.9a13.57,13.57,0,0,0,2.57-1.67,31,31,0,0,0,8.62-11.46l1.35,2c-.29,1.82-1.65,4.75-5.6,9.4-.64.75-1.34,1.55-2.11,2.39q-1.53,1.67-3.46,3.58Z"/><path class="cls-field-2" d="M736.44,168.64l-2.35-1.39-1.89-1.11.34-.16.74-.33a78,78,0,0,1,8.34-3.21c5.33-1.67,8.46-1.73,10.31-1.25l1.5,2.19C741.71,163.72,736.44,168.64,736.44,168.64Z"/><path class="cls-field-8" d="M737.45,175.5c-1.57,1.08-5.29,3.27-9.95,5.92l-2.67,1.5c-5.36,3-11.55,6.41-17,9.33l-2.07,1.1c-6.35,3.36-11.33,5.86-12.23,6-4.66.7-5.89-.06-6.89-1.52s-1.27-2.88,1.07-7a35.2,35.2,0,0,1,4.1-4l1.31-1.17c7-6.21,19-16.37,26.66-22.5.89-.72,1.72-1.37,2.47-2,1.55-1.22,2.79-2.15,3.57-2.69,3.23-2.21,6.45-.61,8.68,1.27a17.77,17.77,0,0,1,2,1.93l.3.36c.46.55.72.93.72.93s.19.27.46.74c.14.24.3.53.47.86a17.72,17.72,0,0,1,.93,2.14C740.32,169.52,740.76,173.23,737.45,175.5Z"/><path class="cls-field-9" d="M722.25,161.2a20.32,20.32,0,0,1,4.67,6.82s-5.41-5.21-7.14-4.86Z"/><path class="cls-field-9" d="M709.79,171.55a20.32,20.32,0,0,1,4.67,6.82s-5.41-5.21-7.14-4.86Z"/><path class="cls-field-9" d="M695.74,190.17a43.52,43.52,0,0,0-3.93-3.34l1.31-1.17A22.09,22.09,0,0,1,695.74,190.17Z"/><path class="cls-field-9" d="M727.5,181.42a20.32,20.32,0,0,0-4.67-6.82s2.91,6.92,1.95,8.41Z"/><path class="cls-field-9" d="M707.83,192.25l-2.07,1.1a34.59,34.59,0,0,0-2.09-6.77A21.76,21.76,0,0,1,707.83,192.25Z"/><path class="cls-field-6" d="M748.16,155.68l-61.52,42.16c-1-1.46-1.27-2.88,1.07-7a35.2,35.2,0,0,1,4.1-4l1.31-1.17c7-6.21,19-16.37,26.66-22.5.89-.72,1.72-1.37,2.47-2,1.55-1.22,2.79-2.15,3.57-2.69,3.23-2.21,6.45-.61,8.68,1.27a31,31,0,0,0,8.62-11.46l1.35,2c-.29,1.82-1.65,4.75-5.6,9.4A58.88,58.88,0,0,1,747,154Z"/><path class="cls-field-13" d="M604.68,161.35a18.84,18.84,0,0,1-6.93-9.65c-2.24-6.73-15.68-51-44.45-55.7L544,152.48l60.69,10Z"/><path class="cls-field-10" d="M614.87,176.85a18.84,18.84,0,0,0,10.5-5.57c5-5,36.68-38.72,64.55-30.18l-16.77,54.73-58.8-18Z"/><path class="cls-field-13" d="M732.06,212.76a18.84,18.84,0,0,1-5.57-10.5c-1.31-7-8.69-52.63-36.56-61.17l-16.77,54.73,58.8,18Z"/><path class="cls-field-14" d="M678,162.8l-1.46,4.76c10.25,6.12,23.31,16.8,19.06,35l8.84,3C709.51,184,690.32,169.72,678,162.8Z"/><path class="cls-field-14" d="M672.36,159.72c-1.36-.73-2.53-1.36-3.36-1.86-5.33-3.21-3.6-14-3.35-15.33a26.77,26.77,0,0,0-2.9,1.12c-.8,3.62-2.5,14.44,5.62,19.33,1,.57,2.18,1.23,3.61,2s3,1.62,4.61,2.59L678,162.8C675.89,161.59,673.94,160.56,672.36,159.72Z"/><path class="cls-field-10" d="M543.57,111.3c.79.28,1.89.61,3.16,1,1.48.44,3.31,1,5.33,1.62l1.7-17.79a34.13,34.13,0,0,0-15.67,2.36C538.12,99.69,538.52,109.51,543.57,111.3Z"/><path class="cls-field-10" d="M543.93,115.72c-7.69-2.73-8.14-13.1-8.09-16.29-20.6,9.31-36.22,34.54-39.26,39.2a18.84,18.84,0,0,1-9.17,7.57l-.31,1,61.22,5.86,3.34-34.92c-1.55-.54-3-1-4.34-1.39S544.83,116,543.93,115.72Z"/><path class="cls-field-21" d="M552.06,113.91l-.41,4.27c9.71,3.4,22.57,10.16,22.12,26.21h7.49C581.8,125.37,563.62,117.62,552.06,113.91Z"/><path class="cls-field-14" d="M546.73,112.28c-1.27-.38-2.37-.71-3.16-1-5-1.79-5.45-11.61-5.48-12.81-.76.29-1.51.61-2.26.95,0,3.19.4,13.56,8.09,16.29.9.32,2.06.66,3.39,1.06s2.79.85,4.34,1.39l.41-4.27C550,113.26,548.21,112.73,546.73,112.28Z"/><path class="cls-field-13" d="M528.48,152.77a1.67,1.67,0,0,0-.8-.24,1.5,1.5,0,0,0-.46,0,1.31,1.31,0,0,0-.33.11,1.46,1.46,0,0,0-1.55-.58l-.14,0a1.47,1.47,0,0,0-.9.66l0,.06a1.48,1.48,0,0,0-1.62.66,1.38,1.38,0,0,0-.12.25,1.23,1.23,0,0,0-1.76.4,1.3,1.3,0,0,1-.93,1.54,1.29,1.29,0,0,1-1,1.6,1.2,1.2,0,0,0-.16.94,1.27,1.27,0,0,0,.31,1.7,1.46,1.46,0,0,0,.57,1.87l.09.05a1.46,1.46,0,0,0,.37.16,1.46,1.46,0,0,0,2,1.65,1.45,1.45,0,0,0,.6.73,1.48,1.48,0,0,0,1.83-.25,1.42,1.42,0,0,0,.42.39,7.12,7.12,0,0,0,3.45-.85,1.44,1.44,0,0,0,.09-.19h0a1.48,1.48,0,0,0,2-.49,1.43,1.43,0,0,1,.58-1.36,1.44,1.44,0,0,1,.45-1.56,1.47,1.47,0,0,0,.21-.88,1.49,1.49,0,0,0-.5-1.48h0a1.46,1.46,0,0,1-.23-1.24,1.47,1.47,0,0,0-.43-.72h0a1.53,1.53,0,0,0-.25-.54,1.48,1.48,0,0,0-.68-1.52,1.45,1.45,0,0,1-1.14-.94Z"/><path class="cls-field-15" d="M528.49,159.73l-.47-.07.17-.19a.3.3,0,0,0-.45-.38l-1.4,1.63-.46-2.52a.52.52,0,0,0-1,.18l.23,1.28-1.23-.64a.29.29,0,0,0-.27.52l1.63.85.51,2.84-2-1.14-.53-1.51a.3.3,0,0,0-.56.2l.3.86-.54-.31a.29.29,0,1,0-.31.5l3.74,2.16,1.07,5.92a.52.52,0,0,0,1-.18l-1.49-8.27,1.1-1.28.84.12h.1a.29.29,0,0,0,0-.58Z"/><path class="cls-field-10" d="M393.94,232.23a12.66,12.66,0,0,0,2.19-7.14c-.08-4.11-1.39-30.68,15.35-42.71l18,25-35.31,25.37Z"/><path class="cls-field-13" d="M464.32,181.66a12.66,12.66,0,0,1-7.47-.21c-3.87-1.38-28.63-11.1-45.37.93l18,25L464.77,182Z"/><path class="cls-field-13" d="M418.74,200.87a1.67,1.67,0,0,0-.83.11,1.49,1.49,0,0,0-.4.23,1.29,1.29,0,0,0-.25.23,1.46,1.46,0,0,0-1.65.09l-.12.09a1.47,1.47,0,0,0-.56,1s0,0,0,.06a1.48,1.48,0,0,0-1.22,1.26,1.42,1.42,0,0,0,0,.27,1.23,1.23,0,0,0-1.45,1.08A1.3,1.3,0,0,1,412,207a1.29,1.29,0,0,1-.24,1.85,1.2,1.2,0,0,0,.23.93,1.27,1.27,0,0,0,1,1.43,1.46,1.46,0,0,0,1.28,1.49h.1a1.45,1.45,0,0,1,1.64,1.16,1.47,1.47,0,0,0,1.27-.47,1.45,1.45,0,0,0,.85.43,1.48,1.48,0,0,0,1.57-1,1.41,1.41,0,0,0,.54.18,7.11,7.11,0,0,0,2.81-2.17,1.41,1.41,0,0,0,0-.21h0a1.48,1.48,0,0,0,1.64-1.26,1.43,1.43,0,0,1,0-1.48,1.44,1.44,0,0,1-.21-1.61,1.47,1.47,0,0,0-.17-.88,1.49,1.49,0,0,0-1.05-1.16h0a1.45,1.45,0,0,1-.71-1,1.47,1.47,0,0,0-.68-.49h0a1.53,1.53,0,0,0-.45-.39,1.48,1.48,0,0,0-1.23-1.12,1.45,1.45,0,0,1-1.43-.4Z"/><path class="cls-field-15" d="M421.56,207.23l-.46.13.07-.24a.29.29,0,0,0-.57-.16L420,209l-1.44-2.12a.52.52,0,1,0-.86.58l.73,1.08-1.38-.09a.29.29,0,0,0,0,.59l1.84.12,1.61,2.39-2.25-.25-1.1-1.17a.3.3,0,0,0-.43.4l.62.66-.62-.07a.29.29,0,1,0-.08.58l4.29.47,3.37,5a.52.52,0,0,0,.86-.58l-4.7-7,.49-1.61.81-.22.09,0a.3.3,0,0,0-.24-.53Z"/><path class="cls-field-10" d="M453.64,190.65s2-3,1.31-8.67-5.69-42.44,10.22-50.75L487.5,174,453.93,191.5Z"/><path class="cls-field-13" d="M520.53,155.7s-3.62-.13-7.87-3.88-31.59-28.91-47.5-20.6L487.5,174l33.56-17.53Z"/><path class="cls-field-13" d="M480.25,178.48a1.67,1.67,0,0,0-.83.11,1.5,1.5,0,0,0-.4.23,1.3,1.3,0,0,0-.25.23,1.46,1.46,0,0,0-1.65.09l-.12.09a1.47,1.47,0,0,0-.56,1s0,0,0,.06a1.48,1.48,0,0,0-1.22,1.26,1.41,1.41,0,0,0,0,.27,1.23,1.23,0,0,0-1.45,1.08,1.3,1.3,0,0,1-.23,1.78,1.29,1.29,0,0,1-.24,1.85,1.2,1.2,0,0,0,.23.93,1.27,1.27,0,0,0,1,1.43,1.46,1.46,0,0,0,1.28,1.49h.1a1.46,1.46,0,0,0,.4,0,1.46,1.46,0,0,0,2.51.7,1.45,1.45,0,0,0,.85.43,1.48,1.48,0,0,0,1.57-1,1.42,1.42,0,0,0,.54.18,7.11,7.11,0,0,0,2.81-2.17,1.46,1.46,0,0,0,0-.21h0a1.48,1.48,0,0,0,1.64-1.26,1.43,1.43,0,0,1,0-1.48A1.44,1.44,0,0,1,486,184a1.47,1.47,0,0,0-.17-.88,1.49,1.49,0,0,0-1.05-1.16h0a1.45,1.45,0,0,1-.71-1,1.47,1.47,0,0,0-.68-.49h0a1.53,1.53,0,0,0-.45-.39,1.48,1.48,0,0,0-1.23-1.12,1.45,1.45,0,0,1-1.43-.4Z"/><path class="cls-field-15" d="M483.06,184.84l-.46.13.07-.24a.3.3,0,0,0-.57-.16l-.62,2.06-1.44-2.12a.52.52,0,1,0-.86.58l.73,1.08-1.38-.09a.29.29,0,0,0,0,.59l1.84.12,1.61,2.39-2.25-.25-1.1-1.17a.3.3,0,0,0-.43.4l.62.66-.62-.07a.29.29,0,0,0-.08.58l4.29.47,3.37,5a.52.52,0,1,0,.86-.58l-4.7-7,.49-1.61.81-.22.09,0a.3.3,0,0,0-.24-.53Z"/><path class="cls-field-13" d="M645,177.25a3,3,0,0,1,1.5-.22,2.71,2.71,0,0,1,.81.2,2.35,2.35,0,0,1,.56.28,2.64,2.64,0,0,1,2.92-.66l.25.1a2.66,2.66,0,0,1,1.45,1.42l0,.11a2.68,2.68,0,0,1,2.75,1.59,2.51,2.51,0,0,1,.15.47,2.22,2.22,0,0,1,3.06,1.16,2.17,2.17,0,0,1,0,1.75,2.34,2.34,0,0,1,1.24,3.08,2.35,2.35,0,0,1,1.38,3,2.31,2.31,0,0,1-1,3,2.65,2.65,0,0,1-1.49,3.22l-.17.07a2.65,2.65,0,0,1-.7.19,2.64,2.64,0,0,1-4,2.45,2.62,2.62,0,0,1-1.27,1.16,2.68,2.68,0,0,1-3.21-.91,2.56,2.56,0,0,1-.85.59,12.88,12.88,0,0,1-6-2.39,2.58,2.58,0,0,1-.12-.36h0a2.68,2.68,0,0,1-3.48-1.4,2.62,2.62,0,0,1-.11-1.74,2.6,2.6,0,0,1-.59-.85,2.65,2.65,0,0,1,.06-2.18,2.61,2.61,0,0,1-.62-2.36,2.69,2.69,0,0,1,1.27-2.54h0a2.66,2.66,0,0,1,.55-.85,2.64,2.64,0,0,1,1.12-2.5v0a2.77,2.77,0,0,1,.59-.9,2.68,2.68,0,0,1,1.6-2.55,2.62,2.62,0,0,0,2.29-1.39Z"/><path class="cls-field-15" d="M643.22,189.74h.86l-.25-.39a.53.53,0,0,1,.91-.56l2.09,3.28,1.46-4.41a.94.94,0,0,1,1.78.59l-.74,2.24,2.37-.83a.53.53,0,0,1,.35,1l-3.15,1.11-1.64,5,3.81-1.54,1.34-2.57a.53.53,0,0,1,.95.49l-.76,1.46,1-.42a.53.53,0,1,1,.43,1L646.83,198,643.4,208.4a.93.93,0,0,1-1.78-.59l4.77-14.44-1.64-2.57h-1.53l-.17,0a.53.53,0,0,1,.16-1Z"/><path class="cls-field-22" d="M568.92,185.32c-75.41,0-136.56,60.39-136.76,134.89H705.68C705.49,245.71,644.33,185.32,568.92,185.32Z"/></g></g></svg>