<svg xmlns="http://www.w3.org/2000/svg" viewBox="0 0 768 320.22"><defs><style>.cls-1{isolation:isolate;}.cls-2{fill:#daedf2;}.cls-3{fill:#e1b273;}.cls-4{fill:#fada91;}.cls-5{fill:#dadce3;}.cls-6{fill:#1e9fc3;}.cls-7{fill:#75c1a5;}.cls-22,.cls-8{fill:#fff;}.cls-9{fill:#d55567;}.cls-10{fill:#238884;}.cls-11{fill:none;}.cls-12{fill:#40b6bd;}.cls-13{fill:#42ab4b;}.cls-14{fill:#69482c;}.cls-15{fill:#2e9aa8;}.cls-16{fill:#14769c;}.cls-17{fill:#1285b3;}.cls-18{fill:#4a9137;}.cls-19{fill:#ed6b35;}.cls-20{fill:#ee7940;}.cls-21{fill:#f18b43;}.cls-22{opacity:0.5;mix-blend-mode:soft-light;}.cls-23{fill:#3e7f38;}.cls-24{fill:#ea7c43;}.cls-25{fill:#d86a3b;}.cls-26{fill:#9ec143;}.cls-27{fill:#77923d;}.cls-28{fill:#617633;}.cls-29{fill:#81a441;}.cls-30{fill:#6bbfb5;}.cls-31{fill:#735524;}.cls-32{fill:#f4b02c;}.cls-33{fill:#f2d330;}.cls-34{fill:#69b42e;}.cls-35{fill:#9ac334;opacity:0.2;}.cls-36{fill:#d23820;}.cls-37{fill:#62ada2;}.cls-38{fill:#d3e494;}</style></defs><title>魚菜V2</title><g class="cls-1"><g id="圖層_1" data-name="圖層 1"><rect class="cls-2" x="-0.15" width="768.3" height="320.22"/><rect class="cls-3" x="151.95" y="294.53" width="10.22" height="22.41"/><rect class="cls-3" x="169.37" y="294.64" width="10.1" height="23.11"/><rect class="cls-3" x="162.75" y="310.9" width="5.81" height="8.94"/><path class="cls-4" d="M168.64,293.25v6.3h-5.89v-8.77l-11.41,2.47v27.14h28.72V290.78Zm-14,22.79h-2v-3h2Zm0-7.27v3h-2v-3h2Zm0-4.28v3h-2v-3h2Zm0-4.28v3h-2v-3h2Zm0-3.39v2.1h-2v-3h2ZM158.07,316h-2v-3h2Zm0-7.27v3h-2v-3h2Zm0-4.28v3h-2v-3h2Zm0-4.28v3h-2v-3h2Zm0-4.13v2.83h-2v-3h2Zm3.39,20h-2v-3h2Zm0-4.29h-2v-3h2Zm0-4.28h-2v-3h2Zm0-4.28h-2v-3h2Zm0-4.28h-2v-3h2Zm6.29,20.51h-4.11V312.5h4.11ZM172,316h-2v-3h2Zm0-7.27v3h-2v-3h2Zm0-4.28v3h-2v-3h2Zm0-4.28v3h-2v-3h2Zm0-3.39v2.1h-2v-3h2ZM175.37,316h-2v-3h2Zm0-7.27v3h-2v-3h2Zm0-4.28v3h-2v-3h2Zm0-4.28v3h-2v-3h2Zm0-4.13v2.83h-2v-3h2Zm3.39,20h-2v-3h2Zm0-4.29h-2v-3h2Zm0-4.28h-2v-3h2Zm0-4.28h-2v-3h2Zm0-4.28h-2v-3h2Z"/><rect class="cls-5" x="179.85" y="276.21" width="27.15" height="44.18"/><path class="cls-6" d="M205.87,272.12v-1.86h-4.31v1.86H178v48.27h11.43V308.5h7.45v11.89h11.43V272.12Zm-18.49,34.16h-7.22V304h7.22Zm0-3.56h-7.22v-2.23h7.22Zm0-3.56h-7.22v-2.23h7.22Zm0-3.38h-7.22v-2.23h7.22Zm0-8.82h-7.22v-2.23h7.22Zm0-3.56h-7.22v-2.23h7.22Zm0-3.56h-7.22v-2.23h7.22Zm9.39,26.46h-7.22V304h7.22Zm0-3.56h-7.22v-2.23h7.22Zm0-3.56h-7.22v-2.23h7.22Zm0-3.38h-7.22v-2.23h7.22Zm0-8.82h-7.22v-2.23h7.22Zm0-3.56h-7.22v-2.23h7.22Zm0-3.56h-7.22v-2.23h7.22Zm9.39,26.46h-7.22V304h7.22Zm0-3.56h-7.22v-2.23h7.22Zm0-3.56h-7.22v-2.23h7.22Zm0-3.38h-7.22v-2.23h7.22Zm0-8.82h-7.22v-2.23h7.22Zm0-3.56h-7.22v-2.23h7.22Zm0-3.56h-7.22v-2.23h7.22Z"/><path class="cls-4" d="M208.09,286.55v33.84h13.47V286.55Zm5.61,29.66h-3.86v-3.86h3.86Zm0-5h-3.86v-3.86h3.86Zm0-5h-3.86v-3.86h3.86Zm0-5h-3.86v-3.86h3.86Zm0-5h-3.86v-3.86h3.86Zm0-5h-3.86v-3.86h3.86Zm6.12,24.76h-3.86v-3.86h3.86Zm0-5h-3.86v-3.86h3.86Zm0-5h-3.86v-3.86h3.86Zm0-5h-3.86v-3.86h3.86Zm0-5h-3.86v-3.86h3.86Zm0-5h-3.86v-3.86h3.86Z"/><polygon class="cls-5" points="246.03 292.49 245.43 320.39 263.73 320.39 263.73 291.8 257.04 283.54 252.91 284.42 246.03 292.49"/><rect class="cls-7" x="226.03" y="302.97" width="19.4" height="17.42"/><rect class="cls-8" x="227.31" y="305.76" width="2.94" height="2.94"/><rect class="cls-8" x="231.94" y="305.76" width="2.94" height="2.94"/><rect class="cls-8" x="236.57" y="305.76" width="2.94" height="2.94"/><rect class="cls-8" x="241.2" y="305.76" width="2.94" height="2.94"/><rect class="cls-8" x="227.31" y="310.16" width="2.94" height="2.94"/><rect class="cls-8" x="231.94" y="310.16" width="2.94" height="2.94"/><rect class="cls-8" x="236.57" y="310.16" width="2.94" height="2.94"/><rect class="cls-8" x="241.2" y="310.16" width="2.94" height="2.94"/><rect class="cls-8" x="227.31" y="314.66" width="2.94" height="2.94"/><rect class="cls-8" x="231.94" y="314.66" width="2.94" height="2.94"/><rect class="cls-8" x="236.57" y="314.66" width="2.94" height="2.94"/><rect class="cls-8" x="241.2" y="314.66" width="2.94" height="2.94"/><path class="cls-9" d="M258.92,283.73v-2h-8.13v2l-5.57,7.57v29.09h19.27V291.3Zm-5.47,2h2.81V290h-2.81ZM257.71,320H252v-7.69h5.71Zm5.47-8.69H246.53v-2.9h16.66Zm0-5H246.53v-2.9h16.66Zm0-5H246.53v-2.9h16.66Zm0-5H246.53v-2.9h16.66Z"/><rect class="cls-8" x="219.51" y="259.19" width="7.74" height="4.34"/><rect class="cls-8" x="216.65" y="261.53" width="16" height="57.95"/><polygon class="cls-10" points="226.09 253.74 224.93 253.74 224.93 242.79 224.07 242.79 224.07 253.74 222.82 253.74 222.82 259.21 226.09 259.21 226.09 253.74"/><rect class="cls-11" x="217.39" y="266.97" width="1.81" height="1.81"/><rect class="cls-11" x="217.39" y="262.45" width="1.81" height="1.81"/><rect class="cls-11" x="217.39" y="266.97" width="1.81" height="1.81"/><rect class="cls-11" x="217.39" y="262.45" width="1.81" height="1.81"/><rect class="cls-11" x="216.98" y="272.27" width="1.85" height="1.81"/><rect class="cls-11" x="217.39" y="266.97" width="1.81" height="1.81"/><rect class="cls-11" x="217.24" y="281.81" width="1.85" height="1.81"/><rect class="cls-11" x="217.39" y="262.45" width="1.81" height="1.81"/><rect class="cls-11" x="216.98" y="272.27" width="1.85" height="1.81"/><rect class="cls-11" x="216.98" y="291.23" width="1.85" height="1.81"/><rect class="cls-11" x="217.24" y="281.81" width="1.85" height="1.81"/><rect class="cls-11" x="216.98" y="272.27" width="1.85" height="1.81"/><rect class="cls-11" x="217.39" y="266.97" width="1.81" height="1.81"/><rect class="cls-11" x="217.39" y="262.45" width="1.81" height="1.81"/><rect class="cls-11" x="217.24" y="281.81" width="1.85" height="1.81"/><rect class="cls-11" x="216.98" y="272.27" width="1.85" height="1.81"/><rect class="cls-11" x="216.98" y="291.23" width="1.85" height="1.81"/><rect class="cls-11" x="216.83" y="299.83" width="1.85" height="1.81"/><rect class="cls-11" x="217.39" y="266.97" width="1.81" height="1.81"/><rect class="cls-11" x="217.39" y="262.45" width="1.81" height="1.81"/><path class="cls-10" d="M216.64,261.54v58.85h2.64V261.54Zm.34,10.73h1.85v1.81H217Zm0,19h1.85V293H217Zm-.15,8.61h1.85v1.81h-1.85ZM219.06,310H217.2v-1.81h1.85Zm0-26.34h-1.85v-1.81h1.85Zm.1-19.36h-1.81v-1.81h1.81Z"/><rect class="cls-11" x="230.05" y="269.22" width="1.85" height="1.81"/><rect class="cls-11" x="230.1" y="262.45" width="1.85" height="1.81"/><rect class="cls-11" x="230.02" y="309.77" width="1.85" height="1.81"/><rect class="cls-11" x="230.05" y="269.22" width="1.85" height="1.81"/><rect class="cls-11" x="230.1" y="262.45" width="1.85" height="1.81"/><rect class="cls-11" x="230.05" y="269.22" width="1.85" height="1.81"/><rect class="cls-11" x="230.1" y="262.45" width="1.85" height="1.81"/><rect class="cls-11" x="230.02" y="309.77" width="1.85" height="1.81"/><rect class="cls-11" x="230.61" y="302.12" width="1.85" height="1.81"/><rect class="cls-11" x="230.1" y="262.45" width="1.85" height="1.81"/><rect class="cls-11" x="230.06" y="294.85" width="1.85" height="1.81"/><rect class="cls-11" x="230.05" y="269.22" width="1.85" height="1.81"/><rect class="cls-11" x="230.02" y="309.77" width="1.85" height="1.81"/><rect class="cls-11" x="230.61" y="302.12" width="1.85" height="1.81"/><rect class="cls-11" x="230.05" y="269.22" width="1.85" height="1.81"/><rect class="cls-11" x="230.06" y="294.85" width="1.85" height="1.81"/><rect class="cls-11" x="230.1" y="262.45" width="1.85" height="1.81"/><rect class="cls-11" x="230.39" y="287.9" width="1.85" height="1.81"/><rect class="cls-11" x="230.61" y="302.12" width="1.85" height="1.81"/><rect class="cls-11" x="230.02" y="309.77" width="1.85" height="1.81"/><path class="cls-10" d="M231.59,261.54h-2v58.85h3V261.54Zm-1.2,28.17V287.9h1.85v1.81Zm1.52,5.13v1.81h-1.85v-1.81Zm0-11.93H230.1V281.1h1.85Zm-1.85-20.47h1.85v1.81H230.1Zm0,6.77h1.85V271h-1.85Zm1.83,42.37H230v-1.81h1.85Zm.59-7.65h-1.85v-1.81h1.85Z"/><path class="cls-12" d="M229.59,261.54v-2.33h-10.3v61.18h10.35V261.54Zm-3.11,30.16v-2.37h2.31v2.37Zm.16,13.31H229v2.32h-2.31Zm.19-19.49V283.2h2.31v2.32Zm.16-20.87h1.81v1.81H227Zm0,4.57h1.81V271H227Zm-.39,7.8h2.31v2.37h-2.31Zm-1.94-17.2h1.85v1.81h-1.85ZM226,289.33v2.37h-2.31v-2.37Zm-1.83-.77h-2.31v-2.32h2.31Zm-1.87-8.45v2.37H220v-2.37Zm-1.37-3.86V274h2.37v2.2Zm1.27,19.61v2.2h-2.37v-2.2Zm-2.31-4.16v-2.37h2.31v2.37Zm.38,10.22h2.31v2.37h-2.31Zm1.91-37.27H224v1.81h-1.85Zm-2.33-4.83h1.81v1.85h-1.81Zm0,9.4h1.81V271H219.8Zm2.33,44.29h-2.31v-2.37h2.31Zm2-3.15h-2.31V308h2.31Zm.66.77h2.31v2.37h-2.31Zm4.3,5.51H226.8v-2.37h2.31Zm0-15.45h-2.31v-2.37h2.31Z"/><path class="cls-13" d="M226,309.24a1.09,1.09,0,0,0-.49-.24,1,1,0,0,0-.3,0,.84.84,0,0,0-.22,0,.95.95,0,0,0-.92-.55H224a1,1,0,0,0-.66.32l0,0a1,1,0,0,0-1.12.23.92.92,0,0,0-.1.15.8.8,0,0,0-1.18,0,.85.85,0,0,1-.78.88.84.84,0,0,1-.81.91.79.79,0,0,0-.21.59.83.83,0,0,0,0,1.12,1,1,0,0,0,.15,1.27l.05,0a1,1,0,0,0,.22.14.95.95,0,0,0,1.1,1.29.94.94,0,0,0,.3.54,1,1,0,0,0,1.2.05.92.92,0,0,0,.22.3,4.63,4.63,0,0,0,2.31-.14l.08-.11h0a1,1,0,0,0,1.35-.08.93.93,0,0,1,.53-.8.94.94,0,0,1,.47-.95,1,1,0,0,0,.23-.54,1,1,0,0,0-.14-1h0a.95.95,0,0,1,0-.82,1,1,0,0,0-.19-.51h0a1,1,0,0,0-.1-.38,1,1,0,0,0-.26-1.05.94.94,0,0,1-.62-.73Z"/><path class="cls-14" d="M225.23,313.7l-.29-.1.13-.1a.19.19,0,0,0-.25-.29l-1.08.88v-1.67a.34.34,0,0,0-.67,0v.85l-.71-.55a.19.19,0,0,0-.23.3l.95.73v1.88l-1.12-1-.17-1a.19.19,0,0,0-.38.06l.09.59-.31-.26a.19.19,0,1,0-.26.28l2.14,1.82v3.92a.34.34,0,0,0,.67,0v-5.47l.85-.69.52.18h.06a.19.19,0,0,0,.06-.37Z"/><path class="cls-13" d="M199.75,309.24a1.09,1.09,0,0,0-.49-.24,1,1,0,0,0-.3,0,.84.84,0,0,0-.22,0,.95.95,0,0,0-.92-.55h-.1a1,1,0,0,0-.66.32l0,0a1,1,0,0,0-1.12.23.91.91,0,0,0-.1.15.8.8,0,0,0-1.18,0,.85.85,0,0,1-.78.88.84.84,0,0,1-.81.91.78.78,0,0,0-.21.59.83.83,0,0,0,0,1.12A1,1,0,0,0,193,314l.05,0a1,1,0,0,0,.22.14.95.95,0,0,0,1.1,1.29.94.94,0,0,0,.3.54,1,1,0,0,0,1.2.05.92.92,0,0,0,.22.3,4.63,4.63,0,0,0,2.31-.14l.08-.11h0a1,1,0,0,0,1.35-.08.93.93,0,0,1,.53-.8.94.94,0,0,1,.47-.95,1,1,0,0,0,.23-.54,1,1,0,0,0-.14-1h0a.95.95,0,0,1,0-.82,1,1,0,0,0-.19-.51h0a1,1,0,0,0-.1-.38,1,1,0,0,0-.26-1.05.94.94,0,0,0-.32-.18A.93.93,0,0,0,199.75,309.24Z"/><path class="cls-14" d="M198.95,313.7l-.29-.1.13-.1a.19.19,0,0,0-.25-.29l-1.08.88v-1.67a.34.34,0,0,0-.67,0v.85l-.71-.55a.19.19,0,0,0-.24.3l.95.73v1.88l-1.12-1-.17-1a.19.19,0,1,0-.38.06l.09.59-.31-.26a.19.19,0,1,0-.26.28l2.14,1.82v3.92a.34.34,0,0,0,.67,0v-5.47l.85-.69.52.18h.06a.19.19,0,0,0,.06-.37Z"/><rect class="cls-15" x="273.53" y="265.34" width="12.47" height="55.05"/><rect class="cls-8" x="275.13" y="270.78" width="8.96" height="1.75"/><rect class="cls-15" x="275.13" y="276.68" width="8.96" height="1.75"/><rect class="cls-15" x="275.13" y="282.58" width="8.96" height="1.75"/><rect class="cls-15" x="275.13" y="288.48" width="8.96" height="1.75"/><rect class="cls-8" x="275.13" y="294.39" width="8.96" height="1.75"/><rect class="cls-15" x="275.13" y="300.29" width="8.96" height="1.75"/><rect class="cls-8" x="275.13" y="306.19" width="8.96" height="1.75"/><rect class="cls-15" x="275.13" y="312.09" width="8.96" height="1.75"/><rect class="cls-6" x="273.53" y="265.34" width="12.47" height="55.05"/><rect class="cls-16" x="275.13" y="270.78" width="8.96" height="1.75"/><rect class="cls-16" x="275.13" y="276.68" width="8.96" height="1.75"/><rect class="cls-16" x="275.13" y="282.58" width="8.96" height="1.75"/><rect class="cls-16" x="275.13" y="288.48" width="8.96" height="1.75"/><rect class="cls-16" x="275.13" y="294.39" width="8.96" height="1.75"/><rect class="cls-16" x="275.13" y="300.29" width="8.96" height="1.75"/><rect class="cls-16" x="275.13" y="306.19" width="8.96" height="1.75"/><rect class="cls-16" x="275.13" y="312.09" width="8.96" height="1.75"/><polygon class="cls-17" points="273.54 275.4 264.38 284.49 264.38 320.39 273.54 320.39 273.54 275.4"/><rect class="cls-8" x="264.87" y="287.85" width="1.14" height="3.2"/><rect class="cls-8" x="266.63" y="287.85" width="1.14" height="3.2"/><rect class="cls-8" x="268.39" y="287.85" width="1.14" height="3.2"/><rect class="cls-8" x="270.15" y="287.85" width="1.14" height="3.2"/><rect class="cls-8" x="271.91" y="287.85" width="1.14" height="3.2"/><rect class="cls-8" x="264.87" y="291.95" width="1.14" height="3.2"/><rect class="cls-8" x="266.63" y="291.95" width="1.14" height="3.2"/><rect class="cls-8" x="268.39" y="291.95" width="1.14" height="3.2"/><rect class="cls-8" x="270.15" y="291.95" width="1.14" height="3.2"/><rect class="cls-8" x="271.91" y="291.95" width="1.14" height="3.2"/><rect class="cls-8" x="264.87" y="296.05" width="1.14" height="3.2"/><rect class="cls-8" x="266.63" y="296.05" width="1.14" height="3.2"/><rect class="cls-8" x="268.39" y="296.05" width="1.14" height="3.2"/><rect class="cls-8" x="270.15" y="296.05" width="1.14" height="3.2"/><rect class="cls-8" x="271.91" y="296.05" width="1.14" height="3.2"/><rect class="cls-8" x="264.87" y="300.14" width="1.14" height="3.2"/><rect class="cls-8" x="266.63" y="300.14" width="1.14" height="3.2"/><rect class="cls-8" x="268.39" y="300.14" width="1.14" height="3.2"/><rect class="cls-8" x="270.15" y="300.14" width="1.14" height="3.2"/><rect class="cls-8" x="271.91" y="300.14" width="1.14" height="3.2"/><rect class="cls-8" x="264.87" y="304.24" width="1.14" height="3.2"/><rect class="cls-8" x="266.63" y="304.24" width="1.14" height="3.2"/><rect class="cls-8" x="268.39" y="304.24" width="1.14" height="3.2"/><rect class="cls-8" x="270.15" y="304.24" width="1.14" height="3.2"/><rect class="cls-8" x="271.91" y="304.24" width="1.14" height="3.2"/><rect class="cls-8" x="264.87" y="308.34" width="1.14" height="3.2"/><rect class="cls-8" x="266.63" y="308.34" width="1.14" height="3.2"/><rect class="cls-8" x="268.39" y="308.34" width="1.14" height="3.2"/><rect class="cls-8" x="270.15" y="308.34" width="1.14" height="3.2"/><rect class="cls-8" x="271.91" y="308.34" width="1.14" height="3.2"/><rect class="cls-8" x="264.87" y="312.44" width="1.14" height="3.2"/><rect class="cls-8" x="266.63" y="312.44" width="1.14" height="3.2"/><rect class="cls-8" x="268.39" y="312.44" width="1.14" height="3.2"/><rect class="cls-8" x="270.15" y="312.44" width="1.14" height="3.2"/><rect class="cls-8" x="271.91" y="312.44" width="1.14" height="3.2"/><polygon class="cls-17" points="285.9 275.4 295.06 284.49 295.06 320.39 285.9 320.39 285.9 275.4"/><rect class="cls-8" x="293.44" y="287.85" width="1.14" height="3.2"/><rect class="cls-8" x="291.67" y="287.85" width="1.14" height="3.2"/><rect class="cls-8" x="289.91" y="287.85" width="1.14" height="3.2"/><rect class="cls-8" x="288.15" y="287.85" width="1.14" height="3.2"/><rect class="cls-8" x="286.39" y="287.85" width="1.14" height="3.2"/><rect class="cls-8" x="293.44" y="291.95" width="1.14" height="3.2"/><rect class="cls-8" x="291.67" y="291.95" width="1.14" height="3.2"/><rect class="cls-8" x="289.91" y="291.95" width="1.14" height="3.2"/><rect class="cls-8" x="288.15" y="291.95" width="1.14" height="3.2"/><rect class="cls-8" x="286.39" y="291.95" width="1.14" height="3.2"/><rect class="cls-8" x="293.44" y="296.05" width="1.14" height="3.2"/><rect class="cls-8" x="291.67" y="296.05" width="1.14" height="3.2"/><rect class="cls-8" x="289.91" y="296.05" width="1.14" height="3.2"/><rect class="cls-8" x="288.15" y="296.05" width="1.14" height="3.2"/><rect class="cls-8" x="286.39" y="296.05" width="1.14" height="3.2"/><rect class="cls-8" x="293.44" y="300.14" width="1.14" height="3.2"/><rect class="cls-8" x="291.67" y="300.14" width="1.14" height="3.2"/><rect class="cls-8" x="289.91" y="300.14" width="1.14" height="3.2"/><rect class="cls-8" x="288.15" y="300.14" width="1.14" height="3.2"/><rect class="cls-8" x="286.39" y="300.14" width="1.14" height="3.2"/><rect class="cls-8" x="293.44" y="304.24" width="1.14" height="3.2"/><rect class="cls-8" x="291.67" y="304.24" width="1.14" height="3.2"/><rect class="cls-8" x="289.91" y="304.24" width="1.14" height="3.2"/><rect class="cls-8" x="288.15" y="304.24" width="1.14" height="3.2"/><rect class="cls-8" x="286.39" y="304.24" width="1.14" height="3.2"/><rect class="cls-8" x="293.44" y="308.34" width="1.14" height="3.2"/><rect class="cls-8" x="291.67" y="308.34" width="1.14" height="3.2"/><rect class="cls-8" x="289.91" y="308.34" width="1.14" height="3.2"/><rect class="cls-8" x="288.15" y="308.34" width="1.14" height="3.2"/><rect class="cls-8" x="286.39" y="308.34" width="1.14" height="3.2"/><rect class="cls-8" x="293.44" y="312.44" width="1.14" height="3.2"/><rect class="cls-8" x="291.67" y="312.44" width="1.14" height="3.2"/><rect class="cls-8" x="289.91" y="312.44" width="1.14" height="3.2"/><rect class="cls-8" x="288.15" y="312.44" width="1.14" height="3.2"/><rect class="cls-8" x="286.39" y="312.44" width="1.14" height="3.2"/><rect class="cls-3" x="137.9" y="294.36" width="10.22" height="22.41"/><rect class="cls-3" x="120.6" y="294.47" width="10.1" height="23.11"/><rect class="cls-3" x="131.52" y="310.73" width="5.81" height="8.94"/><path class="cls-4" d="M120,290.6v29.61h28.72V293.07l-11.41-2.47v8.77h-5.89v-6.3Zm25.38,22.27h2v3h-2Zm0-4.29h2v3h-2v-3Zm0-4.28h2v3h-2v-3Zm0-4.28h2v3h-2v-3Zm0-4.28h2v3h-2v-3ZM142,312.87h2v3h-2Zm0-4.29h2v3h-2v-3Zm0-4.28h2v3h-2v-3Zm0-4.28h2v3h-2v-3Zm0-4.28h2v3h-2v-3Zm-3.39,17.13h2v3h-2Zm0-4.29h2v3h-2Zm0-4.28h2v3h-2Zm0-4.28h2v3h-2Zm0-4.28h2v3h-2Zm-6.29,16.58h4.11v6.92h-4.11Zm-4.23.55h2v3h-2Zm0-4.29h2v3h-2v-3Zm0-4.28h2v3h-2v-3Zm0-4.28h2v3h-2v-3Zm0-4.28h2v3h-2v-3Zm-3.39,17.13h2v3h-2Zm0-4.29h2v3h-2v-3Zm0-4.28h2v3h-2v-3Zm0-4.28h2v3h-2v-3Zm0-4.28h2v3h-2v-3Zm-3.39,17.13h2v3h-2Zm0-4.29h2v3h-2Zm0-4.28h2v3h-2Zm0-4.28h2v3h-2Zm0-4.28h2v3h-2Z"/><rect class="cls-5" x="93.08" y="276.03" width="27.15" height="44.18"/><path class="cls-6" d="M91.76,271.95v48.27h11.43V308.33h7.45v11.89h11.43V271.95H98.51v-1.86H94.2v1.86Zm20.94,31.93h7.22v2.23h-7.22Zm0-3.56h7.22v2.23h-7.22Zm0-3.56h7.22V299h-7.22Zm0-3.38h7.22v2.23h-7.22Zm0-8.82h7.22v2.23h-7.22Zm0-3.56h7.22v2.23h-7.22Zm0-3.56h7.22v2.23h-7.22Zm-9.39,26.46h7.22v2.23h-7.22Zm0-3.56h7.22v2.23h-7.22Zm0-3.56h7.22V299h-7.22Zm0-3.38h7.22v2.23h-7.22Zm0-8.82h7.22v2.23h-7.22Zm0-3.56h7.22v2.23h-7.22Zm0-3.56h7.22v2.23h-7.22Zm-9.39,26.46h7.22v2.23H93.92Zm0-3.56h7.22v2.23H93.92Zm0-3.56h7.22V299H93.92Zm0-3.38h7.22v2.23H93.92Zm0-8.82h7.22v2.23H93.92Zm0-3.56h7.22v2.23H93.92Zm0-3.56h7.22v2.23H93.92Z"/><path class="cls-4" d="M78.52,286.37v33.84H92V286.37Zm7.86,25.8h3.86V316H86.38Zm0-5h3.86v3.86H86.38Zm0-5h3.86v3.86H86.38Zm0-5h3.86v3.86H86.38Zm0-5h3.86v3.86H86.38Zm0-5h3.86v3.86H86.38Zm-6.12,24.76h3.86V316H80.26Zm0-5h3.86v3.86H80.26Zm0-5h3.86v3.86H80.26Zm0-5h3.86v3.86H80.26Zm0-5h3.86v3.86H80.26Zm0-5h3.86v3.86H80.26Z"/><polygon class="cls-5" points="54.05 292.31 54.65 320.22 36.35 320.22 36.35 291.62 43.03 283.36 47.16 284.25 54.05 292.31"/><rect class="cls-7" x="54.65" y="302.8" width="19.4" height="17.42"/><rect class="cls-8" x="69.82" y="305.59" width="2.94" height="2.94"/><rect class="cls-8" x="65.19" y="305.59" width="2.94" height="2.94"/><rect class="cls-8" x="60.56" y="305.59" width="2.94" height="2.94"/><rect class="cls-8" x="55.93" y="305.59" width="2.94" height="2.94"/><rect class="cls-8" x="69.82" y="309.99" width="2.94" height="2.94"/><rect class="cls-8" x="65.19" y="309.99" width="2.94" height="2.94"/><rect class="cls-8" x="60.56" y="309.99" width="2.94" height="2.94"/><rect class="cls-8" x="55.93" y="309.99" width="2.94" height="2.94"/><rect class="cls-8" x="69.82" y="314.48" width="2.94" height="2.94"/><rect class="cls-8" x="65.19" y="314.48" width="2.94" height="2.94"/><rect class="cls-8" x="60.56" y="314.48" width="2.94" height="2.94"/><rect class="cls-8" x="55.93" y="314.48" width="2.94" height="2.94"/><path class="cls-9" d="M35.58,291.12v29.09H54.85V291.12l-5.57-7.57v-2H41.15v2Zm11-1.25H43.81v-4.35h2.81Zm-4.26,22.28h5.71v7.69H42.36Zm-5.47-3.89H53.55v2.9H36.89Zm0-5H53.55v2.9H36.89Zm0-5H53.55v2.9H36.89Zm0-5H53.55V296H36.89Z"/><rect class="cls-8" x="71.83" y="259.02" width="7.74" height="4.34"/><rect class="cls-8" x="66.42" y="261.36" width="16" height="57.95"/><polygon class="cls-10" points="72.98 253.56 74.14 253.56 74.14 242.61 75.01 242.61 75.01 253.56 76.26 253.56 76.26 259.04 72.98 259.04 72.98 253.56"/><rect class="cls-11" x="79.88" y="266.8" width="1.81" height="1.81"/><rect class="cls-11" x="79.88" y="262.27" width="1.81" height="1.81"/><rect class="cls-11" x="79.88" y="266.8" width="1.81" height="1.81"/><rect class="cls-11" x="79.88" y="262.27" width="1.81" height="1.81"/><rect class="cls-11" x="80.24" y="272.1" width="1.85" height="1.81"/><rect class="cls-11" x="79.88" y="266.8" width="1.81" height="1.81"/><rect class="cls-11" x="79.98" y="281.63" width="1.85" height="1.81"/><rect class="cls-11" x="79.88" y="262.27" width="1.81" height="1.81"/><rect class="cls-11" x="80.24" y="272.1" width="1.85" height="1.81"/><rect class="cls-11" x="80.24" y="291.05" width="1.85" height="1.81"/><rect class="cls-11" x="79.98" y="281.63" width="1.85" height="1.81"/><rect class="cls-11" x="80.24" y="272.1" width="1.85" height="1.81"/><rect class="cls-11" x="79.88" y="266.8" width="1.81" height="1.81"/><rect class="cls-11" x="79.88" y="262.27" width="1.81" height="1.81"/><rect class="cls-11" x="79.98" y="281.63" width="1.85" height="1.81"/><rect class="cls-11" x="80.24" y="272.1" width="1.85" height="1.81"/><rect class="cls-11" x="80.24" y="291.05" width="1.85" height="1.81"/><rect class="cls-11" x="80.39" y="299.66" width="1.85" height="1.81"/><rect class="cls-11" x="79.88" y="266.8" width="1.81" height="1.81"/><rect class="cls-11" x="79.88" y="262.27" width="1.81" height="1.81"/><path class="cls-10" d="M79.79,261.37v58.85h2.64V261.37Zm2.3,12.54H80.24V272.1h1.85Zm0,19H80.24v-1.81h1.85Zm.15,8.61H80.39v-1.81h1.85ZM80,308h1.85v1.81H80Zm0-26.34h1.85v1.81H80Zm-.1-19.36h1.81v1.81H79.88Z"/><rect class="cls-11" x="67.17" y="269.04" width="1.85" height="1.81"/><rect class="cls-11" x="67.12" y="262.27" width="1.85" height="1.81"/><rect class="cls-11" x="67.2" y="309.6" width="1.85" height="1.81"/><rect class="cls-11" x="67.17" y="269.04" width="1.85" height="1.81"/><rect class="cls-11" x="67.12" y="262.27" width="1.85" height="1.81"/><rect class="cls-11" x="67.17" y="269.04" width="1.85" height="1.81"/><rect class="cls-11" x="67.12" y="262.27" width="1.85" height="1.81"/><rect class="cls-11" x="67.2" y="309.6" width="1.85" height="1.81"/><rect class="cls-11" x="66.61" y="301.95" width="1.85" height="1.81"/><rect class="cls-11" x="67.12" y="262.27" width="1.85" height="1.81"/><rect class="cls-11" x="67.16" y="294.67" width="1.85" height="1.81"/><rect class="cls-11" x="67.17" y="269.04" width="1.85" height="1.81"/><rect class="cls-11" x="67.2" y="309.6" width="1.85" height="1.81"/><rect class="cls-11" x="66.61" y="301.95" width="1.85" height="1.81"/><rect class="cls-11" x="67.17" y="269.04" width="1.85" height="1.81"/><rect class="cls-11" x="67.16" y="294.67" width="1.85" height="1.81"/><rect class="cls-11" x="67.12" y="262.27" width="1.85" height="1.81"/><rect class="cls-11" x="66.83" y="287.73" width="1.85" height="1.81"/><rect class="cls-11" x="66.61" y="301.95" width="1.85" height="1.81"/><rect class="cls-11" x="67.2" y="309.6" width="1.85" height="1.81"/><path class="cls-10" d="M66.43,261.37v58.85h3V261.37h-3Zm.4,28.17v-1.81h1.85v1.81ZM69,294.67v1.81H67.16v-1.81Zm-1.89-13.74H69v1.81H67.12ZM69,264.09H67.12v-1.81H69Zm0,6.77H67.17V269H69ZM67.2,309.6h1.85v1.81H67.2ZM66.61,302h1.85v1.81H66.61Z"/><path class="cls-12" d="M69.44,261.37v58.85H79.79V259H69.49v2.33Zm.84,30.16v-2.37h2.31v2.37Zm2.15,15.63H70.12v-2.32h2.31Zm-2.51-21.81V283h2.31v2.32Zm2.15-19.06H70.26v-1.81h1.81Zm0,4.57H70.26V269h1.81Zm.39,8.36H70.15v-2.37h2.31Zm1.94-17.76H72.55v-1.81H74.4Zm1,27.7v2.37H73.09v-2.37Zm-.48-3.09h2.31v2.32H74.92Zm4.18-6.13v2.37H76.78v-2.37Zm-3.31-3.86v-2.2h2.37v2.2Zm3.46,19.61v2.2H76.88v-2.2Zm-2.37-4.16v-2.37h2.31v2.37Zm1.93,12.59H76.5v-2.37h2.31ZM76.9,266.28H75v-1.81H76.9Zm2.33-4.79H77.42v-1.85h1.81Zm0,9.36H77.46V269h1.81ZM76.95,311h2.31v2.37H76.95Zm-2-3.09h2.31v2.32H74.92Zm-.66,5.47H71.94V311h2.31Zm-4.3.76h2.31v2.37H70Zm0-15.45h2.31V301H69.93Z"/><path class="cls-13" d="M74,309.07a1.09,1.09,0,0,1,.49-.24,1,1,0,0,1,.3,0,.84.84,0,0,1,.22,0,.95.95,0,0,1,.92-.55h.1a1,1,0,0,1,.66.32l0,0a1,1,0,0,1,1.12.23.92.92,0,0,1,.1.15.8.8,0,0,1,1.18,0,.85.85,0,0,0,.78.88.84.84,0,0,0,.81.91.79.79,0,0,1,.21.59.83.83,0,0,1,0,1.12,1,1,0,0,1-.15,1.27l-.05,0a1,1,0,0,1-.22.14.95.95,0,0,1-1.1,1.29.94.94,0,0,1-.3.54,1,1,0,0,1-1.2.05.92.92,0,0,1-.22.3,1,1,0,0,1-1.16.08,1,1,0,0,1-1.15-.22l-.08-.11h0a1,1,0,0,1-1.35-.08.93.93,0,0,0-.53-.8.94.94,0,0,0-.47-.95,1,1,0,0,1-.23-.54,1,1,0,0,1,.14-1h0a.95.95,0,0,0,0-.82,1,1,0,0,1,.19-.51h0a1,1,0,0,1,.1-.38,1,1,0,0,1,.26-1.05.94.94,0,0,0,.62-.73Z"/><path class="cls-14" d="M74.84,313.53l.29-.1-.13-.1a.19.19,0,0,1,.25-.29l1.08.88v-1.67a.34.34,0,0,1,.67,0v.85l.71-.55a.19.19,0,0,1,.23.3l-.95.73v1.88l1.12-1,.17-1a.19.19,0,0,1,.38.06l-.09.59.31-.26a.19.19,0,1,1,.26.28L77,316v3.92a.34.34,0,0,1-.67,0v-5.47l-.85-.69-.52.18H74.9a.19.19,0,0,1-.06-.37Z"/><path class="cls-13" d="M100.32,309.07a1.09,1.09,0,0,1,.49-.24,1,1,0,0,1,.3,0,.84.84,0,0,1,.22,0,.95.95,0,0,1,.92-.55h.1a1,1,0,0,1,.66.32l0,0a1,1,0,0,1,1.12.23.91.91,0,0,1,.1.15.8.8,0,0,1,1.18,0,.85.85,0,0,0,.78.88.84.84,0,0,0,.81.91.78.78,0,0,1,.21.59.83.83,0,0,1,0,1.12,1,1,0,0,1-.15,1.27l-.05,0a1,1,0,0,1-.22.14.95.95,0,0,1-1.1,1.29.94.94,0,0,1-.3.54,1,1,0,0,1-1.2.05.92.92,0,0,1-.22.3,4.63,4.63,0,0,1-2.31-.14l-.08-.11h0a1,1,0,0,1-1.35-.08.93.93,0,0,0-.53-.8.94.94,0,0,0-.47-.95,1,1,0,0,1-.23-.54,1,1,0,0,1,.14-1h0a.95.95,0,0,0,0-.82,1,1,0,0,1,.19-.51h0a1,1,0,0,1,.1-.38,1,1,0,0,1,.26-1.05.94.94,0,0,1,.32-.18A.93.93,0,0,1,100.32,309.07Z"/><path class="cls-14" d="M101.13,313.53l.29-.1-.13-.1a.19.19,0,0,1,.25-.29l1.08.88v-1.67a.34.34,0,0,1,.67,0v.85l.71-.55a.19.19,0,0,1,.24.3l-.95.73v1.88l1.12-1,.17-1a.19.19,0,1,1,.38.06l-.09.59.31-.26a.19.19,0,1,1,.26.28L103.29,316v3.92a.34.34,0,0,1-.67,0v-5.47l-.85-.69-.52.18h-.06a.19.19,0,0,1-.06-.37Z"/><rect class="cls-15" x="14.07" y="265.16" width="12.47" height="55.05"/><rect class="cls-8" x="15.98" y="270.61" width="8.96" height="1.75"/><rect class="cls-15" x="15.98" y="276.51" width="8.96" height="1.75"/><rect class="cls-15" x="15.98" y="282.41" width="8.96" height="1.75"/><rect class="cls-15" x="15.98" y="288.31" width="8.96" height="1.75"/><rect class="cls-8" x="15.98" y="294.21" width="8.96" height="1.75"/><rect class="cls-15" x="15.98" y="300.12" width="8.96" height="1.75"/><rect class="cls-8" x="15.98" y="306.02" width="8.96" height="1.75"/><rect class="cls-15" x="15.98" y="311.92" width="8.96" height="1.75"/><rect class="cls-6" x="14.07" y="265.16" width="12.47" height="55.05"/><rect class="cls-16" x="15.98" y="270.61" width="8.96" height="1.75"/><rect class="cls-16" x="15.98" y="276.51" width="8.96" height="1.75"/><rect class="cls-16" x="15.98" y="282.41" width="8.96" height="1.75"/><rect class="cls-16" x="15.98" y="288.31" width="8.96" height="1.75"/><rect class="cls-16" x="15.98" y="294.21" width="8.96" height="1.75"/><rect class="cls-16" x="15.98" y="300.12" width="8.96" height="1.75"/><rect class="cls-16" x="15.98" y="306.02" width="8.96" height="1.75"/><rect class="cls-16" x="15.98" y="311.92" width="8.96" height="1.75"/><polygon class="cls-17" points="26.54 275.23 35.7 284.32 35.7 320.22 26.54 320.22 26.54 275.23"/><rect class="cls-8" x="34.07" y="287.68" width="1.14" height="3.2"/><rect class="cls-8" x="32.31" y="287.68" width="1.14" height="3.2"/><rect class="cls-8" x="30.55" y="287.68" width="1.14" height="3.2"/><rect class="cls-8" x="28.78" y="287.68" width="1.14" height="3.2"/><rect class="cls-8" x="27.02" y="287.68" width="1.14" height="3.2"/><rect class="cls-8" x="34.07" y="291.77" width="1.14" height="3.2"/><rect class="cls-8" x="32.31" y="291.77" width="1.14" height="3.2"/><rect class="cls-8" x="30.55" y="291.77" width="1.14" height="3.2"/><rect class="cls-8" x="28.78" y="291.77" width="1.14" height="3.2"/><rect class="cls-8" x="27.02" y="291.77" width="1.14" height="3.2"/><rect class="cls-8" x="34.07" y="295.87" width="1.14" height="3.2"/><rect class="cls-8" x="32.31" y="295.87" width="1.14" height="3.2"/><rect class="cls-8" x="30.55" y="295.87" width="1.14" height="3.2"/><rect class="cls-8" x="28.78" y="295.87" width="1.14" height="3.2"/><rect class="cls-8" x="27.02" y="295.87" width="1.14" height="3.2"/><rect class="cls-8" x="34.07" y="299.97" width="1.14" height="3.2"/><rect class="cls-8" x="32.31" y="299.97" width="1.14" height="3.2"/><rect class="cls-8" x="30.55" y="299.97" width="1.14" height="3.2"/><rect class="cls-8" x="28.78" y="299.97" width="1.14" height="3.2"/><rect class="cls-8" x="27.02" y="299.97" width="1.14" height="3.2"/><rect class="cls-8" x="34.07" y="304.07" width="1.14" height="3.2"/><rect class="cls-8" x="32.31" y="304.07" width="1.14" height="3.2"/><rect class="cls-8" x="30.55" y="304.07" width="1.14" height="3.2"/><rect class="cls-8" x="28.78" y="304.07" width="1.14" height="3.2"/><rect class="cls-8" x="27.02" y="304.07" width="1.14" height="3.2"/><rect class="cls-8" x="34.07" y="308.16" width="1.14" height="3.2"/><rect class="cls-8" x="32.31" y="308.16" width="1.14" height="3.2"/><rect class="cls-8" x="30.55" y="308.16" width="1.14" height="3.2"/><rect class="cls-8" x="28.78" y="308.16" width="1.14" height="3.2"/><rect class="cls-8" x="27.02" y="308.16" width="1.14" height="3.2"/><rect class="cls-8" x="34.07" y="312.26" width="1.14" height="3.2"/><rect class="cls-8" x="32.31" y="312.26" width="1.14" height="3.2"/><rect class="cls-8" x="30.55" y="312.26" width="1.14" height="3.2"/><rect class="cls-8" x="28.78" y="312.26" width="1.14" height="3.2"/><rect class="cls-8" x="27.02" y="312.26" width="1.14" height="3.2"/><polygon class="cls-17" points="14.17 275.23 5.01 284.32 5.01 320.22 14.17 320.22 14.17 275.23"/><rect class="cls-8" x="5.5" y="287.68" width="1.14" height="3.2"/><rect class="cls-8" x="7.26" y="287.68" width="1.14" height="3.2"/><rect class="cls-8" x="9.02" y="287.68" width="1.14" height="3.2"/><rect class="cls-8" x="10.78" y="287.68" width="1.14" height="3.2"/><rect class="cls-8" x="12.55" y="287.68" width="1.14" height="3.2"/><rect class="cls-8" x="5.5" y="291.77" width="1.14" height="3.2"/><rect class="cls-8" x="7.26" y="291.77" width="1.14" height="3.2"/><rect class="cls-8" x="9.02" y="291.77" width="1.14" height="3.2"/><rect class="cls-8" x="10.78" y="291.77" width="1.14" height="3.2"/><rect class="cls-8" x="12.55" y="291.77" width="1.14" height="3.2"/><rect class="cls-8" x="5.5" y="295.87" width="1.14" height="3.2"/><rect class="cls-8" x="7.26" y="295.87" width="1.14" height="3.2"/><rect class="cls-8" x="9.02" y="295.87" width="1.14" height="3.2"/><rect class="cls-8" x="10.78" y="295.87" width="1.14" height="3.2"/><rect class="cls-8" x="12.55" y="295.87" width="1.14" height="3.2"/><rect class="cls-8" x="5.5" y="299.97" width="1.14" height="3.2"/><rect class="cls-8" x="7.26" y="299.97" width="1.14" height="3.2"/><rect class="cls-8" x="9.02" y="299.97" width="1.14" height="3.2"/><rect class="cls-8" x="10.78" y="299.97" width="1.14" height="3.2"/><rect class="cls-8" x="12.55" y="299.97" width="1.14" height="3.2"/><rect class="cls-8" x="5.5" y="304.07" width="1.14" height="3.2"/><rect class="cls-8" x="7.26" y="304.07" width="1.14" height="3.2"/><rect class="cls-8" x="9.02" y="304.07" width="1.14" height="3.2"/><rect class="cls-8" x="10.78" y="304.07" width="1.14" height="3.2"/><rect class="cls-8" x="12.55" y="304.07" width="1.14" height="3.2"/><rect class="cls-8" x="5.5" y="308.16" width="1.14" height="3.2"/><rect class="cls-8" x="7.26" y="308.16" width="1.14" height="3.2"/><rect class="cls-8" x="9.02" y="308.16" width="1.14" height="3.2"/><rect class="cls-8" x="10.78" y="308.16" width="1.14" height="3.2"/><rect class="cls-8" x="12.55" y="308.16" width="1.14" height="3.2"/><rect class="cls-8" x="5.5" y="312.26" width="1.14" height="3.2"/><rect class="cls-8" x="7.26" y="312.26" width="1.14" height="3.2"/><rect class="cls-8" x="9.02" y="312.26" width="1.14" height="3.2"/><rect class="cls-8" x="10.78" y="312.26" width="1.14" height="3.2"/><rect class="cls-8" x="12.55" y="312.26" width="1.14" height="3.2"/><path class="cls-18" d="M484.12,97.25l-.82-.37s.7-1.7-.57-1.5-1.1,4.06,1.31,4.09l-1.36.29-1.08.23-1.19.25-1.53.32h0a2.53,2.53,0,0,0,1.24-2.34,5.93,5.93,0,0,1,.58-2.57,2.2,2.2,0,0,1,1.83-1.24C485.71,94.13,485.08,97.11,484.12,97.25Z"/><path class="cls-18" d="M486.73,100.17c.07.36-.33.77-1.06,1.17a12.13,12.13,0,0,1-2.87,1l-.69.15-.88.15a11.65,11.65,0,0,1-2.91.11c-.8-.1-1.31-.32-1.38-.67s.23-.65.77-1a7.21,7.21,0,0,1,1.18-.59h0a15,15,0,0,1,2.6-.76h0a15.36,15.36,0,0,1,2.49-.3,8.25,8.25,0,0,1,1.35,0C486.16,99.61,486.66,99.83,486.73,100.17Z"/><path class="cls-19" d="M487.3,119.52a24.91,24.91,0,0,1,.12,9.39.63.63,0,0,1,0,.09,20.45,20.45,0,0,1-1.34,4.41,16.77,16.77,0,0,1-2.13,3.63,12.76,12.76,0,0,1-5.34,4.14,11.33,11.33,0,0,1-2,.59c-8,1.61-16.28-5.75-18.42-16.43s2.65-20.65,10.69-22.25a11.26,11.26,0,0,1,2.51-.22,13,13,0,0,1,6.22,1.85,17.07,17.07,0,0,1,3.21,2.45,20.41,20.41,0,0,1,2.87,3.47l.06.09A24.91,24.91,0,0,1,487.3,119.52Z"/><path class="cls-20" d="M490.5,119.07a31.22,31.22,0,0,1-.07,13.44,18.39,18.39,0,0,1-1.46,4l-.05.1a11.62,11.62,0,0,1-2.24,3.06,7.22,7.22,0,0,1-8.09,1.53c-5-2-9.56-8.8-11.3-17.47-1.79-9,0-17.24,4.09-20.84a7.39,7.39,0,0,1,3.46-1.76,7.1,7.1,0,0,1,2.86,0,8.11,8.11,0,0,1,1.35.4,10.74,10.74,0,0,1,2.17,1.15c.33.22.66.47,1,.74l.09.08a18,18,0,0,1,2.67,2.8A30.89,30.89,0,0,1,490.5,119.07Z"/><ellipse class="cls-19" cx="498.36" cy="117.12" rx="14.84" ry="19.72" transform="translate(-13.29 99.99) rotate(-11.31)"/><ellipse class="cls-20" cx="492.28" cy="118.52" rx="11.83" ry="20.68" transform="translate(-13.68 98.83) rotate(-11.31)"/><path class="cls-21" d="M493.5,118.47c1.28,6.42,1.26,12.39.18,16.46a11.3,11.3,0,0,1-1.47,3.48,4.18,4.18,0,0,1-2.55,1.91h0a4.06,4.06,0,0,1-3-.68,10.85,10.85,0,0,1-2.75-2.61c-2.61-3.34-5-8.89-6.27-15.41-1.33-6.67-1.26-12.83-.06-16.91a12.66,12.66,0,0,1,.72-1.92,7.92,7.92,0,0,1,.74-1.26,4.74,4.74,0,0,1,1.34-1.31,3.34,3.34,0,0,1,1.11-.45h0a3.27,3.27,0,0,1,1.12,0,4.61,4.61,0,0,1,1.69.63,7.91,7.91,0,0,1,1.29,1,13.06,13.06,0,0,1,1.32,1.4C489.69,106,492.16,111.75,493.5,118.47Z"/><path class="cls-22" d="M480.73,95.62l8.94,44.7h0a4.06,4.06,0,0,1-3-.68,7.22,7.22,0,0,1-8.09,1.53,11.33,11.33,0,0,1-2,.59c-8,1.61-16.28-5.75-18.42-16.43s2.65-20.65,10.69-22.25a11.26,11.26,0,0,1,2.51-.22,7.39,7.39,0,0,1,3.46-1.76,7.1,7.1,0,0,1,2.86,0,7.21,7.21,0,0,1,1.18-.59h0a2.53,2.53,0,0,0,1.24-2.34A5.93,5.93,0,0,1,480.73,95.62Z"/><path class="cls-23" d="M387.75,181.91q1.52,1.8,3.18,3.93l.7.9-1.69,1.5-.69-.55c-.83-.67-2.34-1.9-4.12-3.49-.74-.66-1.52-1.37-2.32-2.14a58.88,58.88,0,0,1-6.66-7.37l2.52-2.24A76.5,76.5,0,0,1,385.2,179Q386.43,180.33,387.75,181.91Z"/><path class="cls-18" d="M390.22,187.43l-.34.09-.62.17-3.8,1a13.57,13.57,0,0,0-2-2.34A31,31,0,0,0,371,179.29l1.78-1.59c1.84.06,4.92,1,10,4.36.82.54,1.7,1.13,2.64,1.79,1.23.87,2.56,1.86,4,3Z"/><path class="cls-18" d="M392,183.33l-1.08,2.5-.86,2-.2-.32-.42-.69a78,78,0,0,1-4.25-7.86c-2.33-5.07-2.79-8.17-2.56-10.07l2-1.76C386.46,178.73,392,183.33,392,183.33Z"/><path class="cls-24" d="M398.68,181.46c1.27,1.42,3.92,4.83,7.14,9.11l1.83,2.46c3.68,4.93,7.83,10.64,11.42,15.68l1.36,1.91c4.14,5.87,7.26,10.49,7.51,11.37,1.29,4.54.69,5.85-.63,7s-2.69,1.62-7-.18a35.2,35.2,0,0,1-4.52-3.55l-1.33-1.15c-7-6.12-18.66-16.79-25.71-23.58-.82-.79-1.58-1.53-2.26-2.2-1.41-1.39-2.49-2.49-3.12-3.2-2.61-2.92-1.42-6.32.16-8.78a17.77,17.77,0,0,1,1.67-2.18l.32-.35c.49-.53.83-.83.83-.83s.24-.22.67-.55c.22-.17.49-.36.79-.57a17.72,17.72,0,0,1,2-1.2C392.39,179.37,396,178.47,398.68,181.46Z"/><path class="cls-25" d="M386.44,198.36a20.32,20.32,0,0,1,6.17-5.5s-4.48,6-3.91,7.7Z"/><path class="cls-25" d="M398.29,209.39a20.32,20.32,0,0,1,6.17-5.5s-4.48,6-3.91,7.7Z"/><path class="cls-25" d="M418.55,221a43.52,43.52,0,0,0-2.81,4.32l-1.33-1.15A22.09,22.09,0,0,1,418.55,221Z"/><path class="cls-25" d="M405.82,190.57a20.32,20.32,0,0,0-6.17,5.5s6.5-3.77,8.1-3Z"/><path class="cls-25" d="M419.07,208.71l1.36,1.91a34.59,34.59,0,0,0-6.45,2.94A21.76,21.76,0,0,1,419.07,208.71Z"/><path class="cls-22" d="M377.66,173.36,427.31,229c-1.32,1.17-2.69,1.62-7-.18a35.2,35.2,0,0,1-4.52-3.55l-1.33-1.15c-7-6.12-18.66-16.79-25.71-23.58-.82-.79-1.58-1.53-2.26-2.2-1.41-1.39-2.49-2.49-3.12-3.2-2.61-2.92-1.42-6.32.16-8.78A31,31,0,0,0,371,179.29l1.78-1.59c1.84.06,4.92,1,10,4.36a58.88,58.88,0,0,1-6.66-7.37Z"/><path class="cls-26" d="M568.92,123.86c-109.77,0-198.79,87.91-199.08,196.36H768C767.71,211.77,678.69,123.86,568.92,123.86Z"/><path class="cls-27" d="M574.59,156a18.84,18.84,0,0,0,9.65-6.93c4.27-5.66,31.14-43.3,59.91-38.58L634.89,167l-60.69-10Z"/><path class="cls-28" d="M695.54,175.84a18.84,18.84,0,0,1-6.93-9.65c-2.24-6.73-15.68-51-44.45-55.7L634.89,167l60.69,10Z"/><path class="cls-29" d="M633.69,166.48a12.41,12.41,0,0,1-4.57-6.36c-1.48-4.43-10.33-33.59-29.29-36.7l-6.1,37.22,40,6.56Z"/><path class="cls-26" d="M554,153.41a12.42,12.42,0,0,0,6.36-4.57c2.81-3.73,20.52-28.53,39.47-25.42L593,177.28l-39.24-23.2Z"/><path class="cls-30" d="M689.08,200c5.27,11.26,27,24.92,55,33.51q1.94.6,3.87,1.14a196,196,0,0,0-11.43-20.1Z"/><path class="cls-27" d="M420.33,200.16a13,13,0,0,0,2.84-7.71c.25-4.9,1-36.86,19.34-45.3l16.59,35.93-38.6,17.82Z"/><path class="cls-28" d="M497.25,164.64a13,13,0,0,1-7.71-2.84c-3.89-3-28.73-23.11-47-14.66l16.59,35.93,38.6-17.82Z"/><path class="cls-29" d="M692.77,235.25a3,3,0,0,1,1.35-.68,2.71,2.71,0,0,1,.83-.07,2.35,2.35,0,0,1,.62.09,2.64,2.64,0,0,1,2.57-1.54l.27,0a2.66,2.66,0,0,1,1.82.89l.07.09a2.68,2.68,0,0,1,3.11.64,2.55,2.55,0,0,1,.29.4,2.22,2.22,0,0,1,3.27.14,2.35,2.35,0,0,0,2.16,2.44,2.16,2.16,0,0,1,.58,1.74,2.35,2.35,0,0,1,2.25,2.42,2.31,2.31,0,0,1,0,3.12,2.65,2.65,0,0,1-.4,3.52l-.14.13a2.65,2.65,0,0,1-.6.4,2.64,2.64,0,0,1-3.06,3.6,2.62,2.62,0,0,1-.84,1.5,2.68,2.68,0,0,1-3.33.14,2.57,2.57,0,0,1-.62.82,12.89,12.89,0,0,1-6.42-.39,2.64,2.64,0,0,1-.23-.31l0,0a2.68,2.68,0,0,1-3.74-.23,2.59,2.59,0,0,0-1.47-2.24,2.65,2.65,0,0,1-.63-2.08,2.61,2.61,0,0,1-1.33-2,2.7,2.7,0,0,1,.4-2.8h0a2.63,2.63,0,0,0,0-2.28,2.66,2.66,0,0,1,.52-1.43s0,0,0,0a2.77,2.77,0,0,1,.27-1,2.68,2.68,0,0,1,.71-2.92,2.62,2.62,0,0,0,1.74-2Z"/><path class="cls-31" d="M695,247.66l.81-.28-.36-.29a.53.53,0,0,1,.69-.82l3,2.45v-4.64a.93.93,0,1,1,1.87,0v2.36l2-1.54a.53.53,0,0,1,.65.85l-2.64,2V253l3.13-2.66.46-2.86a.53.53,0,0,1,1.06.17l-.26,1.63.86-.73a.53.53,0,1,1,.72.79l-6,5.06v10.9a.93.93,0,0,1-1.87,0V250.1l-2.37-1.93-1.45.49-.17,0a.53.53,0,0,1-.17-1Z"/><ellipse class="cls-32" cx="671.77" cy="132.26" rx="41.55" ry="12.71" transform="translate(157.01 583.69) rotate(-52.39)"/><path class="cls-33" d="M684.47,108.31a1.8,1.8,0,0,1-2.53.33l-2.27-1.75a1.8,1.8,0,0,1-.33-2.53h0a1.8,1.8,0,0,1,2.53-.33l2.27,1.75a1.8,1.8,0,0,1,.33,2.53Z"/><path class="cls-33" d="M689.82,112.43a1.8,1.8,0,0,1-2.53.33L685,111a1.8,1.8,0,0,1-.33-2.53h0a1.8,1.8,0,0,1,2.53-.33l2.27,1.75a1.8,1.8,0,0,1,.33,2.53Z"/><path class="cls-33" d="M695.17,116.55a1.8,1.8,0,0,1-2.53.33l-2.27-1.75a1.8,1.8,0,0,1-.33-2.53h0a1.8,1.8,0,0,1,2.53-.33l2.27,1.75a1.8,1.8,0,0,1,.33,2.53Z"/><path class="cls-33" d="M686.92,105.65a1.52,1.52,0,0,1-2.13.28l-1.91-1.47a1.52,1.52,0,0,1-.28-2.13h0a1.52,1.52,0,0,1,2.13-.28l1.91,1.47a1.52,1.52,0,0,1,.28,2.13Z"/><path class="cls-33" d="M691.61,109.26a1.52,1.52,0,0,1-2.13.28l-1.91-1.47a1.52,1.52,0,0,1-.28-2.13h0a1.52,1.52,0,0,1,2.13-.28l1.91,1.47a1.52,1.52,0,0,1,.28,2.13Z"/><path class="cls-33" d="M696.24,112.83a1.52,1.52,0,0,1-2.13.28l-1.91-1.47a1.52,1.52,0,0,1-.28-2.13h0a1.52,1.52,0,0,1,2.13-.28L696,110.7a1.52,1.52,0,0,1,.28,2.13Z"/><path class="cls-33" d="M689.27,103.71a1.32,1.32,0,0,1-1.85.24l-1.66-1.28a1.32,1.32,0,0,1-.24-1.85h0a1.32,1.32,0,0,1,1.85-.24l1.66,1.28a1.32,1.32,0,0,1,.24,1.85Z"/><path class="cls-33" d="M693.23,106.76a1.32,1.32,0,0,1-1.84.24l-1.66-1.28a1.32,1.32,0,0,1-.24-1.84h0a1.32,1.32,0,0,1,1.84-.24l1.66,1.28a1.32,1.32,0,0,1,.24,1.84Z"/><path class="cls-33" d="M697.26,109.86a1.32,1.32,0,0,1-1.84.24l-1.66-1.28a1.32,1.32,0,0,1-.24-1.84h0a1.32,1.32,0,0,1,1.84-.24L697,108a1.32,1.32,0,0,1,.24,1.84Z"/><path class="cls-33" d="M691.39,102a1.17,1.17,0,0,1-1.64.21l-1.48-1.14a1.17,1.17,0,0,1-.21-1.64h0a1.17,1.17,0,0,1,1.64-.21l1.48,1.14a1.17,1.17,0,0,1,.21,1.64Z"/><path class="cls-33" d="M695.1,104.85a1.17,1.17,0,0,1-1.64.21L692,103.92a1.17,1.17,0,0,1-.21-1.64h0a1.17,1.17,0,0,1,1.64-.21l1.48,1.14a1.17,1.17,0,0,1,.21,1.64Z"/><path class="cls-33" d="M698.79,107.69a1.17,1.17,0,0,1-1.64.21l-1.48-1.14a1.17,1.17,0,0,1-.21-1.64h0a1.17,1.17,0,0,1,1.64-.21l1.48,1.14a1.17,1.17,0,0,1,.21,1.64Z"/><path class="cls-33" d="M693.87,100.76a1.1,1.1,0,0,1-1.55.2l-1.39-1.07a1.1,1.1,0,0,1-.2-1.55h0a1.1,1.1,0,0,1,1.55-.2l1.39,1.07a1.1,1.1,0,0,1,.2,1.55Z"/><path class="cls-33" d="M697.23,103.35a1.1,1.1,0,0,1-1.55.2l-1.39-1.07a1.1,1.1,0,0,1-.2-1.55h0a1.1,1.1,0,0,1,1.55-.2L697,101.8a1.1,1.1,0,0,1,.2,1.55Z"/><path class="cls-33" d="M700.5,105.87a1.1,1.1,0,0,1-1.55.2L697.56,105a1.1,1.1,0,0,1-.2-1.55h0a1.1,1.1,0,0,1,1.55-.2l1.39,1.07a1.1,1.1,0,0,1,.2,1.55Z"/><path class="cls-33" d="M696.48,99.74a1.1,1.1,0,0,1-1.55.2l-1.39-1.07a1.1,1.1,0,0,1-.2-1.55h0a1.1,1.1,0,0,1,1.55-.2l1.39,1.07a1.1,1.1,0,0,1,.2,1.55Z"/><path class="cls-33" d="M699.92,102.39a1.1,1.1,0,0,1-1.55.2L697,101.52a1.1,1.1,0,0,1-.2-1.55h0a1.1,1.1,0,0,1,1.55-.2l1.39,1.07a1.1,1.1,0,0,1,.2,1.55Z"/><path class="cls-33" d="M681.39,110.91a1.8,1.8,0,0,1-2.53.33l-2.27-1.75a1.8,1.8,0,0,1-.33-2.53h0a1.8,1.8,0,0,1,2.53-.33l2.27,1.75a1.8,1.8,0,0,1,.33,2.53Z"/><path class="cls-33" d="M686.81,115.08a1.8,1.8,0,0,1-2.53.33L682,113.66a1.8,1.8,0,0,1-.33-2.53h0a1.8,1.8,0,0,1,2.53-.33l2.27,1.75a1.8,1.8,0,0,1,.33,2.53Z"/><path class="cls-33" d="M692.22,119.26a1.8,1.8,0,0,1-2.53.33l-2.27-1.75a1.8,1.8,0,0,1-.33-2.53h0a1.8,1.8,0,0,1,2.53-.33l2.27,1.75a1.8,1.8,0,0,1,.33,2.53Z"/><path class="cls-33" d="M678.29,113.57a1.8,1.8,0,0,1-2.53.33l-2.27-1.75a1.8,1.8,0,0,1-.33-2.53h0a1.8,1.8,0,0,1,2.53-.33L678,111a1.8,1.8,0,0,1,.33,2.53Z"/><path class="cls-33" d="M683.66,117.71a1.8,1.8,0,0,1-2.53.33l-2.27-1.75a1.8,1.8,0,0,1-.33-2.53h0a1.8,1.8,0,0,1,2.53-.33l2.27,1.75a1.8,1.8,0,0,1,.33,2.53Z"/><path class="cls-33" d="M689,121.85a1.8,1.8,0,0,1-2.53.33l-2.27-1.75a1.8,1.8,0,0,1-.33-2.53h0a1.8,1.8,0,0,1,2.53-.33l2.27,1.75a1.8,1.8,0,0,1,.33,2.53Z"/><path class="cls-33" d="M675.43,116.38a1.8,1.8,0,0,1-2.53.33L670.64,115a1.8,1.8,0,0,1-.33-2.53h0a1.8,1.8,0,0,1,2.53-.33l2.27,1.75a1.8,1.8,0,0,1,.33,2.53Z"/><path class="cls-33" d="M680.82,120.53a1.8,1.8,0,0,1-2.53.33L676,119.11a1.8,1.8,0,0,1-.33-2.53h0a1.8,1.8,0,0,1,2.53-.33l2.27,1.75a1.8,1.8,0,0,1,.33,2.53Z"/><path class="cls-33" d="M686.21,124.68a1.8,1.8,0,0,1-2.53.33l-2.27-1.75a1.8,1.8,0,0,1-.33-2.53h0a1.8,1.8,0,0,1,2.53-.33l2.27,1.75a1.8,1.8,0,0,1,.33,2.53Z"/><path class="cls-33" d="M672.45,119.09a1.8,1.8,0,0,1-2.53.33l-2.27-1.75a1.8,1.8,0,0,1-.33-2.53h0a1.8,1.8,0,0,1,2.53-.33l2.27,1.75a1.8,1.8,0,0,1,.33,2.53Z"/><path class="cls-33" d="M677.9,123.29a1.8,1.8,0,0,1-2.53.33l-2.27-1.75a1.8,1.8,0,0,1-.33-2.53h0a1.8,1.8,0,0,1,2.53-.33l2.27,1.75a1.8,1.8,0,0,1,.33,2.53Z"/><path class="cls-33" d="M683.35,127.49a1.8,1.8,0,0,1-2.53.33l-2.27-1.75a1.8,1.8,0,0,1-.33-2.53h0a1.8,1.8,0,0,1,2.53-.33L683,125a1.8,1.8,0,0,1,.33,2.53Z"/><path class="cls-33" d="M669.84,122.06a1.8,1.8,0,0,1-2.53.33L665,120.64a1.8,1.8,0,0,1-.33-2.53h0a1.8,1.8,0,0,1,2.53-.33l2.27,1.75a1.8,1.8,0,0,1,.33,2.53Z"/><path class="cls-33" d="M675.16,126.16a1.8,1.8,0,0,1-2.53.33l-2.27-1.75a1.8,1.8,0,0,1-.33-2.53h0a1.8,1.8,0,0,1,2.53-.33l2.27,1.75a1.8,1.8,0,0,1,.33,2.53Z"/><path class="cls-33" d="M680.49,130.26a1.8,1.8,0,0,1-2.53.33l-2.27-1.75a1.8,1.8,0,0,1-.33-2.53h0a1.8,1.8,0,0,1,2.53-.33l2.27,1.75a1.8,1.8,0,0,1,.33,2.53Z"/><path class="cls-33" d="M667.25,125.08a1.8,1.8,0,0,1-2.53.33l-2.27-1.75a1.8,1.8,0,0,1-.33-2.53h0a1.8,1.8,0,0,1,2.53-.33l2.27,1.75a1.8,1.8,0,0,1,.33,2.53Z"/><path class="cls-33" d="M672.53,129.15a1.8,1.8,0,0,1-2.53.33l-2.27-1.75a1.8,1.8,0,0,1-.33-2.53h0a1.8,1.8,0,0,1,2.53-.33l2.27,1.75a1.8,1.8,0,0,1,.33,2.53Z"/><path class="cls-33" d="M678,133.33a1.8,1.8,0,0,1-2.53.33l-2.27-1.75a1.8,1.8,0,0,1-.33-2.53h0a1.8,1.8,0,0,1,2.53-.33l2.27,1.75a1.8,1.8,0,0,1,.33,2.53Z"/><path class="cls-33" d="M664.69,128.11a1.8,1.8,0,0,1-2.53.33l-2.27-1.75a1.8,1.8,0,0,1-.33-2.53h0a1.8,1.8,0,0,1,2.53-.33l2.27,1.75a1.8,1.8,0,0,1,.33,2.53Z"/><path class="cls-33" d="M670.12,132.29a1.8,1.8,0,0,1-2.53.33l-2.27-1.75a1.8,1.8,0,0,1-.33-2.53h0a1.8,1.8,0,0,1,2.53-.33l2.27,1.75a1.8,1.8,0,0,1,.33,2.53Z"/><path class="cls-33" d="M675.55,136.47a1.8,1.8,0,0,1-2.53.33l-2.27-1.75a1.8,1.8,0,0,1-.33-2.53h0a1.8,1.8,0,0,1,2.53-.33l2.27,1.75a1.8,1.8,0,0,1,.33,2.53Z"/><path class="cls-33" d="M662.27,131.26a1.8,1.8,0,0,1-2.53.33l-2.27-1.75a1.8,1.8,0,0,1-.33-2.53h0a1.8,1.8,0,0,1,2.53-.33l2.27,1.75a1.8,1.8,0,0,1,.33,2.53Z"/><path class="cls-33" d="M667.69,135.43a1.8,1.8,0,0,1-2.53.33L662.9,134a1.8,1.8,0,0,1-.33-2.53h0a1.8,1.8,0,0,1,2.53-.33l2.27,1.75a1.8,1.8,0,0,1,.33,2.53Z"/><path class="cls-33" d="M673.12,139.62a1.8,1.8,0,0,1-2.53.33l-2.27-1.75a1.8,1.8,0,0,1-.33-2.53h0a1.8,1.8,0,0,1,2.53-.33l2.27,1.75a1.8,1.8,0,0,1,.33,2.53Z"/><path class="cls-33" d="M659.85,134.4a1.8,1.8,0,0,1-2.53.33L655.05,133a1.8,1.8,0,0,1-.33-2.53h0a1.8,1.8,0,0,1,2.53-.33l2.27,1.75a1.8,1.8,0,0,1,.33,2.53Z"/><path class="cls-33" d="M665.27,138.58a1.8,1.8,0,0,1-2.53.33l-2.27-1.75a1.8,1.8,0,0,1-.33-2.53h0a1.8,1.8,0,0,1,2.53-.33l2.27,1.75a1.8,1.8,0,0,1,.33,2.53Z"/><path class="cls-33" d="M670.7,142.76a1.8,1.8,0,0,1-2.53.33l-2.27-1.75a1.8,1.8,0,0,1-.33-2.53h0a1.8,1.8,0,0,1,2.53-.33l2.27,1.75a1.8,1.8,0,0,1,.33,2.53Z"/><path class="cls-33" d="M657.42,137.55a1.8,1.8,0,0,1-2.53.33l-2.27-1.75a1.8,1.8,0,0,1-.33-2.53h0a1.8,1.8,0,0,1,2.53-.33L657.1,135a1.8,1.8,0,0,1,.33,2.53Z"/><path class="cls-33" d="M662.85,141.72a1.8,1.8,0,0,1-2.53.33l-2.27-1.75a1.8,1.8,0,0,1-.33-2.53h0a1.8,1.8,0,0,1,2.53-.33l2.27,1.75a1.8,1.8,0,0,1,.33,2.53Z"/><path class="cls-33" d="M668.28,145.91a1.8,1.8,0,0,1-2.53.33l-2.27-1.75a1.8,1.8,0,0,1-.33-2.53h0a1.8,1.8,0,0,1,2.53-.33l2.27,1.75a1.8,1.8,0,0,1,.33,2.53Z"/><path class="cls-33" d="M655,140.69a1.8,1.8,0,0,1-2.53.33l-2.27-1.75a1.8,1.8,0,0,1-.33-2.53h0a1.8,1.8,0,0,1,2.53-.33l2.27,1.75a1.8,1.8,0,0,1,.33,2.53Z"/><path class="cls-33" d="M660.42,144.87a1.8,1.8,0,0,1-2.53.33l-2.27-1.75a1.8,1.8,0,0,1-.33-2.53h0a1.8,1.8,0,0,1,2.53-.33l2.27,1.75a1.8,1.8,0,0,1,.33,2.53Z"/><path class="cls-33" d="M658,148.41a1.8,1.8,0,0,1-2.53.33L653.23,147a1.8,1.8,0,0,1-.33-2.53h0a1.8,1.8,0,0,1,2.53-.33l2.27,1.75a1.8,1.8,0,0,1,.33,2.53Z"/><path class="cls-33" d="M656.56,152.57a1.8,1.8,0,0,1-2.53.33l-2.27-1.75a1.8,1.8,0,0,1-.33-2.53h0a1.8,1.8,0,0,1,2.53-.33l2.27,1.75a1.8,1.8,0,0,1,.33,2.53Z"/><path class="cls-33" d="M654.93,156.6a1.8,1.8,0,0,1-2.53.33l-2.27-1.75a1.8,1.8,0,0,1-.33-2.53h0a1.8,1.8,0,0,1,2.53-.33l2.27,1.75a1.8,1.8,0,0,1,.33,2.53Z"/><path class="cls-33" d="M665.85,149.05a1.8,1.8,0,0,1-2.53.33l-2.27-1.75a1.8,1.8,0,0,1-.33-2.53h0a1.8,1.8,0,0,1,2.53-.33l2.27,1.75a1.8,1.8,0,0,1,.33,2.53Z"/><path class="cls-33" d="M664.08,152.23a1.8,1.8,0,0,1-2.53.33l-2.27-1.75a1.8,1.8,0,0,1-.33-2.53h0a1.8,1.8,0,0,1,2.53-.33l2.27,1.75a1.8,1.8,0,0,1,.33,2.53Z"/><path class="cls-34" d="M644.59,167s42.48-56.34,58.73-63.33C703.33,103.63,676.35,169.49,644.59,167Z"/><path class="cls-34" d="M644.59,167s-8.06-23.3,8.85-42.5C653.44,124.45,661.58,148.4,644.59,167Z"/><path class="cls-35" d="M644.59,167a84,84,0,0,0,8.85-42.5S653.4,143.41,644.59,167Z"/><path class="cls-35" d="M653.44,124.45s-9.51,20.07-8.85,42.5C644.59,167,647.07,138,653.44,124.45Z"/><path class="cls-35" d="M703.33,103.63s-36,62-58.31,63.35C645,167,660.16,170,703.33,103.63Z"/><path class="cls-35" d="M703.33,103.63S651.79,167,644.59,167C644.59,167,661,154.14,703.33,103.63Z"/><path class="cls-23" d="M590.56,90.58q-.23,2.35-.6,5c0,.37-.1.75-.16,1.13l-2.25-.16s0-.32-.09-.88c-.1-1.06-.27-3-.37-5.39,0-1-.07-2-.08-3.15a58.88,58.88,0,0,1,.65-9.91l3.36.24a76.5,76.5,0,0,1-.13,9.23C590.81,87.92,590.7,89.21,590.56,90.58Z"/><path class="cls-18" d="M588.32,96.2,588,96l-.55-.33-3.39-2a13.57,13.57,0,0,0,.3-3,31,31,0,0,0-3.6-13.88l2.38.17c1.24,1.36,2.69,4.25,3.87,10.24.19,1,.38,2,.56,3.14.23,1.49.45,3.13.65,4.94C588.25,95.55,588.28,95.87,588.32,96.2Z"/><path class="cls-18" d="M592.51,94.62l-2.55,1-2,.78L588,96c.07-.27.13-.53.2-.79a78,78,0,0,1,2.67-8.53c2-5.21,3.91-7.7,5.44-8.85L599,78C591.93,87.44,592.51,94.62,592.51,94.62Z"/><path class="cls-24" d="M598.5,98.1c-.14,1.9-.73,6.18-1.56,11.47-.16,1-.31,2-.48,3-1,6.07-2.17,13-3.28,19.12-.14.78-.28,1.55-.42,2.3-1.32,7.06-2.46,12.52-2.92,13.31-2.35,4.09-3.71,4.57-5.47,4.45s-3-.8-4.79-5.18a35.2,35.2,0,0,1-.6-5.72c0-.56-.07-1.14-.1-1.75-.53-9.32-1-25.08-1-34.87,0-1.14,0-2.2,0-3.15,0-2,.05-3.52.12-4.47.28-3.9,3.54-5.43,6.4-6a17.77,17.77,0,0,1,2.73-.33h.47c.72,0,1.17,0,1.17,0s.33,0,.86.1l1,.17a17.72,17.72,0,0,1,2.26.6C595.62,92.13,598.79,94.1,598.5,98.1Z"/><path class="cls-25" d="M577.85,101.1a20.32,20.32,0,0,1,8.25.59s-7.44,1-8.25,2.57Z"/><path class="cls-25" d="M578.2,117.29a20.32,20.32,0,0,1,8.24.59s-7.44,1-8.25,2.57Z"/><path class="cls-25" d="M584,139.88a43.52,43.52,0,0,0-5.06,1c0-.56-.07-1.14-.1-1.75A22.09,22.09,0,0,1,584,139.88Z"/><path class="cls-25" d="M596.95,109.57a20.32,20.32,0,0,0-8.24-.59s7.23,2,7.8,3.71Z"/><path class="cls-25" d="M593.18,131.71c-.14.78-.28,1.55-.42,2.31a34.59,34.59,0,0,0-6.6-2.58A21.76,21.76,0,0,1,593.18,131.71Z"/><path class="cls-22" d="M589.66,77.38l-5.3,74.39c-1.76-.13-3-.8-4.79-5.18a35.2,35.2,0,0,1-.6-5.72c0-.56-.07-1.14-.1-1.75-.53-9.32-1-25.08-1-34.87,0-1.14,0-2.2,0-3.15,0-2,.05-3.52.12-4.47.28-3.9,3.54-5.43,6.4-6a31,31,0,0,0-3.6-13.88l2.38.17c1.24,1.36,2.69,4.25,3.87,10.24a58.88,58.88,0,0,1,.65-9.91Z"/><path class="cls-18" d="M436.86,151.81a9.46,9.46,0,0,0-2.21,3.28,6.69,6.69,0,0,0-.43,1.51l-3.87,1.26h0l-4.06.64a6.6,6.6,0,0,0-1.12-1.2,9.42,9.42,0,0,0-3.4-1.86s2.37-1.11,3.82.15l-.87-2.93s2.32,1.9,3.11,1.63.78-3.64.78-3.64l.08.18c.33.7,1.55,3.15,2.48,2.88s1.47-3.11,1.47-3.11l.91,3.07A4.18,4.18,0,0,1,436.86,151.81Z"/><path class="cls-36" d="M447.12,164.34l.06.25q.18.75.3,1.56a13.67,13.67,0,0,1,.13,1.45q0,.24,0,.48a.09.09,0,0,1,0,0,16.78,16.78,0,0,1-4,10.42,17.17,17.17,0,0,1-2.63,2.57,14,14,0,0,1-2.89,1.76,10.69,10.69,0,0,1-1.6.57l-.28.07c-6.08,1.47-14.84-2.1-18-10.33-2.4-6.31-.16-12.55,6.88-15.87a23.13,23.13,0,0,1,4.42-1.52l.29-.07a23.61,23.61,0,0,1,4.81-.64c4.7-.11,8.26,1.54,10.47,4.7l.11.17A13.79,13.79,0,0,1,447.12,164.34Z"/><path class="cls-22" d="M428.67,150.84l7.86,32.61-.28.07c-6.08,1.47-14.84-2.1-18-10.33-2.4-6.31-.16-12.55,6.88-15.87a9.42,9.42,0,0,0-3.4-1.86s2.37-1.11,3.82.15l-.87-2.93s2.32,1.9,3.11,1.63.78-3.64.78-3.64Z"/><path class="cls-29" d="M438.39,221.08a1.67,1.67,0,0,0-.83.11,1.5,1.5,0,0,0-.4.23,1.31,1.31,0,0,0-.25.23,1.46,1.46,0,0,0-1.65.09l-.12.09a1.47,1.47,0,0,0-.56,1s0,0,0,.06a1.48,1.48,0,0,0-1.22,1.26,1.38,1.38,0,0,0,0,.27,1.23,1.23,0,0,0-1.45,1.08,1.3,1.3,0,0,1-.23,1.78,1.29,1.29,0,0,1-.24,1.85,1.2,1.2,0,0,0,.23.93,1.27,1.27,0,0,0,1,1.43,1.46,1.46,0,0,0,1.28,1.49h.1a1.46,1.46,0,0,0,.4,0,1.46,1.46,0,0,0,2.51.7,1.45,1.45,0,0,0,.85.43,1.48,1.48,0,0,0,1.57-1,1.42,1.42,0,0,0,.54.18,7.12,7.12,0,0,0,2.81-2.17,1.44,1.44,0,0,0,0-.21h0a1.48,1.48,0,0,0,1.64-1.26,1.43,1.43,0,0,1,0-1.48,1.44,1.44,0,0,1-.21-1.61,1.47,1.47,0,0,0-.17-.88,1.49,1.49,0,0,0-1.05-1.16h0a1.46,1.46,0,0,1-.71-1,1.47,1.47,0,0,0-.68-.49h0a1.53,1.53,0,0,0-.45-.39,1.48,1.48,0,0,0-1.23-1.12,1.45,1.45,0,0,1-1.43-.4Z"/><path class="cls-31" d="M441.2,227.45l-.46.13.07-.24a.3.3,0,0,0-.57-.16l-.62,2.06-1.44-2.12a.52.52,0,0,0-.86.58l.73,1.08-1.38-.09a.29.29,0,0,0,0,.59l1.84.12,1.61,2.39-2.25-.25-1.1-1.17a.3.3,0,0,0-.43.4l.62.66-.62-.07a.29.29,0,1,0-.08.58l4.29.47,3.37,5a.52.52,0,0,0,.86-.58l-4.7-7,.49-1.61.81-.22.09,0a.29.29,0,0,0-.24-.53Z"/><path class="cls-23" d="M738.4,164.6q-2,1.28-4.3,2.66l-1,.58L731.83,166l.63-.62c.77-.74,2.19-2.08,4-3.64.74-.65,1.56-1.33,2.41-2A58.88,58.88,0,0,1,747,154l1.91,2.78a76.5,76.5,0,0,1-7.3,5.64Q740.13,163.48,738.4,164.6Z"/><path class="cls-18" d="M732.6,166.34l0-.35-.09-.63-.54-3.9a13.57,13.57,0,0,0,2.57-1.67,31,31,0,0,0,8.62-11.46l1.35,2c-.29,1.82-1.65,4.75-5.6,9.4-.64.75-1.34,1.55-2.11,2.39q-1.53,1.67-3.46,3.58Z"/><path class="cls-18" d="M736.44,168.64l-2.35-1.39-1.89-1.11.34-.16.74-.33a78,78,0,0,1,8.34-3.21c5.33-1.67,8.46-1.73,10.31-1.25l1.5,2.19C741.71,163.72,736.44,168.64,736.44,168.64Z"/><path class="cls-24" d="M737.45,175.5c-1.57,1.08-5.29,3.27-9.95,5.92l-2.67,1.5c-5.36,3-11.55,6.41-17,9.33l-2.07,1.1c-6.35,3.36-11.33,5.86-12.23,6-4.66.7-5.89-.06-6.89-1.52s-1.27-2.88,1.07-7a35.2,35.2,0,0,1,4.1-4l1.31-1.17c7-6.21,19-16.37,26.66-22.5.89-.72,1.72-1.37,2.47-2,1.55-1.22,2.79-2.15,3.57-2.69,3.23-2.21,6.45-.61,8.68,1.27a17.77,17.77,0,0,1,2,1.93l.3.36c.46.55.72.93.72.93s.19.27.46.74c.14.24.3.53.47.86a17.72,17.72,0,0,1,.93,2.14C740.32,169.52,740.76,173.23,737.45,175.5Z"/><path class="cls-25" d="M722.25,161.2a20.32,20.32,0,0,1,4.67,6.82s-5.41-5.21-7.14-4.86Z"/><path class="cls-25" d="M709.79,171.55a20.32,20.32,0,0,1,4.67,6.82s-5.41-5.21-7.14-4.86Z"/><path class="cls-25" d="M695.74,190.17a43.52,43.52,0,0,0-3.93-3.34l1.31-1.17A22.09,22.09,0,0,1,695.74,190.17Z"/><path class="cls-25" d="M727.5,181.42a20.32,20.32,0,0,0-4.67-6.82s2.91,6.92,1.95,8.41Z"/><path class="cls-25" d="M707.83,192.25l-2.07,1.1a34.59,34.59,0,0,0-2.09-6.77A21.76,21.76,0,0,1,707.83,192.25Z"/><path class="cls-22" d="M748.16,155.68l-61.52,42.16c-1-1.46-1.27-2.88,1.07-7a35.2,35.2,0,0,1,4.1-4l1.31-1.17c7-6.21,19-16.37,26.66-22.5.89-.72,1.72-1.37,2.47-2,1.55-1.22,2.79-2.15,3.57-2.69,3.23-2.21,6.45-.61,8.68,1.27a31,31,0,0,0,8.62-11.46l1.35,2c-.29,1.82-1.65,4.75-5.6,9.4A58.88,58.88,0,0,1,747,154Z"/><path class="cls-29" d="M604.68,161.35a18.84,18.84,0,0,1-6.93-9.65c-2.24-6.73-15.68-51-44.45-55.7L544,152.48l60.69,10Z"/><path class="cls-26" d="M614.87,176.85a18.84,18.84,0,0,0,10.5-5.57c5-5,36.68-38.72,64.55-30.18l-16.77,54.73-58.8-18Z"/><path class="cls-29" d="M732.06,212.76a18.84,18.84,0,0,1-5.57-10.5c-1.31-7-8.69-52.63-36.56-61.17l-16.77,54.73,58.8,18Z"/><path class="cls-30" d="M678,162.8l-1.46,4.76c10.25,6.12,23.31,16.8,19.06,35l8.84,3C709.51,184,690.32,169.72,678,162.8Z"/><path class="cls-30" d="M672.36,159.72c-1.36-.73-2.53-1.36-3.36-1.86-5.33-3.21-3.6-14-3.35-15.33a26.77,26.77,0,0,0-2.9,1.12c-.8,3.62-2.5,14.44,5.62,19.33,1,.57,2.18,1.23,3.61,2s3,1.62,4.61,2.59L678,162.8C675.89,161.59,673.94,160.56,672.36,159.72Z"/><path class="cls-26" d="M543.57,111.3c.79.28,1.89.61,3.16,1,1.48.44,3.31,1,5.33,1.62l1.7-17.79a34.13,34.13,0,0,0-15.67,2.36C538.12,99.69,538.52,109.51,543.57,111.3Z"/><path class="cls-26" d="M543.93,115.72c-7.69-2.73-8.14-13.1-8.09-16.29-20.6,9.31-36.22,34.54-39.26,39.2a18.84,18.84,0,0,1-9.17,7.57l-.31,1,61.22,5.86,3.34-34.92c-1.55-.54-3-1-4.34-1.39S544.83,116,543.93,115.72Z"/><path class="cls-37" d="M552.06,113.91l-.41,4.27c9.71,3.4,22.57,10.16,22.12,26.21h7.49C581.8,125.37,563.62,117.62,552.06,113.91Z"/><path class="cls-30" d="M546.73,112.28c-1.27-.38-2.37-.71-3.16-1-5-1.79-5.45-11.61-5.48-12.81-.76.29-1.51.61-2.26.95,0,3.19.4,13.56,8.09,16.29.9.32,2.06.66,3.39,1.06s2.79.85,4.34,1.39l.41-4.27C550,113.26,548.21,112.73,546.73,112.28Z"/><path class="cls-29" d="M528.48,152.77a1.67,1.67,0,0,0-.8-.24,1.5,1.5,0,0,0-.46,0,1.31,1.31,0,0,0-.33.11,1.46,1.46,0,0,0-1.55-.58l-.14,0a1.47,1.47,0,0,0-.9.66l0,.06a1.48,1.48,0,0,0-1.62.66,1.38,1.38,0,0,0-.12.25,1.23,1.23,0,0,0-1.76.4,1.3,1.3,0,0,1-.93,1.54,1.29,1.29,0,0,1-1,1.6,1.2,1.2,0,0,0-.16.94,1.27,1.27,0,0,0,.31,1.7,1.46,1.46,0,0,0,.57,1.87l.09.05a1.46,1.46,0,0,0,.37.16,1.46,1.46,0,0,0,2,1.65,1.45,1.45,0,0,0,.6.73,1.48,1.48,0,0,0,1.83-.25,1.42,1.42,0,0,0,.42.39,7.12,7.12,0,0,0,3.45-.85,1.44,1.44,0,0,0,.09-.19h0a1.48,1.48,0,0,0,2-.49,1.43,1.43,0,0,1,.58-1.36,1.44,1.44,0,0,1,.45-1.56,1.47,1.47,0,0,0,.21-.88,1.49,1.49,0,0,0-.5-1.48h0a1.46,1.46,0,0,1-.23-1.24,1.47,1.47,0,0,0-.43-.72h0a1.53,1.53,0,0,0-.25-.54,1.48,1.48,0,0,0-.68-1.52,1.45,1.45,0,0,1-1.14-.94Z"/><path class="cls-31" d="M528.49,159.73l-.47-.07.17-.19a.3.3,0,0,0-.45-.38l-1.4,1.63-.46-2.52a.52.52,0,0,0-1,.18l.23,1.28-1.23-.64a.29.29,0,0,0-.27.52l1.63.85.51,2.84-2-1.14-.53-1.51a.3.3,0,0,0-.56.2l.3.86-.54-.31a.29.29,0,1,0-.31.5l3.74,2.16,1.07,5.92a.52.52,0,0,0,1-.18l-1.49-8.27,1.1-1.28.84.12h.1a.29.29,0,0,0,0-.58Z"/><path class="cls-26" d="M393.94,232.23a12.66,12.66,0,0,0,2.19-7.14c-.08-4.11-1.39-30.68,15.35-42.71l18,25-35.31,25.37Z"/><path class="cls-29" d="M464.32,181.66a12.66,12.66,0,0,1-7.47-.21c-3.87-1.38-28.63-11.1-45.37.93l18,25L464.77,182Z"/><path class="cls-29" d="M418.74,200.87a1.67,1.67,0,0,0-.83.11,1.49,1.49,0,0,0-.4.23,1.29,1.29,0,0,0-.25.23,1.46,1.46,0,0,0-1.65.09l-.12.09a1.47,1.47,0,0,0-.56,1s0,0,0,.06a1.48,1.48,0,0,0-1.22,1.26,1.42,1.42,0,0,0,0,.27,1.23,1.23,0,0,0-1.45,1.08A1.3,1.3,0,0,1,412,207a1.29,1.29,0,0,1-.24,1.85,1.2,1.2,0,0,0,.23.93,1.27,1.27,0,0,0,1,1.43,1.46,1.46,0,0,0,1.28,1.49h.1a1.45,1.45,0,0,1,1.64,1.16,1.47,1.47,0,0,0,1.27-.47,1.45,1.45,0,0,0,.85.43,1.48,1.48,0,0,0,1.57-1,1.41,1.41,0,0,0,.54.18,7.11,7.11,0,0,0,2.81-2.17,1.41,1.41,0,0,0,0-.21h0a1.48,1.48,0,0,0,1.64-1.26,1.43,1.43,0,0,1,0-1.48,1.44,1.44,0,0,1-.21-1.61,1.47,1.47,0,0,0-.17-.88,1.49,1.49,0,0,0-1.05-1.16h0a1.45,1.45,0,0,1-.71-1,1.47,1.47,0,0,0-.68-.49h0a1.53,1.53,0,0,0-.45-.39,1.48,1.48,0,0,0-1.23-1.12,1.45,1.45,0,0,1-1.43-.4Z"/><path class="cls-31" d="M421.56,207.23l-.46.13.07-.24a.29.29,0,0,0-.57-.16L420,209l-1.44-2.12a.52.52,0,1,0-.86.58l.73,1.08-1.38-.09a.29.29,0,0,0,0,.59l1.84.12,1.61,2.39-2.25-.25-1.1-1.17a.3.3,0,0,0-.43.4l.62.66-.62-.07a.29.29,0,1,0-.08.58l4.29.47,3.37,5a.52.52,0,0,0,.86-.58l-4.7-7,.49-1.61.81-.22.09,0a.3.3,0,0,0-.24-.53Z"/><path class="cls-26" d="M453.64,190.65s2-3,1.31-8.67-5.69-42.44,10.22-50.75L487.5,174,453.93,191.5Z"/><path class="cls-29" d="M520.53,155.7s-3.62-.13-7.87-3.88-31.59-28.91-47.5-20.6L487.5,174l33.56-17.53Z"/><path class="cls-29" d="M480.25,178.48a1.67,1.67,0,0,0-.83.11,1.5,1.5,0,0,0-.4.23,1.3,1.3,0,0,0-.25.23,1.46,1.46,0,0,0-1.65.09l-.12.09a1.47,1.47,0,0,0-.56,1s0,0,0,.06a1.48,1.48,0,0,0-1.22,1.26,1.41,1.41,0,0,0,0,.27,1.23,1.23,0,0,0-1.45,1.08,1.3,1.3,0,0,1-.23,1.78,1.29,1.29,0,0,1-.24,1.85,1.2,1.2,0,0,0,.23.93,1.27,1.27,0,0,0,1,1.43,1.46,1.46,0,0,0,1.28,1.49h.1a1.46,1.46,0,0,0,.4,0,1.46,1.46,0,0,0,2.51.7,1.45,1.45,0,0,0,.85.43,1.48,1.48,0,0,0,1.57-1,1.42,1.42,0,0,0,.54.18,7.11,7.11,0,0,0,2.81-2.17,1.46,1.46,0,0,0,0-.21h0a1.48,1.48,0,0,0,1.64-1.26,1.43,1.43,0,0,1,0-1.48A1.44,1.44,0,0,1,486,184a1.47,1.47,0,0,0-.17-.88,1.49,1.49,0,0,0-1.05-1.16h0a1.45,1.45,0,0,1-.71-1,1.47,1.47,0,0,0-.68-.49h0a1.53,1.53,0,0,0-.45-.39,1.48,1.48,0,0,0-1.23-1.12,1.45,1.45,0,0,1-1.43-.4Z"/><path class="cls-31" d="M483.06,184.84l-.46.13.07-.24a.3.3,0,0,0-.57-.16l-.62,2.06-1.44-2.12a.52.52,0,1,0-.86.58l.73,1.08-1.38-.09a.29.29,0,0,0,0,.59l1.84.12,1.61,2.39-2.25-.25-1.1-1.17a.3.3,0,0,0-.43.4l.62.66-.62-.07a.29.29,0,0,0-.08.58l4.29.47,3.37,5a.52.52,0,1,0,.86-.58l-4.7-7,.49-1.61.81-.22.09,0a.3.3,0,0,0-.24-.53Z"/><path class="cls-29" d="M645,177.25a3,3,0,0,1,1.5-.22,2.71,2.71,0,0,1,.81.2,2.35,2.35,0,0,1,.56.28,2.64,2.64,0,0,1,2.92-.66l.25.1a2.66,2.66,0,0,1,1.45,1.42l0,.11a2.68,2.68,0,0,1,2.75,1.59,2.51,2.51,0,0,1,.15.47,2.22,2.22,0,0,1,3.06,1.16,2.17,2.17,0,0,1,0,1.75,2.34,2.34,0,0,1,1.24,3.08,2.35,2.35,0,0,1,1.38,3,2.31,2.31,0,0,1-1,3,2.65,2.65,0,0,1-1.49,3.22l-.17.07a2.65,2.65,0,0,1-.7.19,2.64,2.64,0,0,1-4,2.45,2.62,2.62,0,0,1-1.27,1.16,2.68,2.68,0,0,1-3.21-.91,2.56,2.56,0,0,1-.85.59,12.88,12.88,0,0,1-6-2.39,2.58,2.58,0,0,1-.12-.36h0a2.68,2.68,0,0,1-3.48-1.4,2.62,2.62,0,0,1-.11-1.74,2.6,2.6,0,0,1-.59-.85,2.65,2.65,0,0,1,.06-2.18,2.61,2.61,0,0,1-.62-2.36,2.69,2.69,0,0,1,1.27-2.54h0a2.66,2.66,0,0,1,.55-.85,2.64,2.64,0,0,1,1.12-2.5v0a2.77,2.77,0,0,1,.59-.9,2.68,2.68,0,0,1,1.6-2.55,2.62,2.62,0,0,0,2.29-1.39Z"/><path class="cls-31" d="M643.22,189.74h.86l-.25-.39a.53.53,0,0,1,.91-.56l2.09,3.28,1.46-4.41a.94.94,0,0,1,1.78.59l-.74,2.24,2.37-.83a.53.53,0,0,1,.35,1l-3.15,1.11-1.64,5,3.81-1.54,1.34-2.57a.53.53,0,0,1,.95.49l-.76,1.46,1-.42a.53.53,0,1,1,.43,1L646.83,198,643.4,208.4a.93.93,0,0,1-1.78-.59l4.77-14.44-1.64-2.57h-1.53l-.17,0a.53.53,0,0,1,.16-1Z"/><path class="cls-38" d="M568.92,185.32c-75.41,0-136.56,60.39-136.76,134.89H705.68C705.49,245.71,644.33,185.32,568.92,185.32Z"/><path class="cls-13" d="M447.23,308.57a1.1,1.1,0,0,0-.49-.25,1,1,0,0,0-.3,0,.85.85,0,0,0-.22,0,1,1,0,0,0-.93-.56h-.1a1,1,0,0,0-.66.32l0,0a1,1,0,0,0-1.13.23.91.91,0,0,0-.11.15.81.81,0,0,0-1.19.05.85.85,0,0,1-.78.88.85.85,0,0,1-.81.92.79.79,0,0,0-.21.59.84.84,0,0,0,0,1.13,1,1,0,0,0,.15,1.28l.05,0a1,1,0,0,0,.22.14,1,1,0,0,0,1.11,1.3,1,1,0,0,0,.3.54,1,1,0,0,0,1.21.05.93.93,0,0,0,.22.3,4.67,4.67,0,0,0,2.33-.14l.08-.11h0a1,1,0,0,0,1.36-.08.94.94,0,0,1,.53-.81.94.94,0,0,1,.48-1,1,1,0,0,0,.24-.54,1,1,0,0,0-.15-1h0a1,1,0,0,1,0-.83,1,1,0,0,0-.19-.52h0a1,1,0,0,0-.1-.38,1,1,0,0,0-.26-1.06.94.94,0,0,0-.32-.18A.93.93,0,0,0,447.23,308.57Z"/><path class="cls-14" d="M446.42,313.06l-.29-.1.13-.11a.19.19,0,0,0-.25-.3l-1.09.89v-1.68a.34.34,0,0,0-.68,0v.86l-.72-.56a.19.19,0,0,0-.24.31l1,.74V315l-1.13-1-.17-1a.19.19,0,1,0-.38.06l.09.59-.31-.26a.19.19,0,1,0-.26.29l2.16,1.83v3.95a.34.34,0,0,0,.68,0V314l.86-.7.52.18h.06a.19.19,0,0,0,.06-.38Z"/><path class="cls-13" d="M487.79,308.39a1.1,1.1,0,0,0-.49-.25,1,1,0,0,0-.3,0,.85.85,0,0,0-.22,0,1,1,0,0,0-.93-.56h-.1a1,1,0,0,0-.66.32l0,0a1,1,0,0,0-1.13.23.92.92,0,0,0-.11.15.81.81,0,0,0-1.19.05.85.85,0,0,1-.78.88.85.85,0,0,1-.81.92.79.79,0,0,0-.21.59.84.84,0,0,0,0,1.13,1,1,0,0,0,.15,1.28l.05,0a1,1,0,0,0,.22.14,1,1,0,0,0,1.11,1.3,1,1,0,0,0,.3.54,1,1,0,0,0,1.21.05.93.93,0,0,0,.22.3,4.67,4.67,0,0,0,2.33-.14l.08-.11h0a1,1,0,0,0,1.36-.08.94.94,0,0,1,.53-.81.94.94,0,0,1,.48-1,1,1,0,0,0,.24-.54,1,1,0,0,0-.15-1h0a1,1,0,0,1,0-.83,1,1,0,0,0-.19-.52h0a1,1,0,0,0-.1-.38,1,1,0,0,0-.26-1.06.95.95,0,0,1-.63-.74Z"/><path class="cls-14" d="M487,312.88l-.29-.1.13-.11a.19.19,0,0,0-.25-.3l-1.09.89v-1.68a.34.34,0,0,0-.68,0v.86l-.72-.56a.19.19,0,0,0-.24.31l1,.74v1.89l-1.13-1-.17-1a.19.19,0,0,0-.38.06l.09.59-.31-.26a.19.19,0,1,0-.26.29l2.16,1.83v3.95a.34.34,0,0,0,.68,0v-5.51l.86-.7.52.18h.06a.19.19,0,0,0,.06-.38Z"/></g></g></svg>