<svg id="圖層_1" data-name="圖層 1" xmlns="http://www.w3.org/2000/svg" viewBox="0 0 360 220"><defs><style>.cls-1{fill:#efcf8f;}.cls-2{fill:#5bbfed;}</style></defs><title>魚菜V2</title><g id="_群組_" data-name="&lt;群組&gt;"><g id="_群組_2" data-name="&lt;群組&gt;"><path class="cls-1" d="M4.94,6.87A21.78,21.78,0,0,1,32,21.52L43.26,55.36,79.07,91.17a5.52,5.52,0,0,0,7.51.27,5.28,5.28,0,0,0,.12-7.58L73,70.15a19.66,19.66,0,0,1,0-27.81L141.64,111a31.76,31.76,0,0,1,9.3,22.46V214H109.36l.17-72.84a8.28,8.28,0,0,0-8.28-8.3H87.52a2.87,2.87,0,0,1-2-.84L25.62,72.32l-.12.12L4.94,6.87Z"/></g></g><g id="_群組_3" data-name="&lt;群組&gt;"><g id="_群組_4" data-name="&lt;群組&gt;"><g id="_群組_5" data-name="&lt;群組&gt;"><path id="_路徑_" data-name="&lt;路徑&gt;" class="cls-1" d="M355.06,6.87A21.78,21.78,0,0,0,328,21.52L316.74,55.36,280.93,91.17a5.52,5.52,0,0,1-7.51.27,5.28,5.28,0,0,1-.12-7.58L287,70.15a19.66,19.66,0,0,0,0-27.81L218.36,111a31.76,31.76,0,0,0-9.3,22.46V214h41.59l-.17-72.84a8.28,8.28,0,0,1,8.28-8.3h13.72a2.87,2.87,0,0,0,2-.84l59.87-59.76.12.12L355.06,6.87Z"/></g></g><rect id="_矩形_" data-name="&lt;矩形&gt;" class="cls-2" x="202.74" y="185.72" width="53.45" height="28.32"/></g><rect id="_矩形_2" data-name="&lt;矩形&gt;" class="cls-2" x="103.82" y="185.72" width="53.45" height="28.32" transform="translate(261.08 399.76) rotate(180)"/></svg>