<svg id="圖層_1" data-name="圖層 1" xmlns="http://www.w3.org/2000/svg" viewBox="0 0 200 300"><defs><style>.cls-1{fill:#a0cc53;}</style></defs><title>魚菜V2</title><g id="_群組_" data-name="&lt;群組&gt;"><path id="_路徑_" data-name="&lt;路徑&gt;" class="cls-1" d="M77.64,116.28c18.49,18.49,13.51,53.45,13.51,53.45s-35,5-53.45-13.51-13.51-53.45-13.51-53.45S59.15,97.79,77.64,116.28Z"/><path id="_路徑_2" data-name="&lt;路徑&gt;" class="cls-1" d="M122.36,116.28c-18.49,18.49-13.51,53.45-13.51,53.45s35,5,53.45-13.51,13.51-53.45,13.51-53.45S140.85,97.79,122.36,116.28Z"/></g><path id="_路徑_3" data-name="&lt;路徑&gt;" class="cls-1" d="M128.24,68.34C128.24,42.19,100,21,100,21S71.76,42.19,71.76,68.34c0,20.44,17.26,37.86,24.79,44.49V279h6.9V112.84C111,106.21,128.24,88.79,128.24,68.34Z"/><path id="_路徑_4" data-name="&lt;路徑&gt;" class="cls-1" d="M162.3,156.22c18.49-18.49,13.51-53.45,13.51-53.45l-67,67S143.81,174.72,162.3,156.22Z"/></svg>