<svg id="圖層_1" data-name="圖層 1" xmlns="http://www.w3.org/2000/svg" viewBox="0 0 180 100"><defs><style>.cls-1{fill:#e55946;}.cls-2{fill:#af3024;}.cls-3{fill:#e94c2c;}.cls-4{fill:#eb7671;}.cls-5{fill:#f7c673;}.cls-6{fill:#de9c3e;}</style></defs><title>魚菜V2</title><path class="cls-1" d="M127.89,46.63a36.38,36.38,0,0,1-1.57,10.44l0,.14c0,.07,0,.13-.06.19a36.39,36.39,0,0,1-7.84,13.7,0,0,0,0,1,0,0,35.94,35.94,0,0,1-4,3.77c-.28.23-.56.45-.86.66A36.58,36.58,0,0,1,92,83.07a34.74,34.74,0,0,1-5.65-.33,36.89,36.89,0,0,1-5.89-1.32A36.59,36.59,0,0,1,55,50.94l-.13-1.1a35.63,35.63,0,0,1-.08-5.47h0a36.91,36.91,0,0,1,1.6-8.76A35.09,35.09,0,0,1,59.22,29a.19.19,0,0,1,.07-.13,35,35,0,0,1,5.51-7.55c.29-.31.59-.6.89-.87A35.19,35.19,0,0,1,73,14.85a36.54,36.54,0,0,1,53,20.22c.25.77.49,1.57.69,2.36A36.54,36.54,0,0,1,127.89,46.63Z"/><path class="cls-2" d="M59.29,28.87l67,28.2,0,.14c0,.07,0,.13-.06.19-.17.54-.35,1.07-.55,1.6-.08.25-.18.51-.28.74s-.29.76-.46,1.13a4,4,0,0,1-.21.51c-.23.52-.48,1-.73,1.55a2.78,2.78,0,0,1-.15.3c-.2.39-.39.77-.62,1.14s-.27.49-.41.73c-.23.39-.46.79-.72,1.17s-.39.6-.59.9l-.17.24-.55.77c-.28.4-.58.76-.89,1.13s-.35.45-.53.66c-.31.4-.65.77-1,1.15h0l-7-2.92s0,0,0,0L95.3,61.43h0l-40.46-17h0a36.91,36.91,0,0,1,1.6-8.76c.16-.5.32-1,.51-1.49s.42-1.12.65-1.67c.14-.34.3-.68.45-1s.24-.54.37-.8l0-.1c.27-.52.53-1,.82-1.55Z"/><path class="cls-3" d="M59.22,29l67,28.22,0-.14a36.35,36.35,0,0,0,1.1-4.76h0c0-.13,0-.24.07-.36v0l0-.32c.06-.42.11-.83.16-1.24s.08-.83.11-1.25c.07-.83.1-1.64.1-2.47L65.69,20.45c-.29.27-.59.56-.89.87a35,35,0,0,0-5.51,7.55Z"/><path class="cls-4" d="M118.36,71.12a35.94,35.94,0,0,1-4,3.77l-.86.66L55,50.94l-.13-1.1a35.63,35.63,0,0,1-.08-5.47h0l63.58,26.74Z"/><path class="cls-2" d="M126.72,37.44,73,14.85a36.54,36.54,0,0,1,53,20.22C126.29,35.85,126.52,36.65,126.72,37.44Z"/><path class="cls-3" d="M114.37,74.89l-59.49-25,.13,1.1a36.26,36.26,0,0,0,3.48,11.69l44.23,18.61a36,36,0,0,0,10.79-5.69Z"/><path class="cls-4" d="M92,83.07A36.63,36.63,0,0,1,64.72,71.62Z"/><path class="cls-5" d="M160.94,74.92c-2.29,7.35-35.25,3.58-73.63-8.39S19.69,38.9,22,31.56c1.49-4.78,16-4.85,36.52-1,0,0,0,.07,0,.1-.06.28-.13.53-.2.82C48.39,30.34,41.82,31,41,33.73c-1.7,5.45,20,17.06,48.47,25.94s52.94,11.68,54.64,6.23c1-3.11-5.49-7.9-16.71-13.38l.1-.6a2.35,2.35,0,0,1,0-.32C149,60.71,162.54,69.81,160.94,74.92Z"/><path class="cls-6" d="M154.1,70.38c-1.88,6-31.58,2.14-66.33-8.7S26.39,37.14,28.28,31.11c1.17-3.75,13.06-3.67,30.2-.46-.06.28-.13.53-.2.82C48.39,30.34,41.82,31,41,33.73c-1.7,5.45,20,17.06,48.47,25.94s52.94,11.68,54.64,6.23c1-3.11-5.49-7.9-16.71-13.38l-.11-.68C144.51,59.32,155.32,66.46,154.1,70.38Z"/></svg>