<svg id="圖層_1" data-name="圖層 1" xmlns="http://www.w3.org/2000/svg" viewBox="0 0 300 200"><defs><style>.cls-1{fill:#f6d073;}.cls-2{fill:#e87728;}.cls-3{fill:#e55946;}.cls-4{fill:#fafafb;}.cls-5{fill:#c0bfbf;}.cls-6{fill:#21a8b8;}.cls-7{fill:#fff;}</style></defs><title>魚菜V2</title><path class="cls-1" d="M79.9,129.52c-15.38-2.37-57.44-7.19-62.3-15.36a2.59,2.59,0,0,1-.45-1.09C16,106.24,56,84.24,71.31,77.4c17.87-8,19.1,8.83,21.45,23.23.11.62.2,1.23.3,1.88C95.48,116.52,98.87,132.48,79.9,129.52Z"/><path class="cls-2" d="M86.18,115.56c-8.24-1.28-31.48-3.92-32.22-8.45-.58-3.5,20-14.81,27.81-18.32,9.19-4.12,9.82,4.54,11,11.93S96.38,117.14,86.18,115.56Z"/><path class="cls-3" d="M107.57,185.54s44.86-9.56,50.13-54.31l-34.52,1.65S133.67,145.56,107.57,185.54Z"/><path class="cls-3" d="M144.34,50.07l-33.22,9.5a10,10,0,0,0,.23-4.14c-.63-6.36-5.63-20.1-31.91-40.74,0,0,41.24-4.81,61.89,29.75A59.83,59.83,0,0,1,144.34,50.07Z"/><path class="cls-4" d="M258.28,103.86c-18.6,14.79-45.15,28.57-70.35,32.74-15.75,2.57-85.65-.58-85.65-.58l-.79-4.83L92.77,78.28,91.26,69l-.92-5.53s9-3.53,21-8.07c9.09-3.43,19.94-7.44,30-11,12.18-4.25,23.18-7.79,28.42-8.65,25.4-4.2,55.65.37,78.5,8.5,17.1,6.05,30,14.12,33.6,22a9.44,9.44,0,0,1,.89,2.78C284.18,77.88,274.11,91.25,258.28,103.86Z"/><path class="cls-3" d="M258.28,103.86a46.7,46.7,0,0,1-14.53-49.39,47,47,0,0,1,4.5-10.17c17.1,6.05,30,14.12,33.6,22a9.44,9.44,0,0,1,.89,2.78C284.18,77.88,274.11,91.25,258.28,103.86Z"/><polygon class="cls-5" points="101.48 131.19 92.12 132.71 84.03 83.51 81.89 70.56 91.26 69.03 92.77 78.28 101.48 131.19"/><circle class="cls-3" cx="213.44" cy="80.49" r="24.24" transform="matrix(0.99, -0.16, 0.16, 0.99, -10.24, 35.72)"/><path class="cls-6" d="M216,96.15a16,16,0,0,1-6.15-.19,15.89,15.89,0,0,1-11.76-11.36,13.5,13.5,0,0,1-.33-1.54,10.9,10.9,0,0,1-.15-1.44A15.78,15.78,0,0,1,209.94,65a4.5,4.5,0,0,1,.92-.22,11.38,11.38,0,0,1,2.08-.18,15.77,15.77,0,0,1,10,3.1,15.23,15.23,0,0,1,4.29,4.88,15,15,0,0,1,1.89,5.29A15.84,15.84,0,0,1,216,96.15Z"/><polygon class="cls-7" points="212.94 64.64 198.11 84.61 197.63 81.63 209.94 65.05 212.94 64.64"/><path class="cls-7" d="M227.21,72.62,209.87,96A15.63,15.63,0,0,1,204,93.25l18.94-25.5A15.23,15.23,0,0,1,227.21,72.62Z"/></svg>