<?xml version="1.0" encoding="utf-8"?>
<!-- Generator: Adobe Illustrator 21.1.0, SVG Export Plug-In . SVG Version: 6.00 Build 0)  -->
<svg version="1.1" id="圖層_1" xmlns="http://www.w3.org/2000/svg" xmlns:xlink="http://www.w3.org/1999/xlink" x="0px" y="0px"
	 viewBox="0 0 400 500" style="enable-background:new 0 0 400 500;" xml:space="preserve">
<style type="text/css">
	.st0{fill:#DAEDF2;}
	.st1{fill:#4A9137;}
	.st2{fill:#ED6B35;}
	.st3{fill:#EE7940;}
	.st4{fill:#F18B43;}
	.st5{opacity:0.5;fill:#FFFFFF;}
	.st6{fill:#3E7F38;}
	.st7{fill:#EA7C43;}
	.st8{fill:#D86A3B;}
	.st9{fill:#094754;}
	.st10{fill:#FDFEFF;}
	.st11{fill:none;}
	.st12{fill:#C9C9C9;}
	.st13{fill:#FFFFFF;}
	.st14{fill:#EBC125;}
	.st15{fill:#466F79;}
	.st16{fill:#50B26D;}
	.st17{fill:#052D4A;}
	.st18{fill:#234760;}
	.st19{fill:#221F20;}
	.st20{fill:#EBB37A;}
	.st21{fill:#EFCF8F;}
	.st22{fill:#3B94D1;}
	.st23{fill:#5BBFED;}
	.st24{fill:#31AEE5;}
	.st25{fill:#1D71B2;}
	.st26{fill:#6FBA42;}
	.st27{fill:#3C9844;}
	.st28{fill:#13484E;}
	.st29{fill:#A0CC53;}
	.st30{fill:#C2DBE1;}
	.st31{fill:#76C0D4;}
	.st32{fill:#8DCBDC;}
	.st33{fill:#CF8762;}
	.st34{fill:#AB8B64;}
	.st35{fill:#A3C6CD;}
	.st36{opacity:0.4;fill:#FFFFFF;}
	.st37{fill:#3A3838;}
	.st38{fill:#E8D59B;}
	.st39{fill:none;stroke:#83827E;stroke-miterlimit:10;}
	.st40{opacity:0.4;}
	.st41{fill:#5C525F;}
	.st42{fill:#7E7A7F;}
	.st43{fill:#C3C0C4;}
	.st44{fill:#555256;}
	.st45{fill:#E8403D;}
	.st46{opacity:0.6;}
	.st47{fill:#88BD43;}
	.st48{fill:#709E36;}
	.st49{fill:#DE2726;}
	.st50{fill:#C41E21;}
	.st51{fill:#AACC67;}
	.st52{fill:#1C7A3E;}
	.st53{fill:#4E9644;}
	.st54{fill:#136635;}
	.st55{fill:#DB2618;}
	.st56{fill:#E67A74;}
	.st57{fill:#D74F40;}
	.st58{fill:#E9483D;}
	.st59{fill:#DB5F59;}
	.st60{fill:#45A436;}
	.st61{fill:#6BA033;}
	.st62{fill:#F6D073;}
	.st63{fill:#E87728;}
	.st64{opacity:0.2;fill:#FFFFFF;}
	.st65{fill:#E55946;}
	.st66{fill:#FAFAFB;}
	.st67{fill:#C0BFBF;}
	.st68{opacity:0.2;fill:#040000;}
	.st69{fill:#21A8B8;}
	.st70{fill:#AF3024;}
	.st71{fill:#E94C2C;}
	.st72{fill:#EB7671;}
	.st73{fill:#F7C673;}
	.st74{fill:#DE9C3E;}
	.st75{fill:#D23820;}
	.st76{fill:#E55E4A;}
	.st77{fill:#846026;}
	.st78{fill:#581631;}
	.st79{fill:#699C33;}
	.st80{fill:#ECE7D4;}
	.st81{fill:#566C7D;}
	.st82{fill:none;stroke:#83827E;stroke-width:2;stroke-miterlimit:10;}
	.st83{opacity:0.9;}
	.st84{fill:#9EC143;}
	.st85{fill:#77923D;}
	.st86{fill:#617633;}
	.st87{fill:#81A441;}
	.st88{fill:#6BBFB5;}
	.st89{fill:#D4CFB8;}
	.st90{fill:#735524;}
	.st91{fill:#E1B273;}
	.st92{fill:#FADA91;}
	.st93{fill:#DADCE3;}
	.st94{fill:#1E9FC3;}
	.st95{fill:#75C1A5;}
	.st96{fill:#D55567;}
	.st97{fill:#238884;}
	.st98{fill:#40B6BD;}
	.st99{fill:#42AB4B;}
	.st100{fill:#69482C;}
	.st101{fill:#2E9AA8;}
	.st102{fill:#14769C;}
	.st103{fill:#1285B3;}
	.st104{fill:#F4B02C;}
	.st105{fill:#F2D330;}
	.st106{fill:#69B42E;}
	.st107{opacity:0.2;fill:#9AC334;}
	.st108{fill:#62ADA2;}
	.st109{fill:#D3E494;}
</style>
<g class="st83">
	<g>
		<g>
			<g>
				<path class="st41" d="M158.3,212.7c44.3,2.4,73.5,12.3,100.2,20.4c-5-7.3-14.1-18.3-25.8-21.5c-18.1-5-53.1-46.3-72.5-41.3
					c-16,4.1-31.5,34.1-36.5,44.5C139.5,212.9,152.5,212.4,158.3,212.7z"/>
				<path class="st37" d="M380.5,217.7c-43.1-1.3-56.9,28.3-56.9,28.3v12.5v1.2v14.7c0,0,13.8,27.4,56.9,26.1
					c0,0-16.5-22.9-16.8-41.4C364.1,240.7,380.5,217.7,380.5,217.7z"/>
				<path class="st42" d="M158.3,212.7c-20-1.1-125,7.5-138.8,49.4c0,0-3.8,41.3,138.8,41.3c0,0,35,3.1,73.8-8.7
					c38.8-11.9,71.3-21.9,91.9-20c0,0,18.7-13.6,0-28.8c0,0-7.5,1.9-41.9-6.3C247.7,231.5,215.8,215.8,158.3,212.7z"/>
				<g>
					<path class="st41" d="M155.8,298c0,0,24.5,32.1,36.6,32.1c12.1,0,21.5-14.6,30.9-16.1c9.4-1.4-18.1-16.1-18.1-16.1H155.8z"/>
					<path class="st41" d="M232,288.9c0,0,10,14.4,15,14.4c5,0,22.5-14.4,22.5-14.4l-14.4-7L232,288.9z"/>
					<path class="st43" d="M158.3,303.3c0,0,35,3.1,73.8-8.7c38.8-11.9,71.3-21.9,91.9-20c0,0,3.5-2.6,6-6.7l0,0
						c0,0-25.8-2.6-60.4,2.7c-34.6,5.2-92.8,26.2-162.9,17c-70.1-9.2-87.1-25.5-87.1-25.5S15.7,303.3,158.3,303.3z"/>
				</g>
				<path class="st41" d="M122,250.2c0,0,13.5,14.5,12.7,37.4c0,0,34.8,0.2,45.1-32.7C179.7,254.9,158.4,231.4,122,250.2z"/>
			</g>
			<path class="st44" d="M64.1,279.4c16.6-10.8,4.6-34.4,4.6-34.4c0.3,8.9,1.7,23.6-13.5,32.4C58,278.2,60.9,278.8,64.1,279.4z"/>
			<circle class="st37" cx="55.3" cy="256.6" r="5.5"/>
		</g>
		<g>
			<ellipse class="st13" cx="53" cy="256.2" rx="11.3" ry="10.3"/>
			<circle class="st37" cx="53.5" cy="256.6" r="5.5"/>
		</g>
	</g>
</g>
</svg>
