<svg id="圖層_1" data-name="圖層 1" xmlns="http://www.w3.org/2000/svg" viewBox="0 0 400 500"><defs><style>.cls-1{opacity:0.4;}.cls-2{fill:#5c525f;}.cls-3{fill:#3a3838;}.cls-4{fill:#7e7a7f;}.cls-5{fill:#c3c0c4;}.cls-6{fill:#555256;}.cls-7{fill:#fff;}</style></defs><title>role</title><g class="cls-1"><path class="cls-2" d="M158.28,212.7c44.35,2.41,73.45,12.25,100.22,20.36-5-7.35-14.12-18.28-25.82-21.51-18.13-5-53.14-46.26-72.52-41.26-16,4.12-31.52,34.1-36.49,44.5C139.49,212.89,152.48,212.39,158.28,212.7Z"/><path class="cls-3" d="M380.52,217.74C337.38,216.49,323.63,246,323.63,246v28.45s13.75,27.36,56.89,26.11c0,0-16.46-22.91-16.82-41.41C364.06,240.65,380.52,217.74,380.52,217.74Z"/><path class="cls-4" d="M158.28,212.7c-20-1.08-125,7.5-138.79,49.39,0,0-3.75,41.26,138.79,41.26A215.05,215.05,0,0,0,232,294.6c38.76-11.88,71.27-21.88,91.9-20,0,0,18.73-13.57,0-28.76,0,0-7.51,1.88-41.89-6.25S215.79,215.83,158.28,212.7Z"/><path class="cls-2" d="M155.78,298s24.46,32.14,36.61,32.14,21.53-14.64,30.9-16.07S205.16,298,205.16,298Z"/><path class="cls-2" d="M232,288.87s10,14.38,15,14.38,22.51-14.38,22.51-14.38l-14.42-7Z"/><path class="cls-5" d="M158.28,303.35A215.05,215.05,0,0,0,232,294.6c38.76-11.88,71.27-21.88,91.9-20a24.81,24.81,0,0,0,6-6.71h0s-25.76-2.56-60.39,2.69-92.78,26.24-162.92,17-87.14-25.5-87.14-25.5S15.74,303.35,158.28,303.35Z"/><path class="cls-2" d="M122,250.17a55.22,55.22,0,0,1,12.65,37.42s34.8.2,45.07-32.72C179.74,254.87,158.39,231.35,122,250.17Z"/><path class="cls-6" d="M64.13,279.44c16.62-10.81,4.6-34.41,4.6-34.41.33,8.87,1.69,23.6-13.46,32.44C58,278.16,60.94,278.82,64.13,279.44Z"/><circle class="cls-3" cx="55.28" cy="256.62" r="5.47"/><ellipse class="cls-7" cx="52.97" cy="256.15" rx="11.28" ry="10.3"/><circle class="cls-3" cx="53.46" cy="256.64" r="5.47"/></g></svg>