<svg id="圖層_1" data-name="圖層 1" xmlns="http://www.w3.org/2000/svg" viewBox="0 0 400 500"><defs><style>.cls-bac-1{opacity:0.4;}.cls-bac-2{fill:#e8403d;}.cls-bac-3{fill:#fff;}.cls-bac-4{fill:#3a3838;}</style></defs><title>role</title><g class="cls-bac-1"><circle class="cls-bac-2" cx="205.32" cy="213.39" r="76.07" transform="translate(-21.36 22.85) rotate(-6.05)"/><path class="cls-bac-2" d="M194.9,157.3h0a8.62,8.62,0,0,1-9.45-7.64l-2.81-27.22c-1.19-7.15,7.07-14.15,7.07-14.15h0s10.7,6.5,10.2,12.6l2.64,26.95A8.62,8.62,0,0,1,194.9,157.3Z"/><path class="cls-bac-2" d="M171.89,168.31h0a8.62,8.62,0,0,1-12-1.89l-16-22.16c-4.61-5.6-1-15.79-1-15.79h0s12.52.28,15.13,5.82l15.76,22A8.62,8.62,0,0,1,171.89,168.31Z"/><path class="cls-bac-2" d="M156.67,193.41h0a8.62,8.62,0,0,1-11.34,4.37l-25-11.17c-6.79-2.54-8.72-13.2-8.72-13.2h0s11-6,16-2.53l24.66,11.19A8.62,8.62,0,0,1,156.67,193.41Z"/><path class="cls-bac-2" d="M152,219.39h0a8.62,8.62,0,0,1-7.64,9.45l-27.22,2.81C110,232.85,103,224.59,103,224.59h0s6.5-10.7,12.6-10.2l26.95-2.64A8.62,8.62,0,0,1,152,219.39Z"/><path class="cls-bac-2" d="M257.7,205.59h0a8.62,8.62,0,0,0,9.45,7.64l27.2-3c7.24-.34,12.35-9.88,12.35-9.88h0s-8.6-9.1-14.46-7.33l-26.9,3.07A8.62,8.62,0,0,0,257.7,205.59Z"/><path class="cls-bac-2" d="M212.24,266.4h0a8.62,8.62,0,0,0-7.64,9.45l3,27.2c.34,7.24,9.88,12.35,9.88,12.35h0s9.1-8.6,7.33-14.46L221.69,274A8.62,8.62,0,0,0,212.24,266.4Z"/><path class="cls-bac-2" d="M161.81,246.53h0a8.62,8.62,0,0,1-1.89,12l-22.16,16c-5.6,4.61-15.79,1-15.79,1h0s.28-12.52,5.82-15.13l22-15.76A8.62,8.62,0,0,1,161.81,246.53Z"/><path class="cls-bac-2" d="M182.57,261.63h0A8.62,8.62,0,0,1,186.94,273l-11.17,25c-2.54,6.79-13.2,8.72-13.2,8.72h0s-6-11-2.53-16L171.23,266A8.62,8.62,0,0,1,182.57,261.63Z"/><path class="cls-bac-2" d="M242.65,255.61h0a8.62,8.62,0,0,1,12,1.89l16,22.16c4.61,5.6,1,15.79,1,15.79h0s-12.52-.28-15.13-5.82l-15.76-22A8.62,8.62,0,0,1,242.65,255.61Z"/><path class="cls-bac-2" d="M261.54,237.9h0a8.62,8.62,0,0,1,11.34-4.37l25,11.17c6.79,2.54,8.72,13.2,8.72,13.2h0s-11,6-16,2.53l-24.66-11.19A8.62,8.62,0,0,1,261.54,237.9Z"/><path class="cls-bac-2" d="M251.17,185.77h0a8.62,8.62,0,0,1,1.89-12l22.16-16c5.6-4.61,15.79-1,15.79-1h0s-.28,12.52-5.82,15.13l-22,15.76A8.62,8.62,0,0,1,251.17,185.77Z"/><path class="cls-bac-2" d="M227.68,164h0a8.62,8.62,0,0,1-4.37-11.34l11.17-25c2.54-6.79,13.2-8.72,13.2-8.72h0s6,11,2.53,16L239,159.68A8.62,8.62,0,0,1,227.68,164Z"/><circle class="cls-bac-3" cx="177.75" cy="196.58" r="17.48" transform="translate(-19.74 19.84) rotate(-6.05)"/><path class="cls-bac-4" d="M179.84,228.78c1.18,14.58,14.25,25.84,28.92,24.38a26.65,26.65,0,0,0,23.6-29.72c-.33-2.48-4.28-2.51-3.94,0,1.64,12.44-7,24.31-19.65,25.78a22.7,22.7,0,0,1-25-20.44c-.2-2.51-4.15-2.53-3.94,0Z"/><circle class="cls-bac-4" cx="181.8" cy="199.36" r="8.56" transform="translate(-20.01 20.29) rotate(-6.05)"/><circle class="cls-bac-3" cx="223.22" cy="190.6" r="17.48" transform="translate(-18.86 24.61) rotate(-6.05)"/><circle class="cls-bac-4" cx="221.06" cy="194.62" r="8.56" transform="translate(-19.3 24.4) rotate(-6.05)"/></g><g class="cls-bac-1"><circle class="cls-bac-2" cx="130.41" cy="354.68" r="27.42"/><path class="cls-bac-2" d="M128.81,334.17h0a3.11,3.11,0,0,1-3.1-3.1l0-9.86c-.15-2.61,3.07-4.8,3.07-4.8h0s3.59,2.74,3.18,4.91l-.08,9.76A3.11,3.11,0,0,1,128.81,334.17Z"/><path class="cls-bac-2" d="M120.14,337.25h0a3.11,3.11,0,0,1-4.23-1.13L111,327.56c-1.44-2.18.26-5.7.26-5.7h0s4.48.58,5.2,2.66l4.81,8.49A3.11,3.11,0,0,1,120.14,337.25Z"/><path class="cls-bac-2" d="M113.73,345.67h0a3.11,3.11,0,0,1-4.23,1.13l-8.53-5c-2.34-1.17-2.62-5.06-2.62-5.06h0s4.17-1.74,5.84-.3l8.41,4.95A3.11,3.11,0,0,1,113.73,345.67Z"/><path class="cls-bac-2" d="M111.06,354.8h0a3.11,3.11,0,0,1-3.1,3.1l-9.86,0c-2.61.15-4.8-3.07-4.8-3.07h0s2.74-3.59,4.91-3.18l9.76.08A3.11,3.11,0,0,1,111.06,354.8Z"/><path class="cls-bac-2" d="M149.48,353.87h0a3.11,3.11,0,0,0,3.1,3.1l9.86,0c2.61.15,4.8-3.07,4.8-3.07h0s-2.74-3.59-4.91-3.18l-9.76.08A3.11,3.11,0,0,0,149.48,353.87Z"/><path class="cls-bac-2" d="M130.87,373.94h0a3.11,3.11,0,0,0-3.1,3.1l0,9.86c-.15,2.61,3.07,4.8,3.07,4.8h0s3.59-2.74,3.18-4.91L134,377A3.11,3.11,0,0,0,130.87,373.94Z"/><path class="cls-bac-2" d="M113.55,364.9h0a3.11,3.11,0,0,1-1.13,4.23L103.86,374c-2.18,1.44-5.7-.26-5.7-.26h0s.58-4.48,2.66-5.2l8.49-4.81A3.11,3.11,0,0,1,113.55,364.9Z"/><path class="cls-bac-2" d="M120.42,371.1h0a3.11,3.11,0,0,1,1.13,4.23l-5,8.53c-1.17,2.34-5.06,2.62-5.06,2.62h0s-1.74-4.17-.3-5.84l4.95-8.41A3.11,3.11,0,0,1,120.42,371.1Z"/><path class="cls-bac-2" d="M142.19,371.23h0a3.11,3.11,0,0,1,4.23,1.13l4.91,8.56c1.44,2.18-.26,5.7-.26,5.7h0s-4.48-.58-5.2-2.66l-4.81-8.49A3.11,3.11,0,0,1,142.19,371.23Z"/><path class="cls-bac-2" d="M149.63,365.6h0a3.11,3.11,0,0,1,4.23-1.13l8.53,5c2.34,1.17,2.62,5.06,2.62,5.06h0s-4.17,1.74-5.84.3l-8.41-4.95A3.11,3.11,0,0,1,149.63,365.6Z"/><path class="cls-bac-2" d="M147.9,346.52h0a3.11,3.11,0,0,1,1.13-4.23l8.56-4.91c2.18-1.44,5.7.26,5.7.26h0s-.58,4.48-2.66,5.2l-8.49,4.81A3.11,3.11,0,0,1,147.9,346.52Z"/><path class="cls-bac-2" d="M140.3,337.84h0a3.11,3.11,0,0,1-1.13-4.23l5-8.53c1.17-2.34,5.06-2.62,5.06-2.62h0s1.74,4.17.3,5.84l-4.95,8.41A3.11,3.11,0,0,1,140.3,337.84Z"/><circle class="cls-bac-3" cx="121.16" cy="347.6" r="6.3"/><path class="cls-bac-4" d="M120.68,359.3a9.52,9.52,0,1,0,19-.07.71.71,0,0,0-1.42,0c.27,10.79-16.47,10.83-16.19.07a.71.71,0,0,0-1.42,0Z"/><circle class="cls-bac-4" cx="122.51" cy="348.75" r="3.09"/><circle class="cls-bac-3" cx="137.69" cy="347.19" r="6.3"/><circle class="cls-bac-4" cx="136.76" cy="348.55" r="3.09"/></g></svg>