<svg id="圖層_1" data-name="圖層 1" xmlns="http://www.w3.org/2000/svg" viewBox="0 0 400 500"><defs><style>.cls-1{opacity:0.6;}.cls-2{fill:#88bd43;}.cls-3{fill:#709e36;}.cls-4{fill:#de2726;}.cls-5{fill:#c41e21;}</style></defs><title>role</title><g class="cls-1"><path class="cls-2" d="M183.39,81.74s8-11.91-2.57-22S169.29,45.1,169.29,45.1,155.44,77,183.39,81.74Z"/><path class="cls-3" d="M221.89,462.33s-35.24-18.83-15-100.59,32.39-130.4-10.19-180.32-12-143.74-12-143.74S152.22,79.39,162.1,142.19s40,62,45.35,119c3.16,33.84-51,103-26.74,199.11Z"/><path class="cls-3" d="M191.52,363.72s11.27-30.35-6.14-64.37-80.59-32-111-68.62c0,0,15.14,31.12,52.45,42.19S185.15,297.25,184,384l11.13-22.85"/><path class="cls-3" d="M196,386.65s4.88-57,54.34-64.81,84.06-59,84.06-59-6.88,38.9-46.19,57.6-71,15.55-88.7,87.75Z"/><path class="cls-3" d="M223.23,265.38s-14.52-14.77,9.84-48.82,58.41-33.44,53.37-79c0,0-6.44,26.54-29.57,39.88s-51.31,23.51-48.3,71.91Z"/><path class="cls-3" d="M183.14,182.29s-47.27-36.75-92.94-20c0,0,57,4.92,106.92,41.34Z"/><path class="cls-4" d="M246.8,382.11c6.81,16.89,26.13,23.9,43.15,15.66s25.3-28.61,18.49-45.5c-5.86-14.54-21-21.76-35.95-18.23-2.42.57-4.08,2.17-6.45,3.31-2.13,1-4.87,1.5-6.71,2.88C246.44,349.89,240.84,367.34,246.8,382.11Z"/><path class="cls-5" d="M277.24,385.47c17-8.24,25.3-28.61,18.49-45.5a31.19,31.19,0,0,0-1.83-3.57,30.15,30.15,0,0,1,14.54,15.87c6.81,16.89-1.47,37.26-18.49,45.5-15.8,7.65-33.56,2.14-41.48-12.2A32.22,32.22,0,0,0,277.24,385.47Z"/><path class="cls-2" d="M265.69,335.62c-.23-1.37,9.22-8.47,17.49-6a24.22,24.22,0,0,1-9.72,8.87C266.63,342,266.19,338.59,265.69,335.62Z"/><path class="cls-2" d="M268.2,333.72c4.54-2.36,12.4,12.09,12.4,12.09s-10.13-1.64-13.24-5.85S264.21,335.79,268.2,333.72Z"/><path class="cls-2" d="M265,335.45c-.82-1.07-11.83,2.4-15.36,11,0,0,5.6,1,12.43-2.55S266.77,337.77,265,335.45Z"/><path class="cls-2" d="M262.17,335.78c-4.45,2.54,1.31,18.13,1.31,18.13s4.92-9.85,3.73-15.1S266.09,333.54,262.17,335.78Z"/><path class="cls-4" d="M111.95,311.59a26.73,26.73,0,0,0,24.93,28,26,26,0,0,0,27.9-24.42,26.69,26.69,0,0,0-19.06-27c-1.87-.56-3.56-.11-5.59-.24-1.82-.12-3.89-.88-5.63-.65A26,26,0,0,0,111.95,311.59Z"/><path class="cls-5" d="M132.07,326a25.37,25.37,0,0,0,27.8-27.63,26.28,26.28,0,0,1,4.91,16.83,26,26,0,0,1-27.9,24.42A26.77,26.77,0,0,1,112,314.67,26.83,26.83,0,0,0,132.07,326Z"/><path class="cls-2" d="M140.46,286.64c.29-1,9.23-2.25,14.18,2.75a17.1,17.1,0,0,1-9.71,2.34C139,291.48,139.83,288.91,140.46,286.64Z"/><path class="cls-2" d="M142.83,286.3c3.94.15,4.67,13.34,4.67,13.34s-6.53-5.16-7.3-9.33S139.37,286.17,142.83,286.3Z"/><path class="cls-2" d="M140,286.25c-.22-1.07-9-3-14.33,1.56a17.31,17.31,0,0,0,9.52,3.14C141.15,291.2,140.5,288.56,140,286.25Z"/><path class="cls-2" d="M138,285.35c-3.95,0-5.06,13.17-5.06,13.17s6.68-4.92,7.58-9.06S141.42,285.34,138,285.35Z"/><path class="cls-4" d="M227.42,246.45c5.16,16.15,22.54,24.18,38.82,17.93s25.29-24.4,20.13-40.55a28.77,28.77,0,0,0-32-19.73c-2.27.33-3.92,1.67-6.18,2.54-2,.78-4.6,1-6.39,2.13C229.24,216.65,222.91,232.32,227.42,246.45Z"/><path class="cls-5" d="M255.32,252c16.28-6.25,25.29-24.4,20.13-40.55A29.38,29.38,0,0,0,274,208a28.52,28.52,0,0,1,12.37,15.83c5.16,16.15-3.85,34.31-20.13,40.55-15.11,5.8-31.15-.72-37.51-14.6A29.91,29.91,0,0,0,255.32,252Z"/><path class="cls-2" d="M248,205c-.12-1.28,9.09-7.08,16.56-4.13a22,22,0,0,1-9.57,7.42C248.42,211,248.25,207.79,248,205Z"/><path class="cls-2" d="M250.43,203.45c4.35-1.82,10.65,12.16,10.65,12.16s-9.25-2.33-11.84-6.47S246.6,205,250.43,203.45Z"/><path class="cls-2" d="M247.35,204.8c-.68-1.05-11.09,1.27-14.92,8.89a19.83,19.83,0,0,0,11.66-1.36C250.64,209.62,248.83,207.08,247.35,204.8Z"/><path class="cls-2" d="M244.72,204.87c-4.29,2,0,16.86,0,16.86s5.2-8.7,4.45-13.65S248.49,203.12,244.72,204.87Z"/><path class="cls-4" d="M102.56,209.87a29.61,29.61,0,1,0,36.51-28.21c-2.12-.51-4,.11-6.26.08-2,0-4.39-.74-6.32-.37A29.37,29.37,0,0,0,102.56,209.87Z"/><path class="cls-5" d="M125.79,224.69a29.42,29.42,0,0,0,29.89-29,29,29,0,0,0-.28-3.58,29.29,29.29,0,0,1-23.54,47.51,29.59,29.59,0,0,1-29.13-26.29A29.68,29.68,0,0,0,125.79,224.69Z"/><path class="cls-2" d="M133.1,180.21c.27-1.19,10.19-3.1,16,2.18a19.28,19.28,0,0,1-10.72,3.23C131.72,185.71,132.51,182.78,133.1,180.21Z"/><path class="cls-2" d="M135.74,179.69c4.41-.08,5.91,14.61,5.91,14.61s-7.56-5.35-8.65-10S131.86,179.76,135.74,179.69Z"/><path class="cls-2" d="M132.6,179.8c-.3-1.18-10.26-2.8-15.92,2.64a19.2,19.2,0,0,0,10.79,2.91C134.11,185.26,133.25,182.36,132.6,179.8Z"/><path class="cls-2" d="M130.23,178.93c-4.41.26-5,15-5,15s7.2-5.92,8-10.59S134.11,178.7,130.23,178.93Z"/><path class="cls-2" d="M236.58,332.09s-17.13-24.65,4.79-46,23.72-31,23.72-31S294.89,321.28,236.58,332.09Z"/><path class="cls-2" d="M177.23,293.23s-18.86-4.58-16-26.33-.12-27.66-.12-27.66S203.3,259.41,177.23,293.23Z"/><path class="cls-2" d="M170,101.86s-1.39-18.51,16-21.55S207.13,73,207.13,73,202.67,117,170,101.86Z"/><path class="cls-2" d="M175.59,154s-6.46-21.83,13.65-30.88,23.52-15.33,23.52-15.33S218.77,162.06,175.59,154Z"/><path class="cls-2" d="M154.81,167.47s-20.72.78-23.09-22.66-6.88-28.71-6.88-28.71S173.64,124.67,154.81,167.47Z"/><path class="cls-2" d="M115.83,260.46s-13.43.52-15-14.67-4.48-18.6-4.48-18.6S128,232.7,115.83,260.46Z"/><path class="cls-2" d="M125.47,159.35s-8.74,5.08-14.23-4.43-8.43-10.73-8.43-10.73S125.38,136.67,125.47,159.35Z"/><path class="cls-2" d="M316.26,286.78s-14.68-18.86,2-37,17.69-25.95,17.69-25.95S362.41,275.32,316.26,286.78Z"/><path class="cls-2" d="M276.62,165s-13.22-1.17-13.16-16.25S261,130,261,130,291.45,139.32,276.62,165Z"/><path class="cls-2" d="M285.65,317.84s2,22.15,23.06,21.65S335,343.12,335,343.12,321.17,292.29,285.65,317.84Z"/><path class="cls-2" d="M230.81,206.48s10.49,20.3,30.49,10,26.63-8.78,26.63-8.78S254.92,165.46,230.81,206.48Z"/><path class="cls-2" d="M150.88,279.26s-11.78-14.5-26.4-2.28-20.26,12.27-20.26,12.27S137.84,317.26,150.88,279.26Z"/><path class="cls-2" d="M138.79,167.55s-16.21-7.31-24.39,10.5-13.18,20.52-13.18,20.52S142.2,207.55,138.79,167.55Z"/><path class="cls-2" d="M271.6,173.16s7,17.7,24.3,11.12,22.61-4.7,22.61-4.7S294.68,141.7,271.6,173.16Z"/><path class="cls-2" d="M219.78,208.06s19.38-9.66,11.79-32.39-5.63-29.85-5.63-29.85S184.62,178.12,219.78,208.06Z"/><path class="cls-2" d="M92,249.56s-9-11-20.1-1.73-15.42,9.34-15.42,9.34S82.1,278.49,92,249.56Z"/><path class="cls-2" d="M110.24,161s-11-5-16.56,7.13-9,13.93-9,13.93S112.55,188.18,110.24,161Z"/><path class="cls-2" d="M163.8,120.08S170.67,104,156,94.93s-16.74-14.24-16.74-14.24S129.92,121.8,163.8,120.08Z"/><polygon class="cls-3" points="263.31 323.17 267.66 337.3 265.07 339.7 259.16 326.18 263.31 323.17"/></g></svg>