<?xml version="1.0" encoding="utf-8"?>
<!-- Generator: Adobe Illustrator 21.1.0, SVG Export Plug-In . SVG Version: 6.00 Build 0)  -->
<svg version="1.1" id="圖層_1" xmlns="http://www.w3.org/2000/svg" xmlns:xlink="http://www.w3.org/1999/xlink" x="0px" y="0px"
	 viewBox="0 0 400 500" style="enable-background:new 0 0 400 500;" xml:space="preserve">
<style type="text/css">
	.st0{fill:#DAEDF2;}
	.st1{fill:#4A9137;}
	.st2{fill:#ED6B35;}
	.st3{fill:#EE7940;}
	.st4{fill:#F18B43;}
	.st5{opacity:0.5;fill:#FFFFFF;}
	.st6{fill:#3E7F38;}
	.st7{fill:#EA7C43;}
	.st8{fill:#D86A3B;}
	.st9{fill:#094754;}
	.st10{fill:#FDFEFF;}
	.st11{fill:none;}
	.st12{fill:#C9C9C9;}
	.st13{fill:#FFFFFF;}
	.st14{fill:#EBC125;}
	.st15{fill:#466F79;}
	.st16{fill:#50B26D;}
	.st17{fill:#052D4A;}
	.st18{fill:#234760;}
	.st19{fill:#221F20;}
	.st20{fill:#EBB37A;}
	.st21{fill:#EFCF8F;}
	.st22{fill:#3B94D1;}
	.st23{fill:#5BBFED;}
	.st24{fill:#31AEE5;}
	.st25{fill:#1D71B2;}
	.st26{fill:#6FBA42;}
	.st27{fill:#3C9844;}
	.st28{fill:#13484E;}
	.st29{fill:#A0CC53;}
	.st30{fill:#C2DBE1;}
	.st31{fill:#76C0D4;}
	.st32{fill:#8DCBDC;}
	.st33{fill:#CF8762;}
	.st34{fill:#AB8B64;}
	.st35{fill:#A3C6CD;}
	.st36{opacity:0.4;fill:#FFFFFF;}
	.st37{fill:#3A3838;}
	.st38{fill:#E8D59B;}
	.st39{fill:none;stroke:#83827E;stroke-miterlimit:10;}
	.st40{opacity:0.4;}
	.st41{fill:#5C525F;}
	.st42{fill:#7E7A7F;}
	.st43{fill:#C3C0C4;}
	.st44{fill:#555256;}
	.st45{fill:#E8403D;}
	.st46{opacity:0.6;}
	.st47{fill:#88BD43;}
	.st48{fill:#709E36;}
	.st49{fill:#DE2726;}
	.st50{fill:#C41E21;}
	.st51{fill:#AACC67;}
	.st52{fill:#1C7A3E;}
	.st53{fill:#4E9644;}
	.st54{fill:#136635;}
	.st55{fill:#DB2618;}
	.st56{fill:#E67A74;}
	.st57{fill:#D74F40;}
	.st58{fill:#E9483D;}
	.st59{fill:#DB5F59;}
	.st60{fill:#45A436;}
	.st61{fill:#6BA033;}
	.st62{fill:#F6D073;}
	.st63{fill:#E87728;}
	.st64{opacity:0.2;fill:#FFFFFF;}
	.st65{fill:#E55946;}
	.st66{fill:#FAFAFB;}
	.st67{fill:#C0BFBF;}
	.st68{opacity:0.2;fill:#040000;}
	.st69{fill:#21A8B8;}
	.st70{fill:#AF3024;}
	.st71{fill:#E94C2C;}
	.st72{fill:#EB7671;}
	.st73{fill:#F7C673;}
	.st74{fill:#DE9C3E;}
	.st75{fill:#D23820;}
	.st76{fill:#E55E4A;}
	.st77{fill:#846026;}
	.st78{fill:#581631;}
	.st79{fill:#699C33;}
	.st80{fill:#ECE7D4;}
	.st81{fill:#566C7D;}
	.st82{fill:none;stroke:#83827E;stroke-width:2;stroke-miterlimit:10;}
	.st83{opacity:0.9;}
	.st84{fill:#9EC143;}
	.st85{fill:#77923D;}
	.st86{fill:#617633;}
	.st87{fill:#81A441;}
	.st88{fill:#6BBFB5;}
	.st89{fill:#D4CFB8;}
	.st90{fill:#735524;}
	.st91{fill:#E1B273;}
	.st92{fill:#FADA91;}
	.st93{fill:#DADCE3;}
	.st94{fill:#1E9FC3;}
	.st95{fill:#75C1A5;}
	.st96{fill:#D55567;}
	.st97{fill:#238884;}
	.st98{fill:#40B6BD;}
	.st99{fill:#42AB4B;}
	.st100{fill:#69482C;}
	.st101{fill:#2E9AA8;}
	.st102{fill:#14769C;}
	.st103{fill:#1285B3;}
	.st104{fill:#F4B02C;}
	.st105{fill:#F2D330;}
	.st106{fill:#69B42E;}
	.st107{opacity:0.2;fill:#9AC334;}
	.st108{fill:#62ADA2;}
	.st109{fill:#D3E494;}
</style>
<g class="st83">
	
		<ellipse transform="matrix(0.9944 -0.1055 0.1055 0.9944 -21.3627 22.8468)" class="st45" cx="205.3" cy="213.4" rx="76.1" ry="76.1"/>
	<path class="st45" d="M194.9,157.3L194.9,157.3c-4.7,0.5-9-2.9-9.5-7.6l-2.8-27.2c-1.2-7.1,7.1-14.1,7.1-14.1l0,0
		c0,0,10.7,6.5,10.2,12.6l2.6,26.9C203,152.5,199.6,156.8,194.9,157.3z"/>
	<path class="st45" d="M171.9,168.3L171.9,168.3c-3.8,2.8-9.2,1.9-12-1.9l-16-22.2c-4.6-5.6-1-15.8-1-15.8h0c0,0,12.5,0.3,15.1,5.8
		l15.8,22C176.6,160.1,175.7,165.5,171.9,168.3z"/>
	<path class="st45" d="M156.7,193.4L156.7,193.4c-1.9,4.3-7,6.3-11.3,4.4l-25-11.2c-6.8-2.5-8.7-13.2-8.7-13.2l0,0c0,0,11-6,16-2.5
		l24.7,11.2C156.6,184,158.6,189.1,156.7,193.4z"/>
	<path class="st45" d="M152,219.4L152,219.4c0.5,4.7-2.9,9-7.6,9.5l-27.2,2.8c-7.1,1.2-14.1-7.1-14.1-7.1l0,0
		c0,0,6.5-10.7,12.6-10.2l26.9-2.6C147.2,211.3,151.5,214.7,152,219.4z"/>
	<path class="st45" d="M257.7,205.6L257.7,205.6c0.5,4.7,4.8,8.1,9.5,7.6l27.2-3c7.2-0.3,12.4-9.9,12.4-9.9v0c0,0-8.6-9.1-14.5-7.3
		l-26.9,3.1C260.6,196.6,257.2,200.9,257.7,205.6z"/>
	<path class="st45" d="M212.2,266.4L212.2,266.4c-4.7,0.5-8.1,4.8-7.6,9.5l3,27.2c0.3,7.2,9.9,12.4,9.9,12.4h0c0,0,9.1-8.6,7.3-14.5
		l-3.1-26.9C221.2,269.3,216.9,265.9,212.2,266.4z"/>
	<path class="st45" d="M161.8,246.5L161.8,246.5c2.8,3.8,1.9,9.2-1.9,12l-22.2,16c-5.6,4.6-15.8,1-15.8,1h0c0,0,0.3-12.5,5.8-15.1
		l22-15.8C153.6,241.9,159,242.7,161.8,246.5z"/>
	<path class="st45" d="M182.6,261.6L182.6,261.6c4.3,1.9,6.3,7,4.4,11.3l-11.2,25c-2.5,6.8-13.2,8.7-13.2,8.7l0,0c0,0-6-11-2.5-16
		l11.2-24.7C173.1,261.7,178.3,259.7,182.6,261.6z"/>
	<path class="st45" d="M242.7,255.6L242.7,255.6c3.8-2.8,9.2-1.9,12,1.9l16,22.2c4.6,5.6,1,15.8,1,15.8h0c0,0-12.5-0.3-15.1-5.8
		l-15.8-22C238,263.8,238.8,258.4,242.7,255.6z"/>
	<path class="st45" d="M261.5,237.9L261.5,237.9c1.9-4.3,7-6.3,11.3-4.4l25,11.2c6.8,2.5,8.7,13.2,8.7,13.2v0c0,0-11,6-16,2.5
		l-24.7-11.2C261.6,247.3,259.6,242.2,261.5,237.9z"/>
	<path class="st45" d="M251.2,185.8L251.2,185.8c-2.8-3.8-1.9-9.2,1.9-12l22.2-16c5.6-4.6,15.8-1,15.8-1v0c0,0-0.3,12.5-5.8,15.1
		l-22,15.8C259.4,190.4,254,189.6,251.2,185.8z"/>
	<path class="st45" d="M227.7,164L227.7,164c-4.3-1.9-6.3-7-4.4-11.3l11.2-25c2.5-6.8,13.2-8.7,13.2-8.7l0,0c0,0,6,11,2.5,16
		L239,159.7C237.1,164,232,166,227.7,164z"/>
	
		<ellipse transform="matrix(0.9944 -0.1055 0.1055 0.9944 -19.7432 19.8449)" class="st13" cx="177.7" cy="196.6" rx="17.5" ry="17.5"/>
	<g>
		<g>
			<path class="st37" d="M179.8,228.8c1.2,14.6,14.3,25.8,28.9,24.4c14.7-1.5,25.5-15.1,23.6-29.7c-0.3-2.5-4.3-2.5-3.9,0
				c1.6,12.4-7,24.3-19.7,25.8c-12.4,1.4-24-8-25-20.4C183.6,226.3,179.6,226.2,179.8,228.8L179.8,228.8z"/>
		</g>
	</g>
	<g>
		
			<ellipse transform="matrix(0.9944 -0.1055 0.1055 0.9944 -20.0142 20.288)" class="st37" cx="181.8" cy="199.4" rx="8.6" ry="8.6"/>
	</g>
	
		<ellipse transform="matrix(0.9944 -0.1055 0.1055 0.9944 -18.8593 24.6074)" class="st13" cx="223.2" cy="190.6" rx="17.5" ry="17.5"/>
	<g>
		
			<ellipse transform="matrix(0.9944 -0.1055 0.1055 0.9944 -19.2952 24.4026)" class="st37" cx="221.1" cy="194.6" rx="8.6" ry="8.6"/>
	</g>
</g>
<g class="st83">
	<circle class="st45" cx="130.4" cy="354.7" r="27.4"/>
	<path class="st45" d="M128.8,334.2L128.8,334.2c-1.7,0-3.1-1.4-3.1-3.1l0-9.9c-0.2-2.6,3.1-4.8,3.1-4.8h0c0,0,3.6,2.7,3.2,4.9
		l-0.1,9.8C131.9,332.8,130.5,334.2,128.8,334.2z"/>
	<path class="st45" d="M120.1,337.2L120.1,337.2c-1.5,0.9-3.4,0.3-4.2-1.1l-4.9-8.6c-1.4-2.2,0.3-5.7,0.3-5.7h0c0,0,4.5,0.6,5.2,2.7
		l4.8,8.5C122.1,334.5,121.6,336.4,120.1,337.2z"/>
	<path class="st45" d="M113.7,345.7L113.7,345.7c-0.9,1.5-2.8,2-4.2,1.1l-8.5-5c-2.3-1.2-2.6-5.1-2.6-5.1l0,0c0,0,4.2-1.7,5.8-0.3
		l8.4,4.9C114.1,342.3,114.6,344.2,113.7,345.7z"/>
	<path class="st45" d="M111.1,354.8L111.1,354.8c0,1.7-1.4,3.1-3.1,3.1l-9.9,0c-2.6,0.2-4.8-3.1-4.8-3.1l0,0c0,0,2.7-3.6,4.9-3.2
		l9.8,0.1C109.7,351.7,111.1,353.1,111.1,354.8z"/>
	<path class="st45" d="M149.5,353.9L149.5,353.9c0,1.7,1.4,3.1,3.1,3.1l9.9,0c2.6,0.2,4.8-3.1,4.8-3.1l0,0c0,0-2.7-3.6-4.9-3.2
		l-9.8,0.1C150.9,350.8,149.5,352.2,149.5,353.9z"/>
	<path class="st45" d="M130.9,373.9L130.9,373.9c-1.7,0-3.1,1.4-3.1,3.1l0,9.9c-0.2,2.6,3.1,4.8,3.1,4.8l0,0c0,0,3.6-2.7,3.2-4.9
		L134,377C134,375.3,132.6,373.9,130.9,373.9z"/>
	<path class="st45" d="M113.5,364.9L113.5,364.9c0.9,1.5,0.3,3.4-1.1,4.2l-8.6,4.9c-2.2,1.4-5.7-0.3-5.7-0.3l0,0
		c0,0,0.6-4.5,2.7-5.2l8.5-4.8C110.8,362.9,112.7,363.4,113.5,364.9z"/>
	<path class="st45" d="M120.4,371.1L120.4,371.1c1.5,0.9,2,2.8,1.1,4.2l-5,8.5c-1.2,2.3-5.1,2.6-5.1,2.6h0c0,0-1.7-4.2-0.3-5.8
		l4.9-8.4C117,370.8,118.9,370.3,120.4,371.1z"/>
	<path class="st45" d="M142.2,371.2L142.2,371.2c1.5-0.9,3.4-0.3,4.2,1.1l4.9,8.6c1.4,2.2-0.3,5.7-0.3,5.7l0,0c0,0-4.5-0.6-5.2-2.7
		l-4.8-8.5C140.2,374,140.7,372.1,142.2,371.2z"/>
	<path class="st45" d="M149.6,365.6L149.6,365.6c0.9-1.5,2.8-2,4.2-1.1l8.5,5c2.3,1.2,2.6,5.1,2.6,5.1l0,0c0,0-4.2,1.7-5.8,0.3
		l-8.4-4.9C149.3,369,148.8,367.1,149.6,365.6z"/>
	<path class="st45" d="M147.9,346.5L147.9,346.5c-0.9-1.5-0.3-3.4,1.1-4.2l8.6-4.9c2.2-1.4,5.7,0.3,5.7,0.3l0,0c0,0-0.6,4.5-2.7,5.2
		l-8.5,4.8C150.7,348.5,148.7,348,147.9,346.5z"/>
	<path class="st45" d="M140.3,337.8L140.3,337.8c-1.5-0.9-2-2.8-1.1-4.2l5-8.5c1.2-2.3,5.1-2.6,5.1-2.6l0,0c0,0,1.7,4.2,0.3,5.8
		l-4.9,8.4C143.7,338.2,141.8,338.7,140.3,337.8z"/>
	<circle class="st13" cx="121.2" cy="347.6" r="6.3"/>
	<g>
		<g>
			<path class="st37" d="M120.7,359.3c-0.1,5.3,4.2,9.8,9.5,9.8c5.3,0,9.7-4.5,9.5-9.8c0-0.9-1.4-0.9-1.4,0
				c0.3,10.8-16.5,10.8-16.2,0.1C122.1,358.4,120.7,358.4,120.7,359.3L120.7,359.3z"/>
		</g>
	</g>
	<g>
		<circle class="st37" cx="122.5" cy="348.8" r="3.1"/>
	</g>
	<circle class="st13" cx="137.7" cy="347.2" r="6.3"/>
	<g>
		<circle class="st37" cx="136.8" cy="348.5" r="3.1"/>
	</g>
</g>
</svg>
