<?xml version="1.0" encoding="utf-8"?>
<!-- Generator: Adobe Illustrator 21.1.0, SVG Export Plug-In . SVG Version: 6.00 Build 0)  -->
<svg version="1.1" id="圖層_1" xmlns="http://www.w3.org/2000/svg" xmlns:xlink="http://www.w3.org/1999/xlink" x="0px" y="0px"
	 viewBox="0 0 400 500" style="enable-background:new 0 0 400 500;" xml:space="preserve">
<style type="text/css">
	.st0{fill:#DAEDF2;}
	.st1{fill:#4A9137;}
	.st2{fill:#ED6B35;}
	.st3{fill:#EE7940;}
	.st4{fill:#F18B43;}
	.st5{opacity:0.5;fill:#FFFFFF;}
	.st6{fill:#3E7F38;}
	.st7{fill:#EA7C43;}
	.st8{fill:#D86A3B;}
	.st9{fill:#094754;}
	.st10{fill:#FDFEFF;}
	.st11{fill:none;}
	.st12{fill:#C9C9C9;}
	.st13{fill:#FFFFFF;}
	.st14{fill:#EBC125;}
	.st15{fill:#466F79;}
	.st16{fill:#50B26D;}
	.st17{fill:#052D4A;}
	.st18{fill:#234760;}
	.st19{fill:#221F20;}
	.st20{fill:#EBB37A;}
	.st21{fill:#EFCF8F;}
	.st22{fill:#3B94D1;}
	.st23{fill:#5BBFED;}
	.st24{fill:#31AEE5;}
	.st25{fill:#1D71B2;}
	.st26{fill:#6FBA42;}
	.st27{fill:#3C9844;}
	.st28{fill:#13484E;}
	.st29{fill:#A0CC53;}
	.st30{fill:#C2DBE1;}
	.st31{fill:#76C0D4;}
	.st32{fill:#8DCBDC;}
	.st33{fill:#CF8762;}
	.st34{fill:#AB8B64;}
	.st35{fill:#A3C6CD;}
	.st36{opacity:0.4;fill:#FFFFFF;}
	.st37{fill:#3A3838;}
	.st38{fill:#E8D59B;}
	.st39{fill:none;stroke:#83827E;stroke-miterlimit:10;}
	.st40{opacity:0.4;}
	.st41{fill:#5C525F;}
	.st42{fill:#7E7A7F;}
	.st43{fill:#C3C0C4;}
	.st44{fill:#555256;}
	.st45{fill:#E8403D;}
	.st46{opacity:0.6;}
	.st47{fill:#88BD43;}
	.st48{fill:#709E36;}
	.st49{fill:#DE2726;}
	.st50{fill:#C41E21;}
	.st51{fill:#AACC67;}
	.st52{fill:#1C7A3E;}
	.st53{fill:#4E9644;}
	.st54{fill:#136635;}
	.st55{fill:#DB2618;}
	.st56{fill:#E67A74;}
	.st57{fill:#D74F40;}
	.st58{fill:#E9483D;}
	.st59{fill:#DB5F59;}
	.st60{fill:#45A436;}
	.st61{fill:#6BA033;}
	.st62{fill:#F6D073;}
	.st63{fill:#E87728;}
	.st64{opacity:0.2;fill:#FFFFFF;}
	.st65{fill:#E55946;}
	.st66{fill:#FAFAFB;}
	.st67{fill:#C0BFBF;}
	.st68{opacity:0.2;fill:#040000;}
	.st69{fill:#21A8B8;}
	.st70{fill:#AF3024;}
	.st71{fill:#E94C2C;}
	.st72{fill:#EB7671;}
	.st73{fill:#F7C673;}
	.st74{fill:#DE9C3E;}
	.st75{fill:#D23820;}
	.st76{fill:#E55E4A;}
	.st77{fill:#846026;}
	.st78{fill:#581631;}
	.st79{fill:#699C33;}
	.st80{fill:#ECE7D4;}
	.st81{fill:#566C7D;}
	.st82{fill:none;stroke:#83827E;stroke-width:2;stroke-miterlimit:10;}
	.st83{opacity:0.9;}
	.st84{fill:#9EC143;}
	.st85{fill:#77923D;}
	.st86{fill:#617633;}
	.st87{fill:#81A441;}
	.st88{fill:#6BBFB5;}
	.st89{fill:#D4CFB8;}
	.st90{fill:#735524;}
	.st91{fill:#E1B273;}
	.st92{fill:#FADA91;}
	.st93{fill:#DADCE3;}
	.st94{fill:#1E9FC3;}
	.st95{fill:#75C1A5;}
	.st96{fill:#D55567;}
	.st97{fill:#238884;}
	.st98{fill:#40B6BD;}
	.st99{fill:#42AB4B;}
	.st100{fill:#69482C;}
	.st101{fill:#2E9AA8;}
	.st102{fill:#14769C;}
	.st103{fill:#1285B3;}
	.st104{fill:#F4B02C;}
	.st105{fill:#F2D330;}
	.st106{fill:#69B42E;}
	.st107{opacity:0.2;fill:#9AC334;}
	.st108{fill:#62ADA2;}
	.st109{fill:#D3E494;}
</style>
<g class="st83">
	<g>
		<g>
			<path class="st47" d="M183.4,81.7c0,0,8-11.9-2.6-22c-10.6-10.1-11.5-14.7-11.5-14.7S155.4,77,183.4,81.7z"/>
		</g>
		<g>
			<path class="st48" d="M221.9,462.3c0,0-35.2-18.8-15-100.6s32.4-130.4-10.2-180.3c-42.6-49.9-12-143.7-12-143.7
				s-32.4,41.7-22.6,104.5c9.9,62.8,40,62,45.3,119c3.2,33.8-51,103-26.7,199.1L221.9,462.3z"/>
			<path class="st48" d="M191.5,363.7c0,0,11.3-30.4-6.1-64.4c-17.4-34-80.6-32-111-68.6c0,0,15.1,31.1,52.5,42.2
				c37.3,11.1,58.3,24.3,57.1,111l11.1-22.9"/>
			<path class="st48" d="M196,386.6c0,0,4.9-57,54.3-64.8c49.5-7.8,84.1-59,84.1-59s-6.9,38.9-46.2,57.6
				c-39.3,18.7-71,15.6-88.7,87.8L196,386.6z"/>
			<path class="st48" d="M223.2,265.4c0,0-14.5-14.8,9.8-48.8c24.4-34.1,58.4-33.4,53.4-79c0,0-6.4,26.5-29.6,39.9
				c-23.1,13.3-51.3,23.5-48.3,71.9L223.2,265.4z"/>
			<path class="st48" d="M183.1,182.3c0,0-47.3-36.7-92.9-20c0,0,57,4.9,106.9,41.3L183.1,182.3z"/>
			<g>
				<path class="st49" d="M246.8,382.1c6.8,16.9,26.1,23.9,43.1,15.7c17-8.2,25.3-28.6,18.5-45.5c-5.9-14.5-21-21.8-35.9-18.2
					c-2.4,0.6-4.1,2.2-6.5,3.3c-2.1,1-4.9,1.5-6.7,2.9C246.4,349.9,240.8,367.3,246.8,382.1z"/>
				<path class="st50" d="M277.2,385.5c17-8.2,25.3-28.6,18.5-45.5c-0.5-1.3-1.2-2.4-1.8-3.6c6.4,3.2,11.6,8.6,14.5,15.9
					c6.8,16.9-1.5,37.3-18.5,45.5c-15.8,7.6-33.6,2.1-41.5-12.2C257,389.9,267.5,390.2,277.2,385.5z"/>
				<path class="st47" d="M265.7,335.6c-0.2-1.4,9.2-8.5,17.5-6c0,0-2.9,5.3-9.7,8.9C266.6,342,266.2,338.6,265.7,335.6z"/>
				<path class="st47" d="M268.2,333.7c4.5-2.4,12.4,12.1,12.4,12.1s-10.1-1.6-13.2-5.9C264.3,335.7,264.2,335.8,268.2,333.7z"/>
				<path class="st47" d="M265,335.5c-0.8-1.1-11.8,2.4-15.4,11c0,0,5.6,1,12.4-2.6C268.9,340.3,266.8,337.8,265,335.5z"/>
				<path class="st47" d="M262.2,335.8c-4.5,2.5,1.3,18.1,1.3,18.1s4.9-9.8,3.7-15.1C266,333.6,266.1,333.5,262.2,335.8z"/>
			</g>
			<g>
				<path class="st49" d="M111.9,311.6c-0.8,14.5,10.3,27,24.9,28c14.6,1,27.1-9.9,27.9-24.4c0.7-12.5-7.5-23.5-19.1-27
					c-1.9-0.6-3.6-0.1-5.6-0.2c-1.8-0.1-3.9-0.9-5.6-0.6C122.3,289,112.7,298.9,111.9,311.6z"/>
				<path class="st50" d="M132.1,326c14.6,1,27.1-9.9,27.9-24.4c0.1-1.1,0-2.1-0.1-3.2c3.4,4.7,5.3,10.6,4.9,16.8
					c-0.8,14.5-13.3,25.4-27.9,24.4c-13.5-0.9-24.1-11.8-24.9-24.9C116.5,321,123.7,325.4,132.1,326z"/>
				<path class="st47" d="M140.5,286.6c0.3-1,9.2-2.3,14.2,2.7c0,0-3.8,2.6-9.7,2.3C139,291.5,139.8,288.9,140.5,286.6z"/>
				<path class="st47" d="M142.8,286.3c3.9,0.2,4.7,13.3,4.7,13.3s-6.5-5.2-7.3-9.3C139.4,286.2,139.4,286.2,142.8,286.3z"/>
				<path class="st47" d="M140,286.2c-0.2-1.1-9-3-14.3,1.6c0,0,3.6,2.9,9.5,3.1C141.1,291.2,140.5,288.6,140,286.2z"/>
				<path class="st47" d="M138,285.4c-3.9,0-5.1,13.2-5.1,13.2s6.7-4.9,7.6-9.1C141.4,285.3,141.4,285.3,138,285.4z"/>
			</g>
			<g>
				<path class="st49" d="M227.4,246.4c5.2,16.1,22.5,24.2,38.8,17.9c16.3-6.2,25.3-24.4,20.1-40.6c-4.4-13.9-17.9-21.8-32-19.7
					c-2.3,0.3-3.9,1.7-6.2,2.5c-2,0.8-4.6,1-6.4,2.1C229.2,216.6,222.9,232.3,227.4,246.4z"/>
				<path class="st50" d="M255.3,252c16.3-6.2,25.3-24.4,20.1-40.6c-0.4-1.2-0.9-2.3-1.5-3.4c5.7,3.5,10.2,8.9,12.4,15.8
					c5.2,16.1-3.8,34.3-20.1,40.6c-15.1,5.8-31.2-0.7-37.5-14.6C236.3,254.4,246,255.6,255.3,252z"/>
				<path class="st47" d="M248,205c-0.1-1.3,9.1-7.1,16.6-4.1c0,0-3,4.7-9.6,7.4C248.4,211,248.2,207.8,248,205z"/>
				<path class="st47" d="M250.4,203.5c4.4-1.8,10.7,12.2,10.7,12.2s-9.3-2.3-11.8-6.5C246.7,205,246.6,205,250.4,203.5z"/>
				<path class="st47" d="M247.4,204.8c-0.7-1.1-11.1,1.3-14.9,8.9c0,0,5.1,1.3,11.7-1.4C250.6,209.6,248.8,207.1,247.4,204.8z"/>
				<path class="st47" d="M244.7,204.9c-4.3,2,0,16.9,0,16.9s5.2-8.7,4.5-13.7C248.4,203.1,248.5,203.1,244.7,204.9z"/>
			</g>
			<g>
				<path class="st49" d="M102.6,209.9c-0.2,16.2,13,29.5,29.3,29.7c16.4,0.2,29.7-12.8,29.9-29c0.1-14-9.6-25.8-22.7-28.9
					c-2.1-0.5-4,0.1-6.3,0.1c-2,0-4.4-0.7-6.3-0.4C113,184,102.7,195.7,102.6,209.9z"/>
				<path class="st50" d="M125.8,224.7c16.4,0.2,29.7-12.8,29.9-29c0-1.2-0.1-2.4-0.3-3.6c4,5.1,6.4,11.5,6.4,18.5
					c-0.2,16.2-13.5,29.2-29.9,29c-15.2-0.2-27.6-11.7-29.1-26.3C108.1,220.1,116.4,224.6,125.8,224.7z"/>
				<path class="st47" d="M133.1,180.2c0.3-1.2,10.2-3.1,16,2.2c0,0-4.1,3.1-10.7,3.2C131.7,185.7,132.5,182.8,133.1,180.2z"/>
				<path class="st47" d="M135.7,179.7c4.4-0.1,5.9,14.6,5.9,14.6s-7.6-5.4-8.6-10C131.9,179.7,131.9,179.8,135.7,179.7z"/>
				<path class="st47" d="M132.6,179.8c-0.3-1.2-10.3-2.8-15.9,2.6c0,0,4.2,3,10.8,2.9C134.1,185.3,133.2,182.4,132.6,179.8z"/>
				<path class="st47" d="M130.2,178.9c-4.4,0.3-5,15-5,15s7.2-5.9,8-10.6C134.1,178.7,134.1,178.7,130.2,178.9z"/>
			</g>
			<g>
				<path class="st47" d="M236.6,332.1c0,0-17.1-24.6,4.8-46c21.9-21.4,23.7-31,23.7-31S294.9,321.3,236.6,332.1z"/>
			</g>
			<g>
				<path class="st47" d="M177.2,293.2c0,0-18.9-4.6-16-26.3c2.8-21.7-0.1-27.7-0.1-27.7S203.3,259.4,177.2,293.2z"/>
			</g>
			<g>
				<path class="st47" d="M170,101.9c0,0-1.4-18.5,16-21.5c17.4-3,21.1-7.3,21.1-7.3S202.7,117,170,101.9z"/>
			</g>
			<g>
				<path class="st47" d="M175.6,154c0,0-6.5-21.8,13.6-30.9c20.1-9.1,23.5-15.3,23.5-15.3S218.8,162.1,175.6,154z"/>
			</g>
			<g>
				<path class="st47" d="M154.8,167.5c0,0-20.7,0.8-23.1-22.7c-2.4-23.4-6.9-28.7-6.9-28.7S173.6,124.7,154.8,167.5z"/>
			</g>
			<g>
				<path class="st47" d="M115.8,260.5c0,0-13.4,0.5-15-14.7c-1.6-15.2-4.5-18.6-4.5-18.6S128,232.7,115.8,260.5z"/>
			</g>
			<g>
				<path class="st47" d="M125.5,159.3c0,0-8.7,5.1-14.2-4.4c-5.5-9.5-8.4-10.7-8.4-10.7S125.4,136.7,125.5,159.3z"/>
			</g>
			<g>
				<path class="st47" d="M316.3,286.8c0,0-14.7-18.9,2-37c16.7-18.1,17.7-25.9,17.7-25.9S362.4,275.3,316.3,286.8z"/>
			</g>
			<g>
				<path class="st47" d="M276.6,165c0,0-13.2-1.2-13.2-16.3c0.1-15.1-2.5-18.8-2.5-18.8S291.4,139.3,276.6,165z"/>
			</g>
			<g>
				<path class="st47" d="M285.7,317.8c0,0,2,22.2,23.1,21.7c21.1-0.5,26.3,3.6,26.3,3.6S321.2,292.3,285.7,317.8z"/>
			</g>
			<g>
				<path class="st47" d="M230.8,206.5c0,0,10.5,20.3,30.5,10c20-10.3,26.6-8.8,26.6-8.8S254.9,165.5,230.8,206.5z"/>
			</g>
			<g>
				<path class="st47" d="M150.9,279.3c0,0-11.8-14.5-26.4-2.3c-14.6,12.2-20.3,12.3-20.3,12.3S137.8,317.3,150.9,279.3z"/>
			</g>
			<g>
				<path class="st47" d="M138.8,167.5c0,0-16.2-7.3-24.4,10.5c-8.2,17.8-13.2,20.5-13.2,20.5S142.2,207.6,138.8,167.5z"/>
			</g>
			<g>
				<path class="st47" d="M271.6,173.2c0,0,7,17.7,24.3,11.1c17.3-6.6,22.6-4.7,22.6-4.7S294.7,141.7,271.6,173.2z"/>
			</g>
			<g>
				<path class="st47" d="M219.8,208.1c0,0,19.4-9.7,11.8-32.4c-7.6-22.7-5.6-29.8-5.6-29.8S184.6,178.1,219.8,208.1z"/>
			</g>
			<g>
				<path class="st47" d="M92,249.6c0,0-9-11-20.1-1.7c-11.1,9.3-15.4,9.3-15.4,9.3S82.1,278.5,92,249.6z"/>
			</g>
			<g>
				<path class="st47" d="M110.2,161c0,0-11-5-16.6,7.1s-9,13.9-9,13.9S112.6,188.2,110.2,161z"/>
			</g>
			<g>
				<path class="st47" d="M163.8,120.1c0,0,6.9-16.1-7.8-25.2c-14.7-9.1-16.7-14.2-16.7-14.2S129.9,121.8,163.8,120.1z"/>
			</g>
			<polygon class="st48" points="263.3,323.2 267.7,337.3 265.1,339.7 259.2,326.2 			"/>
		</g>
	</g>
</g>
</svg>
