<svg id="圖層_1" data-name="圖層 1" xmlns="http://www.w3.org/2000/svg" viewBox="0 0 800 400"><defs><style>.cls-1{fill:#fff;}</style></defs><title>魚菜V2</title><path class="cls-1" d="M791.08,151.33l-8.14-56.6L454.5,67.43A95.83,95.83,0,0,0,298.8,53.52,82.56,82.56,0,0,0,178,33.68,93.21,93.21,0,0,0,38,65.61a92.89,92.89,0,0,0-6.31,68,46.47,46.47,0,0,0-13.79,12.58,46.94,46.94,0,0,0,19.8,70.95,52.49,52.49,0,0,0-3.95,4.8A53.72,53.72,0,0,0,89.6,305.83,48,48,0,0,0,127.4,355a77.94,77.94,0,0,0,86-4A79.54,79.54,0,0,0,224,341.64a81.53,81.53,0,0,0,6.21,9.91,83.16,83.16,0,0,0,134.58-.48c2.9.12,5.82.11,8.78,0a91.68,91.68,0,0,0,76.8-49.69,63,63,0,0,0,89.76-52.17,92.17,92.17,0,0,0,118.69-64Z"/></svg>