<svg id="圖層_1" data-name="圖層 1" xmlns="http://www.w3.org/2000/svg" viewBox="0 0 1440 900"><defs><style>.cls-1{fill:#fff;}</style></defs><title>魚菜V2</title><path class="cls-1" d="M1430.51,563.77a9.35,9.35,0,0,0,2.76-.53,6.27,6.27,0,0,0,3.09-1.5.41.41,0,0,0-.06-.58c-1.69-1.26-3.77-1.88-5.53-3-1.13-.75-1.36-2.75-1.68-4.23a5.58,5.58,0,0,0-1-2.65.42.42,0,0,0-.66,0c-.69.88-1.38,1.76-2,2.67s-1.4,3-2.6,2.75a17.27,17.27,0,0,0-6.81-.14.41.41,0,0,0-.21.72c.92.85,1.57,1.88,2.55,2.68.39.31,2.58,1.43,2.37,2-.43,1.25-1,2.43-1.53,3.63a15.21,15.21,0,0,0-1,2.88.41.41,0,0,0,.55.43,30.08,30.08,0,0,0,6.56-3.66,12.15,12.15,0,0,0,2,2.81c.72.92,1.85,2.56,3.13,2.69a.44.44,0,0,0,.5-.37A18.29,18.29,0,0,0,1430.51,563.77Z"/><path class="cls-1" d="M107,817a9.3,9.3,0,0,0,2.06-1.9,6.22,6.22,0,0,0,1.84-2.89.41.41,0,0,0-.35-.46c-2.1-.19-4.2.37-6.31.3-1.35,0-2.6-1.63-3.65-2.73a5.62,5.62,0,0,0-2.24-1.73.42.42,0,0,0-.57.33c-.13,1.11-.25,2.22-.33,3.34-.07.94.4,3.32-.77,3.7a17.26,17.26,0,0,0-5.88,3.44.42.42,0,0,0,.2.73c1.23.24,2.32.78,3.58.95.49.06,3-.13,3.09.49.29,1.29.42,2.59.61,3.89a15,15,0,0,0,.67,3,.41.41,0,0,0,.7.08,30.18,30.18,0,0,0,3.67-6.55,12.23,12.23,0,0,0,3.14,1.37c1.09.41,2.92,1.21,4.08.66a.44.44,0,0,0,.23-.57A18.4,18.4,0,0,0,107,817Z"/><path class="cls-1" d="M858.93,852.57a9.34,9.34,0,0,0,2.06-1.9,6.24,6.24,0,0,0,1.84-2.89.41.41,0,0,0-.35-.46c-2.1-.19-4.2.37-6.31.3-1.35,0-2.6-1.63-3.65-2.73a5.65,5.65,0,0,0-2.24-1.73.42.42,0,0,0-.57.33c-.13,1.11-.25,2.22-.33,3.34-.07.94.4,3.32-.77,3.7a17.27,17.27,0,0,0-5.87,3.44.41.41,0,0,0,.2.72c1.23.24,2.32.79,3.57.95.49.06,3-.13,3.09.5.29,1.29.42,2.59.61,3.89a15,15,0,0,0,.67,3,.41.41,0,0,0,.7.08,30.1,30.1,0,0,0,3.67-6.55,12.2,12.2,0,0,0,3.14,1.37c1.09.41,2.92,1.21,4.08.66a.44.44,0,0,0,.23-.57A18.37,18.37,0,0,0,858.93,852.57Z"/><path class="cls-1" d="M1192.06,71.08a9.46,9.46,0,0,0,2.78-.36,6.26,6.26,0,0,0,3.18-1.3.41.41,0,0,0,0-.58c-1.61-1.37-3.64-2.12-5.33-3.39-1.08-.82-1.18-2.83-1.4-4.33a5.62,5.62,0,0,0-.82-2.7.42.42,0,0,0-.65-.06c-.75.83-1.49,1.67-2.21,2.53s-1.6,2.94-2.77,2.58a17.29,17.29,0,0,0-6.79-.58.41.41,0,0,0-.25.71c.86.91,1.44,2,2.37,2.84.37.33,2.48,1.59,2.24,2.18-.51,1.22-1.16,2.36-1.76,3.52a15,15,0,0,0-1.18,2.81.41.41,0,0,0,.52.47,30.1,30.1,0,0,0,6.78-3.23,12.23,12.23,0,0,0,1.77,2.93c.66,1,1.69,2.67,3,2.89a.44.44,0,0,0,.52-.33A18.37,18.37,0,0,0,1192.06,71.08Z"/><path class="cls-1" d="M331.47,852.57a9.33,9.33,0,0,0,2.06-1.89c.68-.75,1.72-1.83,1.84-2.89a.41.41,0,0,0-.35-.46c-2.1-.19-4.2.37-6.31.3-1.35,0-2.6-1.63-3.65-2.73a5.65,5.65,0,0,0-2.24-1.73.42.42,0,0,0-.57.33c-.13,1.11-.25,2.22-.33,3.34-.07.94.4,3.32-.77,3.7a17.28,17.28,0,0,0-5.88,3.44.41.41,0,0,0,.2.73c1.23.24,2.32.78,3.58.95.49.06,3-.13,3.09.49.29,1.29.42,2.59.61,3.89a15,15,0,0,0,.67,3,.41.41,0,0,0,.7.08,30,30,0,0,0,3.67-6.55,12.23,12.23,0,0,0,3.14,1.37c1.09.4,2.92,1.2,4.08.66a.44.44,0,0,0,.23-.57A18.34,18.34,0,0,0,331.47,852.57Z"/><path class="cls-1" d="M83.42,676.8a9.34,9.34,0,0,0,2.69-.78,6.24,6.24,0,0,0,2.94-1.77.41.41,0,0,0-.11-.57c-1.8-1.1-3.93-1.53-5.78-2.53-1.19-.64-1.6-2.61-2.05-4.07a5.65,5.65,0,0,0-1.23-2.55.42.42,0,0,0-.65,0c-.61.94-1.22,1.88-1.79,2.84-.48.81-1.12,3.15-2.34,3a17.28,17.28,0,0,0-6.8.47.41.41,0,0,0-.14.74c1,.76,1.73,1.74,2.78,2.44.41.27,2.7,1.19,2.55,1.82-.32,1.28-.78,2.51-1.19,3.75a15,15,0,0,0-.73,3,.41.41,0,0,0,.59.38,30,30,0,0,0,6.2-4.23,12.22,12.22,0,0,0,2.2,2.62c.8.85,2.08,2.38,3.36,2.4a.44.44,0,0,0,.46-.41A18.36,18.36,0,0,0,83.42,676.8Z"/><path class="cls-1" d="M709.21,526.73a13,13,0,0,0,3.74-1.09c1.31-.51,3.27-1.21,4.08-2.46a.57.57,0,0,0-.15-.79c-2.5-1.53-5.46-2.12-8-3.51-1.66-.89-2.22-3.63-2.85-5.65a7.83,7.83,0,0,0-1.71-3.54.58.58,0,0,0-.91.06c-.85,1.31-1.69,2.61-2.48,4-.67,1.13-1.56,4.38-3.25,4.12a24,24,0,0,0-9.44.66.57.57,0,0,0-.2,1c1.38,1.06,2.4,2.41,3.86,3.38.57.38,3.75,1.66,3.54,2.52-.44,1.78-1.09,3.48-1.65,5.21a21.15,21.15,0,0,0-1,4.11.57.57,0,0,0,.82.54,42,42,0,0,0,8.62-5.88,16.94,16.94,0,0,0,3.06,3.64c1.1,1.18,2.89,3.31,4.67,3.34a.62.62,0,0,0,.65-.57A25.47,25.47,0,0,0,709.21,526.73Z"/><path class="cls-1" d="M745.48,65.13a9.34,9.34,0,0,0,2.69-.78,6.24,6.24,0,0,0,2.94-1.77A.41.41,0,0,0,751,62c-1.8-1.1-3.93-1.53-5.78-2.53-1.19-.64-1.6-2.62-2.05-4.07a5.64,5.64,0,0,0-1.23-2.55.42.42,0,0,0-.65,0c-.61.94-1.22,1.88-1.79,2.84s-1.12,3.15-2.34,3a17.3,17.3,0,0,0-6.8.47.41.41,0,0,0-.14.74c1,.76,1.73,1.74,2.78,2.44.41.28,2.71,1.2,2.55,1.82-.31,1.28-.78,2.51-1.19,3.75a15,15,0,0,0-.73,3,.41.41,0,0,0,.59.39,30.19,30.19,0,0,0,6.2-4.23,12.17,12.17,0,0,0,2.2,2.62c.8.85,2.08,2.38,3.36,2.4a.44.44,0,0,0,.46-.41A18.32,18.32,0,0,0,745.48,65.13Z"/><path class="cls-1" d="M1352.84,852.58a9.28,9.28,0,0,0,2.07-1.9,6.23,6.23,0,0,0,1.84-2.89.42.42,0,0,0-.35-.46c-2.1-.19-4.2.37-6.31.3-1.35,0-2.6-1.63-3.65-2.73a5.64,5.64,0,0,0-2.24-1.73.42.42,0,0,0-.57.33c-.13,1.11-.25,2.22-.33,3.34-.07.94.4,3.32-.77,3.7a17.27,17.27,0,0,0-5.87,3.44.41.41,0,0,0,.2.73c1.23.24,2.32.78,3.58.95.49.06,3-.13,3.09.49.29,1.29.42,2.59.61,3.89a15.12,15.12,0,0,0,.67,3,.41.41,0,0,0,.7.08,29.93,29.93,0,0,0,3.67-6.55,12.32,12.32,0,0,0,3.14,1.37c1.09.41,2.92,1.21,4.08.66a.44.44,0,0,0,.23-.57A18.34,18.34,0,0,0,1352.84,852.58Z"/><path class="cls-1" d="M1348.55,38.1a9.36,9.36,0,0,0,2.07-1.9c.68-.75,1.72-1.82,1.84-2.89a.41.41,0,0,0-.35-.46c-2.1-.19-4.2.37-6.31.3-1.35,0-2.6-1.63-3.65-2.73a5.65,5.65,0,0,0-2.24-1.73.42.42,0,0,0-.57.33c-.13,1.11-.25,2.22-.33,3.34-.07.94.4,3.33-.77,3.7a17.26,17.26,0,0,0-5.88,3.44.41.41,0,0,0,.2.73c1.23.24,2.32.79,3.57.95.49.06,3-.13,3.09.49.29,1.29.42,2.59.61,3.89a15.12,15.12,0,0,0,.67,3,.41.41,0,0,0,.7.08,30.11,30.11,0,0,0,3.67-6.55,12.24,12.24,0,0,0,3.14,1.37c1.09.41,2.92,1.21,4.08.66a.44.44,0,0,0,.23-.57A18.33,18.33,0,0,0,1348.55,38.1Z"/></svg>