<svg id="圖層_1" data-name="圖層 1" xmlns="http://www.w3.org/2000/svg" viewBox="0 0 1440 900"><defs><style>.cls-1{fill:#fff;}</style></defs><title>魚菜V2</title><path class="cls-1" d="M1358.68,226a9.36,9.36,0,0,0,2.06-1.9,6.22,6.22,0,0,0,1.84-2.89.41.41,0,0,0-.35-.46c-2.1-.19-4.2.37-6.31.3-1.35,0-2.6-1.63-3.65-2.73a5.61,5.61,0,0,0-2.24-1.73.42.42,0,0,0-.57.33c-.13,1.11-.25,2.22-.33,3.34-.07.94.4,3.32-.77,3.7a17.22,17.22,0,0,0-5.87,3.44.41.41,0,0,0,.2.72c1.23.24,2.32.79,3.58.95.49.06,3-.13,3.09.5.29,1.29.42,2.59.61,3.89a15.12,15.12,0,0,0,.67,3,.41.41,0,0,0,.7.08,30.07,30.07,0,0,0,3.67-6.54,12.22,12.22,0,0,0,3.14,1.37c1.09.41,2.92,1.21,4.08.66a.44.44,0,0,0,.23-.57A18.41,18.41,0,0,0,1358.68,226Z"/><path class="cls-1" d="M745.3,739.89a10.54,10.54,0,0,0,3.13-.4c1.11-.24,2.76-.56,3.57-1.46a.46.46,0,0,0,0-.65c-1.8-1.54-4.1-2.38-6-3.81-1.21-.92-1.32-3.18-1.57-4.87a6.32,6.32,0,0,0-.92-3,.47.47,0,0,0-.73-.06c-.84.94-1.68,1.88-2.48,2.85-.67.82-1.8,3.31-3.12,2.89a19.45,19.45,0,0,0-7.63-.65.46.46,0,0,0-.29.8c1,1,1.62,2.23,2.66,3.19.41.38,2.79,1.8,2.51,2.46-.58,1.37-1.31,2.65-2,4a16.94,16.94,0,0,0-1.33,3.16.46.46,0,0,0,.59.53,33.88,33.88,0,0,0,7.63-3.63,13.65,13.65,0,0,0,2,3.29c.74,1.08,1.9,3,3.32,3.25a.5.5,0,0,0,.59-.37A20.58,20.58,0,0,0,745.3,739.89Z"/><path class="cls-1" d="M421.5,666.36a9.35,9.35,0,0,0,2.8.11,6.25,6.25,0,0,0,3.35-.75.41.41,0,0,0,.07-.57c-1.35-1.61-3.24-2.7-4.68-4.23-.93-1-.69-3-.65-4.51a5.63,5.63,0,0,0-.36-2.8.42.42,0,0,0-.64-.16c-.88.7-1.75,1.4-2.6,2.13s-2.07,2.64-3.17,2.08a17.28,17.28,0,0,0-6.6-1.7.41.41,0,0,0-.37.66c.7,1,1.09,2.19,1.86,3.19.31.39,2.18,2,1.84,2.53-.7,1.12-1.54,2.13-2.32,3.18a15.16,15.16,0,0,0-1.63,2.58.41.41,0,0,0,.44.55,30.18,30.18,0,0,0,7.23-2.05,12.24,12.24,0,0,0,1.26,3.18c.49,1.06,1.21,2.92,2.43,3.34a.44.44,0,0,0,.57-.24A18.4,18.4,0,0,0,421.5,666.36Z"/><path class="cls-1" d="M1397.09,740.07a9.34,9.34,0,0,0,2.06-1.9,6.23,6.23,0,0,0,1.84-2.89.41.41,0,0,0-.35-.46c-2.1-.19-4.2.37-6.31.3-1.35,0-2.6-1.63-3.65-2.73a5.65,5.65,0,0,0-2.24-1.73.42.42,0,0,0-.57.33c-.13,1.11-.25,2.23-.33,3.34-.07.94.4,3.32-.77,3.7a17.26,17.26,0,0,0-5.87,3.44.41.41,0,0,0,.2.73c1.23.24,2.32.79,3.57.95.49.06,3-.13,3.09.49.29,1.29.42,2.59.61,3.89a15,15,0,0,0,.67,3,.41.41,0,0,0,.7.08,30,30,0,0,0,3.67-6.55,12.23,12.23,0,0,0,3.14,1.37c1.09.41,2.92,1.21,4.08.66a.44.44,0,0,0,.23-.57A18.36,18.36,0,0,0,1397.09,740.07Z"/><path class="cls-1" d="M1003.39,55.46a9.33,9.33,0,0,0,2.69-.78A6.23,6.23,0,0,0,1009,52.9a.41.41,0,0,0-.11-.57c-1.8-1.1-3.93-1.53-5.78-2.53-1.19-.64-1.6-2.61-2.05-4.07a5.65,5.65,0,0,0-1.23-2.55.42.42,0,0,0-.65,0c-.61.94-1.22,1.88-1.79,2.84-.48.81-1.12,3.15-2.34,3a17.34,17.34,0,0,0-6.8.48.42.42,0,0,0-.14.74c1,.76,1.73,1.73,2.78,2.43.41.28,2.7,1.2,2.55,1.82-.31,1.28-.78,2.51-1.19,3.75a15.15,15.15,0,0,0-.73,3,.41.41,0,0,0,.59.39,30,30,0,0,0,6.2-4.23,12.2,12.2,0,0,0,2.2,2.62c.8.85,2.08,2.38,3.36,2.4a.44.44,0,0,0,.46-.41A18.33,18.33,0,0,0,1003.39,55.46Z"/><path class="cls-1" d="M1348.55,38.1a9.36,9.36,0,0,0,2.07-1.9c.68-.75,1.72-1.82,1.84-2.89a.41.41,0,0,0-.35-.46c-2.1-.19-4.2.37-6.31.3-1.35,0-2.6-1.63-3.65-2.73a5.65,5.65,0,0,0-2.24-1.73.42.42,0,0,0-.57.33c-.13,1.11-.25,2.22-.33,3.34-.07.94.4,3.33-.77,3.7a17.26,17.26,0,0,0-5.88,3.44.41.41,0,0,0,.2.73c1.23.24,2.32.79,3.57.95.49.06,3-.13,3.09.49.29,1.29.42,2.59.61,3.89a15.12,15.12,0,0,0,.67,3,.41.41,0,0,0,.7.08,30.11,30.11,0,0,0,3.67-6.55,12.24,12.24,0,0,0,3.14,1.37c1.09.41,2.92,1.21,4.08.66a.44.44,0,0,0,.23-.57A18.33,18.33,0,0,0,1348.55,38.1Z"/><path class="cls-1" d="M218.18,641.21A9.33,9.33,0,0,0,221,641a6.3,6.3,0,0,0,3.25-1.1.42.42,0,0,0,0-.58c-1.52-1.46-3.51-2.33-5.11-3.7-1-.88-1-2.89-1.13-4.41a5.61,5.61,0,0,0-.66-2.75.42.42,0,0,0-.65-.1c-.8.79-1.59,1.58-2.35,2.4s-1.77,2.84-2.92,2.41a17.31,17.31,0,0,0-6.74-1,.41.41,0,0,0-.3.69c.81,1,1.32,2.07,2.19,3,.35.36,2.38,1.74,2.1,2.31-.58,1.19-1.3,2.28-2,3.41a15.18,15.18,0,0,0-1.35,2.74.41.41,0,0,0,.49.5,30.19,30.19,0,0,0,7-2.82,12.23,12.23,0,0,0,1.59,3c.6,1,1.52,2.77,2.77,3.06a.44.44,0,0,0,.54-.3A18.29,18.29,0,0,0,218.18,641.21Z"/></svg>