<svg xmlns="http://www.w3.org/2000/svg" viewBox="0 0 350 300"><defs><style>.cls-1{isolation:isolate;}.cls-2{fill:#c2dbe1;}.cls-3{fill:#76c0d4;}.cls-4{fill:#8dcbdc;}.cls-5{fill:#fff;opacity:0.4;mix-blend-mode:overlay;}</style></defs><title>魚菜V2</title><g class="cls-1"><g id="圖層_1" data-name="圖層 1"><path class="cls-2" d="M330.41,152.65C326.55,85.32,266,44.82,266,44.82c36.47,0,42.67-26.75-7-26.75H91c-49.65,0-43.45,26.75-7,26.75,0,0-60.54,40.5-64.4,107.82C14.94,234,80.11,274.79,104.94,277.94c23.25,3,64.85,4.2,70.06,4,5.21.25,46.81-1,70.06-4C269.89,274.79,335.06,234,330.41,152.65Z"/><path class="cls-3" d="M77.7,253.13c12.47,9.2,24.64,14.25,32.48,15.25,21.51,2.73,60,3.88,64.82,3.66,4.82.23,43.31-.93,64.82-3.66,7.09-.9,17.73-5.12,28.94-12.74C203.76,242.32,141.33,246.11,77.7,253.13Z"/><path class="cls-4" d="M318.78,152.45c-1.59-27.85-13.68-50.73-26.55-67.52-48.34,11.89-60.93-4.73-93.34,2.58-18.62,4.66-40.74,7-59.35.78-25.39-6.77-43.45,1.94-79.07-6.8-13.84,17.05-27.55,41.15-29.26,71C28.38,202,53.6,235.34,77.7,253.13c63.63-7,126.05-10.81,191.06,2.51C293.86,238.58,321.76,204.47,318.78,152.45Z"/><path class="cls-5" d="M124.78,50.59c-3.89-2.87-24.23-5.84-30.87,1.55s-33,33.41-45.1,61.1-10.09,68.07.78,66.79c19.51-2.28,4.09-25.1,24.34-62.49C93.48,81.49,136.86,59.5,124.78,50.59Z"/><path class="cls-5" d="M57.86,187.42c-7.27,0-12.67,3-9.05,11.47s7.13,25.66,17.51,19.92C71.77,215.79,69.33,187.42,57.86,187.42Z"/></g></g></svg>