<svg xmlns="http://www.w3.org/2000/svg" viewBox="0 0 538.4 468.21"><defs><style>.cls-farm-1{fill:#fbddb0;}.cls-farm-2{fill:#e2695e;}.cls-farm-3{fill:#e3592f;}.cls-farm-4{fill:#f5ca84;}.cls-farm-5{fill:#f2b153;}.cls-farm-6{fill:#594a42;}.cls-farm-7{fill:#895d3c;}.cls-farm-8{fill:#c0986b;}.cls-farm-9{fill:#b68652;}.cls-farm-10{fill:#726659;}.cls-farm-11{fill:#fff;}.cls-farm-12{fill:#f1a58f;}.cls-farm-13{fill:#316c7f;}.cls-farm-14{fill:#3b7593;}.cls-farm-15{fill:#f1f2f1;}.cls-farm-16{fill:#f7cbbd;}</style></defs><title>資產 18</title><g id="圖層_2" data-name="圖層 2">
<g id="圖層_1-2" data-name="圖層 1">
	<polygon class="cls-farm-1" points="521.67 202.62 485.55 221.49 460.32 224.18 466.38 210.59 466.98 198.14 460.21 194.89 455.08 209.14 440.47 221.19 434.07 238.75 335.66 280.31 301.33 258.53 262.28 276.51 331.92 315.26 444.82 277.22 487.65 272.15 524.88 275.97 526.14 267.63 495.39 259.25 537 255.53 535.25 242.21 494.64 245.64 538.39 234.41 533.47 222.34 489.39 232.32 526.51 213.6 521.67 202.62"/><polygon class="cls-farm-2" points="242.29 286.97 243.54 392.38 230.33 414.91 104.72 431.08 79.04 407.55 69.73 327.24 17.68 309.12 59.34 233.92 118.12 205.35 142.04 214.16 150.53 241.03 154.69 214.09 176.78 201.38 240.4 214.72 293.01 246.06 242.29 286.97"/><polygon class="cls-farm-3" points="120.2 190.87 172.31 187.47 176.78 201.38 149.27 211.76 118.12 205.35 120.2 190.87"/><polygon class="cls-farm-4" points="129.64 176.21 128.07 202.64 150.53 241.03 167.21 202.64 163.75 174.01 129.64 176.21"/><path class="cls-farm-1" d="M163.87,185.84H128.95a24.72,24.72,0,0,1-24.48-21.08L92.13,82.5H200.69l-12.33,82.25A24.72,24.72,0,0,1,163.87,185.84Z"/><polygon class="cls-farm-5" points="146.44 105.54 138.76 142.85 159.22 141.6 146.44 105.54"/><circle class="cls-farm-6" cx="120.39" cy="117.05" r="3.96"/><circle class="cls-farm-6" cx="174.01" cy="115.16" r="3.96"/><path class="cls-farm-7" d="M109.12,104.28a2.35,2.35,0,0,1-1.83-.82,2.57,2.57,0,0,1,.13-3.59,19.31,19.31,0,0,1,12.27-5.16,19.67,19.67,0,0,1,12.71,4,2.51,2.51,0,0,1-3.08,4,14.22,14.22,0,0,0-18.44.88A3,3,0,0,1,109.12,104.28Z"/><path class="cls-farm-7" d="M183.76,103.4a2.43,2.43,0,0,1-1.7-.69,14.22,14.22,0,0,0-18.44-.88,2.51,2.51,0,1,1-3.08-4,19.67,19.67,0,0,1,12.71-4A19.31,19.31,0,0,1,185.52,99a2.55,2.55,0,0,1-1.76,4.41Z"/><polygon class="cls-farm-8" points="22.03 107.61 255.5 82.5 246.06 69.85 44.68 78.66 22.03 107.61"/><polygon class="cls-farm-9" points="87.54 76.78 100.69 8.18 190.05 0 205.79 71.62 87.54 76.78"/><polygon class="cls-farm-10" points="89.55 51.41 200.69 38.39 204.97 59.34 87.54 68.59 89.55 51.41"/><path class="cls-farm-11" d="M130.08,155.56l38.39-.62h0c-2.52,1.87-9.25,3.17-17.05,3.28l-3.08,0c-7.3.11-14.22-.86-17.81-2.49Z"/><path class="cls-farm-4" d="M80.8,136.69h0a15.57,15.57,0,0,0,15.1,11.64H102L97.29,117l-2.58.19A15.7,15.7,0,0,0,80.8,136.69Z"/><polygon class="cls-farm-7" points="87.54 100.56 100.44 137.82 94.71 99.5 87.54 100.56"/><path class="cls-farm-4" d="M197.79,107.61h-.88l-5,33h5.85A16.56,16.56,0,0,0,214,127.5h0A16.47,16.47,0,0,0,197.79,107.61Z"/><polygon class="cls-farm-7" points="199.81 88.48 193.2 132.53 207.36 87.66 199.81 88.48"/><polygon class="cls-farm-12" points="120.2 190.87 142.04 214.16 129.58 238.51 118.12 205.35 120.2 190.87"/><polygon class="cls-farm-12" points="172.31 187.47 154.69 214.09 171.05 235.99 176.78 201.38 172.31 187.47"/><polygon class="cls-farm-7" points="125.55 142.85 170.04 140.65 179.73 154.18 116.42 158.27 125.55 142.85"/><polygon class="cls-farm-13" points="267.02 468.21 79.04 468.21 82 443.23 79.04 407.55 100.5 395.21 95.47 332.91 212.52 313.59 219 377.78 243.42 388.67 245.62 427.75 267.02 468.21"/><polygon class="cls-farm-14" points="74.26 220.89 102.01 347.38 120.39 341.72 100.44 207.55 74.26 220.89"/><polygon class="cls-farm-14" points="193.2 201.38 192 326.62 207.36 330.39 219 207.55 193.2 201.38"/><circle class="cls-farm-15" cx="108.75" cy="332.09" r="5.29"/><circle class="cls-farm-15" cx="200.19" cy="317.8" r="5.29"/><polygon class="cls-farm-16" points="69.73 327.24 68.28 307.42 23.29 292.32 10.38 312.52 69.73 327.24"/><polygon class="cls-farm-16" points="242.29 286.97 294.71 243.54 317.8 258.33 258.02 297.67 242.29 286.97"/><polygon class="cls-farm-1" points="20.83 315.1 0 354.37 23.91 447.44 20.77 468.21 74.26 468.21 64.19 443.04 50.34 354.37 59.34 324.66 20.83 315.1"/></g>
</g></svg>