<svg xmlns="http://www.w3.org/2000/svg" viewBox="0 0 1832.27 41.44"><defs><style>.cls-3-5-1{fill:#e1f2fa;}</style></defs><title>3-5-4-cloud</title><g id="圖層_2" data-name="圖層 2"><g id="圖層_1-2" data-name="圖層 1"><path class="cls-3-5-1" d="M0,41.44H168a14.25,14.25,0,0,0-8.57-8.64,13.28,13.28,0,0,0-11.65,1.64,5.78,5.78,0,0,0-2.88-5.83,5.71,5.71,0,0,0-6.44.75A33,33,0,0,0,112,3.88a33,33,0,0,0-33.1,15.83c-3.77-5.55-11.72-8.22-18.16-6.65A16.88,16.88,0,0,0,48.32,27.18,15.35,15.35,0,0,0,33.1,21.49,15.53,15.53,0,0,0,21.59,32.94C13.5,30.06,4.46,34.11,0,41.44Z"/><path class="cls-3-5-1" d="M1310.68,29.43A15.53,15.53,0,0,0,1299.17,18,15.35,15.35,0,0,0,1284,23.68a16.88,16.88,0,0,0-12.41-14.12c-6.44-1.58-14.39,1.1-18.16,6.65a32.21,32.21,0,0,0-59.56,9.66,5.71,5.71,0,0,0-6.44-.75,5.78,5.78,0,0,0-2.88,5.83,13.28,13.28,0,0,0-11.65-1.64,14.25,14.25,0,0,0-8.57,8.64h168C1327.82,30.6,1318.77,26.56,1310.68,29.43Z"/></g></g></svg>