<svg xmlns="http://www.w3.org/2000/svg" viewBox="0 0 1542.06 109.07"><defs><style>.cls-3{fill:#fff;}</style></defs><title>資產 7</title><g id="圖層_2" data-name="圖層 2"><g id="圖層_1-2" data-name="圖層 1"><path class="cls-3" d="M587.85,52.1H433.43c6.24-6.24,17.89-8.91,25.84-4.93a22.32,22.32,0,0,1,38-12.61c4.18-4.39,12.82-2.6,14.94,3a29.94,29.94,0,0,1,55.52,8C574.41,42.3,583.94,45.79,587.85,52.1Z"/><path class="cls-3" d="M3,46.24H211.84c-15.42-11-33.79-17.34-52-12.34a30.27,30.27,0,0,0-49.55,2.81C105.33,24.3,89.5,18.62,77,23.14,69.14,12.93,58.45,4.57,46,1.34S19.45.66,9.93,9.29-3,34.93,3,46.24Z"/><path class="cls-3" d="M1407.79,102.49a29.94,29.94,0,0,1,55.52-8c2.12-5.62,10.76-7.4,14.94-3a22.32,22.32,0,0,1,38,12.61c8-4,19.6-1.3,25.84,4.93H1387.64C1391.55,102.77,1401.08,99.27,1407.79,102.49Z"/></g></g></svg>