<svg xmlns="http://www.w3.org/2000/svg" viewBox="0 0 1666.85 94.08"><defs><style>.cls-4{fill:#e1f2fa;}</style></defs><title>資產 8</title><g id="圖層_2" data-name="圖層 2"><g id="圖層_1-2" data-name="圖層 1"><path class="cls-4" d="M168,37.93H0A14.25,14.25,0,0,1,8.57,29.3a13.28,13.28,0,0,1,11.65,1.64,5.78,5.78,0,0,1,2.88-5.83,5.71,5.71,0,0,1,6.44.75A33,33,0,0,1,56,.37,33,33,0,0,1,89.1,16.21c3.77-5.55,11.72-8.22,18.16-6.65a16.88,16.88,0,0,1,12.41,14.12,15,15,0,0,1,26.73,5.76C154.49,26.62,163.53,30.67,168,37.93Z"/><path class="cls-4" d="M909.23,94.08H747.34c11.93-8.5,26.18-13.43,40.3-9.6A23.45,23.45,0,0,1,826,86.68c3.84-9.66,16.11-14.05,25.84-10.49,6-8,14.32-14.39,24-16.86s20.63-.55,28,6.17S913.89,85.31,909.23,94.08Z"/><path class="cls-4" d="M1664.55,36.86H1502.66c11.93-8.5,26.18-13.43,40.3-9.6a23.45,23.45,0,0,1,38.38,2.19c3.84-9.66,16.11-14.05,25.84-10.49,6-8,14.32-14.39,24-16.86s20.63-.55,28,6.17S1669.21,28.08,1664.55,36.86Z"/></g></g></svg>