<svg xmlns="http://www.w3.org/2000/svg" viewBox="0 0 1928.44 250.58"><defs><style>.cls-5{fill:#678657;}</style></defs><title>5_grass</title><g id="圖層_2" data-name="圖層 2"><g id="圖層_1-2" data-name="圖層 1"><path class="cls-5" d="M1902.32,67.79c-5.77,1.33-10.25,6.1-12.82,11.36s-3.57,11.22-4.5,17.1a15.89,15.89,0,0,0-14.7-5,16.11,16.11,0,0,0-11.72,10.13,10.2,10.2,0,0,0-18.87,2.55c-1.78-11.12-12.13-20.23-23.44-20.58s-22.13,8.21-24.53,19.23c-6.8-7.38-21.35-5.49-27,2.83a18.66,18.66,0,0,0-35.78.45c-12.33-11.46-33.86-10.71-45.38,1.48-7.32-12.18-28.5-11.5-35,1.07a16.88,16.88,0,0,0-30.18-6.65,6.91,6.91,0,0,0-12.57-5.5c1.51-10.13-5.41-20.87-15.26-23.75S1569.17,75,1565,84.37a10.07,10.07,0,0,0-5.41-10.66A10.19,10.19,0,0,0,1547.84,76c7.39-8.52,5.71-23.2-3.36-29.84S1520.86,42.47,1515,52c3-5,1-12.26-4-15a11.31,11.31,0,0,0-14.9,4.63c4.95-12.1-4.68-27.65-17.7-28.7s-25,12.86-22,25.62c-.48-.69-3.49-.3-4-1-6-9.09-18.49-13.28-28.72-9.51s-17.17,15-15.87,25.73a11,11,0,0,0-12-1.93,11.25,11.25,0,0,0-6.31,10.44c-6.06-6.69-18.82-4.92-22.85,3.21,0-4.18-6.39-8.61-10.57-8.3a7.88,7.88,0,0,0-6.78,8.86c-3.45-6.95-16.49-3.95-16.54,3.86-4.19-8.46-18.59-8.62-23-.22a22.37,22.37,0,0,0-41.78-4.94,24.51,24.51,0,0,0-9.69-26.66,24.66,24.66,0,0,0-28.38,1.32c7.24-6.6,8.08-19.14,1.69-26.58s-18.79-8.76-26.51-2.71-9.51,18.44-3.81,26.36a15,15,0,0,0-18.91-1.22,14.88,14.88,0,0,0-3.83,18.55,14.65,14.65,0,0,0-24.41,11.63c-3.86-7.63-17.41-9.85-24-4.41a16.5,16.5,0,0,0-30.38-8.29,18.7,18.7,0,0,0-33.34-16.26c5.65-14.22-4.65-32.31-19.71-34.75s-30.51,11.45-29.65,26.74c-4.61-7.23-17-7.17-21.59.13-8.82-13.65-60.65-15.28-70.28-.81-4.47-7.36-16.88-7.58-21.59-.42C904.79,12.09,889.53-2,874.43.23S848.8,20.42,854.26,34.71A18.7,18.7,0,0,0,820.7,50.52a16.5,16.5,0,0,0-30.48,7.88c-6.54-5.53-20.13-3.49-24.09,4.09a14.65,14.65,0,0,0-24.25-12,14.88,14.88,0,0,0-3.58-18.6,15,15,0,0,0-18.92,1c5.81-7.84,4.18-20.26-3.46-26.41s-20.12-5.07-26.54,2.36-5.82,19.91,1.33,26.6a24.66,24.66,0,0,0-28.36-1.7,24.51,24.51,0,0,0-10,26.53,22.37,22.37,0,0,0-41.84,4.38c-4.26-8.46-18.65-8.49-23-.09.05-7.81-12.95-11-16.49-4.09a7.88,7.88,0,0,0-6.66-9c-4.18-.37-10.65,4-10.68,8.15-3.92-8.18-16.66-10.12-22.8-3.51a11.25,11.25,0,0,0-6.17-10.53,11,11,0,0,0-12,1.77c1.44-10.75-5.33-22.11-15.52-25.94s-22.76.12-28.85,9.13c-.48.68-3.5.25-4,.93,3.17-12.73-8.59-26.79-21.62-25.92s-22.86,16.3-18.08,28.46a11.31,11.31,0,0,0-14.84-4.83c-5.09,2.71-7.13,10-4.21,15-5.69-9.63-20.2-12.75-29.36-6.23s-11,21.17-3.76,29.79a10.19,10.19,0,0,0-11.7-2.48,10.07,10.07,0,0,0-5.55,10.59c-4-9.42-15.53-14.91-25.42-12.17s-17,13.39-15.58,23.54a6.91,6.91,0,0,0-12.65,5.33,16.88,16.88,0,0,0-30.27,6.24c-6.36-12.65-27.53-13.62-35-1.54C224.92,85,203.41,83.94,190.93,95.24a18.66,18.66,0,0,0-35.77-.93c-5.5-8.4-20-10.48-26.92-3.2C126,80.06,115.21,71.36,104,71.55S82.18,80.73,80.26,91.82A10.2,10.2,0,0,0,61.43,89,16.11,16.11,0,0,0,49.84,78.73,15.89,15.89,0,0,0,35.08,83.5c-.85-5.9-1.77-11.87-4.27-17.16S23.88,56.21,18.13,54.8,2.71,55,.69,60.51L0,162.76l160.13,87.83,787.69-90.64,17.82-.48,769.22,53.1,193.59-48.28-8.75-90.55C1917.74,68.17,1908.09,66.46,1902.32,67.79Z"/></g></g></svg>