<svg xmlns="http://www.w3.org/2000/svg" viewBox="0 0 1919.05 223.04"><defs><style>.cls-8-1{fill:#4c7738;}.cls-8-2{fill:#709e42;}.cls-8-3{fill:#77ac45;}.cls-8-4{fill:#c0986b;}</style></defs><title>資產 5</title><g id="圖層_2" data-name="圖層 2"><g id="圖層_1-2" data-name="圖層 1"><path class="cls-8-1" d="M299.93,98.71a43.6,43.6,0,0,0-48.11-28.92c-.69-2.6-1.37-5.28-2.06-7.88-3.63-2.06-9.46-2.26-10.42,1.78a11.14,11.14,0,0,0-17.2-9.18c1.71-9.8-4.87-20.29-14.46-23.1s-21.59,3.15-25.36,12.34a15.48,15.48,0,0,0-30.29.75,10.18,10.18,0,0,0-11.72-3.84,10,10,0,0,0-6.44,10.42c-8.77-8.5-23.71-9.8-33.86-2.81a8.8,8.8,0,0,0-7.27-7.47c-3.7-.55-7.33,1-8.84,4.46a19.06,19.06,0,0,0-4.32-22.69,19,19,0,0,0-23.1-.75,7.19,7.19,0,0,0-4.25-9.39c-3.7-1.17-8.77,1.51-9.46,5.28A18.48,18.48,0,0,0,27.76.22,18.43,18.43,0,0,0,8,11.94C6.85,6.11,0,8.17,0,8.17V91.31Z"/><path class="cls-8-2" d="M0,122.7v100H29.27c43.32-37.76,88.14-73.41,141.4-98,2.95-1.44,5.14-4,7.68-6C118.92,115.57,59.83,115.91,0,122.7Z"/><path class="cls-8-3" d="M271,80.62C177.58,66.08,82.52,59.57,0,66.56V122.7c59.83-6.79,118.92-7.13,178.34-4a17.19,17.19,0,0,1,3.29-2.19A675.54,675.54,0,0,1,271,80.62Z"/><path class="cls-8-4" d="M271,80.62a675.54,675.54,0,0,0-89.37,35.85c-4.11,2.06-6.85,6.17-11,8.22-53.25,24.61-98.08,60.25-141.4,98H254.07c22.07-12.61,45-24.13,67.37-37,19.19-11,37-19.88,56.2-29.47,20.56-9.6,39.75-18.51,60.31-27.42,6.72-2.88,13.3-5.69,19.81-8.43A1737.83,1737.83,0,0,0,271,80.62Z"/><path class="cls-8-2" d="M321.45,185.69c-22.28,12.89-45.3,24.4-67.37,37H511.3c-47-22.28-93.42-44.07-141.94-62.3C353.25,168.48,337.83,176.3,321.45,185.69Z"/><path class="cls-8-3" d="M457.77,120.37c-6.51,2.74-13.09,5.55-19.81,8.43-20.56,8.91-39.75,17.82-60.31,27.42-2.81,1.37-5.55,2.81-8.29,4.18,48.59,18.23,95,40,141.94,62.3H702.52C665.72,190.21,572.3,151.48,457.77,120.37Z"/><path class="cls-8-1" d="M1919.05,91.65V8.51s-6.85-2.06-8,3.77A17.92,17.92,0,0,0,1876.28,18c-.69-3.77-5.76-6.44-9.46-5.28a7.19,7.19,0,0,0-4.25,9.39,19,19,0,0,0-23.1.75,19.06,19.06,0,0,0-4.32,22.69c-1.51-3.43-5.14-5-8.84-4.46a8.8,8.8,0,0,0-7.27,7.47c-10.14-7-25.09-5.69-33.86,2.81A10,10,0,0,0,1778.75,41,10.18,10.18,0,0,0,1767,44.84a15.48,15.48,0,0,0-30.29-.75C1733,34.9,1721,28.94,1711.38,31.75s-16.18,13.3-14.46,23.1a11.14,11.14,0,0,0-17.2,9.18c-1-4-6.79-3.84-10.42-1.78-.69,2.6-1.37,5.28-2.06,7.88a43.6,43.6,0,0,0-48.11,28.92Z"/><path class="cls-8-2" d="M1740.71,119c2.54,2.06,4.73,4.59,7.68,6,53.25,24.61,98.08,60.25,141.4,98h29.27V123C1859.22,116.26,1800.14,115.91,1740.71,119Z"/><path class="cls-8-3" d="M1737.42,116.8a17.19,17.19,0,0,1,3.29,2.19c59.42-3.08,118.5-2.74,178.34,4V66.91c-82.52-7-177.58-.48-271,14.05A675.54,675.54,0,0,1,1737.42,116.8Z"/><path class="cls-8-4" d="M1461.28,120.71c6.51,2.74,13.09,5.55,19.81,8.43,20.56,8.91,39.75,17.82,60.31,27.42,19.19,9.6,37,18.51,56.2,29.47,22.34,12.89,45.3,24.4,67.37,37h224.81c-43.32-37.76-88.14-73.41-141.4-98-4.11-2.06-6.85-6.17-11-8.22A675.54,675.54,0,0,0,1648,81,1737.83,1737.83,0,0,0,1461.28,120.71Z"/><path class="cls-8-2" d="M1549.7,160.74c-48.53,18.23-94.93,40-141.94,62.3H1665c-22.07-12.61-45.1-24.13-67.37-37C1581.22,176.64,1565.8,168.83,1549.7,160.74Z"/><path class="cls-8-3" d="M1216.53,223h191.22c46.95-22.28,93.35-44.07,141.94-62.3-2.74-1.37-5.48-2.81-8.29-4.18-20.56-9.6-39.75-18.51-60.31-27.42-6.72-2.88-13.3-5.69-19.81-8.43C1346.75,151.83,1253.33,190.55,1216.53,223Z"/></g></g></svg>