<svg xmlns="http://www.w3.org/2000/svg" viewBox="0 0 322.09 274.36"><defs><style>.cls-1{fill:none;}.cls-2{fill:#6aa468;}.cls-3{fill:#637a87;}.cls-4{fill:#a17139;}.cls-5{fill:#493224;}.cls-6{fill:#cc8839;}.cls-7{fill:#91ac25;}.cls-8{fill:#cd893b;}.cls-9{fill:#647b88;}.cls-10{fill:#eca78d;}.cls-11{fill:#7e8da0;}.cls-12{fill:#acb6be;}.cls-13{fill:#f4c9a0;}.cls-14{fill:#ce8c3d;}.cls-15{fill:#cd8b3c;}.cls-16{fill:#443b39;}.cls-17{fill:#a3abb9;}.cls-18{fill:#91ab26;}.cls-19{fill:#cb893a;}.cls-20{fill:#eeaa3b;}.cls-21{fill:#efab3d;}.cls-22{fill:#eead41;}.cls-23{fill:#eeab3f;}.cls-24{fill:#efac3f;}.cls-25{fill:#efad40;}.cls-26{fill:#eda839;}.cls-27{fill:#efac45;}.cls-28{fill:#efae42;}.cls-29{fill:#efab3e;}.cls-30{fill:#efab3f;}.cls-31{fill:#eea93b;}.cls-32{fill:#efae41;}.cls-33{fill:#f0b249;}.cls-34{fill:#efaf42;}.cls-35{fill:#efae40;}.cls-36{fill:#eca83b;}.cls-37{fill:#efac40;}.cls-38{fill:#ac7e46;}.cls-39{fill:#f4c9a1;}.cls-40{fill:#acb5be;}.cls-41{fill:#eb9e5c;}.cls-42{fill:#4b754c;}.cls-43{fill:#465760;}.cls-44{fill:#f4c8a0;}.cls-45{fill:#f1bb98;}.cls-46{fill:#704f27;}.cls-47{fill:#715027;}.cls-48{fill:#735229;}.cls-49{fill:#715028;}.cls-50{fill:#eb9e5b;}.cls-51{fill:#cd8b3d;}.cls-52{fill:#a27239;}.cls-53{fill:#edaa3c;}.cls-54{fill:#eda83a;}.cls-55{fill:#e4bd8b;}.cls-56{fill:#fff;}.cls-57{fill:#eeab3d;}.cls-58{fill:#ce8b3d;}.cls-59{fill:#efb091;}.cls-60{fill:#b32c48;}.cls-61{fill:#483e3b;}.cls-62{fill:#493f3c;}.cls-63{fill:#bc895c;}.cls-64{fill:#171318;}.cls-65{fill:#1c171b;}.cls-66{fill:#bb885c;}.cls-67{fill:#b93d50;}</style></defs><title>famrer</title><g id="圖層_2" data-name="圖層 2"><g id="圖層_1-2" data-name="圖層 1"><path class="cls-1" d="M185,124.09c-1.16-.77-2-2-3.21-2.69,0,.07,0,.14,0,.21-1.15,6.28-3.66,12.19-5.07,18.39l-.31.61c.39.34.75.72,1.16,1Z"/><path class="cls-1" d="M188.09,116.37h0c.89-4.67,4.3-8.08,6.23-12.24a3.88,3.88,0,0,1-.19-1.43c-.28-2,2.73-3,1.59-5.21a1.92,1.92,0,0,1-2.25.18c-3.57,1.47-3.3,5.34-4.74,8.09-1.11,2.13-1.76,4.57-3,6.71-.34.4-.67.79-1,1.2C185.07,115.27,186.33,116,188.09,116.37Z"/><path class="cls-1" d="M212.88,72l0,0c2.77-3.43,5.38-7,8.7-9.94-2.62.74-5.08.66-7.1-1.84-2,2.14-3.28,4.83-5.45,6.81C210.83,68.2,211.74,70.18,212.88,72Z"/><path class="cls-1" d="M204.69,83.74c1.4-2,2.59-4.21,4.12-6.15-2.19,1.09-3.33.8-5.41-1.1a11.29,11.29,0,0,1-1.93,3.65A5.46,5.46,0,0,1,204.69,83.74Z"/><path class="cls-1" d="M194.83,111.74c-4.54,9.1-8.87,18.29-11.71,28.11l-2.21,6q.16.39.3.78a5,5,0,0,1-.35,2.54c1-2.11,1.53-4.39,2.55-6.47,4.26-8,7.83-16.46,13.2-23.9a60.54,60.54,0,0,1,3.81-4.93C198.36,113.75,196.35,113.41,194.83,111.74Z"/><path class="cls-1" d="M158.13,267.74h0c-3.35-2-7.19-3.18-10.08-6-3.93,1.77-6.66-.34-10-2.26-7.23-4.17-13.58-9.67-21-13.54-2.2-1.71-3.07.35-3.8,1.61-3.58,6.16-8.87,10.81-13.71,15.86a36.67,36.67,0,0,0-4.69,6.66A47,47,0,0,1,92,274.36h65.93q.05-3.31.25-6.62Z"/><path class="cls-1" d="M173.95,226.65c-1.07.14-1.44,1.4-2.11,2.18,0,.18,0,.35,0,.53a10,10,0,0,1-.23,3.55c.62-2,1.44-4,2.22-6Z"/><path class="cls-1" d="M178.74,95.66c-.63,3.39.77,7-1.23,10.25h0c-3.15,14.28-8.77,26.92-22.61,34.12-2.7,3-6.61,2.94-10.06,4-2.23.71-4.54,1.18-6.81,1.76h0a59.87,59.87,0,0,1-4.08,22,5.8,5.8,0,0,0,0,2c2.66,2.23,3.22,5.67,4.79,8.53a3.68,3.68,0,0,1-.09.9c1.73,4.43,5.09,7.83,7.7,11.68,2.27,3.36,6.68,2.42,10.16,3.33l1.64-.89h0c1.13-3.71,3.86-6.63,5.26-10.21a9.91,9.91,0,0,1-.28-1.73c.48-11.26,3.38-22.11,5.63-33.07,1.39-6.78,1.74-13.84,4.46-20.24,3.8-8.93,6.93-18.11,10.76-27a14.81,14.81,0,0,1,2.08-4c-2.43-.11-4.64-1.41-7.08-1.42Z"/><path class="cls-1" d="M85.64,137.56v0h0l0,0Z"/><path class="cls-1" d="M185.42,160.73h0a2.09,2.09,0,0,1,0-1.85q-.45.75-.92,1.48A2.3,2.3,0,0,1,185.42,160.73Z"/><path class="cls-1" d="M242.55,83.08a59.07,59.07,0,0,1,11.06-7.29c-2.67,0-4.94-.74-6.35-3.38-2.06,2.65-5.05,4.27-7.44,6.55C242.31,79.36,242.54,81.15,242.55,83.08Z"/><polygon class="cls-1" points="250.02 111.61 250.02 111.61 250.01 111.61 250.02 111.61"/><path class="cls-1" d="M209.91,114.22a2.72,2.72,0,0,1,.92-3A266.08,266.08,0,0,1,235,88.46a11.13,11.13,0,0,1,1.79-1l.26-.16c-1.1-1-2.92-1.21-3.92-2.39a16.75,16.75,0,0,1-6.48,5.57h0c-.42,3.23-2.1,5.31-5.41,5.92,0,1.35-1,2.13-1.82,3-8.16,8.56-14.71,18.3-21,28.25,3.62-3.71,6.51-8,9.91-11.94A5.75,5.75,0,0,1,209.91,114.22Z"/><path class="cls-1" d="M235.86,114c-1.64-.73-3.19-1.59-3-3.27-10.31,8.15-20.23,16.73-28.17,28.34C215.09,128,227,120.33,240.05,114.52A7.87,7.87,0,0,1,235.86,114Z"/><path class="cls-1" d="M210.48,121.17a147.13,147.13,0,0,0-12,16.23,1.39,1.39,0,0,1-1,.48,2,2,0,0,1,.14,1c4.79-7,9.29-14.2,16.11-19.52a5.24,5.24,0,0,1-2.12-.83A4.06,4.06,0,0,1,210.48,121.17Z"/><path class="cls-1" d="M151.53,221.79c-6.85-1.39-13.77-3.24-19.82-6.38-5.28-2.75-10.83-6.14-14.67-11-2.72-3.43-6.81-5.58-8.79-9.6l-.08,0a3.28,3.28,0,0,1-2.35-.58c-3.64-2.52-3.61-2.5-5.52,1.58a58.3,58.3,0,0,1-6.33,11c3.09,1.26,6.21.09,9.32,0,8.38-.36,14,8.25,10.8,16.07,10.48,7.74,21.05,15.36,31.43,23.24,2.83,2.15,6.5,3.3,8.27,6.76,0,0,0,.08,0,.13,1.18.17,2.34,1,3.53.47l-.17-.4c.42-9.94.76-19.89.73-29.85,0-.05,0-.11,0-.16C155.68,223.61,153.77,221.18,151.53,221.79Z"/><path class="cls-1" d="M192.8,144.19c.52,1.82-.58,3.15-1.42,4.55-.73,1.21-1.43,2.44-2.13,3.66,1.84-2.91,3.78-5.75,5.45-8.76A2.75,2.75,0,0,1,192.8,144.19Z"/><path class="cls-2" d="M35.47,208.16c3.29-.47,6.78.14,10.14.57,1.36.18,2-.48,2.95-1h0c-3.36-6.58-6.52-13.27-8-20.54-.38-1.86-2.36-4.09-1.11-5.38,1.58-1.64,4.19-2.59,6.51-3.15,5.72-1.38,11.54-2.36,17.32-3.51a25.3,25.3,0,0,0,3.22-.73c6.8-2.31,8.44-1.24,9.69,5.64,1.36,7.54,2.27,15.19,5,22.44.46,1.23.58,2,2.33,2.16,3.38.3,6.32,3,10,2.07l.43.19a58.3,58.3,0,0,0,6.33-11c1.91-4.09,1.88-4.1,5.52-1.58a3.28,3.28,0,0,0,2.35.58l.08,0c-.08-.17-.17-.33-.24-.51,5.1-1.69,8.86-5.69,13.75-7.83,4.54-2,8.31-5.71,13.68-5.9a2.92,2.92,0,0,0,2.93-2c.08.22.18.43.26.65a3.68,3.68,0,0,0,.09-.9c-1.58-2.86-2.13-6.29-4.79-8.53,0,0,0,0,0,.05-1.41.19-1.83,1.31-2.59,2.33-2.48,3.31-5.17,6.29-10,6.28-5.47,0-11,1-16.15-1.63-4.93-2.55-6-5.45-3.86-10.46,2-4.67,2.85-9.8,5.69-14.14.16-.25-.36-1-.57-1.45h0a27.81,27.81,0,0,1-18.49,1h0c-1.38,3.75-.11,7.59-.3,11.39-.18,3.59-1.85,5.46-4.85,5.88-16,2.23-30.18-6.93-31.67-24.81-.53-6.35-1.44-12.65-1.45-19.07,0-4.31-.09-8.59.89-12.79.32-1.36.74-2.41-1-2.93h0a65.64,65.64,0,0,0-22.24,16.27c-5.66,6.47-11.23,12.95-14.67,21-2.56,6-4.84,12.11-7.23,18.16C1.34,175.31.38,185.89.1,196.7c4.22-.15,6.7,3.42,10,5.1C18.2,205.93,26,209.5,35.47,208.16Zm-4.28-65c-.15-1.58-.83-4.47,1.61-4.35,2.23.11,2.69,2.68,2.27,4.91-1.05,4.26-.85,8.6-1.25,12.86a29.26,29.26,0,0,0,2.86,16,3.77,3.77,0,0,1,.41,2.71c-.23,1,.07,2.51-1.38,2.64-.94.08-1.61-1-2-1.89a43.91,43.91,0,0,1-3.95-17.1C29.62,153.46,31.7,148.45,31.19,143.11Z"/><path class="cls-3" d="M70.9,266.45a155.61,155.61,0,0,1,9.78-12.14c2.51-2.91,4-6.42,6.27-9.44,1.28-1.68,2.27-3,4.45-3.1-3.73-2.42-7-5.4-8.26-9.74-.72-2.48-1.74-2.69-4-2.65-6.32.11-13-1.1-17.61-4.9-5.29-4.31-10.46-9.47-12.82-16.41-.62,1.35-1.95,1.69-3.45,1.61-7.08-.4-14.16-.48-21.24-.62a7,7,0,0,1-3.17-1C13.93,204.26,6.28,201.82.1,196.7c0,1.89-.15,3.79-.07,5.67.56,12.13,3,23.9,9.63,34.14A57,57,0,0,0,28,253.83c2.25,1.38,3.83,3.1,2.65,5.75-2.21,5-4.52,9.89-6.9,14.78H63.48A44.49,44.49,0,0,0,70.9,266.45Z"/><path class="cls-3" d="M24,209.05c7.08.14,14.17.22,21.24.62,1.51.08,2.83-.26,3.45-1.61,0-.12-.09-.24-.13-.37h0c-.9.55-1.59,1.21-2.95,1-3.36-.44-6.85-1-10.14-.57-9.44,1.34-17.27-2.23-25.38-6.35-3.3-1.68-5.78-5.25-10-5.1,6.18,5.11,13.83,7.56,20.73,11.37A7,7,0,0,0,24,209.05Z"/><path class="cls-4" d="M63.37,58.58C70.12,61.27,77,63.75,83.75,66.3h0l7.46,2.19a4.81,4.81,0,0,1,1.6.47,135.41,135.41,0,0,0,20.26,6.49c4.19.93,8.2,2.77,12.3,4.13,7.58,2.51,15.52,3.55,23,6.18,6.73,2.36,14,2.38,20.56,5.48,3.1,1.46,7,1.29,10.05,3.49a7.88,7.88,0,0,0-.22.93l.21.07c2.45,0,4.66,1.31,7.08,1.42a5.48,5.48,0,0,1,.62-.63c3.42-3.57,4.11-8.54,6.4-12.71,1.33-2.43,4.15-4.25,3.71-7.56-2.29-2.16-4.17-4.76-6.9-6.45h0c-8,.53-16.09,1.77-24.07,1.38a84.58,84.58,0,0,1-20.63-4.07A292.29,292.29,0,0,1,116,56.36c-11.27-4.88-22.84-9.28-33.22-15.94C79,38,73.9,37.46,71.2,33.21h0C70.52,34,70,35,68.66,34s-2.82-.69-4.27-.94c-5.67-1-11.42-.26-17.05-1a20.44,20.44,0,0,0-9.11,1.18c-3.05,1-4,4.37-2,7a34.12,34.12,0,0,0,7.24,7.44c4.07,2.81,8.11,5.84,13,7.24,1.57.45,2.44,1.74,3.22,3.08h0C61.17,56.83,62.12,58.09,63.37,58.58Z"/><path class="cls-4" d="M113.61,36.44c7.62,3.09,15.2,6.47,23.09,8.6,13.11,3.53,26.07,7.94,40.1,7.15,4.3-.24,8.81,1.53,13.35.83h0c-1.13-8.27-4.73-15.56-8.63-22.82-5.17-9.61-13.49-16.1-22.31-21.43C144-.41,127.22-1.58,109.9,1.58c-13.65,2.49-23,10.89-31.1,21.31,5.09,1.95,10.39,3.49,15.23,6C100.33,32,107.12,33.81,113.61,36.44ZM158.24,26c4.47,1,8.88,1.39,12.84,3.46,1.3.68,2.6,1.41,1.78,3.11-.71,1.46-1.77,2.25-3.67,1.4a36,36,0,0,0-10.3-2.64c-2.5-.31-2.63-2.32-2.85-3.93C155.86,26.07,157.32,26,158.24,26Zm-21.37,7.13c.79-1.19,1.87-2.27,3.43-1.15,3.48,2.48,7.48,3.2,11.57,3.81a2.25,2.25,0,0,1,2,2.68c-.47,1.53-1.76,4-3.59,3.19-4.15-1.72-8.6-2.88-12.39-5.44C136.75,35.48,136,34.52,136.87,33.17Zm-17-20.33c.45-1.62,1.79-2.38,4.1-2.34a37.83,37.83,0,0,1,8.23,3.37c1.08.67.92,1.62.28,2.5-.88,1.2-1.91,1.9-3.54,1.23-2.16-.89-4.37-1.67-6.6-2.36C121,14.85,119.33,14.87,119.89,12.84Zm-14.32,5.73c1.29-2.44,3.68-1.44,4.86,0,2.19,2.65,5.59,1.91,8.09,3.53.84.54,1.73.8,1.73,2-.7,1.23-1.55,2.46-3.18,2-3.18-.87-6.34-1.86-9.44-3C105.5,22.4,104.57,20.46,105.57,18.57Z"/><path class="cls-5" d="M128.86,59.9c7.87,2.62,15.44,6.08,23.61,7.89,7.48,1.66,14.94,2.78,22.63,1.86,4.9-.59,9.85-.92,14.76.13a9.63,9.63,0,0,1-.18-3.21c.78-4.48,1.7-9,.46-13.55-1.43,1.88-3.58,1.64-5.38,1.33-5.77-1-11.63-.66-17.41-1.36-16.66-2-32.51-6.92-48-13.23-6-2.46-12.46-4.08-18.35-6.77-7.4-3.38-15.57-5.1-22.22-10.1-3.88,2.45-5.76,6.37-7.6,10.32h0c6,2.5,11.42,6.23,17.25,9.14C101.61,48.92,114.85,55.23,128.86,59.9Z"/><path class="cls-5" d="M82.8,40.42c10.38,6.66,22,11.07,33.22,15.94a292.29,292.29,0,0,0,29.14,10.73,84.58,84.58,0,0,0,20.63,4.07c8,.4,16-.85,24.07-1.38h0c-4.91-1.05-9.86-.71-14.76-.13-7.7.92-15.15-.2-22.63-1.86-8.16-1.81-15.74-5.27-23.61-7.89-14-4.68-27.25-11-40.41-17.55-5.82-2.91-11.21-6.64-17.25-9.14C73.9,37.46,79,38,82.8,40.42Z"/><path class="cls-5" d="M119.37,39.76c15.48,6.3,31.33,11.22,48,13.23,5.78.7,11.64.37,17.41,1.36,1.81.31,3.95.55,5.38-1.33h0c-4.54.7-9.05-1.07-13.35-.83-14,.79-27-3.62-40.1-7.15-7.9-2.13-15.48-5.51-23.09-8.6C107.12,33.81,100.33,32,94,28.84c-4.83-2.46-10.13-4-15.23-6,6.65,5,14.82,6.72,22.22,10.1C106.91,35.69,113.32,37.3,119.37,39.76Z"/><path class="cls-6" d="M183.26,161a1.26,1.26,0,0,1,1.3-.66q.47-.74.92-1.48c.24-.54.62-1.05.91-1.6.87-1.67,1.85-3.29,2.85-4.88.7-1.23,1.4-2.45,2.13-3.66.84-1.4,1.95-2.73,1.42-4.55h0c-1.38-1.15-4.22-.08-4.3-3.36-.07-2.92,1-4.65,3.55-5.7a3.57,3.57,0,0,0,2.07-1.87c-.09-1.88,2.66-2,2.48-3.9.64-.57,1.25-1.17,1.84-1.77,6.27-9.95,12.82-19.69,21-28.25.82-.86,1.82-1.64,1.82-3-.14,0-.26.07-.41.09-2-2.15-3.93-.37-5.9,0-4.15,3.52-6.71,8.32-10,12.5h0L201.51,114l-1.07-.08a60.54,60.54,0,0,0-3.81,4.93c-5.37,7.43-8.94,15.85-13.2,23.9-1,2.08-1.58,4.37-2.55,6.47a4.07,4.07,0,0,0-.19,2.49c-1.37,3.09-4,1.41-6.09,1.49-1.8.07-1.75-2-2-3.17-.93-3.83,1.4-6.82,3-10a3.24,3.24,0,0,1,.86.56l.31-.61c1.41-6.21,3.91-12.11,5.07-18.39,0-.07,0-.14,0-.21a3.81,3.81,0,0,0-.86-.37c-.45-3.6,1.24-6.25,3.8-8.51a4.44,4.44,0,0,0,.07,1.15c.32-.4.65-.8,1-1.2,1.23-2.14,1.87-4.58,3-6.71,1.43-2.74,1.16-6.61,4.74-8.09a3.6,3.6,0,0,1-.49-.32c-1.48-4.78,2.12-8,3.89-11.65a33.75,33.75,0,0,1,3.68-5.89,7.87,7.87,0,0,1,.9.32,11.29,11.29,0,0,0,1.93-3.65c-.28-.25-.56-.52-.88-.83,1.34-3.41,2.2-7.12,5.71-9.17A6.16,6.16,0,0,1,209,67c2.17-2,3.47-4.68,5.45-6.81-.12-.15-.24-.29-.35-.46-.28-4.22,3.48-5.26,5.83-7.42h0a102.62,102.62,0,0,1,11.72-11.06c.44-3.7,2.51-5.24,6.18-4.69h0c1.66-1.11,2.8-2.84,4.88-3.53a2,2,0,0,0,1-3.37c-1.07-1.49-1.75-1-3.22-.1a90.69,90.69,0,0,0-13.23,9.71,123.87,123.87,0,0,0-18.23,19.32c-4.31,5.76-7.38,12.38-12.3,17.7h0a3,3,0,0,1,0,3.82c-3,4.19-4.75,9-6.9,13.57-.69,1.49-1.39,3-3.21,3.53-.21,0-.41,0-.61,0a14.81,14.81,0,0,0-2.08,4c-3.84,8.9-7,18.09-10.76,27-2.72,6.4-3.07,13.47-4.46,20.24-2.25,11-5.14,21.81-5.63,33.07a9.91,9.91,0,0,0,.28,1.73,13.2,13.2,0,0,0,.49-1.47c.36,2.05.76,4.06,3.38,4.4.88.11,1.35.76,1.79,1.54,2.94,5.3-.76,13.71-6.67,15.08a34.37,34.37,0,0,0-1.5,9.22c-.06,3.49-1.43,7-1.83,10.64a3.18,3.18,0,0,1-1.13.51c0,.05,0,.11,0,.16,0,10-.31,19.9-.73,29.85l.17.4a2.34,2.34,0,0,0,.54-.36c1.94,5.23,6.07,2.59,9.45,2.62h0l3.38-15.88a18.27,18.27,0,0,1,.91-7,10,10,0,0,0,.23-3.55c0-.18,0-.35,0-.53a1.59,1.59,0,0,1-1,.6c.39-3.25-1.86-5.23-3.55-7.5-2.64-3.57-2-5.47,2.2-6.5-.51-2-1.12-3.93-1.51-5.93-.66-3.4,2.43-1.93,4.17-2.81-1.57-1.44-1.46-3.31-2-5-.34-1.06-.25-2.29.86-2.37,4.05-.28,2.37-2.89,2.21-4.92-.26-3.17.48-5.69,3.86-6.94,1-.38,1.75-1.62,2.62-2.46h0a6.17,6.17,0,0,1,1.19-4.25c2.59-3.86,3.85-8.28,5.64-12.48h0C185.72,165.75,181.44,164.77,183.26,161Zm-10.35.59c-2.3-3.08-.52-4.64-.07-7.26C174.55,157.12,173.15,158.82,172.91,161.62Z"/><path class="cls-6" d="M193,83.8c-2.28,4.17-3,9.14-6.4,12.71a5.48,5.48,0,0,0-.62.63c.2,0,.4,0,.61,0,1.82-.49,2.52-2,3.21-3.53,2.14-4.6,3.93-9.37,6.9-13.57a3,3,0,0,0,0-3.82h0C197.2,79.55,194.38,81.37,193,83.8Z"/><path class="cls-7" d="M173.95,226.65l-.11.31c-.78,2-1.6,3.94-2.22,6-.46,2.24-1.17,4.47-.17,6.77-.41,5.59-1.09,11.11-3.91,16.07,4-.19,7.86-.58,11.33-2.77-.61-.56-.51-1.12-.19-1.84,2.38-5.32,4.58-10.7,6.46-16.23,2.18-6.4,5.42-12.38,8.14-18.55a124.91,124.91,0,0,1,11.51-21,56.65,56.65,0,0,1,19.81-18,59.58,59.58,0,0,1,30.57-7.15c5.58.14,10.84,1.72,16.25,2.9-4.8-3-9-6.8-14.27-8.8a41.42,41.42,0,0,0-23.68-1.75c-11.31,2.34-20.59,8-29,15.53-6.15,5.45-10.67,12.2-15.4,18.8-5.85,9.43-11,19.2-14,30A2.14,2.14,0,0,0,173.95,226.65Z"/><path class="cls-7" d="M171.44,239.69c-1-2.3-.28-4.53.17-6.77a18.27,18.27,0,0,0-.91,7l-3.38,15.88h.2C170.35,250.8,171,245.28,171.44,239.69Z"/><path class="cls-8" d="M302.08,100.31a117.87,117.87,0,0,0-16,1.29c-6.94,1.07-14,1.93-20.65,4.22-5.2,1.78-10.86,2.35-15.43,5.8h0L243.08,114a26.38,26.38,0,0,1-3,.56C227,120.33,215.09,128,204.67,139c7.95-11.61,17.86-20.19,28.17-28.34a4.15,4.15,0,0,1,.58-1.65c2.2-1,3-4,5.85-4.1h0c5.76-3.6,11.31-7.6,17.32-10.7,10.8-5.57,22-10.14,34.49-10.36,5.18-.09,10.35-.25,15.53-.35,1.54,0,3-.37,2.71-2.23-.22-1.63-1.31-2.06-3-1.69-1.43.31-3-.13-4.53-.11-11.45.21-22.77.53-33.71,5a174.72,174.72,0,0,0-32.58,18.11c-4.17,2.86-8.7,5.3-12.17,9.11h0c-.68,4.79-5,5.92-8.21,8.15a4.18,4.18,0,0,0-1.28-.5c-6.82,5.32-11.32,12.54-16.11,19.52-.15,1-1,1.89-1.11,2.9l-.67,1.45a2.46,2.46,0,0,0-1.21.37c-1.67,3-3.61,5.85-5.45,8.76-1.23,2.17-2.46,4.35-3.76,6.48a2.09,2.09,0,0,0,0,1.85l6.85-.64h0c1.82-1.16,2.48-3.27,3.8-4.75,9.91-11.1,20.13-21.75,33.3-29.32,12.85-7.39,26-13.62,40.55-16.91,4.88-1.1,9.53-2.64,14.69-3,5.77-.39,11.5-1.52,17.34-1.15,1.73.11,3.78.13,4-1.95C306.22,100.52,303.34,100.29,302.08,100.31Z"/><path class="cls-8" d="M185.49,158.88c1.3-2.13,2.52-4.31,3.76-6.48-1,1.59-2,3.2-2.85,4.88C186.11,157.83,185.74,158.35,185.49,158.88Z"/><path class="cls-9" d="M99.57,263.45c4.84-5,10.13-9.69,13.71-15.86.73-1.26,1.6-3.32,3.8-1.61-1.62-2.32-4-3.58-6.49-4.7h0c-6,3.84-12.2,2.7-18.43.76h0a34.58,34.58,0,0,1-8.52,14.6,104.59,104.59,0,0,0-10.91,13.67,44.13,44.13,0,0,1-3.26,4H92a47,47,0,0,0,2.93-4.26A36.67,36.67,0,0,1,99.57,263.45Z"/><path class="cls-10" d="M59.5,100.57h0c2.41-.64,3.45.67,3.31,2.77a25.25,25.25,0,0,0,2.57,12.42c5.6-.79,10.19-3,15.1-6.31,5.78-3.91,4.21-9,5.76-13.64.08-.25.13-.72,0-.8-3.39-2.29-2.93-6.4-4.6-9.47-.72-1.33-1.93-2.28-1.34-4,.23-.7-.26-1.9-.6-1.77-3.55,1.37-4.13-3.24-6.89-3.3h0c-1.35,3.24-3.21,4.08-6.24,1.69s-6.77-2.23-10.39-2.32h0a13.19,13.19,0,0,0-5.77,4.4c-4.92,7.22-3.73,12.78,4,19a13.07,13.07,0,0,1,5.08,1.35Z"/><path class="cls-5" d="M145.49,246.15c-10.38-7.88-21-15.5-31.43-23.24-.1.24-.18.49-.3.73a6.85,6.85,0,0,1-4-2c-2.74-2.25-5.44-2.51-8,.06-2.94,3-3,6.13-.93,9.34,2.46,3.9,5.84,6.83,9.21,9.8l.35-.14c2.9.9,6.25,1.23,6.65,5.28,7.4,3.87,13.75,9.36,21,13.54,3.33,1.92,6.07,4,10,2.26,1.15-2.16,3.47-3.16,5-5h0a7.28,7.28,0,0,0,0-3.75,2.24,2.24,0,0,1,.79,0s0-.08,0-.13C152,249.45,148.33,248.3,145.49,246.15Z"/><path class="cls-5" d="M110.42,240.7l-.35.14.51.45h0c2.49,1.12,4.87,2.38,6.49,4.7C116.67,241.94,113.32,241.6,110.42,240.7Z"/><path class="cls-11" d="M194.28,250c-2.43-.33-4,2-5.13,4.17-2.13,4.31-4.69,5.85-9.14,4.42-5.48-1.77-9.85.1-14.48,2.66-3.13,1.73-9.55-.72-12.14-3.91a11.51,11.51,0,0,1-5.34,4.48c2.89,2.79,6.73,4,10.08,6h0a13.28,13.28,0,0,1,6.81,2.57c2.88.16,5.78.16,8.49,1.39h0c5.11.08,10.22,0,15.33.29,3.45.17,6.7-.39,9.3-2.58,8.22-6.94,9.24-15.89,6.72-25.71C202.18,247.28,199.7,250.71,194.28,250Z"/><path class="cls-11" d="M153,256.8c-1.5,1.82-3.81,2.82-5,5a11.51,11.51,0,0,0,5.34-4.48c-.13-.17-.27-.33-.38-.5Z"/><path class="cls-12" d="M51.57,112.59c-1.85,7.29-1.11,14.75-.46,22s.47,14.81,4.81,21.61c5.62,8.81,16.16,14,26.3,11.8,2.66-.58,4.14-2.14,4.29-4.86a34.64,34.64,0,0,0-.13-5.82c-.23-2-.07-4,1.38-5.61-1.49-1.93.19-3.79.36-5.66.16-1.72,1.4-3.28.9-5.14h0c.31-2.56-2.49-1.92-3.37-3.26h0c.75,2.84-.61,5.53-1.35,8-1.55,5.17-.37,10.29-.81,15.4-.22,2.49-.57,4.07-3.62,4.13-13.45.28-22.21-5.29-25.21-21.14A70.47,70.47,0,0,1,54,125.38c.35-4.54-.15-9.18.54-13.74.58-3.86,1.49-7.63,4.36-10.5-1.6-.42-3.32-.54-4.51-1.93a34.5,34.5,0,0,0-2.18,4.72c-.61,2-.64,4.27-2.68,5.6C52.06,109.34,52,111.1,51.57,112.59Z"/><path class="cls-12" d="M50.54,112.47c-1,4.2-.89,8.47-.89,12.79,0,6.42.92,12.71,1.45,19.07,1.49,17.88,15.63,27,31.67,24.81,3-.42,4.67-2.29,4.85-5.88.19-3.8-1.07-7.65.3-11.39h0l-.16-.2c-1.45,1.61-1.61,3.57-1.38,5.61a34.64,34.64,0,0,1,.13,5.82c-.15,2.72-1.63,4.28-4.29,4.86-10.15,2.23-20.68-3-26.3-11.8-4.34-6.8-4.15-14.36-4.81-21.61s-1.39-14.67.46-22c.38-1.49.49-3.25-2-3h0C51.29,110.06,50.86,111.1,50.54,112.47Z"/><path class="cls-12" d="M59.5,100.57h0a13.07,13.07,0,0,0-5.08-1.35c1.19,1.38,2.91,1.51,4.51,1.93C59.12,101,59.29,100.75,59.5,100.57Z"/><path class="cls-13" d="M176.86,188.91a4.89,4.89,0,0,0-2.51,4.51c.09,2.73,1.38,5.73-2.49,7.1-.57.2-.49,1.27-.29,1.93.79,2.53,1.87,4.88-1.91,6.29-1.36.51-.32,2.53.09,3.79.59,1.83,1,3.35-1.28,4.51-2.56,1.3-.92,3.08,0,4.49,1.52,2.28,3.31,4.4,3.33,7.3.67-.78,1-2,2.11-2.18,2.33-6.47,4.28-13.11,7.68-19.14,2.12-3.76,4-7.75,7.39-10.63-2.44-3.5-3.44-8.2-8.24-9.73-.89-.28-.87-1.34-1.05-2.14h0A6.22,6.22,0,0,1,176.86,188.91Z"/><path class="cls-13" d="M177.11,187.48c-3.39,1.26-4.12,3.78-3.86,6.94.16,2,1.85,4.65-2.21,4.92-1.11.08-1.2,1.31-.86,2.37.53,1.67.43,3.53,2,5-1.74.89-4.83-.59-4.17,2.81.39,2,1,4,1.51,5.93-4.17,1-4.84,2.93-2.2,6.5,1.69,2.28,3.94,4.26,3.55,7.5a1.59,1.59,0,0,0,1-.6c0-2.9-1.81-5-3.33-7.3-.94-1.4-2.57-3.18,0-4.49,2.27-1.16,1.87-2.67,1.28-4.51-.41-1.26-1.45-3.29-.09-3.79,3.78-1.4,2.7-3.76,1.91-6.29-.21-.66-.29-1.73.29-1.93,3.87-1.38,2.58-4.37,2.49-7.1a4.89,4.89,0,0,1,2.51-4.51,6.22,6.22,0,0,0,2.86-3.89C178.86,185.86,178.14,187.09,177.11,187.48Z"/><path class="cls-13" d="M181.63,207.51c-3.4,6-5.35,12.67-7.68,19.14a2.14,2.14,0,0,1,1.1.18c3-10.75,8.12-20.52,14-30C185.6,199.76,183.75,203.75,181.63,207.51Z"/><path class="cls-14" d="M255.88,75.59a17.64,17.64,0,0,1-2.27.2,59.07,59.07,0,0,0-11.06,7.29c0,.31,0,.62,0,.93l-4.88,4.12a2.7,2.7,0,0,0-.63-.88l-.26.16a11.13,11.13,0,0,0-1.79,1,266.08,266.08,0,0,0-24.15,22.78,2.72,2.72,0,0,0-.92,3l.21-.12,1.49,0h0c1.74-2.18,4.41-2.45,6.8-3.27h0C227.1,101.33,237,93.36,247.57,86c12.28-8.54,25.32-15,40.12-18.06,2.53-.52,5.11.82,7.56-.85a3.21,3.21,0,0,0,1.48-2.68,1.1,1.1,0,0,0-1.37-1.18c-4.68,1.1-9.68.16-14.18,2-7.51,3-15.52,4.63-22.64,8.62h0A2.46,2.46,0,0,1,255.88,75.59Z"/><path class="cls-15" d="M223.34,61.4c-.59.22-1.17.42-1.74.59-3.31,2.94-5.92,6.52-8.7,9.94l0,0c.14.21.28.43.42.64a7.53,7.53,0,0,1-2.76,4c-.66.4-1.22.73-1.74,1-1.53,1.94-2.72,4.12-4.12,6.15a7.59,7.59,0,0,1,.25,1.1c-2.41,2.55-3.52,5.85-5,8.91-.9,1.81-2,3.28-4.13,3.71l0,0c1.13,2.19-1.87,3.26-1.59,5.21a3.88,3.88,0,0,0,.19,1.43,16.34,16.34,0,0,0,.65-1.59c0,.88-.17,1.79.78,2.34,1-.91,1.88-2.07,3.31-2.43h0l3.23-3.87c1.51-3.47,1.79-7.69,5.84-9.63h0c3-7.12,8-12.92,12.93-18.75,8.22-9.78,17.53-18.27,29.12-24q5.22-6.77,13.3-4h0c2.21-.46,2.27-1.47,1.06-3.2-1.43-2-3.51-1-4.75-.61a74.59,74.59,0,0,0-34,20.78A5,5,0,0,1,223.34,61.4Z"/><path class="cls-16" d="M65.18,76.22c3,1.76,5.24,1.82,7.69-.14.51-3.16,4-3.71,5.6-6.07.93-1.4,2.74-2.22,4.36-3.15a179.05,179.05,0,0,1-23.14-8.93h0C57,63.6,56.63,69.72,56.18,75.82h0C59.27,73.69,62.62,74.7,65.18,76.22Z"/><path class="cls-16" d="M83.75,66.3h0c-6.8-2.55-13.63-5-20.38-7.71-1.26-.5-2.2-1.76-3.68-.65a179.05,179.05,0,0,0,23.14,8.93C83.15,66.68,83.46,66.5,83.75,66.3Z"/><path class="cls-16" d="M72.81,76.45h0c0-.13,0-.24.05-.36-2.45,2-4.72,1.9-7.69.14-2.56-1.52-5.91-2.53-9-.41,3.62.09,7.37-.07,10.39,2.32S71.46,79.69,72.81,76.45Z"/><path class="cls-17" d="M167.48,255.83c-.17.3-.35.59-.53.88-6,1.35-7.93.75-9.62-3.2-1.19.57-2.36-.3-3.53-.47a6,6,0,0,1,0,3.55c-.08.16-.18.3-.27.46,1.7.79,3.33,1.72,5,2.51,4,1.85,7.33,1.41,10.69-1.47,2.7-2.3,6.07-1.43,9.17-.86,6.22,1.13,6.73,1,10.19-4.3,1.34-2,3-4,5.52-3.93,3.91.11,6.56-1.7,8.87-4.47a1.7,1.7,0,0,1,1.76-.82c.52-1.9-1.37-2.88-1.77-4.48-.25-1,.06-3-1.59-2.91a3.92,3.92,0,0,0-3.27,2.78c-1,2.71-3,4.62-5.2,6.63-4.12,3.8-9.29,5.08-14.1,7.26h0C176.43,256.26,171.51,257.48,167.48,255.83Z"/><path class="cls-17" d="M167,256.72c.19-.29.36-.59.53-.88l-.16-.06h0c-3.38,0-7.51,2.61-9.45-2.62a2.34,2.34,0,0,1-.54.36C159,257.46,160.94,258.06,167,256.72Z"/><path class="cls-17" d="M167.48,255.83c4,1.65,9,.43,11.37-2.84h0c-3.47,2.19-7.38,2.58-11.33,2.77Z"/><path class="cls-17" d="M167.53,255.76h-.2l.16.06Z"/><path class="cls-17" d="M153,253.05a7.28,7.28,0,0,1,0,3.75h0l.52.25c.09-.15.18-.3.27-.46a6,6,0,0,0,0-3.55A2.24,2.24,0,0,0,153,253.05Z"/><path class="cls-17" d="M203,244.53c-2.32,2.76-5,4.58-8.87,4.47-2.5-.07-4.18,1.88-5.52,3.93-3.47,5.29-4,5.43-10.19,4.3-3.11-.57-6.48-1.44-9.17.86-3.37,2.88-6.71,3.32-10.69,1.47-1.7-.79-3.33-1.72-5-2.51l-.15.25c2.58,3.19,9,5.64,12.14,3.91,4.63-2.55,9-4.43,14.48-2.66,4.45,1.43,7-.11,9.14-4.42,1.09-2.19,2.7-4.5,5.13-4.17,5.42.74,7.9-2.69,10.51-6.25A1.7,1.7,0,0,0,203,244.53Z"/><path class="cls-17" d="M153.39,257.3l.15-.25-.52-.25C153.13,257,153.26,257.13,153.39,257.3Z"/><path class="cls-18" d="M164.83,271q-.31,1.69-.57,3.39H173q.2-1.32.39-2.65h0C170.5,272.23,167.68,271.38,164.83,271Z"/><path class="cls-18" d="M164.83,271c2.86.4,5.67,1.25,8.6.74-2.7-1.23-5.61-1.24-8.49-1.39C164.9,270.54,164.87,270.76,164.83,271Z"/><path class="cls-14" d="M226.63,90.43h0a16.75,16.75,0,0,0,6.48-5.57,2.71,2.71,0,0,1-.51-.88c1.67-2.48,3.28-5,6.77-5.07l.44.06c2.39-2.29,5.38-3.9,7.44-6.55a9.12,9.12,0,0,1-.49-1.07c3.27-1.65,4.91-5.94,9.31-5.78h0c4.21-3.62,8.58-7,13.84-9,1.45-.56,3.53-1.57,2.65-3.39-1-2-2.92-1.08-4.72-.33-6.72,2.79-12.61,7.09-18.26,11.36-9.47,7.15-18.08,15.43-27.06,23.23,1.28,1,2.44,2.25,4.17,2.53C226.68,90.11,226.65,90.26,226.63,90.43Z"/><path class="cls-19" d="M164.26,270.8c-2.14-.81-4.44-1.31-6.12-3.05h0q-.19,3.31-.25,6.62h5.18C163.17,273.07,163.22,271.74,164.26,270.8Z"/><path class="cls-19" d="M164.94,270.32a13.28,13.28,0,0,0-6.81-2.57c1.68,1.74,4,2.24,6.12,3.05A3.47,3.47,0,0,1,164.94,270.32Z"/><path class="cls-19" d="M164.26,270.8c-1,.94-1.09,2.27-1.19,3.56h1.2q.26-1.7.57-3.39l-.18,0Z"/><path class="cls-19" d="M164.26,270.8l.39.15.18,0c0-.22.07-.44.12-.66A3.47,3.47,0,0,0,164.26,270.8Z"/><path class="cls-20" d="M262,42.86a10.73,10.73,0,0,0-10.26,2.88c-.4.37-1,.31-1.57.49,2.19,4.25,5.79,5.14,10.1,4.15,1.77-.4,4.07-.28,4.81-2.3a5,5,0,0,0-1.61-5.85h0A1.71,1.71,0,0,1,262,42.86Z"/><path class="cls-20" d="M250.17,46.23c.52-.17,1.17-.12,1.57-.49A10.73,10.73,0,0,1,262,42.86a1.71,1.71,0,0,0,1.47-.62h0Q255.39,39.47,250.17,46.23Z"/><path class="cls-21" d="M286.49,113.35c-3.29-.08-4.52,2-4.27,4.21-.2,3.6,3.25,6.53,7.35,6.58,1.57,0,3.92,0,3.89-2.94C293.42,117.85,289.88,113.43,286.49,113.35Z"/><path class="cls-22" d="M247.26,72.42c1.41,2.64,3.69,3.43,6.35,3.38q.9-.43,1.82-.81a13.84,13.84,0,0,1,3.1-1.17c3-3.91,2.2-6.48-2.46-8.26h0a84.36,84.36,0,0,0-8.6,6.59Z"/><path class="cls-22" d="M253.61,75.8a17.64,17.64,0,0,0,2.27-.2,2.46,2.46,0,0,0,2.65-1.77h0a13.84,13.84,0,0,0-3.1,1.17Q254.51,75.37,253.61,75.8Z"/><path class="cls-22" d="M247.26,72.42l.21-.26a84.36,84.36,0,0,1,8.6-6.59c-4.4-.16-6,4.13-9.31,5.78A9.12,9.12,0,0,0,247.26,72.42Z"/><path class="cls-23" d="M233.74,110l-.9.71c-.16,1.69,1.39,2.54,3,3.27a7.87,7.87,0,0,0,4.19.54q1.56-.7,3.15-1.36c2-1.65,4.6-.76,6.81-1.55h0c-.93-.12-2.37.59-2.73-.35-1.46-3.76-4.41-5.4-8-6.3h0A37.63,37.63,0,0,1,233.74,110Z"/><path class="cls-23" d="M240.05,114.52a26.38,26.38,0,0,0,3-.56l6.93-2.34c-2.21.79-4.8-.1-6.81,1.55Q241.61,113.82,240.05,114.52Z"/><path class="cls-23" d="M233.42,109.06a4.15,4.15,0,0,0-.58,1.65l.9-.71a37.63,37.63,0,0,0,5.53-5h0C236.42,105,235.62,108.05,233.42,109.06Z"/><polygon class="cls-23" points="250.02 111.61 250.02 111.61 250.02 111.61 250.02 111.61"/><path class="cls-24" d="M283.86,46.54c1.28.16,2.46.73,3.94.48,2.45-.4,3.31-2.17,3.72-3.9s-1.34-2.78-2.87-3.29a29.6,29.6,0,0,0-4.34-.77c-2.6.4-5.62.18-5.48,4.33C279,47.06,281.84,46.28,283.86,46.54Z"/><path class="cls-25" d="M306.9,70.53c2.25-.17,4.48-.79,4-4.48.6-3.05-1.88-4.56-4.57-4.29-2.51.25-6.17.33-6.25,4.52C300.07,69,302.86,70.84,306.9,70.53Z"/><path class="cls-26" d="M195.53,105.21c-1.17,2,.18,4.21-.55,6.22l-.15.3c1.52,1.67,3.53,2,5.61,2.17l.25-.29c1.53-1.44,2.06-3.78,4.18-4.69h0c-.17-3.75-2.68-5.39-5.81-6.48h0C198.28,103.9,197.36,105.14,195.53,105.21Z"/><path class="cls-26" d="M200.69,113.61l-.25.29,1.07.08,3.37-5.06h0C202.75,109.84,202.22,112.17,200.69,113.61Z"/><path class="cls-26" d="M195.75,104.88h0a3.45,3.45,0,0,0-.22.33c1.83-.07,2.76-1.32,3.53-2.77h0C197.63,102.81,196.78,104,195.75,104.88Z"/><path class="cls-24" d="M314.7,106c-2.54-.69-3.75,2.37-3.31,4.19.56,2.31,2.37,5.27,5.41,5.23,2.29,0,5.16-.68,5.29-4C322.2,108.63,318.84,105.9,314.7,106Z"/><path class="cls-27" d="M214.8,59.81l-.31.34c2,2.5,4.48,2.58,7.1,1.84.39-.35.79-.69,1.2-1a5.31,5.31,0,0,1,3-1.77c.47-4.32-2.16-6-5.8-6.92h0C218.83,55.19,215.1,56.32,214.8,59.81Z"/><path class="cls-27" d="M214.14,59.69c.12.16.23.31.35.46l.31-.34c.3-3.49,4-4.62,5.16-7.54h0C217.62,54.43,213.85,55.46,214.14,59.69Z"/><path class="cls-27" d="M221.59,62c.58-.16,1.16-.36,1.74-.59a5,5,0,0,0,2.43-2.2,5.31,5.31,0,0,0-3,1.77C222.38,61.29,222,61.64,221.59,62Z"/><path class="cls-28" d="M225.81,34.71c2.3,0,7.13-4.52,6.17-5.89s.95-5-3-4.69c-3.31.23-6.57,2.83-6.61,6C223,32,222.57,34.74,225.81,34.71Z"/><path class="cls-29" d="M202.73,54.25c1.3,1,2.46.3,3.64-.69,2.44-2.06,2.22-5.19,3.51-7.67-.87-1.2.08-3.38-2.2-3.57-2.07-.17-3.87.43-4.66,2.52-.72,1.91-1.2,3.91-1.79,5.88A3.21,3.21,0,0,0,202.73,54.25Z"/><path class="cls-23" d="M221.22,96.24s0,.07,0,.11c3.3-.62,5-2.7,5.41-5.92-2-.13-3.8-.58-4.1-3-7.66,1-8.86,2.38-7.61,9h0C217,94.47,219,93,221.22,96.24Z"/><path class="cls-23" d="M220.81,96.44c.14,0,.27-.06.41-.09s0-.07,0-.11c-2.2-3.25-4.26-1.77-6.31.18h0C216.88,96.07,218.85,94.3,220.81,96.44Z"/><path class="cls-23" d="M226.63,90.43c0-.17.06-.33.07-.5-1.73-.28-2.9-1.5-4.17-2.53C222.82,89.85,224.61,90.3,226.63,90.43Z"/><path class="cls-25" d="M263,118.78c-2.35-.49-4.36.22-4.18,3.44.15,2.7,5.28,5.71,8.72,5.42,2.11-.17,2.42-1.78,2.33-3.2A6.37,6.37,0,0,0,263,118.78Z"/><path class="cls-30" d="M260.72,98.72c-.31,2.77,3.24,3,5.22,3.52,3.44.09,6.35-.76,6.45-4.14s-3-3.67-5.65-3.76C263.58,94.24,261,96.67,260.72,98.72Z"/><path class="cls-29" d="M280.42,89.37c-1.5.42-3.8,1.37-3.18,4,0,.13.15.25.16.38.38,3.7,3.14,3.94,6.09,4.15,2.85.06,3.73-2.27,4.1-4.4C288,91,283.79,88.42,280.42,89.37Z"/><path class="cls-31" d="M185.59,161a2.44,2.44,0,0,1-.13-.28h0a2.3,2.3,0,0,0-.85-.37c-.18.28-.35.57-.53.85a3.86,3.86,0,0,0,1.29,4c.94.76,1.7,1.73,1.23,3.11h0c6.93.08,8.54-2.22,5.75-8.2h0C190.29,162,187.91,161.34,185.59,161Z"/><path class="cls-31" d="M185.32,165.17a3.86,3.86,0,0,1-1.29-4c.18-.28.35-.57.53-.85a1.26,1.26,0,0,0-1.3.66c-1.82,3.75,2.46,4.72,3.29,7.26h0C187,166.9,186.27,165.93,185.32,165.17Z"/><path class="cls-31" d="M185.46,160.73a2.44,2.44,0,0,0,.13.28c2.33.33,4.7,1,6.72-.92h0Z"/><path class="cls-24" d="M306.07,89c-2.33.12-5,.11-5.74,2.87-.54,1.92,3.71,5.23,6.46,5.3a3.91,3.91,0,0,0,4.31-4C311.19,90,309,88.81,306.07,89Z"/><path class="cls-32" d="M288.18,70.17c-2.11.08-4,1.76-3.79,3.68.42,3.24,3.38,3.93,6.2,4.28,2.53.32,4.51-.56,5-3.07C296,72.87,291.71,70,288.18,70.17Z"/><path class="cls-33" d="M268.92,60.14c0,2,.86,4.45,4,3.93,3.17,0,8.06-2.15,7.73-3.44-.85-3.32-4.12-3.8-6.59-4.08C272.13,56.33,269,57.28,268.92,60.14Z"/><path class="cls-34" d="M236.61,62c.38,1.15-.45,3.24,1.93,3.25,3.8,0,8.14-3,8-5.54-.16-2.25-1.7-3.34-3.9-3.4A6,6,0,0,0,236.61,62Z"/><path class="cls-35" d="M231.68,41.21c1.2.91.39,2.39.95,3.43s1.18,2.59,3,2.13a4.28,4.28,0,0,0,3.54-4c0-2.07,2.34-4.9-1.3-6.27h0A13.58,13.58,0,0,0,231.68,41.21Z"/><path class="cls-35" d="M231.68,41.21a13.58,13.58,0,0,1,6.18-4.69h0C234.2,36,232.12,37.51,231.68,41.21Z"/><path class="cls-28" d="M220.89,75.7c-.76,4.76,3.47,1.78,5.2,3.15,2.78,0,4.16-2.33,4.41-4.37a3.55,3.55,0,0,0-3.81-3.88C223.19,70.61,221.38,72.62,220.89,75.7Z"/><path class="cls-36" d="M211.65,114.57h0l0,3.6a3.21,3.21,0,0,1,0,.41,5.24,5.24,0,0,0,2.12.83l.44-.35c3.52-1.81,6.84-3.87,9.05-7.3h0c-1.87.94-3.43.29-4.88-1h0C216.7,113,213.85,113.22,211.65,114.57Z"/><path class="cls-36" d="M214.23,119.06l-.44.35a4.18,4.18,0,0,1,1.28.5c3.22-2.22,7.54-3.35,8.21-8.15h0C221.07,115.19,217.74,117.24,214.23,119.06Z"/><path class="cls-36" d="M211.6,114.08h0v.5h0c2.2-1.36,5-1.53,6.75-3.77h0C216,111.63,213.34,111.9,211.6,114.08Z"/><path class="cls-28" d="M221.65,138.58c0,3.88,3.39,3.66,6.06,3.92,2.47.24,4.71-.68,4.69-3.36,0-3.63-3.41-3.2-6.25-3.88C224.68,136,221.67,135.8,221.65,138.58Z"/><path class="cls-28" d="M252.19,35.11c3.27.11,7.9-2.66,7.71-4.46-.22-2.09-1.9-3-3.79-3.13-2.88-.21-7.69,2.52-7.33,4.13C249.21,33.58,250.25,35.3,252.19,35.11Z"/><path class="cls-29" d="M208.12,150c-3.5.09-5.08.85-5.17,2.44-.12,2.14,3.38,4.92,6.28,4.93a3.7,3.7,0,0,0,3.66-4.1C212.74,151,210.71,149.56,208.12,150Z"/><path class="cls-37" d="M240.34,130c.3,2.49,1.63,4.34,4.31,4.29,2,0,3.35-1.21,3.4-3.71.06-3.06-1.19-4.91-4.08-5.08S240.2,127.25,240.34,130Z"/><path class="cls-38" d="M208.12,88.95h0c-2.54,2.85-3,7-5.84,9.63C209.9,97.4,211.38,95,208.12,88.95Z"/><path class="cls-38" d="M202.29,98.58c2.86-2.65,3.3-6.78,5.84-9.63C204.08,90.89,203.8,95.11,202.29,98.58Z"/><path class="cls-39" d="M77.74,195.08a160.21,160.21,0,0,0-3.6-17.53c-.58-2.29-2-3.48-4.23-2.89-8.46,2.22-17.25,3-25.53,6-2.77,1-4,2.15-3.15,5.44a71.81,71.81,0,0,0,4.86,13.72A37.3,37.3,0,0,1,49,207.19a3.88,3.88,0,0,1-.12.41c.91-.23,1.19.59,1.44,1.23C52.67,215,57.77,219,62,223.76a4,4,0,0,0,2.43,1.52c5.22.34,9.72,4.23,15.26,3,1.41-.32,3.28,0,3.58,1.4,1.14,5.21,5.51,8.09,8.22,12.13A2.31,2.31,0,0,1,92,242l.24-.38c2.54-.63,4.75,1.06,7.27,1A30.52,30.52,0,0,0,109.73,241c-5.35-2.1-8.13-6.75-10.55-11.56-1.45-2.88-.09-7,2.43-9s5.19-1.37,7.8-.14c1.49.71,2.85,1.67,4.33,2.42l.33.24c3.17-7.81-2.41-16.42-10.8-16.07-3.11.13-6.23,1.3-9.32,0l-.31.42C85.27,208.93,79,204.09,77.74,195.08Z"/><path class="cls-39" d="M49,207.19a37.3,37.3,0,0,0-2.88-7.35,71.81,71.81,0,0,1-4.86-13.72c-.89-3.29.37-4.43,3.15-5.44,8.28-3,17.07-3.82,25.53-6,2.27-.59,3.65.59,4.23,2.89a160.21,160.21,0,0,1,3.6,17.53c1.22,9,7.53,13.85,15.9,12.23l.31-.42-.43-.19c-3.68.89-6.63-1.77-10-2.07-1.75-.15-1.87-.93-2.33-2.16-2.72-7.25-3.63-14.91-5-22.44-1.25-6.88-2.88-8-9.69-5.64a25.3,25.3,0,0,1-3.22.73c-5.78,1.15-11.59,2.13-17.32,3.51-2.33.56-4.93,1.51-6.51,3.15-1.25,1.3.73,3.53,1.11,5.38,1.47,7.27,4.63,14,8,20.54h0a1.75,1.75,0,0,1,.3-.1A3.88,3.88,0,0,0,49,207.19Z"/><path class="cls-39" d="M83.25,229.66c-.3-1.39-2.17-1.72-3.58-1.4-5.54,1.25-10-2.65-15.26-3A4,4,0,0,1,62,223.76c-4.2-4.73-9.3-8.75-11.67-14.92-.25-.65-.53-1.46-1.44-1.23a3.5,3.5,0,0,1-.17.46c2.37,6.94,7.54,12.1,12.82,16.41,4.65,3.8,11.29,5,17.61,4.9,2.27,0,3.3.17,4,2.65,1.25,4.33,4.53,7.31,8.26,9.74l.08,0C88.76,237.74,84.39,234.87,83.25,229.66Z"/><path class="cls-39" d="M48.56,207.7c0,.12.09.24.13.37a3.5,3.5,0,0,0,.17-.46A1.75,1.75,0,0,0,48.56,207.7Z"/><path class="cls-39" d="M99.52,242.58c-2.53.08-4.73-1.61-7.27-1L92,242l.14.07h0c6.24,1.94,12.44,3.07,18.43-.76-.29-.1-.57-.2-.85-.31A30.52,30.52,0,0,1,99.52,242.58Z"/><path class="cls-39" d="M109.41,220.25c-2.6-1.23-5.29-1.83-7.8.14s-3.88,6.14-2.43,9c2.42,4.81,5.2,9.47,10.55,11.56l.35-.14c-3.37-3-6.75-5.9-9.21-9.8-2-3.21-2-6.37.93-9.34,2.55-2.57,5.25-2.32,8-.06a6.85,6.85,0,0,0,4,2c.12-.24.2-.49.3-.73l-.33-.24C112.26,221.92,110.9,221,109.41,220.25Z"/><path class="cls-39" d="M110.08,240.84l-.35.14c.28.11.56.22.85.31h0Z"/><path class="cls-39" d="M117,204.43c3.84,4.84,9.38,8.23,14.67,11,6,3.14,13,5,19.82,6.38-2.17-8.71.92-16.86,2.76-25.13.2-.9,1.44-1.57,2.2-2.35-3.48-.91-7.89,0-10.16-3.33-2.6-3.85-6-7.26-7.7-11.68a3.11,3.11,0,0,1-3,2.35c-5.08.43-8.8,3.78-13.19,5.68-4.93,2.14-8.75,6.32-14.16,7.51C110.24,198.85,114.32,201,117,204.43Z"/><path class="cls-39" d="M135.59,181.64a3.11,3.11,0,0,0,3-2.35c-.09-.22-.19-.43-.26-.65a2.92,2.92,0,0,1-2.93,2c-5.37.2-9.13,3.92-13.68,5.9-4.89,2.14-8.65,6.14-13.75,7.83.08.17.16.34.24.51,5.41-1.19,9.23-5.37,14.16-7.51C126.79,185.42,130.51,182.07,135.59,181.64Z"/><path class="cls-40" d="M134,167.85a59.87,59.87,0,0,0,4.08-22L134,147.44h0c-.66,8.44-2.25,16.61-6.92,23.91-.79,1.23-1.63,2.34-3.1,2.44-5.68.38-11.34,2.27-17.08,0-2.31-.93-3.46-1.63-2.32-4.45,2.4-5.94,4.35-12.06,6.61-18.06.75-2,.62-4,.95-6l-4-.16a11.1,11.1,0,0,1-1.46,5.43c1.47.77,1.25,2.1.57,3.44-1.95,3.86-2.85,8.1-4.48,12.07-2.48,6-.27,10.22,6.18,11.12a45.83,45.83,0,0,0,13.66.21c3.41-.55,5.61-2.82,7.62-5.32.95-1.18,1.61-2.69,3.55-2.27l.17.15A5.8,5.8,0,0,1,134,167.85Z"/><path class="cls-40" d="M130.21,172c-2,2.5-4.21,4.77-7.62,5.32a45.83,45.83,0,0,1-13.66-.21c-6.45-.9-8.66-5.08-6.18-11.12,1.63-4,2.53-8.21,4.48-12.07.68-1.34.91-2.67-.57-3.44-.08.13-.15.25-.23.38h0c.21.49.73,1.2.57,1.45-2.84,4.34-3.69,9.47-5.69,14.14-2.14,5-1.07,7.92,3.86,10.46,5.14,2.65,10.69,1.62,16.15,1.63,4.84,0,7.53-3,10-6.28.77-1,1.18-2.14,2.59-2.33,0,0,0,0,0-.05l-.17-.15C131.82,169.3,131.16,170.8,130.21,172Z"/><path class="cls-41" d="M107.84,145c-5.88-1.58-11.69-3.45-17.8-4,0,3.63-1.62,7-2.05,10.5,6.07,0,12.18.62,18.13-1.23l.21.09A7.65,7.65,0,0,1,107.84,145Z"/><path class="cls-41" d="M106.12,150.22c-5.95,1.86-12.06,1.27-18.13,1.23,0,.13,0,.27-.06.4h0a27.81,27.81,0,0,0,18.49-1h0c0-.18-.06-.35-.09-.52Z"/><path class="cls-41" d="M88,151.46c.43-3.55,2.07-6.87,2.05-10.5-.34,0-.67-.07-1-.09.51,1.86-.74,3.42-.9,5.14-.18,1.87-1.86,3.73-.36,5.66.06-.07.11-.14.17-.2Z"/><path class="cls-41" d="M87.94,151.46c-.06.06-.11.13-.17.2l.16.2c0-.13,0-.27.06-.4Z"/><path class="cls-41" d="M106.33,150.32l.32.14a11.1,11.1,0,0,0,1.46-5.43l-.28-.08A7.65,7.65,0,0,0,106.33,150.32Z"/><path class="cls-41" d="M106.33,150.32c0,.17,0,.35.09.52.08-.12.16-.25.23-.38Z"/><path class="cls-42" d="M33.69,176c.4.92,1.07,2,2,1.89,1.45-.12,1.14-1.6,1.38-2.64a3.77,3.77,0,0,0-.41-2.71,29.26,29.26,0,0,1-2.86-16c.4-4.26.2-8.6,1.25-12.86.42-2.23,0-4.8-2.27-4.91-2.43-.12-1.76,2.77-1.61,4.35.51,5.34-1.57,10.34-1.44,15.8A43.91,43.91,0,0,0,33.69,176Z"/><path class="cls-43" d="M91.44,241.85a28.7,28.7,0,0,0-7,9c-1.36,2.66-3.53,4.64-5.38,6.87-4.64,5.58-8.94,11.43-14,16.62h2.75c4.86-5.53,9.23-11.49,14-17.08,4.1-4.76,6.9-10,10.14-15.15A.43.43,0,0,1,91.44,241.85Z"/><path class="cls-43" d="M79,257.74c1.85-2.23,4-4.21,5.38-6.87a28.7,28.7,0,0,1,7-9l0-.08c-2.18.07-3.17,1.42-4.45,3.1-2.3,3-3.75,6.53-6.27,9.44a155.61,155.61,0,0,0-9.78,12.14,44.49,44.49,0,0,1-7.42,7.91H65C70.08,269.17,74.38,263.33,79,257.74Z"/><path class="cls-43" d="M81.77,257.28c-4.81,5.59-9.17,11.55-14,17.08h1.72a44.13,44.13,0,0,0,3.26-4,104.59,104.59,0,0,1,10.91-13.67A34.58,34.58,0,0,0,92.15,242a.77.77,0,0,1-.23.08C88.67,247.25,85.87,252.52,81.77,257.28Z"/><path class="cls-43" d="M91.49,241.81l0,0a.43.43,0,0,0,.47.28L92,242a2.31,2.31,0,0,0-.53-.19Z"/><path class="cls-43" d="M91.49,241.81v0l-.08,0,0,.08Z"/><path class="cls-43" d="M92,242l-.09.15a.77.77,0,0,0,.23-.08h0Z"/><path class="cls-44" d="M89.9,140.25a3.62,3.62,0,0,1,2.62-.29c4.7,1.19,9.48,2,14.15,3.36.69.2,1.34.52,1.44,1.28a4,4,0,0,1,3.77-.08,4,4,0,0,1,.58.7l21.09,2.18a3.85,3.85,0,0,1,4.5-1.58h0c2.27-.58,4.58-1,6.81-1.76,3.45-1.1,7.35-1.08,10.06-4a18.77,18.77,0,0,0-7.36-.67c-3.78.41-3.86-3.88-6-5.64-.62-.5-.62-1.77-.87-2.57.67-1,1.29-.42,1.89-.23,3.65,1.17,4.06.76,3.39-3-.26-1.49-.83-3.43-.18-4.49,2.52-4.08.11-7-1.81-10.08h0c-2.25-1.2-2.85-3.2-2.43-5.52a3.53,3.53,0,0,1,3.29-2.64c2.54-.2,4.16,1.52,5,3.91,1.7.15,3.25-.45,3.81-2,1.62-4.43,5.9-5.14,9.33-7,1.08-.6,2.3-.94,3.44-1.44,2-.9,2.63-4.81,6-2.9s5.9,4.51,5,8.94a4.45,4.45,0,0,0,.1,1.24h0c2-3.21.6-6.86,1.23-10.25-7.94-2.62-15.93-4.94-24.06-7-11.53-2.9-23.32-5.18-34.48-9.3-9.12-3.37-18.83-5-27.59-9.31-.77-.35-1.55-.66-2.35-.94a1.64,1.64,0,0,0-1.21,1.5c-.25,1.74.17,4.12,1.92,4.68,3.9,1.27,3.6,3.76,4,7.17.49,4.07,2.57,8.08,3.38,12.29s.85,8.31-2.45,11.94c-2.09,2.3-1.93,5.86-3.63,8.62-1.12,1.81-1.87,3.62-4,4.47-1.32.53-2.65,1.4-2.71,2.91-.14,3.15-2.64,3.64-4.65,3.71-2.87.1-5.38,1.12-8,1.88l12.72,9.27h0l0,0C87.9,137.14,89.26,138.1,89.9,140.25Zm59.34-49.94.82.13a10.41,10.41,0,0,1,9.89,4.8c1,1.45,1.06,2.92-.3,4-1.6,1.29-2.83.48-3.61-1.16-1.44-3-4.51-3.07-6.77-2.57-2.88.62-4.19-.47-4.26-2.66C144.92,90.36,147.12,90,149.24,90.32Zm-17.45,37.44c1.61-.39,2.49,1,2.81,2.43.46,2,1.41,3.95,1,6.12-.22,1.61.71,4.15-2,4.09-2.47-.05-2.35-2.27-2.07-4.13s-.57-3.52-.82-5.27C130.51,129.81,130.31,128.12,131.79,127.75Zm-7-8.7c2,.15,1.38,2,1.94,3.05-.28.79-.37,2.16-1.47,1.15s-3.62-.08-3.58-2.05C121.72,120.13,123.22,118.94,124.81,119.06Zm-3.39,15.84a2.72,2.72,0,0,1-.45,3.74,13,13,0,0,1-4,1.67c-5.57,0-9.08-2-12-5.3a13.23,13.23,0,0,1-1.13-1.54c-1-1.49-1.13-3,.26-4s2.33.72,2.91,1.58c2.28,3.33,5.19,5.2,9.32,4.79a6.79,6.79,0,0,0,2.36-.49C119.64,134.89,120.26,133.4,121.41,134.89ZM103.18,97.08c.46-.66,2.78-.21,4.43-.46,2.8-.43,3.32,2.1,3.52,4.06.27,2.75-2.16,3-4,2.89C104.39,103.44,102,102.39,103.18,97.08Zm1.66-17.52a23.43,23.43,0,0,0,3.23-.74c3.65-.35,6.16,2.22,9.09,3.63,1.67.8.92,2.45.44,3.69-.65,1.72-2.17,1.29-3.11.57-2.68-2.05-5.41-3-8.82-2-1.49.44-3.37-.11-3.46-2A2.78,2.78,0,0,1,104.84,79.57Zm-14.18,47.3c.62-2.59,8.5-8.11,11.06-7.56a3.08,3.08,0,0,1,2.55,1.92c.29,1.06-.88,1.23-1.53,1.66-3.2,2.13-7.22,2.86-10,5.79-.25.27-.76.3-1.11.43C90.25,128.8,90.41,127.9,90.66,126.86Z"/><path class="cls-44" d="M91.21,68.49l1.6.47A4.81,4.81,0,0,0,91.21,68.49Z"/><path class="cls-44" d="M90.26,69.12c.79.29,1.58.59,2.35.94,8.76,4.36,18.46,5.94,27.59,9.31,11.16,4.12,22.95,6.4,34.48,9.3,8.14,2,16.12,4.37,24.06,7a7.88,7.88,0,0,1,.22-.93c-3-2.19-7-2-10.05-3.49-6.59-3.1-13.83-3.11-20.56-5.48-7.46-2.62-15.4-3.66-23-6.18-4.11-1.36-8.11-3.21-12.3-4.13A135.41,135.41,0,0,1,92.81,69,11.45,11.45,0,0,0,90.26,69.12Z"/><path class="cls-44" d="M89.9,140.25c-.64-2.15-2-3.11-4.23-2.65.88,1.34,3.67.7,3.37,3.26h0A4.1,4.1,0,0,1,89.9,140.25Z"/><path class="cls-44" d="M133.54,147.4l.43,0h0l4.06-1.62h0A3.85,3.85,0,0,0,133.54,147.4Z"/><path class="cls-44" d="M111.88,144.52a4,4,0,0,0-3.77.08,1.71,1.71,0,0,1,0,.42l4,.16.34,0A4,4,0,0,0,111.88,144.52Z"/><path class="cls-44" d="M108,144.65l.08,0c-.1-.77-.76-1.09-1.44-1.28C102,142,97.22,141.15,92.52,140a3.62,3.62,0,0,0-2.62.29c0,.17.11.32.15.51s0,.13,0,.2c6.1.55,11.92,2.42,17.8,4Z"/><path class="cls-44" d="M90,140.76c0-.18-.1-.34-.15-.51a4.1,4.1,0,0,0-.87.61h0c.34,0,.67.06,1,.09C90,140.89,90,140.82,90,140.76Z"/><path class="cls-44" d="M108.11,144.6l-.08,0-.19.3.28.08A1.71,1.71,0,0,0,108.11,144.6Z"/><path class="cls-45" d="M72.84,128.22c0-.05,0-.1,0-.16a3.32,3.32,0,0,1,2-1.43,17.18,17.18,0,0,0,12.58-7.33c1.29-1.81,3.32-3.18,4.25-5.42,1.64-3.92,3.87-7.63,5.31-11.57,2-5.5-.4-10.88-2.07-16.13-.46-1.45-1.35-2.83-1.16-4.38.32-2.53-.5-4.28-2.84-5.39a4.48,4.48,0,0,1-2.14-2.47c-.58-1.44-1.15-3-.08-4.35a3.08,3.08,0,0,1,.81-.74c-1.86-.63-3.76-1.15-5.66-1.68L83.2,67c-2.81,3.45-6.38,6.07-9.74,8.92,6.59,1.88,9.36,6.82,10.32,13.17.11.69.05,1.54.61,1.92,3.51,2.33,2.62,5.63,2.26,9-1,8.94-11.5,17.31-20.86,16.4-.14-.11-.27-.22-.4-.33C65.72,121.38,68.93,125,72.84,128.22Z"/><path class="cls-45" d="M83.86,67.18c1.9.53,3.8,1.05,5.66,1.68a2.66,2.66,0,0,1,1.69-.38L83.75,66.3c-.18.23-.37.45-.56.68Z"/><path class="cls-45" d="M65.8,116.35c9.36.91,19.9-7.46,20.86-16.4.36-3.34,1.25-6.63-2.26-9-.56-.37-.51-1.22-.61-1.92-1-6.35-3.74-11.29-10.32-13.17l-.64.54c2.76.05,3.34,4.67,6.89,3.3.34-.13.83,1.07.6,1.77-.58,1.74.62,2.69,1.34,4,1.67,3.07,1.21,7.18,4.6,9.47.13.08.08.55,0,.8-1.55,4.62,0,9.73-5.76,13.64-4.9,3.31-9.5,5.52-15.1,6.31,0,.09,0,.17,0,.26S65.65,116.24,65.8,116.35Z"/><path class="cls-45" d="M73.46,75.9c3.36-2.85,6.94-5.47,9.74-8.92l-.37-.11c-1.62.94-3.43,1.76-4.36,3.15-1.57,2.35-5.09,2.91-5.6,6.07.11-.09.23-.16.34-.26Z"/><path class="cls-45" d="M83.75,66.3h0c-.29.2-.61.38-.92.57l.37.11C83.38,66.75,83.57,66.53,83.75,66.3Z"/><path class="cls-45" d="M73.21,75.83c-.11.1-.23.17-.34.26s0,.23-.05.36h0l.64-.54Z"/><path class="cls-45" d="M88.71,69.6c-1.08,1.38-.51,2.91.08,4.35a4.48,4.48,0,0,0,2.14,2.47c2.34,1.11,3.15,2.86,2.84,5.39-.19,1.55.7,2.93,1.16,4.38C96.59,91.44,99,96.82,97,102.32c-1.44,3.94-3.67,7.65-5.31,11.57-.94,2.24-3,3.61-4.25,5.42a17.18,17.18,0,0,1-12.58,7.33,3.32,3.32,0,0,0-2,1.43c0,.06,0,.11,0,.16l.08.06c2.64-.76,5.15-1.78,8-1.88,2-.07,4.52-.55,4.65-3.71.06-1.5,1.39-2.37,2.71-2.91,2.11-.85,2.87-2.66,4-4.47,1.7-2.76,1.54-6.32,3.63-8.62,3.3-3.64,3.28-7.65,2.45-11.94S95.48,86.55,95,82.47c-.41-3.41-.11-5.9-4-7.17-1.75-.57-2.17-2.95-1.92-4.68a1.64,1.64,0,0,1,1.21-1.5l-.75-.25A3.08,3.08,0,0,0,88.71,69.6Z"/><path class="cls-45" d="M89.52,68.87l.75.25A11.45,11.45,0,0,1,92.81,69l-1.6-.47A2.66,2.66,0,0,0,89.52,68.87Z"/><path class="cls-46" d="M137.92,36.27c3.8,2.56,8.24,3.72,12.39,5.44,1.83.76,3.12-1.67,3.59-3.19a2.25,2.25,0,0,0-2-2.68c-4.09-.61-8.09-1.34-11.57-3.81-1.56-1.11-2.65,0-3.43,1.15C136,34.52,136.75,35.48,137.92,36.27Z"/><path class="cls-47" d="M158.89,31.36A36,36,0,0,1,169.19,34c1.9.85,3,.07,3.67-1.4.82-1.7-.48-2.43-1.78-3.11-4-2.07-8.37-2.45-12.84-3.46-.92,0-2.39,0-2.2,1.4C156.26,29,156.39,31.06,158.89,31.36Z"/><path class="cls-48" d="M107.64,23.17c3.1,1.11,6.26,2.09,9.44,3,1.63.45,2.49-.79,3.18-2,0-1.22-.9-1.48-1.73-2-2.5-1.62-5.9-.88-8.09-3.53-1.18-1.43-3.58-2.43-4.86,0C104.57,20.46,105.5,22.4,107.64,23.17Z"/><path class="cls-49" d="M122.35,15.25c2.23.68,4.44,1.47,6.6,2.36,1.64.67,2.66,0,3.54-1.23.64-.87.8-1.83-.28-2.5A37.83,37.83,0,0,0,124,10.5c-2.31,0-3.64.72-4.1,2.34C119.33,14.87,121,14.85,122.35,15.25Z"/><path class="cls-50" d="M161.8,202.53c-3.12-1.25-5-3.12-3.12-7a1.63,1.63,0,0,0-.56-2.15h0l-1.64.89c-1.4,4.61-3,9.14-3.72,14a38.46,38.46,0,0,0-.74,9.5c.13,1.35.52,2.78-.5,4,2.24-.6,4.15,1.82,6.38,1.33.37-5.42,2-10.66,2.25-16.11A6.35,6.35,0,0,1,161.8,202.53Z"/><path class="cls-50" d="M160.16,207c-.27,5.45-1.88,10.69-2.25,16.11a3.18,3.18,0,0,0,1.13-.51c.4-3.6,1.76-7.15,1.83-10.64a34.37,34.37,0,0,1,1.5-9.22l-.57-.22A6.35,6.35,0,0,0,160.16,207Z"/><path class="cls-50" d="M154.29,196.66c-1.83,8.27-4.93,16.42-2.76,25.13,1-1.23.63-2.66.5-4a38.46,38.46,0,0,1,.74-9.5c.72-4.83,2.33-9.36,3.72-14C155.73,195.08,154.49,195.75,154.29,196.66Z"/><path class="cls-13" d="M159.53,194.83c-1.15,3.29.4,5.5,2.48,7.57,4.42-1.74,6.44-5.17,6.75-9.79.17-2.5-.31-4.67-2.76-6a5.12,5.12,0,0,1-2.62-3.44c-1.4,3.58-4.14,6.5-5.26,10.21A1.1,1.1,0,0,1,159.53,194.83Z"/><path class="cls-13" d="M166,186.63c2.45,1.3,2.93,3.48,2.76,6-.31,4.62-2.34,8-6.75,9.79l.36.35c5.91-1.38,9.61-9.79,6.67-15.08-.43-.78-.9-1.43-1.79-1.54-2.62-.34-3-2.35-3.38-4.4a13.2,13.2,0,0,1-.49,1.47A5.12,5.12,0,0,0,166,186.63Z"/><path class="cls-13" d="M158.68,195.56c-1.89,3.85,0,5.71,3.12,7l.06-.07.15-.06c-2.08-2.06-3.63-4.28-2.48-7.57a1.1,1.1,0,0,0-1.41-1.42h0A1.63,1.63,0,0,1,158.68,195.56Z"/><path class="cls-13" d="M161.86,202.46l-.06.07.57.22-.36-.35Z"/><path class="cls-51" d="M194.77,133.78c0,.07-.09.12-.13.19l2.69,3.5a2.46,2.46,0,0,1,.21.41,1.39,1.39,0,0,0,1-.48,147.13,147.13,0,0,1,12-16.23,4.06,4.06,0,0,0,1.18-2.59,2.27,2.27,0,0,1-.56-.64,3.5,3.5,0,0,1,.13-3.32,2.08,2.08,0,0,1-1.32-.38h0a5.75,5.75,0,0,0-1.57,1.42c-3.4,3.9-6.29,8.23-9.91,11.94l-1.23,2C197.13,131.38,195.46,132.3,194.77,133.78Z"/><path class="cls-51" d="M194.77,133.78c.69-1.48,2.36-2.4,2.42-4.24l1.23-2c-.59.61-1.2,1.2-1.84,1.77.17,1.94-2.57,2-2.48,3.9l.54.7C194.68,133.9,194.73,133.84,194.77,133.78Z"/><path class="cls-51" d="M211.23,114.62a4.31,4.31,0,0,1,.37-.54l-1.49,0-.21.12h0A2.08,2.08,0,0,0,211.23,114.62Z"/><path class="cls-51" d="M211.1,117.93a2.27,2.27,0,0,0,.56.64,3.21,3.21,0,0,0,0-.41l0-3.6-.38,0A3.5,3.5,0,0,0,211.1,117.93Z"/><path class="cls-51" d="M211.61,114.58v-.5h0a4.31,4.31,0,0,0-.37.54Z"/><path class="cls-52" d="M195.73,97.49c0-.08-.07-.15-.12-.23,2.68-2.29,4.21-5.33,5.53-8.5a17,17,0,0,1,3.07-4.33c.17-.23.32-.46.48-.69a5.46,5.46,0,0,0-3.23-3.61l-.06.09c-1.7,3.45-4.1,6.49-5.83,9.94a16,16,0,0,0-2,7.46l-.09,0A1.92,1.92,0,0,0,195.73,97.49Z"/><path class="cls-52" d="M195.57,90.16c1.73-3.45,4.13-6.49,5.83-9.94l.06-.09a7.87,7.87,0,0,0-.9-.32,33.75,33.75,0,0,0-3.68,5.89c-1.77,3.64-5.38,6.87-3.89,11.65a3.6,3.6,0,0,0,.49.32l.09,0A16,16,0,0,1,195.57,90.16Z"/><path class="cls-52" d="M201.14,88.76c-1.32,3.17-2.85,6.21-5.53,8.5.05.08.08.16.12.23l0,0c2.1-.43,3.23-1.9,4.13-3.71,1.52-3.06,2.63-6.35,5-8.91a7.59,7.59,0,0,0-.25-1.1c-.16.23-.32.46-.48.69A17,17,0,0,0,201.14,88.76Z"/><path class="cls-53" d="M181.21,146.66q-.15-.4-.3-.78l-.28.77c-1.47-1.15-1.39-3.54-3.4-4.27l.32-.76c-.41-.3-.77-.69-1.16-1a25.73,25.73,0,0,0-2.6,5.83c-.43,1.8-.65,3.77.92,5.06s3.36,1.09,5-.17a13.6,13.6,0,0,0,1.18-2.11A5,5,0,0,0,181.21,146.66Z"/><path class="cls-53" d="M174.71,151.49c-1.56-1.29-1.35-3.26-.92-5.06a25.73,25.73,0,0,1,2.6-5.83,3.24,3.24,0,0,0-.86-.56c-1.57,3.16-3.91,6.15-3,10,.29,1.19.24,3.23,2,3.17,2.06-.08,4.73,1.6,6.09-1.49a4.07,4.07,0,0,1,.19-2.49,13.6,13.6,0,0,1-1.18,2.11C178.07,152.58,176.25,152.76,174.71,151.49Z"/><path class="cls-22" d="M208.81,77.59a17.74,17.74,0,0,1,1.27-1.46c1.05-1.31,1.89-2.77,2.81-4.17-1.15-1.77-2-3.75-3.84-5l-.16.16c-3.07,2.23-4.22,5.61-5.4,9,0,.13-.05.26-.08.39C205.48,78.38,206.62,78.67,208.81,77.59Z"/><path class="cls-22" d="M208.88,67.12,209,67a6.16,6.16,0,0,0-.81-.48c-3.51,2.06-4.37,5.77-5.71,9.17.31.31.6.58.88.83,0-.13.06-.25.08-.39C204.66,72.73,205.81,69.35,208.88,67.12Z"/><path class="cls-22" d="M208.81,77.59c.51-.26,1.08-.58,1.74-1a7.53,7.53,0,0,0,2.76-4c-.15-.21-.29-.42-.42-.64-.92,1.4-1.76,2.86-2.81,4.17A17.74,17.74,0,0,0,208.81,77.59Z"/><path class="cls-54" d="M197.55,137.88l-.12,0c-2.07-.41-2.79-1.8-3.13-3.45a5.2,5.2,0,0,1-.86.87c-5.15,4-5.2,4.69-.65,8.82v.05a2.75,2.75,0,0,0,1.9-.55l.21-.37c.41-.67.81-1.35,1.17-2.05q.81-1.14,1.6-2.3A2,2,0,0,0,197.55,137.88Z"/><path class="cls-54" d="M193.44,135.32a5.2,5.2,0,0,0,.86-.87q-.12-.58-.2-1.18a3.57,3.57,0,0,1-2.07,1.87c-2.54,1.05-3.62,2.78-3.55,5.7.08,3.27,2.92,2.21,4.3,3.36h0v-.05C188.24,140,188.29,139.34,193.44,135.32Z"/><path class="cls-54" d="M194.91,143.27l-.21.37a2.46,2.46,0,0,1,1.21-.37l.67-1.45c.13-1,1-1.9,1.11-2.9q-.79,1.16-1.6,2.3C195.72,141.92,195.31,142.6,194.91,143.27Z"/><path class="cls-54" d="M194.64,134a5.81,5.81,0,0,1-.34.48c.34,1.65,1.06,3,3.13,3.45l.12,0a2.46,2.46,0,0,0-.21-.41Z"/><path class="cls-54" d="M194.64,134l-.54-.7q.08.61.2,1.18A5.81,5.81,0,0,0,194.64,134Z"/><path class="cls-26" d="M185,124.09c4.2-1.29,4.17-4.3,3.12-7.72h0c-1.77-.32-3-1.09-3.32-2.71-1.79,2.23-3.23,4.62-3,7.73,1.23.69,2,1.92,3.21,2.69Z"/><path class="cls-26" d="M184.77,113.66a4.44,4.44,0,0,1-.07-1.15c-2.56,2.26-4.25,4.91-3.8,8.51a3.81,3.81,0,0,1,.86.37C181.54,118.28,183,115.89,184.77,113.66Z"/><path class="cls-55" d="M172.91,161.62c.23-2.8,1.64-4.5-.07-7.26C172.39,157,170.62,158.54,172.91,161.62Z"/><path class="cls-56" d="M76.33,132.07c-1.49-.81-3.7-1.36-3.5-3.82-4.78-1.4-8.7-7.86-7.5-12.3-3.43-3-3-7.42-3.83-11.35-.32-1.61-.31-3-2.26-3.38C53,116.35,53.41,132,56.89,147.52c2.88,12.77,10.77,16.27,21.86,16.42,2.49,0,3.42-1.22,3.42-3.63,0-7.65.34-15.26,2.93-22.58.19-.06.37-.08.55-.12v0C81.52,137.49,79.5,133.8,76.33,132.07Z"/><path class="cls-56" d="M61.5,104.61c.79,3.93.41,8.37,3.83,11.35,0-.07,0-.14,0-.21a25.25,25.25,0,0,1-2.57-12.42c.15-2.1-.9-3.41-3.31-2.77h0c-.09.22-.17.44-.26.66C61.19,101.58,61.17,103,61.5,104.61Z"/><path class="cls-56" d="M82.17,160.3c0,2.42-.93,3.66-3.42,3.63-11.08-.15-19-3.64-21.86-16.42C53.41,132,53,116.35,59.24,101.23h0l-.31-.08c-2.87,2.87-3.78,6.63-4.36,10.5-.69,4.56-.19,9.2-.54,13.74A70.47,70.47,0,0,0,54.66,144c3,15.85,11.76,21.42,25.21,21.14,3.05-.06,3.4-1.64,3.62-4.13.45-5.11-.74-10.22.81-15.4.73-2.45,2.1-5.14,1.35-8-.18,0-.36.06-.55.12C82.51,145,82.16,152.66,82.17,160.3Z"/><path class="cls-56" d="M59.24,101.23c.09-.22.17-.44.26-.66-.21.18-.38.38-.57.57l.31.08Z"/><path class="cls-56" d="M76.33,132.07c3.17,1.72,5.19,5.41,9.31,5.49h0l-12.72-9.27-.08,0C72.63,130.71,74.84,131.26,76.33,132.07Z"/><path class="cls-56" d="M65.4,116l-.07-.06c-1.19,4.44,2.73,10.9,7.5,12.3v0C68.93,125,65.72,121.38,65.4,116Z"/><path class="cls-56" d="M65.4,116c0-.09,0-.17,0-.26,0,.07,0,.14,0,.21Z"/><path class="cls-56" d="M72.83,128.26l.08,0-.08-.06Z"/><path class="cls-57" d="M237,87.25c1.86-1.14,3.32-2.83,5.22-3.93l.3-.23c0-1.93-.24-3.73-2.74-4.12l-.38.35a14,14,0,0,0-6.22,5.4l-.11.14C234.11,86,235.93,86.21,237,87.25Z"/><path class="cls-57" d="M237,87.25a2.7,2.7,0,0,1,.63.88L242.55,84c0-.31,0-.62,0-.93l-.3.23C240.35,84.42,238.89,86.11,237,87.25Z"/><path class="cls-57" d="M239.44,79.32l.38-.35-.44-.06c-3.48,0-5.1,2.6-6.77,5.07a2.71,2.71,0,0,0,.51.88l.11-.14A14,14,0,0,1,239.44,79.32Z"/><path class="cls-58" d="M188.09,116.37c3.07,1.77.88,4.21.56,6.22-.27,1.67-2,2.06-3.68,1.5h0l-7.42,17.54a2.92,2.92,0,0,0,.51.31,8.19,8.19,0,0,1,2.85,3.94l2.21-6c2.84-9.81,7.17-19,11.71-28.11-.09-.1-.19-.19-.29-.3-.1-2.15-1.4-4.52.79-6.26a1.84,1.84,0,0,1-1-1c-1.93,4.15-5.34,7.57-6.23,12.24Z"/><path class="cls-58" d="M195.33,105.18a4.84,4.84,0,0,1,.42-.3h0c-.95-.55-.81-1.46-.78-2.34a16.34,16.34,0,0,1-.65,1.59A1.84,1.84,0,0,0,195.33,105.18Z"/><path class="cls-58" d="M195.33,105.18c-2.19,1.73-.89,4.1-.79,6.26.09.11.19.2.29.3l.15-.3c.73-2-.62-4.26.55-6.22h-.11Z"/><path class="cls-58" d="M195.33,105.18l.09,0h.11a3.45,3.45,0,0,1,.22-.33h0A4.84,4.84,0,0,0,195.33,105.18Z"/><path class="cls-58" d="M178.06,141.94a2.92,2.92,0,0,1-.51-.31l-.32.76c2,.73,1.93,3.12,3.4,4.27l.28-.77A8.19,8.19,0,0,0,178.06,141.94Z"/><path class="cls-58" d="M188.65,122.59c.33-2,2.51-4.45-.56-6.22,1,3.42,1.08,6.43-3.12,7.72h0C186.64,124.64,188.38,124.26,188.65,122.59Z"/><path class="cls-59" d="M176.25,101.72c-.93-4.38-4.76-5.94-8.17-3.27a19.65,19.65,0,0,1-4.68,2.62c-3.58,1.49-7.14,3-9.18,6.67a3.56,3.56,0,0,1-4.23,1.87,3.06,3.06,0,0,1-.36-.18c-.9,2.13-1.88,4.16-4.38,4.09,2.17,3.07,3.58,6.25,1.65,10.16-.47,1-.13,2.18,0,3.29.53,5,.47,5-4.57,5.78,1.9,3.24,3.63,6.26,8.22,5.49a4.13,4.13,0,0,1,4.37,1.8c13.84-7.2,19.46-19.84,22.61-34.12C176,104.83,176.56,103.15,176.25,101.72Zm-28.19,34a1.91,1.91,0,0,1-2.15-1.42c-.19-.81.36-1.19,1-1.4a2.55,2.55,0,0,1,2.16,1.66C149.43,135.6,148.8,135.76,148.07,135.76Z"/><path class="cls-59" d="M177.41,104.67c.9-4.43-1.51-7-5-8.94s-4,2-6,2.9c-1.14.5-2.36.84-3.44,1.44-3.43,1.9-7.71,2.61-9.33,7-.56,1.54-2.11,2.13-3.81,2l-.15.35a3.06,3.06,0,0,0,.36.18,3.56,3.56,0,0,0,4.23-1.87c2-3.72,5.6-5.18,9.18-6.67a19.65,19.65,0,0,0,4.68-2.62c3.41-2.67,7.24-1.11,8.17,3.27.3,1.43-.21,3.11,1.26,4.19h0A4.45,4.45,0,0,1,177.41,104.67Z"/><path class="cls-59" d="M150.53,138.23c-4.59.77-6.32-2.24-8.22-5.49,5-.75,5.09-.81,4.57-5.78-.12-1.11-.46-2.33,0-3.29,1.93-3.91.53-7.09-1.65-10.16a5.84,5.84,0,0,1-1.31-.2h0c1.92,3.11,4.33,6,1.81,10.08-.66,1.06-.08,3,.18,4.49.67,3.79.26,4.2-3.39,3-.6-.19-1.22-.79-1.89.23.25.8.25,2.07.87,2.57,2.17,1.76,2.25,6.05,6,5.64a18.77,18.77,0,0,1,7.36.67A4.13,4.13,0,0,0,150.53,138.23Z"/><path class="cls-56" d="M112.54,145.37a4.8,4.8,0,0,1,.11,4.18c-1.7,4.68-2.64,9.62-5.07,14.05-1.38,2.52-3.13,5.77-1.29,8.11s5.43,2.39,8.56,2a12.75,12.75,0,0,1,3.29-.43c6.22.81,9-2.91,10.94-8,2.23-5.73,3.1-11.76,4.36-17.71l.06-.08C126.39,147.87,119.29,148.31,112.54,145.37Z"/><path class="cls-56" d="M133.42,147.54c-1.26,6-2.13,12-4.36,17.71-2,5.08-4.72,8.8-10.94,8a12.75,12.75,0,0,0-3.29.43c-3.12.43-6.72.37-8.56-2s-.09-5.59,1.29-8.11c2.43-4.44,3.37-9.38,5.07-14.05a4.8,4.8,0,0,0-.11-4.18l-.43-.18c-.33,2-.2,4.06-.95,6-2.25,6-4.21,12.12-6.61,18.06-1.13,2.81,0,3.52,2.32,4.45,5.74,2.31,11.4.43,17.08,0,1.46-.1,2.31-1.21,3.1-2.44,4.68-7.3,6.26-15.46,6.92-23.91h0l-.49,0Z"/><path class="cls-56" d="M133.48,147.47l.06-.07-21.09-2.18.09.15C119.29,148.31,126.39,147.87,133.48,147.47Z"/><path class="cls-56" d="M112.45,145.22l-.34,0,.43.18Z"/><path class="cls-56" d="M133.48,147.47l.49,0-.43,0Z"/><path class="cls-60" d="M107.09,131c-.59-.85-1.52-2.54-2.91-1.58s-1.23,2.51-.26,4A13.23,13.23,0,0,0,105,135c2.89,3.3,6.39,5.26,12,5.3a13,13,0,0,0,4-1.67,2.72,2.72,0,0,0,.45-3.74c-1.15-1.5-1.77,0-2.65.45a6.79,6.79,0,0,1-2.36.49C112.28,136.24,109.37,134.37,107.09,131Z"/><path class="cls-61" d="M149.26,95.54c2.26-.49,5.33-.43,6.77,2.57.79,1.64,2,2.46,3.61,1.16,1.36-1.1,1.27-2.57.3-4a10.41,10.41,0,0,0-9.89-4.8l-.82-.13c-2.12-.28-4.32,0-4.24,2.57C145.08,95.07,146.39,96.16,149.26,95.54Z"/><path class="cls-62" d="M105.67,84.76c3.4-1,6.13-.09,8.82,2,.95.72,2.46,1.15,3.11-.57.47-1.24,1.22-2.89-.44-3.69-2.93-1.41-5.43-4-9.09-3.63a23.43,23.43,0,0,1-3.23.74,2.78,2.78,0,0,0-2.63,3.15C102.3,84.64,104.18,85.2,105.67,84.76Z"/><path class="cls-63" d="M91.66,129.11c.35-.13.85-.16,1.11-.43,2.76-2.93,6.77-3.66,10-5.79.64-.43,1.81-.6,1.53-1.66a3.08,3.08,0,0,0-2.55-1.92c-2.57-.55-10.44,5-11.06,7.56C90.41,127.9,90.25,128.8,91.66,129.11Z"/><path class="cls-64" d="M147.76,107.89c-1.29-1.22-2.74-2-4.29-.57-1.37,1.28-.78,2.72.13,4,.39.56.86,1.05,1.24,1.61h0a19,19,0,0,0,4.63-3.62A9.87,9.87,0,0,1,147.76,107.89Z"/><path class="cls-64" d="M144.85,113c-.39-.56-.86-1.05-1.24-1.61-.91-1.32-1.5-2.75-.13-4,1.55-1.45,3-.65,4.29.57a9.87,9.87,0,0,0,1.72,1.47l.3-.27c-.82-2.39-2.44-4.11-5-3.91a3.53,3.53,0,0,0-3.29,2.64c-.41,2.32.18,4.31,2.43,5.52h0a7.27,7.27,0,0,0,.91-.35Z"/><path class="cls-64" d="M144.86,113l.39.54c2.5.07,3.48-2,4.38-4.09l-.15-.08A19,19,0,0,1,144.86,113Z"/><path class="cls-64" d="M149.63,109.43l.15-.35-.3.27Z"/><path class="cls-64" d="M145.25,113.52l-.39-.54a7.27,7.27,0,0,1-.91.35A5.84,5.84,0,0,0,145.25,113.52Z"/><path class="cls-65" d="M111.13,100.68c-.19-2-.72-4.5-3.52-4.06-1.65.26-4-.19-4.43.46-1.13,5.31,1.21,6.36,4,6.49C109,103.66,111.4,103.44,111.13,100.68Z"/><path class="cls-66" d="M131.49,136.26c-.28,1.86-.4,4.08,2.07,4.13,2.74.06,1.81-2.48,2-4.09.42-2.17-.52-4.11-1-6.12-.32-1.4-1.2-2.83-2.81-2.43s-1.28,2.05-1.12,3.24C130.91,132.75,131.77,134.4,131.49,136.26Z"/><path class="cls-67" d="M125.28,123.26c1.1,1,1.19-.36,1.47-1.15-.57-1,.09-2.9-1.94-3.05-1.59-.12-3.09,1.07-3.11,2.15C121.66,123.18,124.15,122.23,125.28,123.26Z"/><path class="cls-44" d="M146.93,132.94c-.65.21-1.21.6-1,1.4a1.91,1.91,0,0,0,2.15,1.42c.74,0,1.37-.16,1-1.16A2.55,2.55,0,0,0,146.93,132.94Z"/></g></g></svg>