<svg xmlns="http://www.w3.org/2000/svg" viewBox="0 0 465.03 435.63">
	<defs>
		<style>
			.final-1{fill:#fbee00;}
			.final-2{fill:#fff;}
			.final-3{fill:#231815;}
			.final-4{fill:none;stroke:#fbee00;stroke-miterlimit:10;stroke-width:20px;} <!-- cir -->
			.final-5{font-size:54.87px;fill:#f8b72e;font-family:Arial-Black, Arial Black;}
		</style>
	</defs>
	<title>final</title>
	<g id="圖層_2" data-name="圖層 2">
		<g id="圖層_1-2" data-name="圖層 1">
			<rect class="final-1" x="23.39" y="197.48" width="417.06" height="87.79" transform="translate(-44.02 51.88) rotate(-11.67)"/>
			<rect class="final-1" x="447.33" y="151.33" width="8.92" height="87.79" transform="translate(-30.14 95.39) rotate(-11.67)"/>
			<polygon class="final-2" points="22.7 259.36 274.13 207.45 325.53 107.19 4.95 173.39 22.7 259.36"/>
			<path class="final-3" d="M117.61,178.95l8.08,39.12-10.81,2.23-5.29-25.63a33.55,33.55,0,0,1-4.41,4.28,40.47,40.47,0,0,1-5.67,3.63l-1.81-8.76a26.55,26.55,0,0,0,7.6-6,17.6,17.6,0,0,0,3.47-7.06Z"/>
			<path class="final-3" d="M153.45,171.55l8.08,39.12-10.81,2.23-5.29-25.63a33.62,33.62,0,0,1-4.41,4.28,40.53,40.53,0,0,1-5.67,3.63l-1.81-8.76a26.55,26.55,0,0,0,7.6-6,17.6,17.6,0,0,0,3.47-7.06Z"/>
			<path class="final-3" d="M172.5,167.61l5.45-1.13-1.45,41.77-5.4,1.11Z"/>
			<path class="final-3" d="M184.07,185.79q-2.26-11,.78-16.16T196,162.76a18.39,18.39,0,0,1,6.57-.36,12,12,0,0,1,4.58,1.65,13.55,13.55,0,0,1,3.15,2.72,17.14,17.14,0,0,1,2.27,3.65,37.63,37.63,0,0,1,2.93,8.75q2.16,10.47-.38,16.05t-11.2,7.37a17.46,17.46,0,0,1-8.16.07,13,13,0,0,1-5.84-3.53,17.46,17.46,0,0,1-3.37-5.36A40.58,40.58,0,0,1,184.07,185.79Zm10.6-2.16Q196.2,191,198,193.4a4.16,4.16,0,0,0,4.32,1.91,4,4,0,0,0,2.58-1.72,7.23,7.23,0,0,0,1-4,38.54,38.54,0,0,0-1-7.8q-1.58-7.66-3.42-10a4.25,4.25,0,0,0-4.44-1.83,4.06,4.06,0,0,0-3.28,3.48Q193.18,176.36,194.68,183.63Z"/>
			<path class="final-3" d="M226.08,175.78a10.41,10.41,0,0,1-4.29-2.23,9,9,0,0,1-2.65-4.87q-1-4.83,2.91-8.83,3.05-3.09,8.88-4.29,7.71-1.59,12,.58a9.28,9.28,0,0,1,5.21,6.64,8.93,8.93,0,0,1-.47,5.16,12.32,12.32,0,0,1-2.79,4,11,11,0,0,1,5.47,3A10.33,10.33,0,0,1,253,180a11.59,11.59,0,0,1-.21,5.67,11,11,0,0,1-2.45,4.54,13.49,13.49,0,0,1-4.39,3,28.6,28.6,0,0,1-6,1.91q-6.11,1.26-9.64.49a10.77,10.77,0,0,1-5.78-3.24,12.23,12.23,0,0,1-3-5.92,9.46,9.46,0,0,1,4.49-10.69Zm3.24-8.55a4.38,4.38,0,0,0,1.91,3,4.64,4.64,0,0,0,3.57.53,4.13,4.13,0,0,0,2.77-1.83,4.36,4.36,0,0,0,.54-3.37,4.5,4.5,0,0,0-1.9-3,4.46,4.46,0,0,0-6.88,4.69Zm2.84,16.67a5.88,5.88,0,0,0,2.41,3.84,4.88,4.88,0,0,0,3.88.88,4.69,4.69,0,0,0,3.1-2.35,6.57,6.57,0,0,0-1.73-8.33,4.85,4.85,0,0,0-3.89-.89,4.72,4.72,0,0,0-3.15,2.29A6.07,6.07,0,0,0,232.16,183.91Z"/><path class="final-3" d="M93.86,269.14l-3.69.76-1.45-7L76.5,265.42l1.08,5.25-3.74.77-1.08-5.25L60.7,268.68l1.45,7-3.71.77L56.36,266.4l15.78-3.26-.37-1.81-14.44,3-.66-3.19,32.45-6.7.66,3.19L75.5,260.57l.37,1.81,15.91-3.29Zm2.72,6.2-.66,3.59a49.62,49.62,0,0,1-12.61-1.38l.34,1.64-11.94,2.47-.32-1.55a78.31,78.31,0,0,1-10.76,6.07l-2.25-3q12-4.78,16.72-11.42l4.1.23a2.37,2.37,0,0,0-.42.81A52,52,0,0,0,96.59,275.34Zm-25.17-7.21L71,270.68a74.81,74.81,0,0,0-8,.84l.45-2.61A53.14,53.14,0,0,1,71.42,268.13Zm1,5.69a63.24,63.24,0,0,1-7.85,3l-1.31-2.42a67.89,67.89,0,0,0,7.93-2.8ZM93,282.33a58.18,58.18,0,0,1-8.85,7q2.38.39,5,1l-1.39,3.24a87.09,87.09,0,0,0-18.14-2.32l1.32-3.14a63.31,63.31,0,0,1,8.37.57,48.84,48.84,0,0,0,7.38-5.07L64,288.3l-.64-3.09,28.92-6Zm-12.33-5.44q-1.58-.46-4-1.45a22.33,22.33,0,0,1-2.91,2.88Zm7-10.62q-3.33,1.34-7.61,2.69l-1.49-2.25A73.35,73.35,0,0,0,86.17,264Zm1.12,3L88.41,272a58,58,0,0,0-8.46.35l.4-2.62A66.09,66.09,0,0,1,88.78,269.25Z"/>
			<path class="final-3" d="M133.22,256.77l-28.92,6L102,251.64l28.92-6Zm6.6,14L117,275.44l1.47,7.09a59.86,59.86,0,0,0,6.63-2.86l1.07,3.37a111.86,111.86,0,0,1-10.49,4.42l-1.57-2.83a1.76,1.76,0,0,0,.6-1.87l-1.36-6.57-4.34.9a26.84,26.84,0,0,1-1.15,12.43l-3.76-1.78a21.5,21.5,0,0,0,.84-11.95L102.69,265l34.49-7.12.63,3-30.6,6.32.42,2,27.77-5.73.58,2.79-27.77,5.73.41,2,30.6-6.32Zm-11.79-20-.35-1.68-21.33,4.4.35,1.68Zm.88,4.26-.37-1.8-21.33,4.4.37,1.8Zm13.28,23.92-.88,3.59q-12,.57-18.49-5.5l2.66-2.39a25.63,25.63,0,0,0,4.21,2.59,27.49,27.49,0,0,0,4.63-4.72l3.36,1.54a31.18,31.18,0,0,1-3.94,4.36A28,28,0,0,0,142.18,278.88Z"/>
			<path class="final-3" d="M181.56,255.17l-37.4,7.72-.78-3.8,37.4-7.72Z"/>
			<path class="final-3" d="M207.64,258l-18.87,3.9-.69-3.34,7.87-1.63-.57-2.75-6.84,1.41-.68-3.27,6.84-1.41-.5-2.41-6.8,1.4-3.1-15,16.85-3.48,3.1,15-6.65,1.37.5,2.41,6.7-1.38.68,3.27-6.7,1.38.57,2.75,7.6-1.57Zm-14.06-12.55-1.81-8.77-3.95.81,1.81,8.77Zm-1.18-1.38-1.6,1a49.31,49.31,0,0,0-2-6l1.55-1A47.86,47.86,0,0,1,192.4,244.09Zm1.38,18.45a27.86,27.86,0,0,1-.23,9.06l-3.38-.79a37.85,37.85,0,0,0,.21-8.34Zm6.37,6.67-3.19,1.1a33.57,33.57,0,0,0-2.39-7.67l3-1A40.23,40.23,0,0,1,200.15,269.21Zm.7-25.24L199,235.19l-3.86.8,1.81,8.77Zm-2-7.07a35.13,35.13,0,0,1,.08,6.53l-1.8-.22a36.58,36.58,0,0,0-.15-6.47Zm6.32,30.38-3.09,1.16a28.81,28.81,0,0,0-3.22-6.91l3.06-1.07A38.32,38.32,0,0,1,205.18,267.27Zm4.32-2.07-2.91,1.37a37.18,37.18,0,0,0-3.16-6.2l2.85-1.27A33.71,33.71,0,0,1,209.5,265.2Zm13.15-28.52-8.46,1.75,1.49,7.22,7.14-1.47L227,264.41l-3.76.78-.49-2.39-8.37,1.73.49,2.39-3.69.76L207,247.44l4.93-1-3.57-17.27,3.76-.78,1.33,6.44,8.46-1.75ZM222,259.14l-2.19-10.62-8.37,1.73,2.19,10.62Z"/>
			<path class="final-3" d="M263.18,253.64l-3.09,2a43.87,43.87,0,0,0-2.5-4Q251.26,256,246,259.07l-2-3.17a1.92,1.92,0,0,0,.65-1.84l-6.29-30.48,16.16-3.34,4.14,20-12.3,2.54,2.14,10.39q3.35-2,7.09-4.55a25.25,25.25,0,0,0-3.1-3.89l3-2.09A57.81,57.81,0,0,1,263.18,253.64Zm-10.84-24.53-.94-4.56-8.52,1.76.94,4.56Zm1.73,8.4-1-4.91-8.52,1.76,1,4.91Zm25.18,6.95q.61,3-.63,4.19a9.55,9.55,0,0,1-4.67,1.94q-1.3.27-2.78.51l-1.87-3.64q2.63-.41,5.27-1a1,1,0,0,0,.66-.53,1.26,1.26,0,0,0,.16-.91l-5-24.16-7.49,1.55,6.83,33.1-3.78.78-7.61-36.84,15.09-3.12Z"/>
			<path class="final-3" d="M299.83,249.28l-3.61.75L293,234.43l-2.67.55q2.18,11.21.11,16.11l-3.61-1.36q1.78-4.85-.24-14l-2.16.45-.75-3.61,8.56-1.77-1-5-7.18,1.48-2.45-11.86,3.57-.74,1.72,8.33,3.61-.75-2-9.89,3.61-.75Zm16.62-35.87q-3.69,7.35-7.57,10.81a38.09,38.09,0,0,1-10,6.17l-2.59-2.79q7-3.14,10.41-6.53a48.43,48.43,0,0,0-7-2.15l-2.42,2.25-2.9-2.4a32.53,32.53,0,0,0,8.16-9.54l3.69.68q-.35.73-1.2,2.26L315.74,210Zm-13.64,9.32a41.84,41.84,0,0,1-5.17,2.53l-1.58-2.45q3.38-1.44,5.93-2.78Zm19.25,7.49-4.56.94,2.09,10.14a3,3,0,0,1-.75,2.92q-1.13,1.19-7.15,2.47l-1.89-3.33q1.81-.26,2.81-.47a8.2,8.2,0,0,0,2.72-.83.94.94,0,0,0,.28-1l-1.89-9.15-15.13,3.13-.72-3.48L313,228.46l-1-4.76,3.78-.78,1,4.76,4.56-.94Zm-12.19,10L307.17,243a31,31,0,0,0-6.21-5.57l2.42-2.8A33.92,33.92,0,0,1,309.88,240.18Zm2.1-25.84-9.68,2a54.59,54.59,0,0,1,6.91,2A39.77,39.77,0,0,0,312,214.34Z"/>
			<path class="final-3" d="M366.93,227.37q.79,8.07-2.78,8.8-2.5.52-5.67-3-1.27,2.67-2,4l-3.18-2.34a28.12,28.12,0,0,0,2.61-5.16Q352.81,225,350,213.21l-24.6,5.08-.69-3.36,10.66-2.2-.58-2.79-8.21,1.69-.69-3.36,8.21-1.69-.68-3.3,3.78-.78.68,3.3,8-1.64.69,3.36-8,1.64.58,2.79,10.08-2.08q-.9-4.76-1.87-9.46l3.82-.79q1.54,8.28,1.87,9.46l9.24-1.91.69,3.36-9.15,1.89q2.27,9.84,3.61,12.08a41.85,41.85,0,0,0,.88-10.45l3.67.84a43.66,43.66,0,0,1-2,14,14.25,14.25,0,0,0,1.6,1.86,11.92,11.92,0,0,0,1.28,1.23.53.53,0,0,0,.3,0q.38-.08.47-.67a41.8,41.8,0,0,0-.31-5.1ZM350,220.86l-6.7,1.38.42,2,5.58-1.15.61,2.94-5.58,1.15.44,2.14,5.58-1.15.59,2.88-5.58,1.15.5,2.41,6.13-1.27.65,3.13-15.11,3.12.37,1.81-3.63.75-2.7-13.1q-.52.87-1.69,2.63l-2.82-2.85a28.84,28.84,0,0,0,4.56-10.9l3.66.36a17.36,17.36,0,0,1-.53,2.41l4.24-.88a11.41,11.41,0,0,0-1.48-2.39l3.71-1.44a20.86,20.86,0,0,1,1.78,3l6.36-1.31ZM340.18,225l-.42-2-5.42,1.12.42,2Zm1,5.08-.44-2.14-5.41,1.12.44,2.14Zm1.09,5.29-.49-2.37-5.42,1.12.49,2.37Zm18.29-30.76-3,2.28a26.76,26.76,0,0,0-4.55-4.88l2.94-2.1A23,23,0,0,1,360.61,204.61Z"/>
			<path class="final-3" d="M410.81,225.67l-37.49,7.74-.79-3.8,5-1L372,202l4-.82,5.5,26.64,8.77-1.81L383.46,193l4.13-.85,2.47,12,13.66-2.82.78,3.78-13.66,2.82,3.54,17.15L410,221.87Z"/>
			<path class="final-4" d="M400.35,312.29A206.49,206.49,0,0,1,216.22,425.63C103.09,425.63,10,332.53,10,219.4S103.09,13.18,216.22,13.18A206.25,206.25,0,0,1,333.3,49.63"/>
			<text class="final-5" transform="translate(325.53 152.57)">86%</text>
			<circle class="final-1" cx="400.35" cy="316.1" r="19.08"/>
			<polyline class="final-4" points="283.73 63.23 342.05 59.03 337.93 0.7"/>
		</g>
	</g>
</svg>