<svg id="圖層_1" data-name="圖層 1" xmlns="http://www.w3.org/2000/svg" viewBox="0 0 1920 900">
	<defs>
		<style>
			.phone-1{fill:#fff100;opacity:0;}
			.phone-2{fill:#b84232;}
			.phone-3{fill:#f7cda0;}
			.phone-4{fill:#e2bb92;}
			.phone-5{fill:#fef8f7;}
			.phone-6{fill:#2d3d55;}
			.phone-7{fill:#e9e4e1;}
			.phone-8{fill:#555656;}
			.phone-9{fill:#43b6b4;}
			.phone-10{fill:#dc573f;}
			.phone-11{fill:#f5c432;}
			.phone-12{fill:#38475d;}
		</style>
	</defs>
		<title>phone-02</title>
		<rect class="phone-1" x="0.47" y="-0.28" width="1920" height="900.79"/>
		<polygon class="phone-2" points="-4.53 900.72 106.55 902.35 -6.47 822.2 -4.53 900.72"/>
		<path class="phone-3" d="M405.9,734a27.68,27.68,0,0,1-34.77-17.75L353.23,661a27.6,27.6,0,0,1,52.51-17l17.92,55.3A27.69,27.69,0,0,1,405.9,734Z"/>
		<path class="phone-3" d="M365,792.15a27.68,27.68,0,0,1-34.77-17.75l-17.91-55.29a27.6,27.6,0,0,1,52.51-17h0l17.92,55.3A27.69,27.69,0,0,1,365,792.15Z"/>
		<path class="phone-3" d="M324.08,850.29a27.68,27.68,0,0,1-34.77-17.75L271.4,777.25a27.6,27.6,0,0,1,52.51-17l17.92,55.3A27.69,27.69,0,0,1,324.08,850.29Z"/>
		<path class="phone-4" d="M353.23,661a27.6,27.6,0,0,1,52.51-17L417,678.69l-36,51.19a27.39,27.39,0,0,1-9.83-13.61Z"/>
		<path class="phone-4" d="M312.32,719.11a27.6,27.6,0,0,1,52.51-17h0L376,736.87l-36,51.19a27.39,27.39,0,0,1-9.83-13.61Z"/>
		<path class="phone-3" d="M311.34,767.23,270,826c-18.39,26.14-67.84,44-107.63,16l-39.62,56.31c-27.81-26.3-88.89-57.59-118.1-85.31l123.14-175Z"/>
		<path class="phone-4" d="M175,805.6c-54.45,11-112.6-48.52-112.6-48.52L169.48,705l124.19,87.39L277.73,815c-9.64,13.69-20.82,29.9-41.56,33.69Z"/>
		<g id="mobile">
			<path class="phone-5" d="M516.27,473.16,387.33,382.43a27.26,27.26,0,0,0-37.85,6.6L156.59,663.15A27.26,27.26,0,0,0,163.16,701l128.94,90.73a27.23,27.23,0,0,0,37.82-6.62L522.82,511A27.23,27.23,0,0,0,516.27,473.16Z"/>
			<rect class="phone-6" x="205.39" y="499.77" width="268.64" height="174.63" transform="translate(-335.91 527.06) rotate(-54.87)"/>
			<path class="phone-7" d="M440.45,455.8a6.83,6.83,0,1,1-1.66-9.54,6.83,6.83,0,0,1,1.66,9.54Z"/>
			<path class="phone-8" d="M225.93,719.66a7.45,7.45,0,0,1-1.78-10.39h0l1.28-1.82a7.43,7.43,0,0,1,10.35-1.83h0l27.39,19.27A7.47,7.47,0,0,1,265,735.29l-1.28,1.82a7.47,7.47,0,0,1-10.39,1.82Z"/>
		</g>
		<circle id="back" class="phone-9" cx="341" cy="585.23" r="68.65" transform="translate(-333.85 527.33) rotate(-54.87)"/>
		<rect class="phone-5" x="466.9" y="524.96" width="3.77" height="6.28" transform="translate(-232.88 607.58) rotate(-54.87)"/>
		<path class="phone-5" d="M467,523l-3.58,5.09,9.72,6.84,3.58-5.09Zm6,11.11L464.25,528l2.89-4.11,8.71,6.13Z"/>
		<path class="phone-5" d="M475.18,531.06l-1.45,2.07,1.56,1.1,1.45-2.07Zm-.09,2.27-.49-.35.73-1,.49.35Z"/>
		<circle class="phone-5" cx="346.16" cy="442.34" r="2.46" transform="translate(-214.8 470.89) rotate(-54.87)"/>
		<path class="phone-5" d="M352.29,443.63a2.46,2.46,0,1,0,.6,3.43,2.46,2.46,0,0,0-.6-3.43Z"/>
		<path class="phone-5" d="M357,446.94a2.46,2.46,0,1,0,.6,3.43,2.46,2.46,0,0,0-.6-3.43Z"/>
		<path class="phone-5" d="M361.7,450.25a2.46,2.46,0,1,0,.6,3.43,2.46,2.46,0,0,0-.6-3.43Z"/>
		<path class="phone-3" d="M304.43,715.53l-7.62,10.83A47.85,47.85,0,0,1,230.14,738l-53.41-37.58h0l21.14-30a24.35,24.35,0,0,1,33.92-5.9h0l72.63,51.11Z"/>
		<path class="phone-3" d="M245.87,537.12l-92.6,131.6L211,661,238.79,696l-50.86,72.28c-47.8,67.94-123,5.2-144.66-10L162.59,588.73S206.45,521.83,245.87,537.12Z"/>
		<rect class="phone-5" x="85.52" y="724.26" width="16.74" height="177.07" transform="translate(-624.87 421.84) rotate(-54.87)"/>
		<polygon class="phone-10" points="16.66 768.7 -10.27 806.97 -19.9 820.66 124.91 922.56 134.54 908.87 161.48 870.59 16.66 768.7"/>
		<circle class="phone-11" cx="12.19" cy="802.34" r="7.53" transform="translate(-651 350.59) rotate(-54.87)"/>
		<g id="signal">
			<g opacity="1">

				<animate dur="1s" attributeName="opacity" repeatCount="indefinite" to="0"/>
				<path class="phone-12" d="M536.44,645a78.18,78.18,0,0,0,12.81-60.6,4.81,4.81,0,0,0-4.76-3.74h-.17a4.34,4.34,0,0,0-4.28,5.18,69.62,69.62,0,0,1-54.77,81.82q-1.59.32-3.2.56a4.34,4.34,0,0,0-3.43,5.78l.05.16a4.81,4.81,0,0,0,5.13,3.22A78.18,78.18,0,0,0,536.44,645Z"/>
				<path class="phone-12" d="M218.74,421.46a78.18,78.18,0,0,1,52.71-32.52,4.81,4.81,0,0,1,5.13,3.22l.05.16a4.34,4.34,0,0,1-3.43,5.78,69.62,69.62,0,0,0-58.53,79.18q.24,1.61.56,3.2a4.34,4.34,0,0,1-4.28,5.18h-.17a4.81,4.81,0,0,1-4.76-3.74A78.18,78.18,0,0,1,218.74,421.46Z"/>


			</g>



			<g opacity="1">

				<animate dur="1s" attributeName="opacity" repeatCount="indefinite" to="0"/>
				<path class="phone-12" d="M514,583.78l-.1-.07a4.32,4.32,0,0,0-4.34,4.83,47,47,0,0,1-35.27,50.12,4.32,4.32,0,0,0-3.08,5.72l.1.07a4.87,4.87,0,0,0,5.69,3.12A55.62,55.62,0,0,0,518.94,588,4.87,4.87,0,0,0,514,583.78Z"/>
				
				<path class="phone-12" d="M283.94,421.9l.1.07a4.32,4.32,0,0,1-3.08,5.72,47,47,0,0,0-35.27,50.12,4.32,4.32,0,0,1-4.34,4.83l-.1-.07a4.87,4.87,0,0,1-4.86-4.3,55.62,55.62,0,0,1,41.93-59.6A4.87,4.87,0,0,1,283.94,421.9Z"/>
			</g>
				
		</g>
	</svg>