<svg xmlns="http://www.w3.org/2000/svg" viewBox="0 0 1920 588.42">
	<defs>
		<style>.rice-tree-1{fill:#fff100;opacity:0;}.rice-tree-2{fill:#2b9c60;}.rice-tree-3{fill:#289c5f;}.rice-tree-4{fill:#6a5c38;}.rice-tree-5{fill:#6b5c38;}.rice-tree-6{fill:#6b5b37;}.rice-tree-7{fill:#b7c961;}</style>
	</defs>
	<title>rice_tree</title>
	<g id="圖層_2" data-name="圖層 2">
		<g id="圖層_1-2" data-name="圖層 1">
			<rect class="rice-tree-1" width="1920" height="588.42"/>
			<path class="rice-tree-2" d="M592.5,504.94c8.49,10.22,11.4,22.67,13.77,35.24.51,2.69-.43,5.69-4.37,5.71-2.42,0-4.67,1.78-7.2.72-2-1.57-1.2-3.92-1.6-5.94-.34-1.75-.27-3.62-1.76-5.4-3.64,3.11-2.53,8.37-5.42,11.65a12.59,12.59,0,0,1-14.43-3v-6c1.11-4.54,3.62-8.4,6.07-12.29A139.92,139.92,0,0,0,586.08,510c1-2.13,2.2-4,4.42-5.11Z"/>
			<path class="rice-tree-3" d="M660.7,546.07c-4.28,2-8.33.22-12.07-1.32s-2.44-5-1.07-7.56c5.86-10.81,11.94-21.51,17.94-32.25h2c3.56,1.62,5.3,4.85,6.93,8.08a69.09,69.09,0,0,1,7.07,25.92v4c-2.11,4.49-5.34,5.74-11.77,4.56-1.9-1.64-1.28-3.95-1.59-6s-.08-4.32-1.9-6.12C662.74,538.16,664.24,543.45,660.7,546.07Z"/>
			<path class="rice-tree-4" d="M585.7,546.06c1.07-3.63,2.1-7.28,3.23-10.9a2.76,2.76,0,0,1,2.88-2.25c2,.09,1.75,1.59,1.87,2.88q.51,5.42,1,10.83l.8,7.33h-10C583.23,551.25,585.64,548.69,585.7,546.06Z"/>
			<path class="rice-tree-5" d="M660.7,546.07c1.07-3.63,2.1-7.27,3.23-10.88a2.78,2.78,0,0,1,2.86-2.27c2,.07,1.76,1.56,1.88,2.85q.5,5.41,1,10.82c1.16,2.35,2.31,4.7.81,7.35h-10C659,551.28,662.64,548.74,660.7,546.07Z"/>
			<path class="rice-tree-6" d="M621.5,553.94a10.55,10.55,0,0,1,.62-6.08c.5-1.33,2.47-3,.4-4.72a3.54,3.54,0,0,1-.38-2.84c.49-2.46,1.16-4.88,3.83-5.87a2.81,2.81,0,0,1,3.69,1.6c1.25,2.62,2,5.28-.85,7.47-.48,3.65,1,7,1.69,10.43Z"/>
			<path class="rice-tree-7" d="M628.81,543.51c.36-3,1.9-7.37-1.5-8.22-3.89-1-3.14,4-4.34,6.45a9.88,9.88,0,0,0-.46,1.41c-2.8,1.58-5.9.87-8.72.56-3-.34-4.85-2.18-3.39-5.93,2.58-6.65,6.83-12.31,10.44-18.33,2.11-3.52,4.67-6.74,5.61-10.82.34-1.47.91-2.52,2.5-2.59a2.55,2.55,0,0,1,2.53,2c3.59,9.48,7.41,18.87,10.67,28.46,1,2.89-1.2,5.22-4.13,6.39A15,15,0,0,1,628.81,543.51Z"/>
			<path class="rice-tree-2" d="M1671.54,460.74c6.84,8.23,9.18,18.26,11.1,28.39.41,2.17-.35,4.59-3.52,4.6-1.95,0-3.76,1.44-5.8.58-1.65-1.26-1-3.16-1.29-4.78-.28-1.41-.22-2.91-1.42-4.35-2.93,2.5-2,6.74-4.37,9.38a10.14,10.14,0,0,1-11.62-2.4v-4.83c.9-3.66,2.91-6.77,4.89-9.9a112.71,112.71,0,0,0,6.86-12.57,7.74,7.74,0,0,1,3.56-4.11Z"/>
			<path class="rice-tree-3" d="M1726.48,493.87c-3.44,1.6-6.71.18-9.73-1.06s-2-4-.86-6.09c4.72-8.71,9.62-17.33,14.45-26H1732c2.87,1.31,4.27,3.9,5.59,6.51a55.66,55.66,0,0,1,5.69,20.88v3.22c-1.7,3.62-4.31,4.62-9.48,3.68-1.53-1.32-1-3.18-1.28-4.85s-.06-3.48-1.53-4.93C1728.12,487.5,1729.33,491.76,1726.48,493.87Z"/>
			<path class="rice-tree-4" d="M1666.06,493.86c.86-2.93,1.69-5.87,2.6-8.78a2.22,2.22,0,0,1,2.32-1.82c1.58.08,1.41,1.28,1.5,2.32q.41,4.36.83,8.72l.64,5.9h-8.06C1664.07,498,1666,496,1666.06,493.86Z"/>
			<path class="rice-tree-5" d="M1726.48,493.87c.86-2.92,1.69-5.86,2.6-8.77a2.24,2.24,0,0,1,2.31-1.83c1.59.06,1.42,1.26,1.51,2.3q.4,4.36.82,8.72c.93,1.89,1.86,3.79.66,5.92h-8.06C1725.1,498.06,1728,496,1726.48,493.87Z"/>
			<path class="rice-tree-6" d="M1694.9,500.21a8.5,8.5,0,0,1,.5-4.9c.4-1.07,2-2.42.32-3.8a2.85,2.85,0,0,1-.31-2.29c.4-2,.94-3.93,3.09-4.73a2.26,2.26,0,0,1,3,1.29c1,2.11,1.63,4.26-.69,6-.39,2.94.77,5.63,1.36,8.41Z"/>
			<path class="rice-tree-7" d="M1700.79,491.8c.29-2.41,1.53-5.94-1.2-6.62-3.13-.78-2.53,3.23-3.5,5.2a8,8,0,0,0-.37,1.13c-2.26,1.27-4.75.7-7,.45-2.45-.27-3.91-1.75-2.73-4.78,2.08-5.36,5.5-9.92,8.41-14.76,1.7-2.83,3.77-5.43,4.52-8.72.27-1.18.73-2,2-2.08a2.05,2.05,0,0,1,2,1.61c2.9,7.63,6,15.2,8.59,22.93.79,2.33-1,4.21-3.33,5.15A12.11,12.11,0,0,1,1700.79,491.8Z"/>
			<path class="rice-tree-2" d="M331.72,444.77c7.85,9.69,10.58,21.42,12.82,33.26.49,2.57-.41,5.44-4.18,5.45-1.63,0-13.74,1-21.92.2a7.84,7.84,0,0,1-7.14-7.8h0c1.07-4.34,3.46-8,5.8-11.74a133.72,133.72,0,0,0,8.14-14.92c1-2.07,2.14-3.93,4.33-4.93Z"/>
			<path class="rice-tree-3" d="M385,482.4c-3.61-1.48-2.34-4.8-1-7.23,5.6-10.33,11.41-20.56,17.14-30.82h1.91c3.4,1.55,5.06,4.63,6.63,7.72a66,66,0,0,1,6.75,24.77v3.82C414.41,485,388.6,483.87,385,482.4Z"/>
			<path class="rice-tree-4" d="M324.88,483.65c1-3.47,2-7,3.09-10.41a2.64,2.64,0,0,1,2.75-2.15c1.88.09,1.67,1.52,1.78,2.75q.48,5.18,1,10.35l.76,7h-9.56C322.51,488.62,324.82,486.16,324.88,483.65Z"/>
			<path class="rice-tree-5" d="M399.64,473.26a2.65,2.65,0,0,1,2.74-2.17c1.89.07,1.68,1.49,1.79,2.72.32,3.45,3.18,14.84,1.75,17.36h-9.56C394.91,488.64,398.56,476.71,399.64,473.26Z"/>
			<path class="rice-tree-7" d="M351.74,481.4c-2.9-.32-4.64-2.08-3.24-5.67,2.47-6.35,6.53-11.76,10-17.52,2-3.36,4.47-6.45,5.36-10.34.32-1.4.87-2.41,2.39-2.47a2.44,2.44,0,0,1,2.42,1.91c3.43,9.06,7.08,18,10.19,27.2.94,2.76-1.15,5-3.95,6.11S354.43,481.7,351.74,481.4Z"/>
			<path class="rice-tree-6" d="M359.09,491.18c-.42-2,.43-12.11.61-13,.47-2.35,1.11-4.67,3.66-5.61a2.68,2.68,0,0,1,3.53,1.53c1.2,2.5.1,13.82.8,17.11Z"/>
		</g>
	</g>
</svg>