<svg xmlns="http://www.w3.org/2000/svg" viewBox="0 0 1920 357.06">
	<defs>
		<style>.cloud-bird-1{fill:#fff100;opacity:0;}.cloud-bird-2{fill:#fff;}</style>
	</defs>
	<title>rice_bird</title>
	<g id="圖層_2" data-name="圖層 2">
		<g id="圖層_1-2" data-name="圖層 1">
			<rect class="cloud-bird-1" width="1920" height="357.06"/>
			<path class="cloud-bird-2" d="M581.85,168.4c.59-.74,1.19-1.47,1.82-2.18a25.85,25.85,0,0,0,5.54-10.89,23.92,23.92,0,0,0,.78-9.42c-.53-3.7-1.22-7.36-3.17-10.56a19.48,19.48,0,0,0-3.08-4.17,1.63,1.63,0,0,1-.73-1.37,15.37,15.37,0,0,1,3.45-7.76,28.31,28.31,0,0,1,7.22-6.32c.69-.42.75-.8.06-1.31a33.49,33.49,0,0,0-9-4.48,28.74,28.74,0,0,0-16.41-.44,92.21,92.21,0,0,0-9.89,3,19,19,0,0,0-8,5.66,2,2,0,0,1-2.12.79,21.27,21.27,0,0,0-4-.84,23.5,23.5,0,0,0-8.68-.21c-3.8.71-7.62,1.57-10.86,3.9-1.31.94-2.84,1.74-3.77,3a37.55,37.55,0,0,0-4.67,7.12c-.74,1.66-1.57,3.33-2.31,5-.83,1.89-1.1,3.93-1.81,5.85-.19.53-.39,1.5.74,1.13s2.24-.13,3.43-.32c.76.28,1.67-.16,2.45.14,1.94.76,4.08.65,6,1.58a27.85,27.85,0,0,1,5.92,3.53,2.32,2.32,0,0,1,1,2.34,30.13,30.13,0,0,0-1.37,6.29,30.46,30.46,0,0,0,1.39,13.4,83.2,83.2,0,0,0,4.16,9.94,28.68,28.68,0,0,0,7,8.41c2.52,2.21,5.72,3.37,8.59,5a1.16,1.16,0,0,0,1.76-1.21,5.15,5.15,0,0,1-.14-1.19c.58-4.61,1-9.26,3.18-13.46.69-1.32,1.52-3,3.23-2.82a51.88,51.88,0,0,0,5.34-.12,29.56,29.56,0,0,0,7.82-1.12A18,18,0,0,0,581.85,168.4ZM533,134.7a2.78,2.78,0,0,1-2.85-2.74c0-1.42,1.17-3,2.19-3s3.51,2,3.51,2.88A3.49,3.49,0,0,1,533,134.7Zm41.1,31.81c-1.28.68-2.5,1.52-4.09,1.2a1.32,1.32,0,0,0-.63.16c-.39.15-.85.65-1.14,0s.42-.72.77-.9a16.62,16.62,0,0,0,4.8-3.58,22.41,22.41,0,0,0,4.48-6.74c.66-1.68,1.94-3,2.24-4.94.38-2.35,1.06-4.65,1-7.07-.05-.67-.1-1.35-.16-2,0-.33,0-.69.35-.79s.64.25.72.51c.39,1.32.75,2.64,1,4,.09.42.09.84.22,1.28a5.38,5.38,0,0,1,.12,3.26c-.53,1.74-.25,3.66-1.16,5.37a29.94,29.94,0,0,1-3.26,5.6A18.53,18.53,0,0,1,574.12,166.51Z"/>
			<path class="cloud-bird-2" d="M609.62,150.12c-.53-.8-1.3.23-1.95.51-.25.11-.46.31-.71.39-1.1.34-2.15,1.16-3.56.33.72-.56,1.38-.91,1.63-1.62.17-.49.66-1.08.21-1.49s-1.11,0-1.58.3a17.13,17.13,0,0,1-8.64,2.62c-1,0-1.85.24-2,1.14s.7,1.51,1.56,1.76a22.39,22.39,0,0,0,6.75,1,12.27,12.27,0,0,0,7.19-2.83C609.22,151.76,610.07,150.79,609.62,150.12Z"/>
			<path class="cloud-bird-2" d="M593.59,181.83c-1.06.35-2-.21-3.07-.23-.47,0-1.39-.21-1.4-.78s.84-.38,1.3-.55c.82-.29,1.58-.88,1.49-1.7-.06-.52-1-.49-1.65-.47a13.62,13.62,0,0,1-8.39-2.34,1.33,1.33,0,0,0-1.69.09c-.59.38-.42,1,0,1.55a20.91,20.91,0,0,0,4.82,4.92,10.53,10.53,0,0,0,6.23,1.89c.69.28,1.75-.19,2.8-.57a.94.94,0,0,0,.65-1.18A.84.84,0,0,0,593.59,181.83Z"/>
			<path class="cloud-bird-2" d="M1374.65,287.57c.53-.66,1.06-1.31,1.62-1.95a23.1,23.1,0,0,0,5-9.73,21.38,21.38,0,0,0,.7-8.42c-.48-3.3-1.09-6.57-2.84-9.43a17.41,17.41,0,0,0-2.76-3.72,1.46,1.46,0,0,1-.65-1.23,13.73,13.73,0,0,1,3.08-6.94,25.3,25.3,0,0,1,6.45-5.65c.61-.38.67-.72.06-1.17a29.93,29.93,0,0,0-8-4,25.68,25.68,0,0,0-14.67-.39,82.41,82.41,0,0,0-8.84,2.72,16.94,16.94,0,0,0-7.19,5.06,1.75,1.75,0,0,1-1.89.7,19,19,0,0,0-3.56-.76,21,21,0,0,0-7.76-.19c-3.4.63-6.81,1.4-9.71,3.48a14.56,14.56,0,0,0-3.37,2.66,33.56,33.56,0,0,0-4.17,6.37c-.66,1.49-1.4,3-2.07,4.5-.74,1.69-1,3.51-1.61,5.23-.17.47-.35,1.34.66,1a19.45,19.45,0,0,1,3.06-.29c.68.25,1.49-.15,2.19.13,1.74.68,3.64.58,5.38,1.41a24.89,24.89,0,0,1,5.29,3.15,2.07,2.07,0,0,1,.89,2.09,26.93,26.93,0,0,0-1.22,5.62,27.22,27.22,0,0,0,1.24,12,74.36,74.36,0,0,0,3.71,8.88,25.63,25.63,0,0,0,6.25,7.51c2.25,2,5.11,3,7.68,4.5a1,1,0,0,0,1.57-1.08,4.6,4.6,0,0,1-.13-1.06c.52-4.12.86-8.28,2.84-12,.62-1.18,1.36-2.65,2.89-2.52a46.37,46.37,0,0,0,4.77-.11,26.41,26.41,0,0,0,7-1A16,16,0,0,0,1374.65,287.57ZM1331,257.45a2.49,2.49,0,0,1-2.55-2.45c0-1.27,1-2.67,2-2.68s3.14,1.74,3.14,2.58A3.12,3.12,0,0,1,1331,257.45Zm36.73,28.43c-1.14.61-2.24,1.36-3.65,1.07a1.18,1.18,0,0,0-.57.14c-.35.13-.76.59-1,0s.38-.64.68-.8a14.85,14.85,0,0,0,4.29-3.2,20,20,0,0,0,4-6c.59-1.5,1.73-2.7,2-4.41a35.71,35.71,0,0,0,.9-6.32c0-.6-.09-1.21-.14-1.81,0-.3,0-.62.31-.7s.57.22.64.45c.35,1.18.67,2.36.92,3.56.08.38.08.75.2,1.15a4.81,4.81,0,0,1,.1,2.91c-.47,1.55-.22,3.27-1,4.8a26.76,26.76,0,0,1-2.91,5A16.56,16.56,0,0,1,1367.73,285.88Z"/>
			<path class="cloud-bird-2" d="M1399.47,271.23c-.48-.71-1.16.21-1.74.46-.22.09-.41.28-.63.35-1,.31-1.92,1-3.18.29.64-.5,1.24-.82,1.45-1.45.15-.43.59-1,.19-1.33s-1,0-1.41.27a15.31,15.31,0,0,1-7.72,2.34c-.87,0-1.65.21-1.74,1s.63,1.35,1.4,1.58a20,20,0,0,0,6,.9,11,11,0,0,0,6.43-2.53C1399.11,272.69,1399.87,271.82,1399.47,271.23Z"/>
			<path class="cloud-bird-2" d="M1385.14,299.57c-1,.31-1.82-.19-2.74-.2-.42,0-1.24-.19-1.25-.7s.75-.34,1.16-.49c.73-.26,1.41-.79,1.33-1.52-.05-.46-.92-.44-1.47-.42a12.18,12.18,0,0,1-7.49-2.09,1.19,1.19,0,0,0-1.51.08c-.53.34-.37.91,0,1.39a18.69,18.69,0,0,0,4.31,4.4,9.41,9.41,0,0,0,5.57,1.69c.62.25,1.56-.17,2.5-.51a.84.84,0,0,0,.58-1.05A.75.75,0,0,0,1385.14,299.57Z"/>
			<path class="cloud-bird-2" d="M795.75,103.79c.53-.66,1.06-1.31,1.62-1.95a23.1,23.1,0,0,0,5-9.73,21.38,21.38,0,0,0,.7-8.42c-.48-3.3-1.09-6.57-2.84-9.43a17.41,17.41,0,0,0-2.76-3.72,1.46,1.46,0,0,1-.65-1.23,13.73,13.73,0,0,1,3.08-6.94,25.3,25.3,0,0,1,6.45-5.65c.61-.38.67-.72.06-1.17a29.93,29.93,0,0,0-8-4,25.68,25.68,0,0,0-14.67-.39,82.41,82.41,0,0,0-8.84,2.72,16.94,16.94,0,0,0-7.19,5.06,1.75,1.75,0,0,1-1.89.7,19,19,0,0,0-3.56-.76,21,21,0,0,0-7.76-.19c-3.4.63-6.81,1.4-9.71,3.48a14.56,14.56,0,0,0-3.37,2.66,33.56,33.56,0,0,0-4.17,6.37c-.66,1.49-1.4,3-2.07,4.5-.74,1.69-1,3.51-1.61,5.23-.17.47-.35,1.34.66,1a19.45,19.45,0,0,1,3.06-.29c.68.25,1.49-.15,2.19.13,1.74.68,3.64.58,5.38,1.41a24.89,24.89,0,0,1,5.29,3.15,2.07,2.07,0,0,1,.89,2.09A26.93,26.93,0,0,0,749.78,94,27.22,27.22,0,0,0,751,106a74.36,74.36,0,0,0,3.71,8.88,25.63,25.63,0,0,0,6.25,7.51c2.25,2,5.11,3,7.68,4.5a1,1,0,0,0,1.57-1.08,4.6,4.6,0,0,1-.13-1.06c.52-4.12.86-8.28,2.84-12,.62-1.18,1.36-2.65,2.89-2.52a46.37,46.37,0,0,0,4.77-.11,26.41,26.41,0,0,0,7-1A16,16,0,0,0,795.75,103.79ZM752.11,73.67a2.49,2.49,0,0,1-2.55-2.45c0-1.27,1-2.67,2-2.68s3.14,1.74,3.14,2.58A3.12,3.12,0,0,1,752.11,73.67Zm36.73,28.43c-1.14.61-2.24,1.36-3.65,1.07a1.18,1.18,0,0,0-.57.14c-.35.13-.76.59-1,0s.38-.64.68-.8a14.85,14.85,0,0,0,4.29-3.2,20,20,0,0,0,4-6c.59-1.5,1.73-2.7,2-4.41a35.71,35.71,0,0,0,.9-6.32c0-.6-.09-1.21-.14-1.81,0-.3,0-.62.31-.7s.57.22.64.45c.35,1.18.67,2.36.92,3.56.08.38.08.75.2,1.15a4.81,4.81,0,0,1,.1,2.91c-.47,1.55-.22,3.27-1,4.8a26.76,26.76,0,0,1-2.91,5A16.56,16.56,0,0,1,788.84,102.1Z"/>
			<path class="cloud-bird-2" d="M820.57,87.45c-.48-.71-1.16.21-1.74.46-.22.09-.41.28-.63.35-1,.31-1.92,1-3.18.29.64-.5,1.24-.82,1.45-1.45.15-.43.59-1,.19-1.33s-1,0-1.41.27a15.31,15.31,0,0,1-7.72,2.34c-.87,0-1.65.21-1.74,1s.63,1.35,1.4,1.58a20,20,0,0,0,6,.9,11,11,0,0,0,6.43-2.53C820.21,88.91,821,88,820.57,87.45Z"/>
			<path class="cloud-bird-2" d="M806.24,115.79c-1,.31-1.82-.19-2.74-.2-.42,0-1.24-.19-1.25-.7s.75-.34,1.16-.49c.73-.26,1.41-.79,1.33-1.52-.05-.46-.92-.44-1.47-.42a12.18,12.18,0,0,1-7.49-2.09,1.19,1.19,0,0,0-1.51.08c-.53.34-.37.91,0,1.39a18.69,18.69,0,0,0,4.31,4.4,9.41,9.41,0,0,0,5.57,1.69c.62.25,1.56-.17,2.5-.51a.84.84,0,0,0,.58-1.05A.75.75,0,0,0,806.24,115.79Z"/>
		</g>
	</g>
</svg>


