<svg xmlns="http://www.w3.org/2000/svg" viewBox="0 0 118.66 118.63"><defs><style>.cls-11-1{fill:#7f4f21;}</style></defs><title>資產 13</title><g id="圖層_2" data-name="圖層 2"><g id="圖層_1-2" data-name="圖層 1"><path class="cls-11-1" d="M87.88,57A24.2,24.2,0,0,0,69.76,48.9a3.48,3.48,0,1,0,0,7,17.29,17.29,0,0,1,12.95,5.8A3.48,3.48,0,0,0,87.88,57Z"/><path class="cls-11-1" d="M78.45,0A15.83,15.83,0,0,0,62.8,15.87a15.64,15.64,0,1,0,31.29,0A15.83,15.83,0,0,0,78.45,0Zm0,24.57a8.7,8.7,0,0,1-8.69-8.69,8.69,8.69,0,1,1,17.38,0A8.7,8.7,0,0,1,78.45,24.57Z"/><circle class="cls-11-1" cx="28.04" cy="66.28" r="3.48"/><path class="cls-11-1" d="M55.85,69.76a3.48,3.48,0,1,1,2.46-5.93,3.48,3.48,0,0,0,4.92-4.92,10.39,10.39,0,0,0-3.9-2.46V52.38a3.48,3.48,0,0,0-7,0v4.07a10.43,10.43,0,0,0,3.48,20.27,3.48,3.48,0,1,1-2.46,5.93,3.48,3.48,0,0,0-4.92,4.92A10.39,10.39,0,0,0,52.38,90v4.3a3.48,3.48,0,1,0,7,0V90a10.43,10.43,0,0,0-3.48-20.27Z"/><path class="cls-11-1" d="M115.18,48.88a3.48,3.48,0,0,0-3.48,3.48v2.78a7.79,7.79,0,0,1-5.29,7.2A38.29,38.29,0,0,0,69.76,35H48.9a38.27,38.27,0,0,0-9.71,1.22A24,24,0,0,0,21.09,28a3.48,3.48,0,0,0-3.48,3.48V51.22A38.57,38.57,0,0,0,12.1,62.8H3.48A3.46,3.46,0,0,0,0,66.26V87.12a3.48,3.48,0,0,0,3.47,3.48H14.83a39.49,39.49,0,0,0,9.74,12.34v12.22A3.48,3.48,0,0,0,28,118.63H41.95a3.48,3.48,0,0,0,3.48-3.48v-3.64c1.15.1,2.32.16,3.48.16H69.76c1.16,0,2.32-.06,3.48-.16v3.64a3.48,3.48,0,0,0,3.48,3.48H90.61a3.48,3.48,0,0,0,3.48-3.48c0-.06,0-6,0-12.25A38.64,38.64,0,0,0,107.79,69.2a14.72,14.72,0,0,0,10.87-14.06V52.35A3.48,3.48,0,0,0,115.18,48.88ZM88.57,98.47a3.48,3.48,0,0,0-1.38,2.75c0,3.86,0,7.79,0,10.49h-7V101.28a3.48,3.48,0,1,0-7,0v3.28a31.73,31.73,0,0,1-3.48.19H48.9a31.73,31.73,0,0,1-3.48-.19v-4a3.48,3.48,0,1,0-7,0V111.7h-7V101.28a3.48,3.48,0,0,0-1.39-2.78,32.27,32.27,0,0,1-9.91-12.75A3.48,3.48,0,0,0,17,83.67H7V69.73h7.88A3.46,3.46,0,0,0,18.24,67a30.91,30.91,0,0,1,5.63-12.51,3.48,3.48,0,0,0,.7-2.09v-17a17.35,17.35,0,0,1,10.56,6.93A3.48,3.48,0,0,0,39,43.53a31.25,31.25,0,0,1,9.86-1.59H69.76A31.32,31.32,0,0,1,101,73.23,31.71,31.71,0,0,1,88.57,98.47Z"/></g></g></svg>