<svg xmlns="http://www.w3.org/2000/svg" viewBox="0 0 121.69 111.11"><defs><style>.cls-12-1{fill:#7f4f21;}</style></defs><title>資產 14</title><g id="圖層_2" data-name="圖層 2"><g id="圖層_1-2" data-name="圖層 1"><path class="cls-12-1" d="M118.54,20.86,103.33,5.64a10.77,10.77,0,0,0-15.21,0L77.58,15.78A25.28,25.28,0,0,0,63.87,15a25.1,25.1,0,0,0-20.39-1.76L33.58,3.15a10.77,10.77,0,0,0-15.21,0L3.15,18.36a10.75,10.75,0,0,0,0,15.21L13.71,44.34a18,18,0,0,0,2.7,12.59l-.31.31a10.75,10.75,0,0,0,7,18.34A10.74,10.74,0,0,0,33.26,85.74,10.73,10.73,0,0,0,43.4,95.87,10.76,10.76,0,0,0,58.78,105l3,3a10.76,10.76,0,0,0,18.35-7A10.73,10.73,0,0,0,90.23,90.81a10.74,10.74,0,0,0,10.14-10.14,10.76,10.76,0,0,0,7-18.35l-2.79-2.79a17.8,17.8,0,0,0,3-9.89,18.18,18.18,0,0,0-.21-2.78l11.19-10.79A10.77,10.77,0,0,0,118.54,20.86ZM82,26.82,97.24,42a10.77,10.77,0,0,1,2.1,12.25L82,37a18,18,0,0,0-25.36,0L51.6,42A3.59,3.59,0,1,1,46.53,37L56.67,26.82A18,18,0,0,1,82,26.82ZM16.57,37.05,8.23,28.5a3.58,3.58,0,0,1,0-5.07L23.44,8.22a3.59,3.59,0,0,1,5.07,0l8.32,8.53a25,25,0,0,0-2.88,2.47L18.73,34.42A17.9,17.9,0,0,0,16.57,37.05Zm4.61,30.34a3.58,3.58,0,0,1,0-5.07l5.07-5.07a3.59,3.59,0,1,1,5.07,5.07l-5.07,5.07A3.59,3.59,0,0,1,21.17,67.39ZM31.32,77.53a3.59,3.59,0,0,1,0-5.07l5.07-5.07a3.59,3.59,0,0,1,5.07,5.07l-5.07,5.07A3.59,3.59,0,0,1,31.32,77.53ZM41.46,87.68a3.59,3.59,0,0,1,0-5.07l5.07-5.07A3.59,3.59,0,0,1,51.6,82.6l-5.07,5.07A3.59,3.59,0,0,1,41.46,87.68Zm20.29,5.07-5.07,5.07a3.59,3.59,0,1,1-5.07-5.07l5.07-5.07h0a3.59,3.59,0,0,1,5.07,5.07Zm10.14,10.14a3.58,3.58,0,0,1-5.07,0l-2.54-2.54,2.54-2.54a10.71,10.71,0,0,0,2.1-3l3,3A3.58,3.58,0,0,1,71.89,102.89Zm30.43-30.43a3.59,3.59,0,0,1-5.07,0L87.1,62.32A3.59,3.59,0,0,0,82,67.39L92.17,77.53A3.59,3.59,0,0,1,87.1,82.6L77,72.46a3.59,3.59,0,0,0-5.07,5.07L82,87.68A3.59,3.59,0,1,1,77,92.75L66.82,82.6a10.71,10.71,0,0,0-7-3.13A10.76,10.76,0,0,0,49.66,69.33,10.73,10.73,0,0,0,39.52,59.19,10.75,10.75,0,0,0,21.69,51.7,10.79,10.79,0,0,1,23.8,39.5L39,24.28a18,18,0,0,1,15.47-5,25.18,25.18,0,0,0-2.89,2.48L41.46,31.89A10.76,10.76,0,0,0,56.67,47.1L61.74,42A10.77,10.77,0,0,1,77,42l25.36,25.36A3.59,3.59,0,0,1,102.32,72.46ZM113.47,31l-9,8.59A18.1,18.1,0,0,0,102.32,37L87.1,21.75a25.19,25.19,0,0,0-2.87-2.47l9-8.56a3.59,3.59,0,0,1,5.07,0l15.21,15.21A3.58,3.58,0,0,1,113.47,31Z"/></g></g></svg>