<svg xmlns="http://www.w3.org/2000/svg" viewBox="0 0 120.47 112.94"><defs><style>.cls-13-1{fill:#7f4f21;}</style></defs><title>資產 15</title><g id="圖層_2" data-name="圖層 2"><g id="圖層_1-2" data-name="圖層 1"><path class="cls-13-1" d="M116.94,0H102.82a3.53,3.53,0,1,0,0,7.06h6.78L67.3,49.16,48.61,30.48a3.53,3.53,0,0,0-5,0L1,72.82a3.53,3.53,0,1,0,5,5L46.11,38,64.8,56.64a3.53,3.53,0,0,0,5,0l43.63-43.42v4.42a3.53,3.53,0,0,0,7.06,0V3.53A3.53,3.53,0,0,0,116.94,0Z"/><path class="cls-13-1" d="M107.39,29.26,67.3,69.13,48.61,50.44a3.53,3.53,0,0,0-5,0L1,92.79a3.53,3.53,0,0,0-1,2.5v14.12a3.53,3.53,0,0,0,3.53,3.53H109.88a3.53,3.53,0,0,0,3.53-3.53V31.76A3.53,3.53,0,0,0,107.39,29.26Zm-86,76.62H7.06V96.76L21.41,82.48Zm21.18,0H28.47V75.46l14.12-14Zm21.18,0H49.64V61.46L63.76,75.58Zm21.18,0H70.82V75.58l14.12-14Zm21.41,0H92V54.52l14.35-14.27Z"/></g></g></svg>