<svg xmlns="http://www.w3.org/2000/svg" viewBox="0 0 525.16 476.89"><defs><style>.cls-farm-1{fill:#fbddb0;}.cls-farm-2{fill:#e2695e;}.cls-farm-3{fill:#e3592f;}.cls-farm-4{fill:#f5ca84;}.cls-farm-5{fill:#f2b153;}.cls-farm-6{fill:#594a42;}.cls-farm-7{fill:#895d3c;}.cls-farm-8{fill:#c0986b;}.cls-farm-9{fill:#b68652;}.cls-farm-10{fill:#726659;}.cls-farm-11{fill:#fff;}.cls-farm-12{fill:#f1a58f;}.cls-farm-13{fill:#316c7f;}.cls-farm-14{fill:#3b7593;}.cls-farm-15{fill:#f1f2f1;}.cls-farm-16{fill:#f7cbbd;}</style></defs><title>資產 20</title><g id="圖層_2" data-name="圖層 2"><g id="圖層_1-2" data-name="圖層 1"><polygon class="cls-farm-1" points="502.13 172.68 469.22 196.72 444.67 203.14 448.64 188.79 447.38 176.4 440.21 174.19 437.25 189.05 424.6 203.14 420.89 221.46 329.76 277.21 292.57 260.79 256.63 284.39 331.27 312.33 437.25 257.89 478.85 246.5 516.23 244.74 516.23 236.31 484.57 232.59 525.16 222.72 521.45 209.81 481.8 219.25 523.4 201.63 516.73 190.43 474.63 206.86 508.55 182.82 502.13 172.68"/><polygon class="cls-farm-2" points="231.9 286.97 233.16 392.38 219.95 414.91 94.33 431.08 68.66 407.55 59.34 327.24 7.3 309.12 48.96 233.92 107.74 205.35 131.65 214.16 140.15 241.03 144.3 214.09 166.39 201.38 230.01 214.72 282.63 246.06 231.9 286.97"/><polygon class="cls-farm-3" points="109.82 190.87 161.92 187.47 166.39 201.38 138.89 211.76 107.74 205.35 109.82 190.87"/><polygon class="cls-farm-4" points="119.25 176.21 117.68 202.64 140.15 241.03 156.82 202.64 153.36 174.01 119.25 176.21"/><path class="cls-farm-1" d="M153.49,185.84H118.56a24.72,24.72,0,0,1-24.48-21.08L81.75,82.5H190.31L178,164.75A24.72,24.72,0,0,1,153.49,185.84Z"/><polygon class="cls-farm-5" points="136.06 105.54 128.38 142.85 148.83 141.6 136.06 105.54"/><circle class="cls-farm-6" cx="110" cy="117.05" r="3.96"/><circle class="cls-farm-6" cx="163.62" cy="115.16" r="3.96"/><path class="cls-farm-7" d="M98.74,104.28a2.35,2.35,0,0,1-1.83-.82A2.57,2.57,0,0,1,97,99.87a19.31,19.31,0,0,1,12.27-5.16,19.67,19.67,0,0,1,12.71,4,2.51,2.51,0,1,1-3.08,4,14.22,14.22,0,0,0-18.44.88A3,3,0,0,1,98.74,104.28Z"/><path class="cls-farm-7" d="M173.38,103.4a2.43,2.43,0,0,1-1.7-.69,14.22,14.22,0,0,0-18.44-.88,2.51,2.51,0,0,1-3.08-4,19.67,19.67,0,0,1,12.71-4A19.31,19.31,0,0,1,175.14,99a2.55,2.55,0,0,1-1.76,4.41Z"/><polygon class="cls-farm-8" points="11.64 107.61 245.12 82.5 235.68 69.85 34.3 78.66 11.64 107.61"/><polygon class="cls-farm-9" points="77.15 76.78 90.31 8.18 179.67 0 195.4 71.62 77.15 76.78"/><polygon class="cls-farm-10" points="79.17 51.41 190.31 38.39 194.58 59.34 77.15 68.59 79.17 51.41"/><path class="cls-farm-11" d="M119.7,157.39l38.39-2.45h0A19.13,19.13,0,0,1,141,167.84l-3.08.19a19.14,19.14,0,0,1-17.81-9.82Z"/><path class="cls-farm-4" d="M70.42,136.69h0a15.57,15.57,0,0,0,15.1,11.64h6.1L86.91,117l-2.58.19A15.7,15.7,0,0,0,70.42,136.69Z"/><polygon class="cls-farm-7" points="77.15 100.56 90.06 137.82 84.33 99.5 77.15 100.56"/><path class="cls-farm-4" d="M187.41,107.61h-.88l-5,33h5.85a16.56,16.56,0,0,0,16.17-13.15h0A16.47,16.47,0,0,0,187.41,107.61Z"/><polygon class="cls-farm-7" points="189.42 88.48 182.82 132.53 196.98 87.66 189.42 88.48"/><polygon class="cls-farm-12" points="109.82 190.87 131.65 214.16 119.19 238.51 107.74 205.35 109.82 190.87"/><polygon class="cls-farm-12" points="161.92 187.47 144.3 214.09 160.66 235.99 166.39 201.38 161.92 187.47"/><polygon class="cls-farm-7" points="115.17 142.85 159.66 140.65 169.35 154.18 106.04 158.27 115.17 142.85"/><polygon class="cls-farm-13" points="256.63 468.21 68.66 468.21 71.62 443.23 68.66 407.55 90.12 395.21 85.08 332.91 202.14 313.59 208.62 377.78 233.04 388.67 235.24 427.75 256.63 468.21"/><polygon class="cls-farm-14" points="63.88 220.89 91.63 347.38 110 341.72 90.06 207.55 63.88 220.89"/><polygon class="cls-farm-14" points="182.82 201.38 181.62 326.62 196.98 330.39 208.62 207.55 182.82 201.38"/><circle class="cls-farm-15" cx="98.36" cy="332.09" r="5.29"/><circle class="cls-farm-15" cx="189.8" cy="317.8" r="5.29"/><polygon class="cls-farm-16" points="231.9 286.97 284.32 243.54 307.42 258.33 247.64 297.67 231.9 286.97"/><polygon class="cls-farm-1" points="11.12 312.66 0 355.7 44.93 440.65 54.77 476.89 106.79 464.43 83.07 426.99 48.96 343.98 50.8 313 11.12 312.66"/><polygon class="cls-farm-16" points="59.34 327.24 57.9 307.42 12.9 292.32 0 312.52 59.34 327.24"/></g></g></svg>