<svg xmlns="http://www.w3.org/2000/svg" viewBox="0 0 1919.05 510.92">
	<defs>
		<style>.cls-2{fill:#e8f5fc;}</style>
	</defs>
	<title>資產 1</title>
	<g id="bc_cloud_2" data-name="bc_cloud_2">
		<path class="cls-2" d="M1873.13,20.44a97.45,97.45,0,0,0-35,65.52,1.47,1.47,0,0,1-1.53,1.34c-19.16-1-37.17,13.46-41,32.18a1.47,1.47,0,0,1-2.38.81c-9.8-7.8-26.71-4.69-32.85,6.31a1.5,1.5,0,0,1-2.24.4c-24.19-19.22-58.35-25.21-87.58-15.2-29,9.91-52.11,35.17-59.66,64.76a1.48,1.48,0,0,1-2.52.63c-21.63-23.21-64-24.84-86.7-2.61a1.46,1.46,0,0,1-2.15-.13c-13.35-16.4-40.38-19.67-57.26-6.77a1.47,1.47,0,0,1-2-.25,103.14,103.14,0,0,0-141.36-16.22,1.49,1.49,0,0,1-1.8,0c-16.67-12.44-45.35-5.76-56.49,11.89a1.48,1.48,0,0,1-2.11.41c-17.6-12.25-42.77-12.59-60.76-.83a1.49,1.49,0,0,1-2.15-.63c-16.45-33.8-58.2-53.2-94.65-43.84a1.47,1.47,0,0,1-1.8-1c-2.57-9.25-10.46-18.27-19.53-21.07a28.8,28.8,0,0,0-25.83,4.67,1.48,1.48,0,0,1-2.36-.94c-3.55-20.74-22.78-37.45-43.53-39.64a1.5,1.5,0,0,1-1.35-1.5v0a45.84,45.84,0,0,0-45.84-45.84c-.17,0-2.54.07-2.88.09a45.84,45.84,0,0,0-43,45.75c0,.32,0,.64,0,1-22.16.41-43.58,17.88-47.34,39.88a1.48,1.48,0,0,1-2.36.94,28.8,28.8,0,0,0-25.83-4.67c-9.07,2.8-17,11.82-19.53,21.07a1.47,1.47,0,0,1-1.8,1c-36.46-9.36-78.21,10-94.65,43.84a1.49,1.49,0,0,1-2.15.63c-18-11.75-43.16-11.41-60.76.83a1.48,1.48,0,0,1-2.11-.41c-11.15-17.66-39.82-24.34-56.49-11.89a1.49,1.49,0,0,1-1.8,0,103.14,103.14,0,0,0-141.36,16.22,1.47,1.47,0,0,1-2,.25c-16.88-12.9-43.91-9.63-57.26,6.77a1.46,1.46,0,0,1-2.15.13c-22.69-22.23-65.07-20.6-86.7,2.61a1.48,1.48,0,0,1-2.52-.63c-7.55-29.6-30.67-54.86-59.66-64.76-29.22-10-63.38-4-87.58,15.2a1.5,1.5,0,0,1-2.24-.4c-6.14-11-23-14.1-32.85-6.31a1.47,1.47,0,0,1-2.38-.81c-3.83-18.72-21.84-33.21-41-32.18a1.47,1.47,0,0,1-1.53-1.34,97.45,97.45,0,0,0-35-65.52A96.08,96.08,0,0,0,1.72,0,1.48,1.48,0,0,0,0,1.49V509.1a1.48,1.48,0,0,0,1.48,1.48h958v.34h958.07a1.48,1.48,0,0,0,1.48-1.48V1.83a1.48,1.48,0,0,0-1.72-1.46A96.08,96.08,0,0,0,1873.13,20.44Z"/>
	</g>
</svg>