<svg xmlns="http://www.w3.org/2000/svg" viewBox="0 0 87.28 76.81"><defs><style>.cls-1{fill:#fff;}</style></defs><title>bird_2</title><g id="圖層_2" data-name="圖層 2"><g id="圖層_1-2" data-name="圖層 1"><path class="cls-1" d="M62.35,53.52c.53-.66,1.06-1.31,1.62-1.95a23.1,23.1,0,0,0,5-9.73,21.38,21.38,0,0,0,.7-8.42c-.48-3.3-1.09-6.57-2.84-9.43A17.41,17.41,0,0,0,64,20.26,1.46,1.46,0,0,1,63.38,19a13.73,13.73,0,0,1,3.08-6.94,25.3,25.3,0,0,1,6.45-5.65c.61-.38.67-.72.06-1.17a29.93,29.93,0,0,0-8-4A25.68,25.68,0,0,0,50.31.88,82.41,82.41,0,0,0,41.47,3.6a16.94,16.94,0,0,0-7.19,5.06,1.75,1.75,0,0,1-1.89.7,19,19,0,0,0-3.56-.76,21,21,0,0,0-7.76-.19c-3.4.63-6.81,1.4-9.71,3.48A14.56,14.56,0,0,0,8,14.56a33.56,33.56,0,0,0-4.17,6.37c-.66,1.49-1.4,3-2.07,4.5C1,27.11.76,28.94.13,30.65c-.17.47-.35,1.34.66,1a19.45,19.45,0,0,1,3.06-.29c.68.25,1.49-.15,2.19.13,1.74.68,3.64.58,5.38,1.41a24.89,24.89,0,0,1,5.29,3.15,2.07,2.07,0,0,1,.89,2.09,26.93,26.93,0,0,0-1.22,5.62,27.22,27.22,0,0,0,1.24,12,74.36,74.36,0,0,0,3.71,8.88,25.63,25.63,0,0,0,6.25,7.51c2.25,2,5.11,3,7.68,4.5a1,1,0,0,0,1.57-1.08,4.6,4.6,0,0,1-.13-1.06c.52-4.12.86-8.28,2.84-12,.62-1.18,1.36-2.65,2.89-2.52a46.37,46.37,0,0,0,4.77-.11,26.41,26.41,0,0,0,7-1A16,16,0,0,0,62.35,53.52ZM18.71,23.4a2.49,2.49,0,0,1-2.55-2.45c0-1.27,1-2.67,2-2.68s3.14,1.74,3.14,2.58A3.12,3.12,0,0,1,18.71,23.4ZM55.44,51.83c-1.14.61-2.24,1.36-3.65,1.07a1.18,1.18,0,0,0-.57.14c-.35.13-.76.59-1,0s.38-.64.68-.8a14.85,14.85,0,0,0,4.29-3.2,20,20,0,0,0,4-6c.59-1.5,1.73-2.7,2-4.41a35.71,35.71,0,0,0,.9-6.32c0-.6-.09-1.21-.14-1.81,0-.3,0-.62.31-.7s.57.22.64.45c.35,1.18.67,2.36.92,3.56.08.38.08.75.2,1.15a4.81,4.81,0,0,1,.1,2.91c-.47,1.55-.22,3.27-1,4.8a26.76,26.76,0,0,1-2.91,5A16.56,16.56,0,0,1,55.44,51.83Z"/><path class="cls-1" d="M87.17,37.17c-.48-.71-1.16.21-1.74.46-.22.09-.41.28-.63.35-1,.31-1.92,1-3.18.29.64-.5,1.24-.82,1.45-1.45.15-.43.59-1,.19-1.33s-1,0-1.41.27a15.31,15.31,0,0,1-7.72,2.34c-.87,0-1.65.21-1.74,1s.63,1.35,1.4,1.58a20,20,0,0,0,6,.9,11,11,0,0,0,6.43-2.53C86.81,38.64,87.57,37.77,87.17,37.17Z"/><path class="cls-1" d="M72.84,65.52c-1,.31-1.82-.19-2.74-.2-.42,0-1.24-.19-1.25-.7s.75-.34,1.16-.49c.73-.26,1.41-.79,1.33-1.52-.05-.46-.92-.44-1.47-.42a12.18,12.18,0,0,1-7.49-2.09,1.19,1.19,0,0,0-1.51.08c-.53.34-.37.91,0,1.39A18.69,18.69,0,0,0,65.13,66a9.41,9.41,0,0,0,5.57,1.69c.62.25,1.56-.17,2.5-.51a.84.84,0,0,0,.58-1.05A.75.75,0,0,0,72.84,65.52Z"/></g></g></svg>