<svg xmlns="http://www.w3.org/2000/svg" viewBox="0 0 97.66 85.95"><defs><style>.cls-1{fill:#fff;}</style></defs><title>bird_1</title><g id="圖層_2" data-name="圖層 2"><g id="圖層_1-2" data-name="圖層 1"><path class="cls-1" d="M69.77,59.88c.59-.74,1.19-1.47,1.82-2.18a25.85,25.85,0,0,0,5.54-10.89,23.92,23.92,0,0,0,.78-9.42c-.53-3.7-1.22-7.36-3.17-10.56a19.48,19.48,0,0,0-3.08-4.17,1.63,1.63,0,0,1-.73-1.37,15.37,15.37,0,0,1,3.45-7.76A28.31,28.31,0,0,1,81.6,7.21c.69-.42.75-.8.06-1.31a33.49,33.49,0,0,0-9-4.48A28.74,28.74,0,0,0,56.29,1,92.21,92.21,0,0,0,46.4,4a19,19,0,0,0-8,5.66,2,2,0,0,1-2.12.79,21.27,21.27,0,0,0-4-.84,23.5,23.5,0,0,0-8.68-.21c-3.8.71-7.62,1.57-10.86,3.9-1.31.94-2.84,1.74-3.77,3a37.55,37.55,0,0,0-4.67,7.12c-.74,1.66-1.57,3.33-2.31,5C1.13,30.34.85,32.38.15,34.3c-.19.53-.39,1.5.74,1.13s2.24-.13,3.43-.32c.76.28,1.67-.16,2.45.14,1.94.76,4.08.65,6,1.58a27.85,27.85,0,0,1,5.92,3.53,2.32,2.32,0,0,1,1,2.34A30.13,30.13,0,0,0,18.33,49a30.46,30.46,0,0,0,1.39,13.4,83.2,83.2,0,0,0,4.16,9.94,28.68,28.68,0,0,0,7,8.41c2.52,2.21,5.72,3.37,8.59,5a1.16,1.16,0,0,0,1.76-1.21,5.15,5.15,0,0,1-.14-1.19c.58-4.61,1-9.26,3.18-13.46.69-1.32,1.52-3,3.23-2.82A51.88,51.88,0,0,0,52.83,67a29.56,29.56,0,0,0,7.82-1.12A18,18,0,0,0,69.77,59.88ZM20.94,26.18a2.78,2.78,0,0,1-2.85-2.74c0-1.42,1.17-3,2.19-3s3.51,2,3.51,2.88A3.49,3.49,0,0,1,20.94,26.18ZM62,58c-1.28.68-2.5,1.52-4.09,1.2a1.32,1.32,0,0,0-.63.16c-.39.15-.85.65-1.14,0s.42-.72.77-.9a16.62,16.62,0,0,0,4.8-3.58,22.41,22.41,0,0,0,4.48-6.74c.66-1.68,1.94-3,2.24-4.94.38-2.35,1.06-4.65,1-7.07-.05-.67-.1-1.35-.16-2,0-.33,0-.69.35-.79s.64.25.72.51c.39,1.32.75,2.64,1,4,.09.42.09.84.22,1.28a5.38,5.38,0,0,1,.12,3.26c-.53,1.74-.25,3.66-1.16,5.37a29.94,29.94,0,0,1-3.26,5.6A18.53,18.53,0,0,1,62,58Z"/><path class="cls-1" d="M97.54,41.6c-.53-.8-1.3.23-1.95.51-.25.11-.46.31-.71.39-1.1.34-2.15,1.16-3.56.33.72-.56,1.38-.91,1.63-1.62.17-.49.66-1.08.21-1.49s-1.11,0-1.58.3a17.13,17.13,0,0,1-8.64,2.62c-1,0-1.85.24-2,1.14s.7,1.51,1.56,1.76a22.39,22.39,0,0,0,6.75,1A12.27,12.27,0,0,0,96.5,43.7C97.14,43.23,98,42.26,97.54,41.6Z"/><path class="cls-1" d="M81.51,73.31c-1.06.35-2-.21-3.07-.23-.47,0-1.39-.21-1.4-.78s.84-.38,1.3-.55c.82-.29,1.58-.88,1.49-1.7-.06-.52-1-.49-1.65-.47a13.62,13.62,0,0,1-8.39-2.34,1.33,1.33,0,0,0-1.69.09c-.59.38-.42,1,0,1.55a20.91,20.91,0,0,0,4.82,4.92,10.53,10.53,0,0,0,6.23,1.89c.69.28,1.75-.19,2.8-.57a.94.94,0,0,0,.65-1.18A.84.84,0,0,0,81.51,73.31Z"/></g></g></svg>