<svg xmlns="http://www.w3.org/2000/svg" viewBox="0 0 1737.59 114.77"><defs><style>.cls-1{fill:#fff;}</style></defs><title>cloud_title</title><g id="圖層_2" data-name="圖層 2"><g id="圖層_1-2" data-name="圖層 1"><path class="cls-1" d="M0,24.81c4.06-9,12.44-11.61,21-12.87C38,9.41,55.2,6.93,72.42,5.84,82.7,5.18,92.9,3.48,103.42,4c11,.57,22.29-.19,33.3,1,13.42,1.41,26.85.25,40.27,1.56,11.1,1.08,22.36-.71,33.49-2C221.92,3.2,233.37,2.08,244.8.76a130.88,130.88,0,0,1,40.71,2.07c7.35,1.46,14.34,3.71,19.63,9.58,3.63,4,3.27,7.1-1.25,10.53-5.21,4-11.43,5.52-17.29,8-13,5.54-26.74,8.68-40.12,13-8.13,2.59-16.59,4.12-24.88,6.22C213,52.29,204.48,55,195.76,56.67c-10.39,1.95-20.89,3.57-31.56,3.17-1.44-.05-3-.39-4.2,1H141c-5.22-.93-10.52-.84-15.78-1.14-12.45-.71-24.64-3.5-37-4.78C78,53.84,67.79,52.81,57.4,53.62c-9.4.73-19.19,1.14-28.29-.91C17.49,50.08,6.12,45.59,0,33.81Z"/><path class="cls-1" d="M1457.29,87.94c-7.77,1.68-13.87-2.42-19.77-8.32-7.25-7.25-16.39-9.82-26.76-8.93a156.12,156.12,0,0,1-22.46.09c-3.05-.18-7-.74-8-4.78-.61-2.39,4.54-6.75,7.75-8.09,10.28-4.31,21.48-3.2,32-5.86,11.45-2.9,23.14-4.34,34.69-6.5,11.81-2.21,23.79-2.57,35.6-4.86,7.66-1.49,16-1.07,24-1.78,11.62-1,23.3-.57,34.85-.44,15.42.17,30.92-.51,46.36,1.36,11.16,1.35,22.5,1.22,33.71,2.29,10.79,1,21.58,2.2,32.27,4.25,6.62,1.27,13.39,1.79,20.1,2.62,11.29,1.39,22.73,3.39,31.8,10.34,5,3.82,10.11,5.09,15.6,6.64,4.59,1.3,8,4.19,8.51,9.11.62,5.5-3.55,7.26-7.76,8.79-10,3.62-19.78,7.83-30,10.76-11.86,3.41-24,5.75-36.07,8.5-19.31,4.4-38.68,8.27-58.48,10a404.27,404.27,0,0,1-50.39,1.38,278.94,278.94,0,0,1-40.24-4.26c-4.06-.74-8.24-.89-12.37-1.24a20.74,20.74,0,0,1-8.56-2.25,12,12,0,0,0-7.17-1.73c-4.64.52-8.39-1.82-12.06-3.93-3.32-1.91-4.31-5-1.94-8.45,1.72-2.53.84-3.14-1.91-3.79C1466.47,87.88,1462.35,88.17,1457.29,87.94Z"/></g></g></svg>