<svg xmlns="http://www.w3.org/2000/svg" viewBox="0 0 1921.59 902.55"><defs><style>.cls-1{fill:#97d0e5;}.cls-2{fill:#e8f5fc;}.cls-3{fill:#e1f2fa;}.cls-4{fill:#678657;}.cls-5{fill:#97c167;}.cls-6{fill:#87ba4b;}.cls-7{fill:#82b145;}.cls-8{fill:#c0986b;}.cls-9{fill:#4c7738;}.cls-10{fill:#709e42;}.cls-11{fill:#77ac45;}.cls-12{fill:#fbddb0;}.cls-13{fill:#e2695e;}.cls-14{fill:#e3592f;}.cls-15{fill:#f5ca84;}.cls-16{fill:#f2b153;}.cls-17{fill:#594a42;}.cls-18{fill:#895d3c;}.cls-19{fill:#b68652;}.cls-20{fill:#726659;}.cls-21{fill:#fff;}.cls-22{fill:#f1a58f;}.cls-23{fill:#316c7f;}.cls-24{fill:#3b7593;}.cls-25{fill:#f1f2f1;}.cls-26{fill:#f7cbbd;}</style></defs><title>div_1</title><g id="圖層_2" data-name="圖層 2"><g id="圖層_1-2" data-name="圖層 1"><rect class="cls-1" x="1.59" width="1920" height="900"/><path class="cls-2" d="M1874.72,410.29a97.45,97.45,0,0,0-35,65.52,1.47,1.47,0,0,1-1.53,1.34c-19.16-1-37.17,13.46-41,32.18a1.47,1.47,0,0,1-2.38.81c-9.8-7.8-26.71-4.69-32.85,6.31a1.5,1.5,0,0,1-2.24.4c-24.19-19.22-58.35-25.21-87.58-15.2-29,9.91-52.11,35.17-59.66,64.76a1.48,1.48,0,0,1-2.52.63c-21.63-23.21-64-24.84-86.7-2.61a1.46,1.46,0,0,1-2.15-.13c-13.35-16.4-40.38-19.67-57.26-6.77a1.47,1.47,0,0,1-2-.25,103.14,103.14,0,0,0-141.36-16.22,1.49,1.49,0,0,1-1.8,0c-16.67-12.44-45.35-5.76-56.49,11.89a1.48,1.48,0,0,1-2.11.41c-17.6-12.25-42.77-12.59-60.76-.83a1.49,1.49,0,0,1-2.15-.63c-16.45-33.8-58.2-53.2-94.65-43.84a1.47,1.47,0,0,1-1.8-1c-2.57-9.25-10.46-18.27-19.53-21.07a28.8,28.8,0,0,0-25.83,4.67,1.48,1.48,0,0,1-2.36-.94c-3.55-20.74-22.78-37.45-43.53-39.64a1.5,1.5,0,0,1-1.35-1.5v0a45.84,45.84,0,0,0-45.84-45.84c-.17,0-2.54.07-2.88.09a45.84,45.84,0,0,0-43,45.75c0,.32,0,.64,0,1-22.16.41-43.58,17.88-47.34,39.88a1.48,1.48,0,0,1-2.36.94A28.8,28.8,0,0,0,841,485.62c-9.07,2.8-17,11.82-19.53,21.07a1.47,1.47,0,0,1-1.8,1c-36.46-9.36-78.21,10-94.65,43.84a1.49,1.49,0,0,1-2.15.63c-18-11.75-43.16-11.41-60.76.83a1.48,1.48,0,0,1-2.11-.41c-11.15-17.66-39.82-24.34-56.49-11.89a1.49,1.49,0,0,1-1.8,0,103.14,103.14,0,0,0-141.36,16.22,1.47,1.47,0,0,1-2,.25c-16.88-12.9-43.91-9.63-57.26,6.77a1.46,1.46,0,0,1-2.15.13c-22.69-22.23-65.07-20.6-86.7,2.61a1.48,1.48,0,0,1-2.52-.63c-7.55-29.6-30.67-54.86-59.66-64.76-29.22-10-63.38-4-87.58,15.2a1.5,1.5,0,0,1-2.24-.4c-6.14-11-23-14.1-32.85-6.31A1.47,1.47,0,0,1,125,509c-3.83-18.72-21.84-33.21-41-32.18a1.47,1.47,0,0,1-1.53-1.34,97.45,97.45,0,0,0-35-65.52,96.08,96.08,0,0,0-44.2-20.07,1.48,1.48,0,0,0-1.72,1.46V899a1.48,1.48,0,0,0,1.48,1.48h958v.34h958.07a1.48,1.48,0,0,0,1.48-1.48V391.68a1.48,1.48,0,0,0-1.72-1.46A96.08,96.08,0,0,0,1874.72,410.29Z"/><path class="cls-3" d="M391.79,471.72h168a14.25,14.25,0,0,0-8.57-8.64,13.28,13.28,0,0,0-11.65,1.64,5.78,5.78,0,0,0-2.88-5.83,5.71,5.71,0,0,0-6.44.75A32.21,32.21,0,0,0,470.68,450c-3.77-5.55-11.72-8.22-18.16-6.65a16.88,16.88,0,0,0-12.41,14.12,15.35,15.35,0,0,0-15.22-5.69,15.53,15.53,0,0,0-11.51,11.45C405.29,460.35,396.24,464.39,391.79,471.72Z"/><path class="cls-3" d="M1702.47,459.72A15.53,15.53,0,0,0,1691,448.27a15.35,15.35,0,0,0-15.22,5.69,16.88,16.88,0,0,0-12.41-14.12c-6.44-1.58-14.39,1.1-18.16,6.65a32.21,32.21,0,0,0-59.56,9.66,5.71,5.71,0,0,0-6.44-.75,5.78,5.78,0,0,0-2.88,5.83,13.28,13.28,0,0,0-11.65-1.64,14.25,14.25,0,0,0-8.57,8.64h168C1719.61,460.88,1710.56,456.84,1702.47,459.72Z"/><path class="cls-3" d="M397.48,335.85h-168a14.25,14.25,0,0,1,8.57-8.64,13.28,13.28,0,0,1,11.65,1.64,5.78,5.78,0,0,1,2.88-5.83,5.71,5.71,0,0,1,6.44.75,32.21,32.21,0,0,1,59.56-9.66c3.77-5.55,11.72-8.22,18.16-6.65a16.88,16.88,0,0,1,12.41,14.12,15,15,0,0,1,26.73,5.76C384,324.54,393,328.59,397.48,335.85Z"/><path class="cls-3" d="M1138.72,392H976.83c11.93-8.5,26.18-13.43,40.3-9.6a23.45,23.45,0,0,1,38.38,2.19c3.84-9.66,16.11-14.05,25.84-10.49,6-8,14.32-14.39,24-16.86s20.63-.55,28,6.17S1143.38,383.23,1138.72,392Z"/><path class="cls-3" d="M1894,334.78H1732.15c11.93-8.5,26.18-13.43,40.3-9.6a23.45,23.45,0,0,1,38.38,2.19c3.84-9.66,16.11-14.05,25.84-10.49,6-8,14.32-14.39,24-16.86s20.63-.55,28,6.17S1898.7,326,1894,334.78Z"/><path class="cls-3" d="M630.24,388.36H475.82c6.24-6.24,17.89-8.91,25.84-4.93a22.32,22.32,0,0,1,38-12.61c4.18-4.39,12.82-2.6,14.94,3a29.94,29.94,0,0,1,55.52,8C616.8,378.55,626.33,382,630.24,388.36Z"/><path class="cls-3" d="M45.39,382.49H254.23c-15.42-11-33.79-17.34-52-12.34A30.27,30.27,0,0,0,152.66,373c-4.93-12.41-20.77-18.09-33.31-13.57-7.81-10.21-18.51-18.57-30.91-21.8s-26.59-.69-36.12,8S39.36,371.18,45.39,382.49Z"/><path class="cls-3" d="M1450.18,438.75a29.94,29.94,0,0,1,55.52-8c2.12-5.62,10.76-7.4,14.94-3a22.32,22.32,0,0,1,38,12.61c8-4,19.6-1.3,25.84,4.93H1430C1433.94,439,1443.46,435.53,1450.18,438.75Z"/><path class="cls-4" d="M1902.31,636.58c-5.77,1.33-10.25,6.1-12.82,11.36a48.7,48.7,0,0,0-3.81,12.94,2.41,2.41,0,0,1-3.74,1.54,15.87,15.87,0,0,0-11.65-2.34,16.14,16.14,0,0,0-10.16,7,2.41,2.41,0,0,1-3.63.53,10.07,10.07,0,0,0-14.3.58,2.41,2.41,0,0,1-4-.67c-3.66-8.61-12.46-15.05-21.93-15.35-10.08-.31-19.88,6.54-23.53,15.91a2.41,2.41,0,0,1-3.56,1.19c-6.41-4.11-16.3-2.91-22.06,2.29a2.41,2.41,0,0,1-3.74-.6,18.61,18.61,0,0,0-33.28.87,2.38,2.38,0,0,1-3.54.84c-11.84-8.76-29.91-8-41,1.63a2.41,2.41,0,0,1-3.45-.23c-7.45-8.86-23.35-8.78-31.07-.34a2.38,2.38,0,0,1-3.87-.58,16.79,16.79,0,0,0-25.36-6,2.37,2.37,0,0,1-3.66-1,6.6,6.6,0,0,0-9-3.89,2.37,2.37,0,0,1-3.21-2c-.84-8.53-7.07-16.54-15.37-19-7.89-2.3-16.88.66-22.29,6.75a2.39,2.39,0,0,1-4-.58,9.93,9.93,0,0,0-4.72-5,9.79,9.79,0,0,0-5.57-.85,2.39,2.39,0,0,1-2.6-3.15c2.74-8.23.16-18.32-6.93-23.51s-17.42-4.55-24.42.48a2.39,2.39,0,0,1-3.73-1.62,10.94,10.94,0,0,0-5.3-8.07,11.11,11.11,0,0,0-10.08,0,2.41,2.41,0,0,1-3.51-2.14c.05-10.47-8.34-21.08-19-21.94-11.93-1-23,10.64-22.41,22.42a2.41,2.41,0,0,1-3,2.52,1,1,0,0,1-.56-.3c-6-9.09-18.49-13.28-28.72-9.51-8.93,3.23-15.34,12.2-16,21.58a2.38,2.38,0,0,1-3.29,2,11,11,0,0,0-8.59.2,11.17,11.17,0,0,0-5.79,6.7,2.41,2.41,0,0,1-3.48,1.38,15.35,15.35,0,0,0-17.55,2.35,2.41,2.41,0,0,1-3.65-.27c-2.09-2.82-6.25-5-9.25-4.82a7.84,7.84,0,0,0-6.24,4.75,2.44,2.44,0,0,1-3.41,1.18c-4-2.1-10.07-.62-12.55,3.14a2.4,2.4,0,0,1-3.61.42c-4.8-4.23-13.2-4.28-18-.07a2.4,2.4,0,0,1-3.78-.82,23.16,23.16,0,0,0-17.81-13.22,22.91,22.91,0,0,0-17.81,5.88,2.39,2.39,0,0,1-4-1.65,23.72,23.72,0,0,0-31.18-21.47,2.4,2.4,0,0,1-3-3.06c2.38-6.44,1.46-14.2-3-19.44-6.32-7.51-18.79-8.76-26.51-2.71-5.89,4.62-8.33,12.93-6.62,20.12a2.4,2.4,0,0,1-3,2.86A14.2,14.2,0,0,0,1177,617.3a2.41,2.41,0,0,1-3.23,2.49,14.46,14.46,0,0,0-18.89,9.57,2.38,2.38,0,0,1-3.72,1.16,19,19,0,0,0-18.13-2.4,2.38,2.38,0,0,1-3.28-1.55,16.4,16.4,0,0,0-25.34-9.66,2.4,2.4,0,0,1-3.71-1.94,18.46,18.46,0,0,0-28.94-14.85,2.41,2.41,0,0,1-3.71-2.17c.55-12.48-8.7-25.39-21.26-27.42-13.39-2.16-27.08,8.57-29.36,21.72a2.4,2.4,0,0,1-3.61,1.72c-5-3.2-12.4-2.71-16.66,1.44a2.36,2.36,0,0,1-3.27,0c-11.68-11.19-54.77-12.46-66.94-.81a2.36,2.36,0,0,1-3.28-.05c-4.21-4.19-11.62-4.77-16.62-1.64a2.4,2.4,0,0,1-3.59-1.77C901.39,578,887.84,567,874.42,569c-12.58,1.86-22,14.65-21.62,27.13a2.41,2.41,0,0,1-3.74,2.12,18.46,18.46,0,0,0-29.14,14.46,2.4,2.4,0,0,1-3.73,1.89A16.4,16.4,0,0,0,790.72,624a2.38,2.38,0,0,1-3.3,1.51,19,19,0,0,0-18.16,2.16,2.38,2.38,0,0,1-3.7-1.21,14.46,14.46,0,0,0-18.76-9.82,2.41,2.41,0,0,1-3.19-2.53,14.2,14.2,0,0,0-18.35-15.64,2.4,2.4,0,0,1-3-2.9c1.8-7.17-.52-15.52-6.35-20.21-7.64-6.15-20.12-5.07-26.54,2.36-4.57,5.18-5.59,12.93-3.3,19.4a2.4,2.4,0,0,1-3.07,3,23.72,23.72,0,0,0-31.46,21,2.39,2.39,0,0,1-4,1.6,22.91,22.91,0,0,0-17.73-6.12,23.16,23.16,0,0,0-18,13,2.4,2.4,0,0,1-3.79.77c-4.77-4.27-13.17-4.33-18-.17a2.4,2.4,0,0,1-3.6-.47c-2.43-3.8-8.5-5.36-12.51-3.31a2.44,2.44,0,0,1-3.4-1.22,7.84,7.84,0,0,0-6.18-4.84c-3-.27-7.19,1.9-9.32,4.69a2.41,2.41,0,0,1-3.66.22,15.35,15.35,0,0,0-17.51-2.59,2.41,2.41,0,0,1-3.46-1.43,11.17,11.17,0,0,0-5.7-6.78,11,11,0,0,0-8.59-.31,2.38,2.38,0,0,1-3.26-2.06c-.51-9.39-6.8-18.45-15.68-21.8-10.19-3.91-22.76.12-28.85,9.13a1,1,0,0,1-.57.3,2.41,2.41,0,0,1-2.92-2.56c.71-11.77-10.17-23.52-22.11-22.72-10.69.72-19.22,11.22-19.31,21.68a2.41,2.41,0,0,1-3.54,2.09,11.11,11.11,0,0,0-10.07-.14,10.94,10.94,0,0,0-5.41,8,2.39,2.39,0,0,1-3.75,1.57c-6.93-5.12-17.29-5.87-24.42-.81S366.36,622,369,630.22a2.39,2.39,0,0,1-2.65,3.12,9.79,9.79,0,0,0-5.58.78,9.93,9.93,0,0,0-4.79,4.94,2.39,2.39,0,0,1-4,.53c-5.32-6.16-14.27-9.25-22.19-7.05-8.34,2.31-14.67,10.24-15.62,18.76a2.37,2.37,0,0,1-3.24,2,6.6,6.6,0,0,0-9.05,3.77,2.37,2.37,0,0,1-3.67.9,16.79,16.79,0,0,0-25.44,5.65,2.38,2.38,0,0,1-3.88.52c-7.61-8.54-23.51-8.83-31.07-.07a2.41,2.41,0,0,1-3.45.18c-11-9.82-29-10.78-41-2.18a2.38,2.38,0,0,1-3.53-.89,18.61,18.61,0,0,0-33.26-1.31,2.41,2.41,0,0,1-3.75.55c-5.69-5.28-15.56-6.61-22-2.58a2.41,2.41,0,0,1-3.54-1.23c-3.52-9.42-13.23-16.4-23.31-16.23-9.47.17-18.36,6.49-22.13,15.05a2.41,2.41,0,0,1-4,.61,10.07,10.07,0,0,0-14.3-.77,2.41,2.41,0,0,1-3.63-.58,16.14,16.14,0,0,0-10.06-7.13,15.87,15.87,0,0,0-11.68,2.18,2.41,2.41,0,0,1-3.72-1.59,48.7,48.7,0,0,0-3.64-13c-2.5-5.29-6.92-10.12-12.67-11.53-5.59-1.37-14.9.09-17.26,5.26a2.26,2.26,0,0,0-.19.93L0,730.11a2.4,2.4,0,0,0,1.25,2.12L159.45,819a2.4,2.4,0,0,0,1.43.28L947.7,728.75h.21l17.6-.47h.23l768.73,53.07a2.4,2.4,0,0,0,.75-.07l185.18-46.89-.68-91.5a2.36,2.36,0,0,0-.16-.68C1917.35,636.89,1908,635.27,1902.31,636.58Z"/><path class="cls-5" d="M494.75,788.3c8.91,1.37,17.13,2.74,26,2.06,2.06,0,3.43,2.06,5.48,2.74,36.33,1.17,72,2.12,107.81.07-4.52-3.5-9.18-6.92-13.91-10.35-26.66-19.6-54.21-34.13-83-46-10.83-.82-21.73-2.19-32.83-4-170-28.79-340-60.31-503.76-42.49v82.93c10.76-1,21.59-1.64,32.21-3.43C189.75,745.12,338.48,762.94,494.75,788.3Z"/><path class="cls-6" d="M526.28,793.1c-2.06-.69-3.43-2.74-5.48-2.74-8.91.69-17.13-.69-26-2.06-156.27-25.36-305-43.18-462-18.51-10.62,1.78-21.45,2.47-32.21,3.43v114c2.54-.89,5-1.85,7.54-3,24-11.65,48.66-17.82,75.39-23.3,82.25-17.13,159-24,239.89-30.16,104.18-7.54,207.67-4.11,312.54,4.8,17.07,1.51,34.13,2.95,51.06,4.25a530.24,530.24,0,0,0-53-46.68C598.25,795.22,562.61,794.26,526.28,793.1Z"/><path class="cls-7" d="M323.41,830.79C242.53,837,165.77,843.82,83.52,861c-26.73,5.48-51.4,11.65-75.39,23.3a69.12,69.12,0,0,1-7.54,3v14.8H740.81A129.29,129.29,0,0,0,725,880.83c-12.54-14.46-25-28-38-41-17-1.23-34-2.74-51.06-4.25C531.08,826.68,427.58,823.25,323.41,830.79Z"/><path class="cls-8" d="M793.58,811.6c-13-10.28-24-19.88-37-27.42-37.7-21.38-75.46-40-115.08-52.43-33.65,5.48-68.26,8-104.32,5.07,28.79,11.79,56.34,26.32,83,46,41.12,29.47,72.65,61,104.86,98a125.49,125.49,0,0,1,15.76,21.25H885.15c-1.92-2.33-3.84-4.59-5.89-6.85C851.84,865.06,826.48,837,793.58,811.6Z"/><path class="cls-5" d="M1886.68,770.14c10.62,1.78,21.45,2.4,32.21,3.43V690.63c-163.81-17.82-333.78,13.71-503.76,42.49-11.1,1.85-22,3.22-32.83,4-28.79,11.86-56.34,26.39-83,46-4.73,3.43-9.39,6.85-13.91,10.35,35.85,2.06,71.49,1.1,107.81-.07,2.06-.69,3.43-2.74,5.48-2.74,8.91.69,17.13-.69,26-2.06C1581,763.28,1729.73,745.46,1886.68,770.14Z"/><path class="cls-6" d="M1285.46,793.51a530.24,530.24,0,0,0-53,46.68c16.93-1.3,34-2.74,51.06-4.25,104.86-8.91,208.36-12.34,312.54-4.8,80.88,6.17,157.64,13,239.89,30.16,26.73,5.48,51.4,11.65,75.39,23.3,2.54,1.17,5,2.12,7.54,3v-114c-10.76-1-21.59-1.64-32.21-3.43-157-24.67-305.68-6.85-462,18.51-8.91,1.37-17.13,2.74-26,2.06-2.06,0-3.43,2.06-5.48,2.74C1356.87,794.6,1321.23,795.56,1285.46,793.51Z"/><path class="cls-7" d="M1284.28,835.93c-17.07,1.51-34.06,3-51.06,4.25-13,13-25.5,26.52-38,41a129.29,129.29,0,0,0-15.76,21.25h740.22v-14.8a69.12,69.12,0,0,1-7.54-3c-24-11.65-48.66-17.82-75.39-23.3-82.25-17.13-159-24-239.89-30.16C1492.64,823.6,1389.15,827,1284.28,835.93Z"/><path class="cls-8" d="M1040.22,895.56c-2.06,2.26-4,4.52-5.89,6.85h144.34a125.49,125.49,0,0,1,15.76-21.25c32.21-37,63.74-68.54,104.86-98,26.66-19.67,54.21-34.2,83-46-36.05,2.88-70.66.41-104.32-5.07-39.62,12.41-77.38,31-115.08,52.43-13,7.54-24,17.13-37,27.42C1093,837.3,1067.64,865.41,1040.22,895.56Z"/><path class="cls-7" d="M1023.15,829.77c-22.76-5.42-104-5.76-126.76-.34a477.88,477.88,0,0,1-69,11.31c18.09,17.2,34.54,35.43,51.88,54.49,2.06,2.26,4,4.52,5.89,6.85h74.26v.34h75c1.92-2.33,3.84-4.59,5.89-6.85,17.34-19.05,33.79-37.29,51.88-54.49A477.88,477.88,0,0,1,1023.15,829.77Z"/><path class="cls-5" d="M960.13,663.22v-.35c-106.72,0-207.47,50.79-318.64,68.88C676,742.58,709.07,758.07,741.9,776c73.13-17.82,138.45-42.15,213.43-54.21a52.88,52.88,0,0,1,8.87.34c75,12.06,140.3,36.39,213.43,54.21,32.83-18,65.93-33.45,100.41-44.28C1167.13,714,1066.58,663.45,960.13,663.22Z"/><path class="cls-6" d="M964.2,722.16a51,51,0,0,0-8.87-.34C880.42,733.88,815,758.21,741.9,776c4.87,2.67,9.73,5.41,14.67,8.16,13,7.54,24,17.13,37,27.42a414.8,414.8,0,0,1,33.79,29.13,489.12,489.12,0,0,0,69-11.31c18-4.29,107.88-4.15,126.76.34a489.12,489.12,0,0,0,69,11.31A414.78,414.78,0,0,1,1126,811.94c13-10.28,24-19.88,37-27.42,4.93-2.74,9.8-5.48,14.67-8.16C1104.5,758.55,1039.12,734.22,964.2,722.16Z"/><path class="cls-9" d="M433.2,809.82A26.47,26.47,0,0,1,451.85,791a26.79,26.79,0,0,1,25.5,7.13c.41-1,2.6-2.33,3-3.29a14,14,0,0,1,23.1,6.58c1.44-9.46,9.6-16.72,19.12-15.42s17,11.1,15.76,20.63c3.7-4.46,12.06-5.41,17.13-2.67a12.85,12.85,0,0,1,5.89,14.8,15.8,15.8,0,0,1,29.88,7.61c9.39-3.91,22.14-4.32,31.6-.48a39.77,39.77,0,0,1,21.32,20.9,6.93,6.93,0,1,1,13,4.87c2.4-5.07,3.84-9.73,8.22-13.23s10.28-5.35,15.63-3.7,9.53,7.2,8.57,12.68c3.84-6.37,13.16-8.09,19.74-4.66S719.9,853.55,720.73,861s-1,14.87-3.63,21.86c2.81-8,13.5-13.16,21.86-13.84a22.53,22.53,0,0,1,21,11.31c24.4-8.57,45,11.24,52.16,21.93h-379Z"/><path class="cls-9" d="M1486.28,902.55h-379c7.2-10.69,27.76-30.5,52.16-21.93a22.53,22.53,0,0,1,21-11.31c8.36.69,19.05,5.89,21.86,13.84-2.6-7-4.46-14.46-3.63-21.86s4.8-14.8,11.45-18.16,15.9-1.71,19.74,4.66c-1-5.48,3.22-11.1,8.57-12.68s11.24.21,15.63,3.7S1260,847,1262.36,852a6.93,6.93,0,1,1,13-4.87,39.77,39.77,0,0,1,21.32-20.9c9.46-3.84,22.21-3.43,31.6.48a15.8,15.8,0,0,1,29.88-7.61,12.85,12.85,0,0,1,5.89-14.8c5.07-2.74,13.43-1.78,17.13,2.67-1.23-9.53,6.24-19.33,15.76-20.63s17.68,6,19.12,15.42a14,14,0,0,1,23.1-6.58c.41,1,2.6,2.33,3,3.29a26.79,26.79,0,0,1,25.5-7.13,26.47,26.47,0,0,1,18.64,18.78Z"/><path class="cls-9" d="M300.74,778a43.63,43.63,0,0,0-48.15-28.92c-.69-2.6-1.37-5.28-2.06-7.88-3.64-2.06-9.47-2.26-10.43,1.78a11.15,11.15,0,0,0-17.22-9.18c1.71-9.8-4.87-20.29-14.47-23.1S186.81,713.82,183,723a15.49,15.49,0,0,0-30.32.75A10.19,10.19,0,0,0,141,719.92a10,10,0,0,0-6.45,10.42c-8.78-8.5-23.73-9.8-33.88-2.81a8.8,8.8,0,0,0-7.27-7.47c-3.7-.55-7.34,1-8.85,4.46a18.49,18.49,0,0,0-27.44-23.44,7.19,7.19,0,0,0-4.25-9.39c-3.7-1.17-8.78,1.51-9.47,5.28a18.49,18.49,0,0,0-15-17.48A18.45,18.45,0,0,0,8.54,691.21c-1.1-5.83-8-3.77-8-3.77v83.14Z"/><path class="cls-10" d="M.59,802V902H29.87c43.35-37.76,88.21-73.41,141.5-98,2.95-1.44,5.14-4,7.68-6C119.59,794.84,60.47,795.18.59,802Z"/><path class="cls-11" d="M271.79,759.88C178.3,745.35,83.17,738.84.59,745.83V802c59.88-6.79,119-7.13,178.47-4a17.2,17.2,0,0,1,3.29-2.19A676.34,676.34,0,0,1,271.79,759.88Z"/><path class="cls-8" d="M271.79,759.88a676.34,676.34,0,0,0-89.44,35.85c-4.12,2.06-6.86,6.17-11,8.22-53.29,24.61-98.15,60.25-141.5,98h225c22.09-12.61,45.06-24.13,67.42-37,19.21-11,37-19.88,56.24-29.47,20.58-9.6,39.78-18.51,60.36-27.42,6.72-2.88,13.31-5.69,19.82-8.43A1740.28,1740.28,0,0,0,271.79,759.88Z"/><path class="cls-10" d="M322.28,865c-22.29,12.89-45.34,24.4-67.42,37H512.27c-47.05-22.28-93.49-44.07-142.05-62.3C354.1,847.75,338.67,855.56,322.28,865Z"/><path class="cls-11" d="M458.7,799.64c-6.52,2.74-13.1,5.55-19.82,8.43-20.58,8.91-39.78,17.82-60.36,27.42-2.81,1.37-5.56,2.81-8.3,4.18,48.63,18.23,95.07,40,142.05,62.3H703.64C666.81,869.48,573.32,830.75,458.7,799.64Z"/><path class="cls-9" d="M1920.59,770.94V687.69s-6.36-2-7.46,3.86a17.94,17.94,0,0,0-34.84,5.76c-.69-3.77-5.76-6.44-9.47-5.28a7.19,7.19,0,0,0-4.25,9.39,18.49,18.49,0,0,0-27.44,23.44c-1.51-3.43-5.14-5-8.85-4.46a8.8,8.8,0,0,0-7.27,7.47c-10.15-7-25.1-5.69-33.88,2.81a10,10,0,0,0-6.45-10.42,10.19,10.19,0,0,0-11.73,3.84,15.49,15.49,0,0,0-30.32-.75c-3.77-9.18-15.78-15.15-25.38-12.34s-16.19,13.3-14.47,23.1a11.15,11.15,0,0,0-17.22,9.18c-1-4-6.79-3.84-10.43-1.78-.69,2.6-1.37,5.28-2.06,7.88a43.63,43.63,0,0,0-48.15,28.92Z"/><path class="cls-10" d="M1742.61,798.27c2.54,2.06,4.73,4.59,7.68,6,53.29,24.61,98.15,60.25,141.5,98h29.29v-100C1861.21,795.52,1802.08,795.18,1742.61,798.27Z"/><path class="cls-11" d="M1739.32,796.07a17.2,17.2,0,0,1,3.29,2.19c59.47-3.08,118.59-2.74,178.47,4V746.18c-82.58-7-177.72-.48-271.21,14.05A676.34,676.34,0,0,1,1739.32,796.07Z"/><path class="cls-8" d="M1463,800c6.52,2.74,13.1,5.55,19.82,8.43,20.58,8.91,39.78,17.82,60.36,27.42,19.21,9.6,37,18.51,56.24,29.47,22.36,12.89,45.34,24.4,67.42,37h225c-43.35-37.76-88.21-73.41-141.5-98-4.12-2.06-6.86-6.17-11-8.22a676.34,676.34,0,0,0-89.44-35.85A1740.28,1740.28,0,0,0,1463,800Z"/><path class="cls-10" d="M1551.45,840c-48.56,18.23-95,40-142.05,62.3h257.42c-22.09-12.61-45.13-24.13-67.42-37C1583,855.91,1567.57,848.09,1551.45,840Z"/><path class="cls-11" d="M1218,902.31H1409.4c47-22.28,93.42-44.07,142.05-62.3-2.74-1.37-5.49-2.81-8.3-4.18-20.58-9.6-39.78-18.51-60.36-27.42-6.72-2.88-13.31-5.69-19.82-8.43C1348.35,831.1,1254.86,869.82,1218,902.31Z"/><polygon class="cls-12" points="717.07 606.59 684.16 630.63 659.62 637.05 663.58 622.7 662.32 610.3 655.15 608.1 652.19 622.95 639.54 637.05 635.83 655.36 544.71 711.12 507.51 694.69 471.58 718.29 546.22 746.23 652.19 691.8 693.79 680.41 731.17 678.64 731.17 670.21 699.52 666.5 740.11 656.62 736.39 643.72 696.75 653.16 738.35 635.54 731.67 624.33 689.57 640.76 723.49 616.72 717.07 606.59"/><polygon class="cls-13" points="446.85 720.87 448.11 826.28 434.89 848.81 309.28 864.98 283.6 841.45 274.29 761.15 222.24 743.02 263.9 667.82 322.68 639.25 346.6 648.06 355.09 674.93 359.25 648 381.33 635.28 444.96 648.63 497.57 679.97 446.85 720.87"/><polygon class="cls-14" points="324.76 624.77 376.87 621.38 381.33 635.28 353.83 645.67 322.68 639.25 324.76 624.77"/><polygon class="cls-15" points="334.2 610.11 332.63 636.54 355.09 674.93 371.77 636.54 368.31 607.91 334.2 610.11"/><path class="cls-12" d="M368.43,619.74H333.51A24.72,24.72,0,0,1,309,598.66l-12.33-82.25H405.25l-12.33,82.25A24.72,24.72,0,0,1,368.43,619.74Z"/><polygon class="cls-16" points="351 539.44 343.32 576.76 363.78 575.5 351 539.44"/><circle class="cls-17" cx="324.95" cy="550.96" r="3.96"/><circle class="cls-17" cx="378.57" cy="549.07" r="3.96"/><path class="cls-18" d="M313.68,538.18a2.35,2.35,0,0,1-1.83-.82,2.57,2.57,0,0,1,.13-3.59,19.31,19.31,0,0,1,12.27-5.16,19.67,19.67,0,0,1,12.71,4,2.51,2.51,0,1,1-3.08,4,14.22,14.22,0,0,0-18.44.88A3,3,0,0,1,313.68,538.18Z"/><path class="cls-18" d="M388.32,537.3a2.43,2.43,0,0,1-1.7-.69,14.22,14.22,0,0,0-18.44-.88,2.51,2.51,0,0,1-3.08-4,19.67,19.67,0,0,1,12.71-4,19.31,19.31,0,0,1,12.27,5.16,2.55,2.55,0,0,1-1.76,4.41Z"/><polygon class="cls-8" points="226.59 541.52 460.06 516.41 450.62 503.76 249.24 512.57 226.59 541.52"/><polygon class="cls-19" points="292.1 510.68 305.25 442.08 394.61 433.9 410.35 505.52 292.1 510.68"/><polygon class="cls-20" points="294.11 485.32 405.25 472.29 409.53 493.25 292.1 502.5 294.11 485.32"/><path class="cls-21" d="M334.64,591.29,373,588.84h0A19.13,19.13,0,0,1,356,601.74l-3.08.19a19.14,19.14,0,0,1-17.81-9.82Z"/><path class="cls-15" d="M285.36,570.59h0a15.57,15.57,0,0,0,15.1,11.64h6.1l-4.72-31.34-2.58.19A15.7,15.7,0,0,0,285.36,570.59Z"/><polygon class="cls-18" points="292.1 534.47 305 571.72 299.27 533.4 292.1 534.47"/><path class="cls-15" d="M402.35,541.52h-.88l-5,33h5.85a16.56,16.56,0,0,0,16.17-13.15h0A16.47,16.47,0,0,0,402.35,541.52Z"/><polygon class="cls-18" points="404.37 522.38 397.76 566.44 411.92 521.57 404.37 522.38"/><polygon class="cls-22" points="324.76 624.77 346.6 648.06 334.14 672.41 322.68 639.25 324.76 624.77"/><polygon class="cls-22" points="376.87 621.38 359.25 648 375.61 669.9 381.33 635.28 376.87 621.38"/><polygon class="cls-18" points="330.11 576.76 374.6 574.55 384.29 588.09 320.98 592.18 330.11 576.76"/><polygon class="cls-23" points="471.58 902.11 283.6 902.11 286.56 877.13 283.6 841.45 305.06 829.11 300.03 766.81 417.08 747.49 423.56 811.68 447.98 822.57 450.18 861.65 471.58 902.11"/><polygon class="cls-24" points="278.82 654.79 306.57 781.28 324.95 775.62 305 641.45 278.82 654.79"/><polygon class="cls-24" points="397.76 635.28 396.56 760.52 411.92 764.29 423.56 641.45 397.76 635.28"/><circle class="cls-25" cx="313.31" cy="765.99" r="5.29"/><circle class="cls-25" cx="404.75" cy="751.71" r="5.29"/><polygon class="cls-26" points="274.29 761.15 272.84 741.32 227.84 726.22 214.94 746.42 274.29 761.15"/><polygon class="cls-26" points="446.85 720.87 499.27 677.45 522.36 692.24 462.58 731.57 446.85 720.87"/><polygon class="cls-12" points="225.39 749 204.56 788.27 228.47 881.35 225.33 902.11 278.82 902.11 268.75 876.94 254.91 788.27 263.9 758.57 225.39 749"/><ellipse class="cls-20" cx="960.61" cy="883.38" rx="32.84" ry="8.23"/><rect class="cls-13" x="955.39" y="835.32" width="10.44" height="28.4"/><polygon class="cls-13" points="960.61 886.62 980.92 863.72 940.3 863.72 960.61 886.62"/></g></g></svg>