<svg xmlns="http://www.w3.org/2000/svg" viewBox="0 0 1507.26 143.17"><defs><style>.cls-1{font-size:48px;font-family:MicrosoftJhengHeiBold, Microsoft JhengHei;font-weight:700;}.cls-1,.cls-2{fill:#614d3f;}.cls-3{fill:#c5e6eb;}.cls-4{fill:#709832;}.cls-5{fill:#feffff;}.cls-6{fill:#bca9a0;}.cls-7{fill:#9a887a;}.cls-8{fill:#bba9a0;}.cls-9{fill:#729833;}.cls-10{fill:#729832;}.cls-11{fill:#fff;}</style></defs><title>donate_title</title><g id="圖層_2" data-name="圖層 2"><g id="圖層_1-2" data-name="圖層 1"><text class="cls-1" transform="translate(633.63 90.83)">資助進行中</text><polygon class="cls-2" points="618.7 124.25 610.51 128.04 553.58 49.62 570.28 41.88 618.7 124.25"/><polygon class="cls-2" points="870.19 128.04 862.01 124.45 908.48 41.17 925.17 48.48 870.19 128.04"/><path class="cls-3" d="M76.55,143.17c-3.83-1.69-8-1.84-12-2-9.15-.31-17.79-2.71-26.37-5.53-4.24-1.39-8.44-2.87-12.7-4.2-2.52-.79-5-1.34-6.52-4-1-1.65-3.12-1.84-4.89-2.19a8.92,8.92,0,0,1-6.74-5.09c-1.21-2.34-3.62-4.08-5.6-6C.47,113-.38,111.64.17,110c1.29-3.85.49-7.89,1.47-11.86a13.89,13.89,0,0,1,6-8.5c4.3-2.91,9.12-4.88,14.59-3.06a4.1,4.1,0,0,0,3.61-.69c2.28-1.54,4.82-1.45,7.31-1.18a156.27,156.27,0,0,0,33.57-.21c3.61-.4,7-1.77,10.59.08a2,2,0,0,0,1.65-.19c3.81-2.53,8.4-1.88,12.55-3,2.92-.81,5.73-1.32,7.72-3.85a2.54,2.54,0,0,1,1.7-1c6.68.37,10.57-4.67,14.85-8.24,8.24-6.87,17.61-9.89,28-10.44a79,79,0,0,1,43.27,9.66,94.17,94.17,0,0,0,20.42,7.94c4.21,1.17,7.81-1,11.7-1.53,3.38-.43,6.57-1.94,10.1-1.67,1.59.12,2.83-.89,4-1.83,4.46-3.69,9.85-3,15-3.21,9.6-.37,17.32,4.62,25.08,9.21C286.64,84.2,301,88.81,316.1,91.5c11.09,2,22.4,2.78,33.24,6.19a32.38,32.38,0,0,1,7.59,3.07c7.3,4.54,7.46,12.49.06,16.81-6.92,4-14.09,7.64-21.22,11.29a18.81,18.81,0,0,1-8.6,2.09c-5,0-9.77,1.8-14.37,3-10.2,2.6-20.48,1.88-30.66,3-27.62,3-55.38,2.39-83.09,2-10.76-.16-21.53-.32-32.3-.56-6.11-.14-12.13.22-17.93,2.26a9.07,9.07,0,0,1-4.74.51c-12.3-2.43-24.59.6-36.87,0-1.92-.09-3.22.9-4.49,2.09h-1.38c-3.44-1-6.89-1.65-10.33,0Z"/><path class="cls-4" d="M1485.88,104c-1.26,0-2.53,0-3.78-.13-5.48-.48-8.66-3.39-9.22-8.87a48.63,48.63,0,0,1,6.32-30.4,23.14,23.14,0,0,1,2-2.8c5.56-6.85,11.92-6.84,17.43.13,4.53,5.71,6.78,12.4,8,19.5.1.63-.16,1.42.68,1.77v12.4c-2.25,6.64-7.17,8.9-13.77,8.41-1.3,0-1.43-1.08-1.45-1.93-.12-6-1.19-12.2,3-17.34,0-.28-.08-.15-.3.1-1.09,1.26-1.88,3.59-3.7,3.13-2.78-.71-1.66-3.89-2.7-5.78-.38.82-.06,1.75-.16,2.64-.15,1.21.21,2.71-1.18,3.34s-2.26-.6-3.67-1.47c4.46,4.6,4.15,10,4,15.4C1487.33,103,1487.2,104.05,1485.88,104Z"/><path class="cls-5" d="M91,143.17c3-2.63,6.31-2.63,10.33,0Z"/><path class="cls-6" d="M1042.46,21.4c7.2-2.58,14.16-5,21.08-7.58q17.94-6.63,35.82-13.44a3.68,3.68,0,0,1,3.67.24q20.15,11.8,40.37,23.48c.77.45,1.58.85,2.71,1.47a32.2,32.2,0,0,1-10.44,3c-2.86.45-3.72,1.84-3.81,4.24-.4,11.31-2.78,22.41-3.73,33.67-.47,5.6-1.62,11.19-1.86,16.85-.07,1.62-.39,2.31-2.43,2.22-6.73-.32-13.52.11-20.23-.43-10.71-.86-21.44,0-32.14-.89a115.22,115.22,0,0,0-12.17-.19c-2,0-2.57-.67-2.56-2.58.06-14.9,0-29.8.12-44.7,0-2.73-.57-4.52-2.95-6.3C1050.13,27.61,1045.65,25.55,1042.46,21.4Z"/><path class="cls-7" d="M1263.91,62c-2.42,1.31-4.83-.61-6.63.61,4.76-5.15,9.47-10.35,14.3-15.43a47.61,47.61,0,0,1,4.87-4.27c3.31-2.65,3.93-6.43,3.27-10.48a22.87,22.87,0,0,1-.35-2.7c-.17-4,.25-4.47,4.09-4.45,11.45.08,22.89-.53,34.33-.58,11.79-.05,23.57-1,35.36-.48,2,.1,4.54-.86,6,0,1.71,1,1,3.91.83,5.74-.43,5.7,3.33,8.56,6.94,11.53,7.72,6.33,14.32,13.88,22.17,20,.14.11.14.41.21.63-4.06,1-8.06-.32-12.1-.22a4.26,4.26,0,0,1-3.41,1.22c-10.06.34-20.17.59-30.18.1-14.19-.69-28.35.21-42.52,0-9.24-.15-18.51-.7-27.78-.13C1270.28,63.36,1266.93,63.42,1263.91,62Z"/><path class="cls-6" d="M1150.93,56.09c6-5.92,11.68-11.65,17.46-17.31,5.21-5.1,10.56-10.06,15.69-15.23,1.8-1.81,2.92-1.81,4.75,0,10.17,10.07,20.46,20,30.73,30,1.51,1.46,2.74,2.44-.33,3.76a21.53,21.53,0,0,0-7.05,4.79c-2.23,2.38-2.15,5.9-2.39,9-.33,4.24-1.25,8.34-2,12.49-.3,1.68-1,2.35-2.71,2.33q-19.43-.33-38.85-.54c-1.52,0-1.78-.74-2-2.1-.88-5.77.09-11.57-.53-17.37-.31-2.84-1.41-4-3.63-5.46C1157.31,58.67,1154,58.16,1150.93,56.09Z"/><path class="cls-6" d="M1263.91,62c6.44.32,12.91.08,19.35.16,5.52.07,11.1.41,16.68-.08a80.75,80.75,0,0,1,15,.39c3.65.36,7.19-.4,10.81-.32,5.3.12,10.64-.65,15.93.34,2.83.53,5.63-.16,8.43-.19,6.73,0,13.47.62,20.21-.33,2.24-.32,4.63.58,7,0-1.59,6.54-.48,13.19-.76,19.79-.09,2.19-.57,2.92-2.85,3-12.73.45-25.45-.13-38.18-.1-13.63,0-27.27.06-40.9-.16-9.27-.15-18.55.37-27.83-.34-1.52-.12-1.74-.28-2.08-1.62-.9-3.52-.27-7.05-.48-10.57C1264,68.69,1264,65.36,1263.91,62Z"/><path class="cls-4" d="M1440.42,96.46c-1.26,0-2.52,0-3.78-.13-7.22-.53-11.19-4-12.12-11.18A55.63,55.63,0,0,1,1430,53.49c1.73-3.58,3.51-7.58,6.8-10.47,5.72-5,11.91-5.17,16.92.5a38.26,38.26,0,0,1,8.68,16c1.53,6,3.7,11.7,3.7,18a43.64,43.64,0,0,1-.8,9.55,12.55,12.55,0,0,1-10.46,9.2c-1.37.11-2.74.2-4.1.31-1.73.37-2.69-.38-2.75-2.1-.17-4.35-.4-8.7-.25-13,.13-3.62,2.81-6.31,4.31-9.45-1.31,1.41-2.28,3.12-3.84,4.32-1.73,1.34-2.94,1-3.61-1.09s-.72-4.43-1.42-7.28a12.9,12.9,0,0,0-.2,5.48c.15,1.38.5,2.84-1,3.7-1.33.77-2.39-.21-3.47-.8-.44-.24-.8-.65-1.2-.73C1443.1,81.78,1441.78,89.12,1440.42,96.46Z"/><path class="cls-4" d="M997.47,69.44a28.85,28.85,0,0,1-4.79-.13C985.59,68,983.74,66,983.6,56.89c-.15-9.9,2.32-19.28,8.92-27.09,4.21-5,9.55-5.1,13.71,0,7.8,9.48,10.28,20.52,8.44,32.49-.77,5-4.31,7.06-10.9,7.2-1.57-6.25-2.79-12.47,2-18.08,0,0,0,.13-.27.32-1.35,1.07-1.89,3.81-4,3.09s-1.36-3.39-2.13-5.2c.11,1.76.83,3.61-.63,5.07-1,1-2.08.17-2.95-.22C999.39,59.07,999,64.19,997.47,69.44Z"/><path class="cls-4" d="M33.39,37.78c1.29-4.44,2.36-8.66,3.73-12.77,2.07-6.18,5.44-10.87,12.93-10.61,2.39.08,3.8-1.93,5.38-3.38S58,7.87,60.84,6.61c-1.93,2.54-3.22,4.48-4.77,6.21a5.17,5.17,0,0,0-1,6c1.9,4.64.54,8.47-3,11.74C46.74,35.33,40.32,36.93,33.39,37.78Z"/><path class="cls-8" d="M1440.42,96.46a90.68,90.68,0,0,1,.17-9.27c.59-5.1-1.44-8.88-5.23-12-.44-.36-1-.62-.85-1.47,1.93-.49,3.06,1,4.45,1.86.8.51,1.42,1.87,2.58,1.21s.59-1.77.5-2.81c-.19-2-.19-4.12-.21-6.18,0-.63-.21-1.54.76-1.62.78-.06,1.2.61,1.34,1.32.43,2.13.81,4.26,1.22,6.39.19,1-.17,2.45.92,2.76,1.25.35,1.76-1.18,2.53-1.95,1.71-1.68,2.7-4.11,5.15-5.26.05.46.18.74.09.85-5.5,7-5.75,15.09-5.17,23.42.1,1.47.06,2.8,2,2.86-2.34,1.65-1.95,7,.62,8.52.68.41,2.18.16,1.79,1.48-.3,1-1.55.62-2.43.73a91.89,91.89,0,0,1-12.51.65c-.57,0-1.19.13-1.54-.41a.79.79,0,0,1,.32-1.17C1442.13,104.47,1440.1,100.05,1440.42,96.46Z"/><path class="cls-6" d="M1485.88,104c1.21-6.93,1.14-13.55-5-18.64,1.57-.78,2.14.2,2.91.54,1.1.48,1.87,2.34,3.13,1.54,1.06-.67.27-2.35.35-3.57.09-1.53,0-3.07,0-5.57,2.91,3.22,2.08,6.58,3.37,9.59,2.64-1.45,3.4-4.64,6.35-5.77-4.46,6.85-5.35,14.18-3.52,21.9-.27,3.4-1,7,3.82,8.39-5,.47-9.7,1.78-15.61.55C1486.75,111.05,1486.07,107.46,1485.88,104Z"/><path class="cls-4" d="M1218.62,121.06l6.07,7.12,3.65-5.85c1.14,3.49,2.13,6.6,3.18,9.68.55,1.62.18,2.34-1.65,2.22-7.78-.51-15.57-.17-23.35,0-2,0-2.08-.73-1.55-2.23,1.23-3.51,2.43-7,3.84-11.13l4.67,8.53Z"/><path class="cls-4" d="M1370,113.95l4.65,8.59,5.16-8.33,6.12,7.11,3.57-5.9c1.18,3.57,2.23,6.75,3.28,9.93.49,1.5,0,2.09-1.62,2-7.9-.5-15.8-.15-23.7,0-1.92,0-1.74-.9-1.33-2.12C1367.34,121.69,1368.56,118.14,1370,113.95Z"/><path class="cls-9" d="M1303.91,105.69c2.22,2,4,3.51,5.8,5.13,1.14,1,1.81.93,2.57-.49,1-1.89,2.27-3.64,3.59-5.72,1.65,2.16,3.13,3.89,4.37,5.77s2.11,2.22,3.29,0a3.9,3.9,0,0,1,2.26-2.07l3.51,8.45c-8,0-15.6.08-23.21,0-5.27-.07-5.25-.18-3.63-5.45C1303,109.67,1303.32,108,1303.91,105.69Z"/><path class="cls-8" d="M997.47,69.44c0-1.38-.13-2.76,0-4.13.42-4.88.06-9.45-5.16-12.58,2-.63,2.85.41,3.85.89.67.32,1.12,1.4,2,.87s.61-1.64.6-2.52c0-1.68-1.1-3.31-.06-5.46,2.48,2.25,1.64,5.56,3,8.42l5.33-6,1.11.33c-5.91,6-4.71,13.16-4.35,20.19-.54,2.86,1.4,3.79,3.68,4.71-4.26,1-8.43,1.77-13.06.57C996.2,73.31,998.19,72.06,997.47,69.44Z"/><path class="cls-10" d="M111.5,46c-5.26-.4-9.3,4.44-14.5,3.38-5.48-1.12-9.78-4.71-14-8.36,7.84-3.43,16.08-2.2,21.7,3.38C106.77,46.42,109.32,44.38,111.5,46Z"/><path class="cls-11" d="M1071.32,55.27c0-2.64.12-5.28,0-7.91-.13-2.18.67-2.79,2.78-2.6,5,.44,10,.71,15,1,1.55.09,2.28.38,1.84,2.26-1.15,5-2.18,10-3,15.06-.3,1.76-1,2.24-2.65,2.22-4.24-.07-8.48,0-12.72,0-1.34,0-1.7-.32-1.57-1.8.23-2.73.07-5.49.07-8.24Z"/><path class="cls-11" d="M1189.77,63.47c.27-5.76.27-5.76,6.23-5.71,5.67,0,5.67,0,4.85,5.79s-.83,5.84-5.35,5.93C1188.72,69.61,1189.55,70.37,1189.77,63.47Z"/><path class="cls-11" d="M1326.3,77.59c-3.21-.49-6.48.24-9.77.16-1.57,0-2.37-.46-2.16-2.17.28-2.26.49-4.52.72-6.78.11-1.07.85-1.23,1.71-1.23,4.35,0,8.7,0,13,0,1.46,0,1.76.68,1.55,1.93-.23,1.45-.92,2.77-.88,4.31C1330.61,76.52,1329.71,78.44,1326.3,77.59Z"/><path class="cls-11" d="M1302.61,78.4c-6.81,0-6.6,0-6.92-6.69-.17-3.56.95-4.66,4.41-4.28a52.6,52.6,0,0,0,8.55,0c2-.11,2.39.76,2.11,2.43-.11.68-.27,1.34-.36,2C1309.52,78.42,1309.52,78.42,1302.61,78.4Z"/></g></g></svg>