<svg xmlns="http://www.w3.org/2000/svg" viewBox="0 0 278.03 278.03"><defs><style>.cls3-1{fill:#ffca0b;}.cls3-2{fill:#fff;}</style></defs><title>fish_icon_3</title><g id="圖層_2" data-name="圖層 2"><g id="Layer_1" data-name="Layer 1"><circle class="cls3-1" cx="139.01" cy="139.01" r="139.01"/><path class="cls3-2" d="M218.84,106A86.51,86.51,0,0,0,172,59.21,86.34,86.34,0,0,0,77.94,200,86.37,86.37,0,0,0,218.84,106Zm-20.26,92.57A83.85,83.85,0,0,1,139,223.21a84.21,84.21,0,1,1,59.58-24.65Z"/><path class="cls3-2" d="M187,162a12.76,12.76,0,0,0-8.56,3.28l-7-7.75a34.94,34.94,0,0,0-9.7-51.54l8.46-15a9.72,9.72,0,0,0,3.17.55,9.58,9.58,0,1,0-6.24-2.32L158.5,104.3a34.8,34.8,0,0,0-36.08,4l-7.88-10A13.63,13.63,0,0,0,103.9,76.18,13.65,13.65,0,1,0,112,100.83l7.75,9.83A34.7,34.7,0,0,0,108.81,136c0,.19,0,.37,0,.55h-8.67a11.14,11.14,0,1,0,.43,3.28H109a35,35,0,0,0,22.07,28.76l-2.93,6a16.27,16.27,0,1,0,2.9,1.54l3.17-6.48a35,35,0,0,0,35-9.65l7,7.72A12.86,12.86,0,1,0,187,162Zm0,0"/></g></g></svg>