<svg xmlns="http://www.w3.org/2000/svg" viewBox="0 0 278.03 278.03"><defs><style>.cls1-1{fill:#2eaeb7;}.cls1-2{fill:#fff;}</style></defs><title>fish_icon_1</title><g id="圖層_2" data-name="圖層 2"><g id="Layer_1" data-name="Layer 1"><circle class="cls1-1" cx="139.01" cy="139.01" r="139.01"/><path class="cls1-2" d="M218.84,106A86.51,86.51,0,0,0,172,59.21,86.34,86.34,0,0,0,77.94,200,86.37,86.37,0,0,0,218.84,106Zm-20.26,92.57A83.85,83.85,0,0,1,139,223.21a84.21,84.21,0,1,1,59.58-24.65Z"/><path class="cls1-2" d="M159.16,114.79V88.23a6.94,6.94,0,0,0,0-13.89H118.88a6.94,6.94,0,0,0,0,13.89v26.56a46.73,46.73,0,1,0,40.29,0Zm-20.15,75A32.84,32.84,0,0,1,128.11,126a6.94,6.94,0,0,0,4.64-6.55V88.23h12.52v31.19a6.94,6.94,0,0,0,4.64,6.55A32.84,32.84,0,0,1,139,189.79Z"/><path class="cls1-2" d="M139,179.25a24.3,24.3,0,0,0,24.3-24.3h-48.6a24.3,24.3,0,0,0,24.3,24.3Zm0,0"/></g></g></svg>