<svg xmlns="http://www.w3.org/2000/svg" viewBox="0 0 278.03 278.03"><defs><style>.cls5-1{fill:#2eaeb7;}.cls5-2{fill:#fff;}</style></defs><title>fish_icon_5</title><g id="圖層_2" data-name="圖層 2"><g id="Layer_1" data-name="Layer 1"><circle class="cls5-1" cx="139.01" cy="139.01" r="139.01"/><path class="cls5-2" d="M125.41,176.41h27c3.36,0,1.47-1.25,0-2.06q-18-10-36-19.9c-15.11-8.34-10.45-24.67,2.55-31.88,1.84-1,3.71-2.06,5.56-3.1a2.82,2.82,0,0,1,2.74,0l5.32,3c2.51,1.39,2.08,2.13-.21,3.38l-7.3,4c-1.37.78-3.07,2,0,2h27.52c2.62,0,1.68-1,.24-1.82L116.4,109.88c-16.53-9.12-9.86-23.16,2.41-31.79,1.18-.85,2.36-1.68,3.55-2.51A1.89,1.89,0,0,1,125,76c1.09,1.54,2.15,3.07,3.24,4.61a1.89,1.89,0,0,1-.45,2.62c-.9.64-1.8,1.25-2.67,1.89-2.08,1.46-2.88,2.15.59,2.15h26.83c3.1,0,1.25-1.23,0-2.13-.9-.64-1.8-1.28-2.72-1.91a1.89,1.89,0,0,1-.45-2.62c1.09-1.54,2.15-3.07,3.24-4.61a1.89,1.89,0,0,1,2.62-.45c1.18.83,2.36,1.65,3.55,2.51,12.27,8.63,18.94,22.69,2.41,31.79-2.7,1.51-5.39,3-8.11,4.49a2.71,2.71,0,0,1-2.74,0l-5.53-3c-1.94-1.09-2-2,0-3,1.68-.94,3.33-1.87,5-2.79,1.91-1.06,2.55-1.87-.19-1.87H128.1c-2.2,0-2.77.52-.59,1.7l31.09,17.25c13.5,7.47,17.52,23.63,2.55,31.88L153,158.95a2.83,2.83,0,0,1-2.74,0c-1.82-1-3.64-2-5.46-3-2.46-1.37-1.75-2.17.33-3.33,1.47-.8,2.91-1.61,4.37-2.43,1.65-.9,3.17-2,.12-2H127.89c-2.13,0-2.34.64-.45,1.68Q143,158.5,158.6,167.13c14.28,7.89,16.88,22.52,2.67,31.83l-6.1,4a1.85,1.85,0,0,1-2.55-.5c-.9-1.25-1.77-2.51-2.67-3.78-1.73-2.43-1-2.86,1.23-4.32,1.44-1,1.3-1.58-.45-1.58H127c-1.68,0-2.32.47-.64,1.56,2.1,1.37,3,1.87,1.3,4.23-.9,1.3-1.82,2.6-2.72,3.9a1.88,1.88,0,0,1-2.58.5c-2-1.32-4.07-2.65-6.08-4-14.23-9.31-11.63-23.94,2.65-31.83l5.56-3.07a2.71,2.71,0,0,1,2.74,0c1.73.95,3.45,1.89,5.18,2.86,2,1.09,2.74,1.91.33,3.24s-5,2.77-7.45,4.14c-1.65.92-3.57,2.13.09,2.13Zm-8.68,5.39c-1,1.87-1,3.76.69,5.84a1.77,1.77,0,0,0,1.47.71h39.79a1.85,1.85,0,0,0,1.49-.71,4.89,4.89,0,0,0,.66-5.84,1.86,1.86,0,0,0-1.65-1H118.39a1.88,1.88,0,0,0-1.66,1Zm42.44-90.09H118.39a1.86,1.86,0,0,0-1.66,1c-1,1.87-1,3.76.69,5.84a1.77,1.77,0,0,0,1.47.71h39.79a1.85,1.85,0,0,0,1.49-.71,4.89,4.89,0,0,0,.66-5.84,1.83,1.83,0,0,0-1.65-1ZM118.88,143.8h39.79a1.87,1.87,0,0,0,1.49-.73,4.85,4.85,0,0,0,.66-5.81,1.81,1.81,0,0,0-1.65-1H118.39a1.84,1.84,0,0,0-1.66,1,4.83,4.83,0,0,0,.69,5.81,1.79,1.79,0,0,0,1.47.73ZM139,52.67a86.29,86.29,0,1,1-33,6.55,85.93,85.93,0,0,1,33-6.55Zm59.55,26.8a83.95,83.95,0,1,0,18.3,27.34,84.11,84.11,0,0,0-18.3-27.34Z"/></g></g></svg>