<svg xmlns="http://www.w3.org/2000/svg" viewBox="0 0 278.03 278.03"><defs><style>.cls4-1{fill:#154f78;}.cls4-2{fill:none;}.cls4-3{fill:#fff;}</style></defs><title>fish_icon_4</title><g id="圖層_2" data-name="圖層 2"><g id="Layer_1" data-name="Layer 1"><circle class="cls4-1" cx="139.01" cy="139.01" r="139.01"/><path class="cls4-2" d="M191.34,125.79l-19.05-11a2.48,2.48,0,0,0-2.55,0q-9.54,5.49-19.05,11A2.56,2.56,0,0,0,149.4,128v22a2.52,2.52,0,0,0,1.28,2.22l19.05,11a2.48,2.48,0,0,0,2.55,0l19.05-11a2.55,2.55,0,0,0,1.28-2.22V128A2.52,2.52,0,0,0,191.34,125.79Zm-33,24.32c0,2.2-.19,3.5-2.67,2.06-.9-.5-1.77-1-2.67-1.54a2.08,2.08,0,0,1-1.06-1.84V129.24a2.11,2.11,0,0,1,1.06-1.87c.87-.5,1.75-1,2.65-1.51,2.46-1.44,2.7-.24,2.7,2ZM190,148.76a2.09,2.09,0,0,1-1.06,1.87c-5.63,3.24-11.28,6.5-16.9,9.76a2.14,2.14,0,0,1-2.13,0l-2.6-1.49c-1.84-1.09-2.2-1.94-.14-3.12q10-5.78,20.07-11.58c1.8-1,2.77-1.16,2.77,1.51Z"/><path class="cls4-2" d="M127.42,125.79l-19.05-11a2.48,2.48,0,0,0-2.55,0q-9.54,5.49-19.05,11A2.56,2.56,0,0,0,85.48,128v22a2.52,2.52,0,0,0,1.28,2.22l19.05,11a2.48,2.48,0,0,0,2.55,0l19.05-11a2.55,2.55,0,0,0,1.28-2.22V128A2.52,2.52,0,0,0,127.42,125.79Zm-16.53,33c-.9.52-1.82,1-2.74,1.58a2.14,2.14,0,0,1-2.13,0c-5.65-3.26-11.28-6.5-16.9-9.76a2.08,2.08,0,0,1-1.06-1.84v-3c0-2.2.59-2.84,2.65-1.65q10,5.78,20,11.53C112.48,156.7,113,157.55,110.89,158.81Zm-.09-36.54q-9.86,5.71-19.74,11.39c-2.34,1.35-3,1.11-3-1.65v-2.76a2.11,2.11,0,0,1,1.06-1.87c5.63-3.24,11.25-6.5,16.9-9.74a2,2,0,0,1,2.13,0l2.46,1.42C112.59,120.19,113,121,110.8,122.27Z"/><path class="cls4-2" d="M216.87,106.79A84.29,84.29,0,1,0,223.26,139,84.36,84.36,0,0,0,216.87,106.79ZM135.1,153.44a2.92,2.92,0,0,1-1.49,2.6l-22.06,12.72a2.55,2.55,0,0,0-1.28,2.22v13.47a1.69,1.69,0,0,1-1.7,1.7h-3a1.71,1.71,0,0,1-1.7-1.7V171a2.5,2.5,0,0,0-1.3-2.22L83.8,157.91a2.45,2.45,0,0,0-2.62,0c-3.95,2.43-7.87,4.89-11.8,7.33a1.72,1.72,0,0,1-2.36-.54c-.52-.85-1-1.7-1.58-2.53a1.72,1.72,0,0,1,.57-2.36l11.84-7.37a2.54,2.54,0,0,0,1.23-2.17V128a2.5,2.5,0,0,0-1.3-2.22q-5.82-3.33-11.66-6.71a1.7,1.7,0,0,1-.61-2.32c.47-.87,1-1.72,1.47-2.58a1.71,1.71,0,0,1,2.34-.64L81,120.26a2.52,2.52,0,0,0,2.58,0q11-6.38,22-12.72a2.86,2.86,0,0,1,3,0l25,14.44a2.91,2.91,0,0,1,1.49,2.58Zm77.52,7.85-1.49,2.58a1.71,1.71,0,0,1-2.34.64l-11.66-6.74a2.52,2.52,0,0,0-2.58,0q-11,6.35-22,12.71a3,3,0,0,1-3,0q-12.52-7.23-25-14.44a3,3,0,0,1-1.49-2.6V124.58a2.92,2.92,0,0,1,1.49-2.6q11-6.38,22-12.71a2.52,2.52,0,0,0,1.3-2.22V93.55a1.73,1.73,0,0,1,1.7-1.7h3a1.72,1.72,0,0,1,1.7,1.73V107a2.52,2.52,0,0,0,1.28,2.22q9.54,5.49,19.08,11a2.59,2.59,0,0,0,2.55,0l11.68-6.74a1.72,1.72,0,0,1,2.34.61c.5.87,1,1.73,1.49,2.58a1.75,1.75,0,0,1-.64,2.34c-3.88,2.25-7.78,4.49-11.65,6.71A2.52,2.52,0,0,0,199,128v22a2.52,2.52,0,0,0,1.3,2.22c3.88,2.22,7.78,4.47,11.65,6.71A1.73,1.73,0,0,1,212.62,161.29Z"/><path class="cls4-3" d="M110.61,119.05l-2.46-1.42a2,2,0,0,0-2.13,0c-5.65,3.24-11.28,6.5-16.9,9.74a2.11,2.11,0,0,0-1.06,1.87V132c0,2.76.66,3,3,1.65q9.86-5.67,19.74-11.39C113,121,112.59,120.19,110.61,119.05Z"/><path class="cls4-3" d="M212,158.95c-3.88-2.24-7.78-4.49-11.65-6.71A2.52,2.52,0,0,1,199,150V128a2.52,2.52,0,0,1,1.3-2.22c3.88-2.22,7.78-4.47,11.65-6.71a1.75,1.75,0,0,0,.64-2.34c-.5-.85-1-1.7-1.49-2.58a1.72,1.72,0,0,0-2.34-.61l-11.68,6.74a2.59,2.59,0,0,1-2.55,0q-9.54-5.53-19.08-11A2.52,2.52,0,0,1,174.2,107V93.58a1.72,1.72,0,0,0-1.7-1.73h-3a1.73,1.73,0,0,0-1.7,1.7V107a2.52,2.52,0,0,1-1.3,2.22q-11,6.35-22,12.71a2.92,2.92,0,0,0-1.49,2.6v28.86a3,3,0,0,0,1.49,2.6q12.52,7.2,25,14.44a3,3,0,0,0,3,0q11-6.35,22-12.71a2.52,2.52,0,0,1,2.58,0l11.66,6.74a1.71,1.71,0,0,0,2.34-.64l1.49-2.58A1.73,1.73,0,0,0,212,158.95ZM192.62,150a2.55,2.55,0,0,1-1.28,2.22l-19.05,11a2.48,2.48,0,0,1-2.55,0l-19.05-11A2.52,2.52,0,0,1,149.4,150V128a2.56,2.56,0,0,1,1.28-2.24q9.54-5.46,19.05-11a2.48,2.48,0,0,1,2.55,0l19.05,11a2.52,2.52,0,0,1,1.28,2.22Z"/><path class="cls4-3" d="M218.84,106A86.51,86.51,0,0,0,172,59.21,86.34,86.34,0,0,0,77.94,200,86.37,86.37,0,0,0,218.84,106Zm-20.26,92.57A83.85,83.85,0,0,1,139,223.21a84.21,84.21,0,1,1,59.58-24.65Z"/><path class="cls4-3" d="M187.28,144.2q-10,5.82-20.07,11.58c-2.06,1.18-1.7,2,.14,3.12l2.6,1.49a2.14,2.14,0,0,0,2.13,0c5.63-3.26,11.28-6.52,16.9-9.76a2.09,2.09,0,0,0,1.06-1.87v-3C190,143,189.07,143.16,187.28,144.2Z"/><path class="cls4-3" d="M110.66,155.66q-10-5.78-20-11.53c-2.06-1.18-2.65-.54-2.65,1.65v3a2.08,2.08,0,0,0,1.06,1.84c5.63,3.26,11.25,6.5,16.9,9.76a2.14,2.14,0,0,0,2.13,0c.92-.54,1.84-1.06,2.74-1.58C113,157.55,112.48,156.7,110.66,155.66Z"/><path class="cls4-3" d="M133.61,122l-25-14.44a2.86,2.86,0,0,0-3,0q-11,6.35-22,12.72a2.52,2.52,0,0,1-2.58,0l-11.68-6.74a1.71,1.71,0,0,0-2.34.64c-.5.85-1,1.7-1.47,2.58a1.7,1.7,0,0,0,.61,2.32q5.85,3.37,11.66,6.71a2.5,2.5,0,0,1,1.3,2.22V150.3a2.54,2.54,0,0,1-1.23,2.17L66,159.85a1.72,1.72,0,0,0-.57,2.36c.54.83,1.06,1.68,1.58,2.53a1.72,1.72,0,0,0,2.36.54c3.92-2.43,7.85-4.89,11.8-7.33a2.45,2.45,0,0,1,2.62,0l18.79,10.85a2.5,2.5,0,0,1,1.3,2.22v13.47a1.71,1.71,0,0,0,1.7,1.7h3a1.69,1.69,0,0,0,1.7-1.7V171a2.55,2.55,0,0,1,1.28-2.22L133.61,156a2.92,2.92,0,0,0,1.49-2.6V124.56A2.91,2.91,0,0,0,133.61,122Zm-4.92,28a2.55,2.55,0,0,1-1.28,2.22l-19.05,11a2.48,2.48,0,0,1-2.55,0l-19.05-11A2.52,2.52,0,0,1,85.48,150V128a2.56,2.56,0,0,1,1.28-2.24q9.54-5.46,19.05-11a2.48,2.48,0,0,1,2.55,0l19.05,11a2.52,2.52,0,0,1,1.28,2.22Z"/><path class="cls4-3" d="M155.69,125.86c-.9.5-1.77,1-2.65,1.51a2.11,2.11,0,0,0-1.06,1.87v19.54a2.08,2.08,0,0,0,1.06,1.84c.9.52,1.77,1,2.67,1.54,2.48,1.44,2.67.14,2.67-2.06V127.89C158.39,125.62,158.15,124.42,155.69,125.86Z"/></g></g></svg>