<svg xmlns="http://www.w3.org/2000/svg" viewBox="0 0 278.03 278.03"><defs><style>.cls2-1{fill:#a1b539;}.cls2-2{fill:#fff;}</style></defs><title>fish_icon_2</title><g id="圖層_2" data-name="圖層 2"><g id="Layer_1" data-name="Layer 1"><circle class="cls2-1" cx="139.01" cy="139.01" r="139.01"/><path class="cls2-2" d="M218.84,106A86.51,86.51,0,0,0,172,59.21,86.34,86.34,0,0,0,77.94,200,86.37,86.37,0,0,0,218.84,106Zm-20.26,92.57A83.85,83.85,0,0,1,139,223.21a84.21,84.21,0,1,1,59.58-24.65Z"/><path class="cls2-2" d="M197.3,141.42l-24.37-14.07V99.28a6.37,6.37,0,0,0-3.18-5.51L142.2,77.87a6.36,6.36,0,0,0-6.36,0l-27.56,15.9a6.37,6.37,0,0,0-3.18,5.51v28.06L80.73,141.41a6.37,6.37,0,0,0-3.18,5.51v31.82a6.37,6.37,0,0,0,3.18,5.51l27.55,15.9a6.38,6.38,0,0,0,6.36,0L139,186.09l24.37,14.07a6.38,6.38,0,0,0,6.36,0l27.55-15.9a6.37,6.37,0,0,0,3.18-5.51V146.92a6.36,6.36,0,0,0-3.18-5.51ZM139,90.73,160.2,103v24.39L139,139.58l-21.19-12.23V103ZM111.46,187.3,90.27,175.07V150.6l21.12-12.19,21.26,12.27v24.39Zm76.29-12.23L166.57,187.3l-21.19-12.23V150.68l21.26-12.28,21.12,12.19Zm0,0"/></g></g></svg>