<svg xmlns="http://www.w3.org/2000/svg" viewBox="0 0 278.03 278.03"><defs><style>.cls7-1{fill:#dc4225;}.cls7-2{fill:#fff;fill-rule:evenodd;}</style></defs><title>fish_icon_7</title><g id="圖層_2" data-name="圖層 2"><g id="Layer_1" data-name="Layer 1"><circle class="cls7-1" cx="139.01" cy="139.01" r="139.01"/><path class="cls7-2" d="M143.2,79.27c3.95,0,3.95,6.31,0,6.31s-3.92-6.31,0-6.31ZM126.62,89.69c-2.86,0-3,2.34-.92,4l4.14,3.43a4.52,4.52,0,0,1,1.7,3.59v36.61c0,6.62-2.41,11-5.65,15.44q-13.16,17.8-26.34,35.62c-5.34,7.21-4.18,10.16,5.06,10.16h68.33c9.24,0,10.4-3,5.06-10.16q-13.16-17.83-26.32-35.62c-3.26-4.4-5.67-8.82-5.67-15.44V100.73a4.52,4.52,0,0,1,1.7-3.59c1.37-1.13,2.77-2.29,4.16-3.43,2-1.68,1.92-4-.92-4Zm26,89.66c5.22,0,5.22,8.39,0,8.39s-5.23-8.39,0-8.39Zm-12.89-12.67c5.65,0,5.65,9,0,9s-5.67-9,0-9Zm-13.22,12.88c3.12,0,3.12,5.11,0,5.11s-3.12-5.11,0-5.11Zm16.55-26.85h-8.61c-2.2,0-3.24,1.68-4.35,3.21q-12,16.24-24,32.48c-2.39,3.24-1.32,4.89,2.86,4.89h58.85c5.58,0,6.1-1.58,2.88-5.93l-23.27-31.44c-1.11-1.54-2.13-3.21-4.35-3.21Zm12.84-84.62c7.9,0,7.9,12.41,0,12.41s-7.87-12.41,0-12.41Zm-15,1.16c4.87,0,4.87,7.21,0,7.21s-4.89-7.21,0-7.21ZM139,52.65a86.19,86.19,0,0,1,61.07,25.29A86.37,86.37,0,1,1,59.19,172,86.34,86.34,0,0,1,139,52.65Zm59.58,26.8a83.8,83.8,0,1,0,18.3,27.35,84.11,84.11,0,0,0-18.3-27.35Z"/></g></g></svg>