<?xml version="1.0" encoding="utf-8"?>
<!-- Generator: Adobe Illustrator 21.1.0, SVG Export Plug-In . SVG Version: 6.00 Build 0)  -->
<svg version="1.1" id="圖層_1" xmlns="http://www.w3.org/2000/svg" xmlns:xlink="http://www.w3.org/1999/xlink" x="0px" y="0px"
	 viewBox="0 0 1920 900" style="enable-background:new 0 0 1920 900;" xml:space="preserve">
<style type="text/css">
	.st0{fill:#FFF100;fill-opacity:0;}
	.st1{fill:#B84232;}
	.st2{fill:#F7CDA0;}
	.st3{fill:#E2BB92;}
	.st4{fill:#FEF8F7;}
	.st5{fill:#2D3D55;}
	.st6{fill:#E9E4E1;}
	.st7{fill:#555656;}
	.st8{fill:#43B6B4;}
	.st9{fill:#DC573F;}
	.st10{fill:#F5C432;}
	.st11{fill:#38475D;}
	.st12{fill:#C1DAE0;}
	.st13{fill:#75BFD3;}
	.st14{fill:#8CC9DA;}
	.st15{fill:#A2C5CC;}
	.st16{opacity:0.4;fill:#FFFFFF;}
	.st17{opacity:0.8;}
	.st18{fill:#6F9D36;}
	.st19{fill:#DC2525;}
	.st20{fill:#C31D21;}
	.st21{fill:#86BC43;}
</style>
<title>phone-02</title>
<rect x="5" y="-0.3" class="st0" width="1920" height="900.8"/>
<polygon class="st1" points="-4.5,900.7 106.6,902.3 -6.5,822.2 "/>
<path class="st2" d="M405.9,734c-14.5,4.7-30-3.3-34.8-17.8L353.2,661c-4.5-14.6,3.7-30,18.3-34.5c14.3-4.4,29.4,3.4,34.2,17.5
	l17.9,55.3C428.3,713.8,420.3,729.3,405.9,734z"/>
<path class="st2" d="M365,792.2c-14.5,4.7-30-3.3-34.8-17.8l-17.9-55.3c-4.5-14.6,3.7-30,18.3-34.5c14.3-4.4,29.4,3.4,34.2,17.5l0,0
	l17.9,55.3C387.4,771.9,379.5,787.4,365,792.2z"/>
<path class="st2" d="M324.1,850.3c-14.5,4.7-30-3.3-34.8-17.8l-17.9-55.3c-4.5-14.6,3.7-30,18.3-34.5c14.3-4.4,29.4,3.4,34.2,17.5
	l17.9,55.3C346.5,830,338.5,845.6,324.1,850.3z"/>
<path class="st3" d="M353.2,661c-4.5-14.6,3.7-30,18.3-34.5c14.3-4.4,29.4,3.4,34.2,17.5l11.3,34.7l-36,51.2
	c-4.6-3.4-8.1-8.2-9.8-13.6L353.2,661z"/>
<path class="st3" d="M312.3,719.1c-4.5-14.6,3.7-30,18.3-34.5c14.3-4.4,29.4,3.4,34.2,17.5l0,0l11.2,34.8l-36,51.2
	c-4.6-3.4-8.1-8.2-9.8-13.6L312.3,719.1z"/>
<path class="st2" d="M311.3,767.2L270,826c-18.4,26.1-67.8,44-107.6,16l-39.6,56.3C94.9,872,33.9,840.7,4.7,813l123.1-175
	L311.3,767.2z"/>
<path class="st3" d="M175,805.6c-54.4,11-112.6-48.5-112.6-48.5L169.5,705l124.2,87.4L277.7,815c-9.6,13.7-20.8,29.9-41.6,33.7
	L175,805.6z"/>
<g id="mobile">
	<path class="st4" d="M516.3,473.2l-128.9-90.7c-12.3-8.6-29.2-5.6-37.9,6.6L156.6,663.2c-8.6,12.3-5.6,29.2,6.6,37.8l128.9,90.7
		c12.3,8.6,29.2,5.6,37.8-6.6L522.8,511C531.4,498.7,528.5,481.8,516.3,473.2z"/>
	
		<rect x="205.4" y="499.7" transform="matrix(0.5754 -0.8178 0.8178 0.5754 -335.8913 527.0819)" class="st5" width="268.6" height="174.6"/>
	<path class="st6" d="M440.5,455.8c-2.2,3.1-6.4,3.8-9.5,1.6c-3.1-2.2-3.8-6.4-1.6-9.5c2.2-3.1,6.4-3.8,9.5-1.7
		C441.9,448.4,442.6,452.7,440.5,455.8C440.5,455.8,440.5,455.8,440.5,455.8z"/>
	<path class="st7" d="M225.9,719.7c-3.4-2.4-4.2-7-1.8-10.4c0,0,0,0,0,0l0,0l1.3-1.8c2.4-3.4,7-4.2,10.3-1.8c0,0,0,0,0,0l0,0
		l27.4,19.3c3.4,2.4,4.2,7,1.8,10.4l-1.3,1.8c-2.4,3.4-7,4.2-10.4,1.8L225.9,719.7z"/>
</g>
<ellipse id="back" transform="matrix(0.5754 -0.8178 0.8178 0.5754 -333.8306 527.3465)" class="st8" cx="341" cy="585.2" rx="68.6" ry="68.7"/>
<rect x="466.9" y="524.9" transform="matrix(0.5754 -0.8178 0.8178 0.5754 -232.854 607.5928)" class="st4" width="3.8" height="6.3"/>
<path class="st4" d="M467,523l-3.6,5.1l9.7,6.8l3.6-5.1L467,523z M473,534.1l-8.8-6.1l2.9-4.1l8.7,6.1L473,534.1z"/>
<path class="st4" d="M475.2,531.1l-1.5,2.1l1.6,1.1l1.5-2.1L475.2,531.1z M475.1,533.3l-0.5-0.3l0.7-1l0.5,0.3L475.1,533.3z"/>
<ellipse transform="matrix(0.5754 -0.8178 0.8178 0.5754 -214.7839 470.9004)" class="st4" cx="346.2" cy="442.3" rx="2.5" ry="2.5"/>
<path class="st4" d="M352.3,443.6c-1.1-0.8-2.6-0.5-3.4,0.6s-0.5,2.6,0.6,3.4c1.1,0.8,2.6,0.5,3.4-0.6
	C353.7,445.9,353.4,444.4,352.3,443.6C352.3,443.6,352.3,443.6,352.3,443.6z"/>
<path class="st4" d="M357,446.9c-1.1-0.8-2.6-0.5-3.4,0.6s-0.5,2.6,0.6,3.4c1.1,0.8,2.6,0.5,3.4-0.6
	C358.4,449.3,358.1,447.7,357,446.9C357,446.9,357,446.9,357,446.9z"/>
<path class="st4" d="M361.7,450.2c-1.1-0.8-2.6-0.5-3.4,0.6s-0.5,2.6,0.6,3.4c1.1,0.8,2.6,0.5,3.4-0.6
	C363.1,452.6,362.8,451,361.7,450.2C361.7,450.3,361.7,450.3,361.7,450.2z"/>
<path class="st2" d="M304.4,715.5l-7.6,10.8c-15.2,21.6-45,26.8-66.7,11.6c0,0,0,0,0,0l-53.4-37.6l0,0l21.1-30
	c7.7-11,22.9-13.6,33.9-5.9l0,0L304.4,715.5L304.4,715.5z"/>
<path class="st2" d="M245.9,537.1l-92.6,131.6L211,661l27.8,35l-50.9,72.3c-47.8,67.9-123,5.2-144.7-10l119.3-169.6
	C162.6,588.7,206.4,521.8,245.9,537.1z"/>
<rect x="85.5" y="724.2" transform="matrix(0.5754 -0.8178 0.8178 0.5754 -624.8489 421.8679)" class="st4" width="16.7" height="177.1"/>
<polygon class="st9" points="16.7,768.7 -10.3,807 -19.9,820.7 124.9,922.6 134.5,908.9 161.5,870.6 "/>
<ellipse transform="matrix(0.5754 -0.8178 0.8178 0.5754 -650.9884 350.6191)" class="st10" cx="12.2" cy="802.3" rx="7.5" ry="7.5"/>
<g id="signal">
	<g>
		
			<animate  accumulate="none" additive="replace" attributeName="opacity" calcMode="linear" dur="1s" fill="remove" repeatCount="indefinite" restart="always" to="0">
			</animate>
		<path class="st11" d="M536.4,645c12.4-17.6,17.1-39.5,12.8-60.6c-0.5-2.2-2.5-3.8-4.8-3.7h-0.2c-2.4,0-4.3,1.9-4.4,4.3
			c0,0.3,0,0.6,0.1,0.9c7.5,37.7-17,74.3-54.8,81.8c0,0,0,0,0,0c-1.1,0.2-2.1,0.4-3.2,0.6c-2.4,0.4-4,2.6-3.6,4.9
			c0,0.3,0.1,0.6,0.2,0.8l0,0.2c0.7,2.2,2.9,3.5,5.1,3.2C505.1,674.3,524.1,662.6,536.4,645z"/>
		<path class="st11" d="M218.7,421.5c12.3-17.6,31.4-29.4,52.7-32.5c2.3-0.3,4.4,1.1,5.1,3.2l0,0.2c0.8,2.3-0.3,4.7-2.6,5.6
			c-0.3,0.1-0.6,0.2-0.8,0.2c-38,5.7-64.2,41.1-58.5,79.2c0,0,0,0,0,0c0.2,1.1,0.3,2.1,0.6,3.2c0.5,2.4-1.1,4.6-3.4,5.1
			c-0.3,0.1-0.6,0.1-0.9,0.1h-0.2c-2.3,0-4.3-1.5-4.8-3.7C201.8,460.9,206.4,439,218.7,421.5z"/>
	</g>
	<g>
		
			<animate  accumulate="none" additive="replace" attributeName="opacity" calcMode="linear" dur="1s" fill="remove" repeatCount="indefinite" restart="always" to="0">
			</animate>
		<path class="st11" d="M514,583.8L514,583.8c-2.5-0.1-4.4,1.8-4.5,4.2c0,0.2,0,0.4,0,0.6c2.3,23.1-12.7,44.4-35.3,50.1
			c-2.3,0.5-3.8,2.9-3.2,5.2c0,0.2,0.1,0.4,0.2,0.5l0.1,0.1c0.8,2.3,3.3,3.7,5.7,3.1c26.8-6.7,44.7-32,41.9-59.6
			C518.6,585.5,516.5,583.7,514,583.8z"/>
		<path class="st11" d="M283.9,421.9l0.1,0.1c0.8,2.2-0.3,4.7-2.5,5.6c-0.2,0.1-0.4,0.1-0.5,0.2c-22.5,5.7-37.5,27-35.3,50.1
			c0.3,2.4-1.4,4.5-3.8,4.8c-0.2,0-0.4,0-0.6,0l-0.1-0.1c-2.5,0-4.6-1.8-4.9-4.3c-2.8-27.5,15.1-52.9,41.9-59.6
			C280.7,418.2,283.2,419.6,283.9,421.9z"/>
	</g>
</g>
<g>
	<g>
		<path class="st12" d="M353.6,622.9c9-11,5.3-26.1,5.3-26.1c5.8,5.4,10.6,2.1,2.7-5.2c-2.4-2.2-11.8-11-13.2-12.3
			c-0.1-0.1-0.2-0.2-0.2-0.2c-1.4-1.3-10.8-10.1-13.2-12.3c-7.9-7.3-10.7-2.3-4.9,3.1c0,0-15.4-2.6-25.7,7.2
			c-12.4,11.9-7.9,27.8-4.5,31.9c3.3,3.9,9.7,10.2,10.5,10.9c0.8,0.8,7.6,6.7,11.7,9.7C326.5,632.8,342.6,636.1,353.6,622.9z"/>
		<path class="st13" d="M299.1,601.2c0.7,3.3,1.9,5.8,3,7.1c3,3.6,8.9,9.4,9.7,10.1c0.7,0.7,7,6.2,10.8,9c1.3,0.9,3.5,1.8,6.4,2.3
			C320.6,618.1,310.2,609.5,299.1,601.2z"/>
		<path class="st14" d="M351.8,621.1c3.7-4.5,5.1-9.8,5.5-14.3c-9.4-5.3-9-9.7-15.2-13.3c-3.6-2-7.5-4.9-9.5-8.6
			c-3.1-4.8-7.2-6.1-11.6-12.7c-4.6,0.6-10.3,2.3-14.8,6.7c-7.6,7.2-8.3,16.1-7.1,22.4c11.1,8.3,21.5,16.9,29.9,28.5
			C335.5,630.8,344.8,629.6,351.8,621.1z"/>
		
			<ellipse transform="matrix(0.6803 -0.7329 0.7329 0.6803 -338.1149 442.2004)" class="st13" cx="337.8" cy="608.7" rx="1" ry="1"/>
		
			<ellipse transform="matrix(0.6803 -0.7329 0.7329 0.6803 -334.1672 441.4788)" class="st13" cx="339" cy="603.8" rx="1.3" ry="1.4"/>
		
			<ellipse transform="matrix(0.6803 -0.7329 0.7329 0.6803 -331.8802 445.2365)" class="st13" cx="344.4" cy="603" rx="2.1" ry="2.1"/>
		<path class="st15" d="M358.8,596.7l-19.4-18C339.4,578.7,346.3,590.5,358.8,596.7z"/>
		<path class="st16" d="M335.6,576.9c-0.2-1-3-4.5-5.1-4.3c-2.1,0.2-10,0.3-15.9,2.8c-5.9,2.5-11.4,9-9.5,10.4
			c3.4,2.5,4.2-3.3,12.8-6.1C326.2,577,336.3,580,335.6,576.9z"/>
		<path class="st16" d="M305.4,588.2c-1.2-1.1-2.4-1.4-3.1,0.4c-0.6,1.8-2.6,5-0.1,5.7C303.5,594.6,307.2,589.8,305.4,588.2z"/>
	</g>
	<g class="st17">
		<g>
			<g>
				<path class="st18" d="M341.3,589c0,0-2-5.9,8.9-13s17.4-11.4,17.9-21.6c0.4-10.2,13.8-17.6,13.8-17.6s-8.1,1.3-13.6,9.5
					c-5.5,8.2-2,11.3-7.4,18.3c-3.2,4.2-16.7,6.3-24,19.8L341.3,589z"/>
				<path class="st18" d="M348.2,574.6c0,0,4.5-2.3,6.1-8c1.6-5.7-5.8-12.1-5.4-19.5c0,0-1.6,5.1,1.5,10.3c3.1,5.2,4.1,8.9-5.2,18.6
					l3.7-1.4"/>
				<path class="st18" d="M346.3,577.6c0,0,6.6-6,13-1.6c6.4,4.3,15.8,2.2,15.8,2.2s-4.9,3.7-11.3,1.7c-6.4-2-9.7-5.7-19.3,0.6
					L346.3,577.6z"/>
				<path class="st18" d="M362.2,566.7c0,0-0.1-3.2,6.3-4.5c6.4-1.3,10.2,2.4,14.4-3.3c0,0-3.5,2.3-7.6,1.4c-4-0.9-8.3-2.7-13.1,3.1
					L362.2,566.7z"/>
				<path class="st18" d="M366.4,553.1c0,0-1.5-9.2-8.4-12.1c0,0,6,6.6,7.8,16L366.4,553.1z"/>
				<g>
					<path class="st19" d="M352.6,582.5c-1,2.6,0.4,5.5,3.3,6.3c2.8,0.9,5.9-0.6,6.9-3.2c0.9-2.3-0.1-4.7-2.2-5.9
						c-0.3-0.2-0.7-0.2-1.1-0.3c-0.4-0.1-0.7-0.3-1.1-0.4C355.9,578.8,353.5,580.2,352.6,582.5z"/>
					<path class="st20" d="M355.7,586.1c2.8,0.9,5.9-0.6,6.9-3.2c0.1-0.2,0.1-0.4,0.2-0.6c0.4,1,0.4,2.2,0,3.3
						c-1,2.6-4.1,4.1-6.9,3.2c-2.6-0.8-4-3.3-3.4-5.8C352.9,584.5,354.1,585.6,355.7,586.1z"/>
					<path class="st21" d="M359.6,579.2c0.1-0.2,1.9,0,2.6,1.2c0,0-0.9,0.3-2,0C359.1,580,359.4,579.6,359.6,579.2z"/>
					<path class="st21" d="M360.1,579.3c0.8,0.2,0.1,2.7,0.1,2.7s-1-1.3-0.9-2.1C359.5,579.1,359.4,579.1,360.1,579.3z"/>
					<path class="st21" d="M359.6,579.1c0-0.2-1.6-1-2.9-0.4c0,0,0.5,0.7,1.7,1C359.5,580.1,359.5,579.6,359.6,579.1z"/>
					<path class="st21" d="M359.2,578.9c-0.8-0.2-1.8,2.2-1.8,2.2s1.6-0.6,2-1.3C359.9,579,359.9,579,359.2,578.9z"/>
				</g>
				<g>
					<path class="st19" d="M344.7,560.3c-1.6,1.6-1.7,4.2-0.1,5.8c1.6,1.7,4.1,1.7,5.7,0.2c1.4-1.3,1.6-3.5,0.7-5.1
						c-0.2-0.3-0.4-0.4-0.6-0.6c-0.2-0.2-0.3-0.5-0.6-0.7C348.3,558.8,346.1,558.9,344.7,560.3z"/>
					<path class="st20" d="M345.5,564c1.6,1.7,4.1,1.7,5.7,0.2c0.1-0.1,0.2-0.2,0.3-0.4c-0.1,0.9-0.5,1.8-1.2,2.4
						c-1.6,1.6-4.2,1.5-5.7-0.2c-1.4-1.5-1.5-3.9-0.2-5.5C344.2,561.8,344.6,563.1,345.5,564z"/>
					<path class="st21" d="M350.6,560.4c0.1-0.1,1.3,0.7,1.3,1.8c0,0-0.7-0.1-1.4-0.8C349.9,560.8,350.3,560.6,350.6,560.4z"/>
					<path class="st21" d="M350.9,560.6c0.4,0.4-0.9,2-0.9,2s-0.2-1.3,0.2-1.8C350.5,560.3,350.5,560.3,350.9,560.6z"/>
					<path class="st21" d="M350.6,560.3c0.1-0.1-0.7-1.3-1.8-1.3c0,0,0.1,0.7,0.7,1.4C350.2,561,350.4,560.7,350.6,560.3z"/>
					<path class="st21" d="M350.4,560c-0.4-0.4-2,1-2,1s1.3,0.1,1.8-0.2C350.8,560.4,350.8,560.4,350.4,560z"/>
				</g>
				<g>
					<path class="st19" d="M364.7,565c-1.1,2.4,0,5.1,2.5,6.1c2.5,1,5.4-0.1,6.6-2.5c1-2,0.3-4.4-1.6-5.6c-0.3-0.2-0.6-0.2-1-0.4
						c-0.3-0.1-0.6-0.4-1-0.4C368,561.8,365.7,563,364.7,565z"/>
					<path class="st20" d="M367.3,568.6c2.5,1,5.4-0.1,6.6-2.5c0.1-0.2,0.1-0.4,0.2-0.5c0.3,1,0.2,2.1-0.3,3.1
						c-1.1,2.4-4.1,3.5-6.6,2.5c-2.3-0.9-3.5-3.4-2.7-5.6C364.9,566.9,365.8,568,367.3,568.6z"/>
					<path class="st21" d="M371.4,562.5c0.1-0.2,1.8,0.2,2.3,1.3c0,0-0.8,0.2-1.9-0.2C370.8,563.2,371.1,562.8,371.4,562.5z"/>
					<path class="st21" d="M371.8,562.6c0.7,0.3-0.1,2.5-0.1,2.5s-0.8-1.2-0.7-2C371.2,562.4,371.2,562.4,371.8,562.6z"/>
					<path class="st21" d="M371.3,562.4c0-0.2-1.4-1-2.6-0.6c0,0,0.4,0.7,1.5,1.1C371.2,563.3,371.3,562.8,371.3,562.4z"/>
					<path class="st21" d="M371,562.1c-0.7-0.2-1.8,1.9-1.8,1.9s1.5-0.4,1.9-1.1C371.6,562.3,371.7,562.3,371,562.1z"/>
				</g>
				<g>
					<path class="st19" d="M354.4,547.7c-1.7,1.8-1.6,4.7,0.2,6.5c1.8,1.7,4.7,1.7,6.5-0.1c1.5-1.6,1.6-3.9,0.5-5.7
						c-0.2-0.3-0.5-0.4-0.7-0.7c-0.2-0.2-0.4-0.5-0.7-0.7C358.3,545.9,355.9,546.1,354.4,547.7z"/>
					<path class="st20" d="M355.4,551.8c1.8,1.7,4.7,1.7,6.5-0.1c0.1-0.1,0.2-0.3,0.3-0.4c-0.1,1-0.5,2-1.2,2.8
						c-1.7,1.8-4.6,1.9-6.5,0.1c-1.7-1.6-1.9-4.2-0.5-6.1C353.9,549.5,354.4,550.8,355.4,551.8z"/>
					<path class="st21" d="M361,547.6c0.2-0.1,1.5,0.7,1.6,1.9c0,0-0.8-0.1-1.6-0.8C360.2,548,360.6,547.8,361,547.6z"/>
					<path class="st21" d="M361.3,547.8c0.5,0.5-0.9,2.3-0.9,2.3s-0.3-1.4,0.1-2C360.9,547.4,360.9,547.4,361.3,547.8z"/>
					<path class="st21" d="M360.9,547.5c0.1-0.2-0.9-1.4-2.1-1.4c0,0,0.2,0.8,0.9,1.5C360.5,548.2,360.7,547.8,360.9,547.5z"/>
					<path class="st21" d="M360.8,547.1c-0.5-0.4-2.1,1.2-2.1,1.2s1.4,0.1,2-0.4C361.2,547.5,361.2,547.5,360.8,547.1z"/>
				</g>
				<g>
					<path class="st21" d="M356.7,575.7c0,0,0.7-4.6,5.4-4.7c4.7-0.1,6-1,6-1S364.5,580.7,356.7,575.7z"/>
				</g>
				<g>
					<path class="st21" d="M354.1,565.1c0,0-1.7-2.5,1-4.7c2.6-2.2,2.9-3.2,2.9-3.2S360.6,564,354.1,565.1z"/>
				</g>
				<g>
					<path class="st21" d="M373.4,542.6c0,0,1.8-2.3,4.1-0.8c2.3,1.5,3.2,1.4,3.2,1.4S375.5,547.7,373.4,542.6z"/>
				</g>
				<g>
					<path class="st21" d="M368.6,549.1c0,0,1.6-3.2,4.8-2.1c3.2,1.1,4.3,0.7,4.3,0.7S372.6,554.5,368.6,549.1z"/>
				</g>
				<g>
					<path class="st21" d="M364.8,548.4c0,0-2.4-2.1-0.2-5c2.2-2.9,2.2-4,2.2-4S371.4,545.5,364.8,548.4z"/>
				</g>
				<g>
					<path class="st21" d="M350.5,554.9c0,0-1.6-1.4-0.2-3.2c1.4-1.9,1.5-2.6,1.5-2.6S354.8,553,350.5,554.9z"/>
				</g>
				<g>
					<path class="st21" d="M362.3,544.4c0,0-1.5-0.3-1.2-2c0.4-1.7,0.2-2.1,0.2-2.1S364.7,541.8,362.3,544.4z"/>
				</g>
				<g>
					<path class="st21" d="M370.5,579c0,0,0.3-3.7,4.1-4s4.7-1.1,4.7-1.1S377,582.6,370.5,579z"/>
				</g>
				<g>
					<path class="st21" d="M378.9,561c0,0-1.4-1.5,0.2-3.2c1.6-1.7,1.7-2.4,1.7-2.4S383.3,559.6,378.9,561z"/>
				</g>
				<g>
					<path class="st21" d="M363.8,579.3c0,0-2.1,2.7,0.3,4.9c2.4,2.2,2.6,3.2,2.6,3.2S370.5,580.1,363.8,579.3z"/>
				</g>
				<g>
					<path class="st21" d="M369.3,560.9c0,0-0.9,3.4,2.4,4.4c3.4,0.9,4,1.8,4,1.8S376.4,558.7,369.3,560.9z"/>
				</g>
				<g>
					<path class="st21" d="M352.5,560.7c0,0,0.2-2.9-2.8-3c-3-0.2-3.6-0.7-3.6-0.7S347,563.6,352.5,560.7z"/>
				</g>
				<g>
					<path class="st21" d="M362.9,546.7c0,0-1.1-2.5-3.9-1.4c-2.8,1.2-3.7,0.9-3.7,0.9S359.1,551.6,362.9,546.7z"/>
				</g>
				<g>
					<path class="st21" d="M377.4,561.4c0,0-1.1,2.8,1.6,3.8c2.7,1.1,3.1,1.9,3.1,1.9S383.4,560.2,377.4,561.4z"/>
				</g>
				<g>
					<path class="st21" d="M367.9,559.9c0,0,3.2,0.9,4.8-2.4c1.5-3.4,2.5-4,2.5-4S367,552.8,367.9,559.9z"/>
				</g>
				<g>
					<path class="st21" d="M349,551.1c0,0,0.1-2.2-2.1-2.3c-2.2-0.1-2.7-0.6-2.7-0.6S344.8,553.3,349,551.1z"/>
				</g>
				<g>
					<path class="st21" d="M360.4,543c0,0-0.7-1.7-2.6-0.9c-1.9,0.8-2.5,0.6-2.5,0.6S357.8,546.3,360.4,543z"/>
				</g>
				<g>
					<path class="st21" d="M370.8,544c0,0,2.5-1.1,1.8-3.7c-0.7-2.6-0.4-3.4-0.4-3.4S366.8,540.6,370.8,544z"/>
				</g>
				<polygon class="st18" points="360.7,577.5 359.7,579.6 359.1,579.6 359.9,577.4 				"/>
			</g>
		</g>
	</g>
</g>
</svg>
