<svg xmlns="http://www.w3.org/2000/svg" viewBox="0 0 496.11 51.03">
	<defs>
		<style>.run-1{fill:#efeff0;}.run-2{fill:#8fc31f;}.run-3{fill:#ebd4b9;}.run-4{fill:#b5664c;}.run-5{fill:#394c56;}.run-6{fill:#ef8763;}
		</style>
	</defs>
	<title>run</title>
	<g id="圖層_2" data-name="圖層 2">
		<g id="圖層_1-2" data-name="圖層 1">
			<rect class="run-1" y="39.03" width="496.11" height="12" rx="6" ry="6"/>

			<rect class="run-2" y="39.03" width="408.54" height="12" rx="6" ry="6">
				<animate dur="2.5s"  attributeName="width" from="0" to="408.54" /> 
			</rect>

			

			<path class="run-3" d="M387.55,8l6.16.82a1.35,1.35,0,0,1,1.16,1.52h0a1.35,1.35,0,0,1-1.52,1.16l-4.57-.6-2.54,3.49a1.35,1.35,0,0,1-1.89.3h0a1.35,1.35,0,0,1-.3-1.89Z"/>

			<!-- 衣服 -->
			<path class="run-4" d="M397,19.55h-6.51V10.93a3.25,3.25,0,0,1,3.25-3.25h0A3.25,3.25,0,0,1,397,10.93Z"/>

			<!-- r手 -->
			<path class="run-3" d="M400.14,13.12l-6-1.55a1.35,1.35,0,0,1-1-1.65h0a1.35,1.35,0,0,1,1.65-1l4.46,1.15,2.94-3.16a1.35,1.35,0,0,1,1.91-.07h0a1.35,1.35,0,0,1,.07,1.91Z"/>

			<!-- 頭 -->
			<ellipse class="run-3" cx="393.77" cy="4.1" rx="2.98" ry="3.57"/><path class="run-5" d="M391.3,6.08A5.49,5.49,0,0,0,393,2.3h3.74a3.3,3.3,0,0,0-3-2.3,3.05,3.05,0,0,0-3.2,2.57A7.21,7.21,0,0,0,390.43,5Z"/>

			


			<!-- ls -->
			<polygon class="run-3" points="387.34 28.68 376.86 24.81 377.8 22.27 386.56 25.51 391.4 20.15 393.41 21.96 387.34 28.68"/>
			<rect class="run-4" x="387.96" y="20.66" width="5.22" height="4.99" transform="translate(109.6 295.44) rotate(-47.49)"/>
			<path class="run-4" d="M379.34,22.7l-1,2.73-1,.28-1.23,1.92a.82.82,0,0,1-1,.33h0a.82.82,0,0,1-.49-1.06l1.93-5.23Z"/>

			<!-- rp -->
			
			<polygon class="run-3" points="401.22 35.65 398.55 35.22 399.87 27.03 394.88 22.57 396.69 20.55 402.77 26 401.22 35.65"/>
			<path class="run-4" d="M398.46,35.06l2.87.49.46.95,2.11.86a.82.82,0,0,1,.5.9h0a.82.82,0,0,1-1,.67L398,38Z"/>
			<path class="run-6" d="M390.49,19.55h0A4.44,4.44,0,0,0,392,22.92l4.31,3.71,3.77-4.22L397,19.55Z"/>

	





		</g>
	</g>
</svg>