<svg xmlns="http://www.w3.org/2000/svg" viewBox="0 0 1402.36 103.78"><defs><style>.cls-1{fill:#289c60;}.cls-2{fill:#289c5f;}.cls-3{fill:#695c38;}.cls-4{fill:#6a5b38;}.cls-5{fill:#b6c861;}.cls-6{fill:#6a5b36;}</style></defs><title>tree_2</title><g id="圖層_2" data-name="圖層 2"><g id="圖層_1-2" data-name="圖層 1"><path class="cls-1" d="M9.22.47C20.6,10.15,27.6,21.88,34.15,33.73c1.42,2.57,1.57,5.44-2.19,5.45-1.63,0-13.39,1-21.85.2a12.57,12.57,0,0,1-10-7.8h0c-.52-4.34.53-8,1.52-11.74A95,95,0,0,0,4.37,4.93C4.58,2.85,5.08,1,6.9,0Z"/><path class="cls-2" d="M76.22,38.1c-4.15-1.48-4.08-4.8-3.65-7.23C74.41,20.53,76.49,10.31,78.49.05H80.4c4,1.55,6.75,4.63,9.44,7.72a98.34,98.34,0,0,1,15.77,24.77L107,36.37C106.55,40.66,80.33,39.57,76.22,38.1Z"/><path class="cls-3" d="M9.44,39.35c1-3.47,2-7,3.09-10.41a2.64,2.64,0,0,1,2.75-2.15c1.88.09,1.67,1.52,1.78,2.75q.48,5.18,1,10.35l.76,7H9.24C7.07,44.31,9.38,41.86,9.44,39.35Z"/><path class="cls-4" d="M84.2,29a2.65,2.65,0,0,1,2.74-2.17c1.89.07,1.68,1.49,1.79,2.72C89,33,91.91,44.35,90.47,46.88H80.92C79.47,44.33,83.12,32.41,84.2,29Z"/><path class="cls-5" d="M42.57,37.09c-3-.32-5.39-2.08-5.31-5.67.15-6.35,2.25-11.76,3.61-17.52.79-3.36,2.12-6.45,1.6-10.34-.19-1.4,0-2.41,1.49-2.47A3.83,3.83,0,0,1,47.07,3c6.73,9.06,13.65,18,20.09,27.2,1.94,2.76.67,5-1.72,6.11S45.37,37.39,42.57,37.09Z"/><path class="cls-6" d="M43.64,46.88c-.42-2,.43-12.11.61-13,.47-2.35,1.11-4.67,3.66-5.61a2.68,2.68,0,0,1,3.53,1.53c1.2,2.5.1,13.82.8,17.11Z"/><path class="cls-1" d="M332,57.37c7.85,9.69,10.58,21.42,12.82,33.26.49,2.57-.41,5.44-4.18,5.45-1.63,0-13.74,1-21.92.2a7.84,7.84,0,0,1-7.14-7.8h0c1.07-4.34,3.46-8,5.8-11.74a133.72,133.72,0,0,0,8.14-14.92c1-2.07,2.14-3.93,4.33-4.93Z"/><path class="cls-2" d="M385.33,95c-3.61-1.48-2.34-4.8-1-7.23,5.6-10.33,11.41-20.56,17.14-30.82h1.91c3.4,1.55,5.06,4.63,6.63,7.72a66,66,0,0,1,6.75,24.77v3.82C414.73,97.56,388.92,96.47,385.33,95Z"/><path class="cls-3" d="M325.2,96.25c1-3.47,2-7,3.09-10.41A2.64,2.64,0,0,1,331,83.69c1.88.09,1.67,1.52,1.78,2.75q.48,5.18,1,10.35l.76,7H325C322.83,101.22,325.14,98.76,325.2,96.25Z"/><path class="cls-4" d="M400,85.86a2.65,2.65,0,0,1,2.74-2.17c1.89.07,1.68,1.49,1.79,2.72.32,3.45,3.18,14.84,1.75,17.36h-9.56C395.23,101.24,398.88,89.31,400,85.86Z"/><path class="cls-5" d="M352.05,94c-2.9-.32-4.64-2.08-3.24-5.67,2.47-6.35,6.53-11.76,10-17.52,2-3.36,4.47-6.45,5.36-10.34.32-1.4.87-2.41,2.39-2.47A2.44,2.44,0,0,1,369,59.9c3.43,9.06,7.08,18,10.19,27.2.94,2.76-1.15,5-3.95,6.11S354.75,94.3,352.05,94Z"/><path class="cls-6" d="M359.41,103.78c-.42-2,.43-12.11.61-13,.47-2.35,1.11-4.67,3.66-5.61a2.68,2.68,0,0,1,3.53,1.53c1.2,2.5.1,13.82.8,17.11Z"/><path class="cls-1" d="M1304.58,13.21c11.37,9.69,18.38,21.42,24.93,33.26,1.42,2.57,1.57,5.44-2.19,5.45-1.63,0-13.39,1-21.85.2a12.57,12.57,0,0,1-10-7.8h0c-.52-4.34.53-8,1.52-11.74a95,95,0,0,0,2.71-14.92c.21-2.07.71-3.93,2.53-4.93Z"/><path class="cls-2" d="M1371.58,50.84c-4.15-1.48-4.08-4.8-3.65-7.23,1.84-10.33,3.93-20.56,5.92-30.82h1.91c4,1.55,6.75,4.63,9.44,7.72A98.34,98.34,0,0,1,1401,45.28l1.39,3.82C1401.9,53.4,1375.69,52.31,1371.58,50.84Z"/><path class="cls-3" d="M1304.79,52.09c1-3.47,2-7,3.09-10.41a2.64,2.64,0,0,1,2.75-2.15c1.88.09,1.67,1.52,1.78,2.75q.48,5.18,1,10.35l.76,7h-9.56C1302.43,57.05,1304.74,54.6,1304.79,52.09Z"/><path class="cls-4" d="M1379.56,41.7a2.65,2.65,0,0,1,2.74-2.17c1.89.07,1.68,1.49,1.79,2.72.32,3.45,3.18,14.84,1.75,17.36h-9.56C1374.83,57.07,1378.47,45.15,1379.56,41.7Z"/><path class="cls-5" d="M1337.93,49.83c-3-.32-5.39-2.08-5.31-5.67.15-6.35,2.25-11.76,3.61-17.52.79-3.36,2.12-6.45,1.6-10.34-.19-1.4,0-2.41,1.49-2.47a3.83,3.83,0,0,1,3.12,1.91c6.73,9.06,13.65,18,20.09,27.2,1.94,2.76.67,5-1.72,6.11S1340.73,50.13,1337.93,49.83Z"/><path class="cls-6" d="M1339,59.62c-.42-2,.43-12.11.61-13,.47-2.35,1.11-4.67,3.66-5.61a2.68,2.68,0,0,1,3.53,1.53c1.2,2.5.1,13.82.8,17.11Z"/></g></g></svg>