<svg xmlns="http://www.w3.org/2000/svg" viewBox="0 0 1400.48 103.78"><defs><style>.cls-1{fill:#289c60;}.cls-2{fill:#289c5f;}.cls-3{fill:#695c38;}.cls-4{fill:#6a5b38;}.cls-5{fill:#b6c861;}.cls-6{fill:#6a5b36;}</style></defs><title>tree_1</title><g id="圖層_2" data-name="圖層 2"><g id="圖層_1-2" data-name="圖層 1"><path class="cls-1" d="M20.41.47C28.26,10.15,31,21.88,33.23,33.73c.49,2.57-.41,5.44-4.18,5.45-1.63,0-13.74,1-21.92.2A7.84,7.84,0,0,1,0,31.59H0c1.07-4.34,3.46-8,5.8-11.74A133.72,133.72,0,0,0,13.94,4.93C14.9,2.85,16.08,1,18.27,0Z"/><path class="cls-2" d="M73.71,38.1c-3.61-1.48-2.34-4.8-1-7.23C78.29,20.53,84.1,10.31,89.84.05h1.91c3.4,1.55,5.06,4.63,6.63,7.72a66,66,0,0,1,6.75,24.77v3.82C103.11,40.66,77.29,39.57,73.71,38.1Z"/><path class="cls-3" d="M13.58,39.35c1-3.47,2-7,3.09-10.41a2.64,2.64,0,0,1,2.75-2.15c1.88.09,1.67,1.52,1.78,2.75q.48,5.18,1,10.35l.76,7H13.38C11.21,44.31,13.52,41.86,13.58,39.35Z"/><path class="cls-4" d="M88.34,29a2.65,2.65,0,0,1,2.74-2.17c1.89.07,1.68,1.49,1.79,2.72C93.19,33,96,44.35,94.61,46.88H85.06C83.61,44.33,87.26,32.41,88.34,29Z"/><path class="cls-5" d="M40.43,37.09c-2.9-.32-4.64-2.08-3.24-5.67,2.47-6.35,6.53-11.76,10-17.52,2-3.36,4.47-6.45,5.36-10.34.32-1.4.87-2.41,2.39-2.47A2.44,2.44,0,0,1,57.34,3c3.43,9.06,7.08,18,10.19,27.2.94,2.76-1.15,5-3.95,6.11S43.13,37.39,40.43,37.09Z"/><path class="cls-6" d="M47.78,46.88c-.42-2,.43-12.11.61-13,.47-2.35,1.11-4.67,3.66-5.61a2.68,2.68,0,0,1,3.53,1.53c1.2,2.5.1,13.82.8,17.11Z"/><path class="cls-1" d="M328.84,57.37c11.37,9.69,18.38,21.42,24.93,33.26,1.42,2.57,1.57,5.44-2.19,5.45-1.63,0-13.39,1-21.85.2a12.57,12.57,0,0,1-10-7.8h0c-.52-4.34.53-8,1.52-11.74A95,95,0,0,0,324,61.83c.21-2.07.71-3.93,2.53-4.93Z"/><path class="cls-2" d="M395.84,95c-4.15-1.48-4.08-4.8-3.65-7.23C394,77.44,396.12,67.22,398.11,57H400c4,1.55,6.75,4.63,9.44,7.72a98.34,98.34,0,0,1,15.77,24.77l1.39,3.82C426.17,97.56,400,96.47,395.84,95Z"/><path class="cls-3" d="M329.06,96.25c1-3.47,2-7,3.09-10.41a2.64,2.64,0,0,1,2.75-2.15c1.88.09,1.67,1.52,1.78,2.75q.48,5.18,1,10.35l.76,7h-9.56C326.69,101.22,329,98.76,329.06,96.25Z"/><path class="cls-4" d="M403.82,85.86a2.65,2.65,0,0,1,2.74-2.17c1.89.07,1.68,1.49,1.79,2.72.32,3.45,3.18,14.84,1.75,17.36h-9.56C399.09,101.24,402.74,89.31,403.82,85.86Z"/><path class="cls-5" d="M362.19,94c-3-.32-5.39-2.08-5.31-5.67.15-6.35,2.25-11.76,3.61-17.52.79-3.36,2.12-6.45,1.6-10.34-.19-1.4,0-2.41,1.49-2.47a3.83,3.83,0,0,1,3.12,1.91c6.73,9.06,13.65,18,20.09,27.2,1.94,2.76.67,5-1.72,6.11S365,94.3,362.19,94Z"/><path class="cls-6" d="M363.27,103.78c-.42-2,.43-12.11.61-13,.47-2.35,1.11-4.67,3.66-5.61a2.68,2.68,0,0,1,3.53,1.53c1.2,2.5.1,13.82.8,17.11Z"/><path class="cls-1" d="M1315.77,13.21c7.85,9.69,10.58,21.42,12.82,33.26.49,2.57-.41,5.44-4.18,5.45-1.63,0-13.74,1-21.92.2a7.84,7.84,0,0,1-7.14-7.8h0c1.07-4.34,3.46-8,5.8-11.74a133.72,133.72,0,0,0,8.14-14.92c1-2.07,2.14-3.93,4.33-4.93Z"/><path class="cls-2" d="M1369.07,50.84c-3.61-1.48-2.34-4.8-1-7.23,5.6-10.33,11.41-20.56,17.14-30.82h1.91c3.4,1.55,5.06,4.63,6.63,7.72a66,66,0,0,1,6.75,24.77v3.82C1398.47,53.4,1372.65,52.31,1369.07,50.84Z"/><path class="cls-3" d="M1308.93,52.09c1-3.47,2-7,3.09-10.41a2.64,2.64,0,0,1,2.75-2.15c1.88.09,1.67,1.52,1.78,2.75q.48,5.18,1,10.35l.76,7h-9.56C1306.57,57.05,1308.88,54.6,1308.93,52.09Z"/><path class="cls-4" d="M1383.7,41.7a2.65,2.65,0,0,1,2.74-2.17c1.89.07,1.68,1.49,1.79,2.72.32,3.45,3.18,14.84,1.75,17.36h-9.56C1379,57.07,1382.61,45.15,1383.7,41.7Z"/><path class="cls-5" d="M1335.79,49.83c-2.9-.32-4.64-2.08-3.24-5.67,2.47-6.35,6.53-11.76,10-17.52,2-3.36,4.47-6.45,5.36-10.34.32-1.4.87-2.41,2.39-2.47a2.44,2.44,0,0,1,2.42,1.91c3.43,9.06,7.08,18,10.19,27.2.94,2.76-1.15,5-3.95,6.11S1338.48,50.13,1335.79,49.83Z"/><path class="cls-6" d="M1343.14,59.62c-.42-2,.43-12.11.61-13,.47-2.35,1.11-4.67,3.66-5.61a2.68,2.68,0,0,1,3.53,1.53c1.2,2.5.1,13.82.8,17.11Z"/></g></g></svg>