<svg xmlns="http://www.w3.org/2000/svg" viewBox="0 0 1916.61 660.51"><defs><style>.cls-1{fill:#c7e5e9;}</style></defs><title>wave</title><g id="圖層_2" data-name="圖層 2"><g id="圖層_1-2" data-name="圖層 1"><path class="cls-1" d="M1916.47,1.87c.62-2.31-1-1.81-2.23-1.85a4.73,4.73,0,0,1-2.42.75,75.41,75.41,0,0,1-16.13.42c-10.77-1-21.47,1.31-32.32.75S1842,4.67,1831.16,4.8a9.28,9.28,0,0,0-3.2.81c-6,2.32-12.2,2.63-18.47,2.51a14.13,14.13,0,0,0-6.13.93c-3.56,1.58-7.36,1.94-11.15,2.12a50.87,50.87,0,0,0-10.54,1.58c-10.39,2.74-21.22,3.92-31,8.7a9.66,9.66,0,0,1-2.48.69c-6.73,1.24-13.22,3.59-20.1,4.18a16,16,0,0,0-4.86,1.65,170,170,0,0,1-21.82,7.56c-7.29,2.06-14.75,2.44-22.14,3.45-10.1,1.38-20.23,1.94-30.36-.45-12.41-2.93-25-5.07-36.55-10.94a10.67,10.67,0,0,0-3.19-.87,46.32,46.32,0,0,1-9.83-3,95.42,95.42,0,0,0-22.42-5.62c-9.08-1.25-18.38-.6-27.48-2.23a11.33,11.33,0,0,0-4,0c-13.6,2.51-27.41,3.95-40.69,8.05-2.23.69-4.59,1.14-6.59,2.33-7,4.15-15.14,5.68-22.2,9.67-5.43,3.07-11.15,5.56-16.71,8.35-3,1.53-6,3.31-9.13,4.71-8.84,3.93-17.58,8.07-26.54,11.74-3.37,1.38-6.63,3.11-10.07,4.44A152.83,152.83,0,0,1,1392.93,71c-6.82,1.58-13.78,2.84-20.67,2.68a75.77,75.77,0,0,1-33.51-8.21,20.52,20.52,0,0,0-6.67-2,32.94,32.94,0,0,1-14.13-5c-9.69-6.68-21.21-8.86-31.67-13.62-3.66-1.66-7.57-2.82-11-5a62.78,62.78,0,0,0-5.89-3c-4.17-2-8.86-2-13.07-3.61-5.31-2-10.7-3.61-16.14-5.08-9.25-2.49-18.54-4.83-28.27-4.57-2.9.08-5.61-1.48-8.69-1.08-9.1,1.17-18.08,3.42-27.38,2.83a16.13,16.13,0,0,0-7.51,1.69c-8.59,3.88-18.14,3.74-27,6.56-4.64,1.47-9.71,2.17-14.52,3.64-15.25,4.65-30.88,7.83-46.34,11.65-4.77,1.18-9.48,2.59-14.5,1.68-1.47-.27-2.91.35-4.32.79-9.32,3-19,1.86-28.52,2.2-6.21.22-12.48-.85-18.68.54a5.5,5.5,0,0,1-3.58-.4,25.83,25.83,0,0,0-11.88-2,62.84,62.84,0,0,1-11.35-.92c-6-.86-11.55-3.53-17.48-4.34-7.82-1.07-15-4.79-22.89-5.31a8.19,8.19,0,0,1-2.77-1c-9.71-4.52-20.14-6.91-30.3-10.08-9-2.82-17.4-7.3-26.47-10-3.11-.94-6-2.66-9.31-3.33-7.93-1.63-15.81-3.53-23.72-5.21-7.29-1.55-14.66-3-22.22-2.5-4.27.3-8.35,1.95-12.74,1.49a24.14,24.14,0,0,0-10.86,1.58c-7.52,2.76-15.48,3.77-23.17,5.88-4.38,1.2-8.57,3-12.93,4a143,143,0,0,0-20.52,5.82,76.3,76.3,0,0,1-14.56,3.92,40.76,40.76,0,0,0-10.23,3c-17.28,8-35,7.89-52.67,2-6.74-2.24-14-2.67-20.42-5.87a3.48,3.48,0,0,0-1.08-.23c-6.69-.9-13-3.52-19.71-4.35-2.53-.31-4.84-1.73-7.26-2.58-6.21-2.2-12.23-4.93-18.92-5.79-12.61-1.62-24.89-5.11-37.65-6.32-8.3-.79-16.27-1.48-24.38.78-4,1.12-7.86,2.84-11.88,3.91-12.07,3.21-23,9.23-34.13,14.51-7.16,3.39-13.57,8.36-21.42,10.47a15.16,15.16,0,0,0-5.83,3.09,19.79,19.79,0,0,1-7.48,3.82,17.79,17.79,0,0,0-5.07,2.15c-6.2,4.18-13.32,6.28-20.24,8.72a101.23,101.23,0,0,1-14.81,4.32c-7.46,1.4-15,2.72-22.48,3.8a13.85,13.85,0,0,1-4,.06c-6.91-1-13.69-2.9-20.74-3a7.2,7.2,0,0,1-3.8-1.28,27.38,27.38,0,0,0-9.54-3.78,45.43,45.43,0,0,1-13.43-4.71c-7.56-4.31-15.65-7.72-23.14-12.06-12-6.94-24.75-12.49-36.57-19.76-5.83-3.59-12.55-4.92-19-6.92-12.14-3.78-24.4-6.41-37.22-3.57-8.85,2-18,2.1-26.91,3.83-7.69,1.49-15.37,3.14-23,4.88-11.56,2.65-22.77,6.79-33.91,10.9-8.94,3.3-17.72,5.72-27.52,4.85a156,156,0,0,1-19.9-3.24C91.06,30.58,80.81,23.16,69.71,17.75c-5-2.42-9.6-5.42-15.28-6.05a11.18,11.18,0,0,1-5.2-1.77C44.8,6.78,39.62,5.88,34.56,4.44c-8-2.26-16.29-2-24.38-3.47C6.92.4,3.37,0,.07,1.5Q.07,329.31,0,657.12c0,2.76.62,3.39,3.39,3.38q954.87-.11,1909.75,0c2.76,0,3.39-.62,3.39-3.39q-.11-326.89-.07-653.78A5.8,5.8,0,0,1,1916.47,1.87ZM253.14,86.73a9.4,9.4,0,0,1-4.94,4.14c-5.16,1.72-10.58,2.21-15.82,3.54a119.88,119.88,0,0,0-14,4.89c-7.1,2.77-12,8.45-18,12.69-8.2,5.81-16.24,12.29-26.86,13.09-14.34,1.09-28.78,1.17-41.68-6.06-6.49-3.63-13.21-6.32-20-9.14a31.23,31.23,0,0,0-8.77-2c-10.8-1.1-21.51-.41-31.66,4.25-8.16,3.74-16.53,3.43-25.27,1.73-6.48-1.26-11.84-4.33-17.1-7.67a30,30,0,0,1-12.51-16A3.52,3.52,0,0,1,17,87.42c2.86-6.07,7.44-9.88,13.76-12.34,11.12-4.34,22.78-4.75,28.63-5.33,18.7-.77,31.58.65,44.48,1.33,6.61.35,13.23,2.47,20,3,3.9.31,7.78,1,11.67,1.07,16.05.09,32.14.72,48.11-1.48,5-.69,10.13-.57,15.13-1,7.87-.61,16,.12,24,.72,6.72.5,13.32,1.64,20,2.49,3.8.48,6.76,2.85,9.94,4.57C255.15,81.85,254.3,84.85,253.14,86.73Zm410-10.62a31.08,31.08,0,0,1-12.1,6.82,116.68,116.68,0,0,0-17.77,6.43c-10.37,5-21.21,8.46-33.16,8.69a97.89,97.89,0,0,1-35.93-7.86c-6-2.61-12.29-4.69-19-4.7-3.22,0-6-2.33-9.1-2.55-5.57-.4-9.17-3.95-13-7-7.33-5.85-4.47-10.54,1.41-14.18,5.6-3.46,12.12-4.18,18.93-3.75,7.11.44,13.85,2.68,20.88,3.14,4.23.28,7.47-2.33,10.48-4.63a29.76,29.76,0,0,1,17-6.15c16.41-.71,32.79.06,48.83,4.16a56,56,0,0,1,18.74,9.13c2.66,1.92,4.52,5.21,5.52,8.6C665.26,73.81,664.24,75.16,663.18,76.1Zm1226,19.44c-2.5,4.51-4.87,8.37-10,11.29-4.59,2.6-8.7,3.26-13.48,4-4.46.67-8.73,2.85-12.68,5.28-8.6,5.3-16.85,11.09-25,17.1a16,16,0,0,1-9.15,3.25c-6.58.16-12.86,3.13-19.43,2.07-7,.77-13.48-1.39-20.15-2.14-8.24-.92-16.94-3.45-24.71-.42-9.18,3.58-18.45,1.2-27.41,2.87-9.23,1.72-18.74,3.63-26.71,9.19-4.52,3.15-9.79,3.8-14.81,5.09-6.91,1.78-13.85,3.73-21,4.18-12,.75-23.88,1.6-35.94.84-6.85-.43-12.21-4-18.34-5.76a13.6,13.6,0,0,1-6.46-4c-6.8-7.69-15.37-13.25-24.21-18.14a31.15,31.15,0,0,0-19.24-4c-5.82.81-11.28,2.73-15.8,7.24-3.31,3.31-7.15,6.48-12.93,5.39-3.37-.64-7.06.23-10.57.64-1.62.19-2.65.93-1.65,3,1.29,2.72.34,4.86-2.36,6.41-2.93,1.68-5.94,3.18-9.33,2.85-2.41-.24-4.18,1.13-6.25,1.67-9.74,2.57-19.83,2.68-29.71,4.25a117.27,117.27,0,0,1-25.62,1.43c-10.59-.67-21.19-1.36-31.77-2.49-7.68-.82-15.27-2.17-22.82-3.49-6.64-1.16-13.53-2-19.77-4.93-1.89-.89-3.85-.59-5.75-1a186,186,0,0,1-23.78-6.57c-4.86-1.77-9.7-3.59-14.59-5.27-2.3-.79-4.46-2.93-3.8-6,.71-3.32,2.92-6.51,6-6.66,5.94-.29,9.85-3.73,14.24-6.76a21.26,21.26,0,0,1,6-2.41c10.46-3.11,21.28-4.23,32-5.88,12.24-1.88,24.66-1.69,36.88-3.18,14-1.7,28-1.69,42-2.24,5.51-.22,11.27-.37,16.83.72,1.32.26,2.4-.34,3.61-.37a85.94,85.94,0,0,1,20.39,1.64c2.06.44,4-.33,6.15,0,9.32,1.61,18.75,2.53,28.16,3.52a126.66,126.66,0,0,1,12.9,2.38c1.22.26,2.46.83,3.55.14,1.49-1-.26-1.89-.25-2.87.05-5.91,1.54-11.43,5.62-15.76,5.78-6.14,13.72-7.84,21.59-8.89,5.84-.78,11.29-3,17.13-3.76,2.2-.28,4.6-1.32,6.78-1.31,7.75.06,15.33-1.59,23.05-1.86,11.11-.38,22.23-.53,33.33-1.89,9.12-1.12,18.35.37,27.51.91,4.66.28,9.3.17,14,.36,10.4.42,20.81,1.16,30.85,3.85a123.61,123.61,0,0,0,28.89,3.81c12.48.34,25,1.31,37.44,1,19.6-.43,39.19-1.27,58.81-1.45,5.1,0,10.26-.32,15.26.32,6.84.89,13.19,3.36,16.76,10.09A2.53,2.53,0,0,1,1889.18,95.54Z"/></g></g></svg>