<svg xmlns="http://www.w3.org/2000/svg" viewBox="0 0 278.03 278.03"><defs><style>.cls-1{fill:#a1b539;}.cls-2{fill:#fff;fill-rule:evenodd;}</style></defs><title>資產 9</title><g id="圖層_2" data-name="圖層 2"><g id="Layer_1" data-name="Layer 1"><circle class="cls-1" cx="139.01" cy="139.01" r="139.01"/><path class="cls-2" d="M138.76,131.21a8,8,0,1,1-8,8,8,8,0,0,1,8-8ZM154,153.69c3.31.26,3.19.4,2.22-2.77-1.11-3.54-1.16-3.14-3.36-.4-1.91,2.41-2.86,2.84,1.13,3.17Zm-8.61,5.79c-2.25,2.55-4.42,4.94-6.55,7.14a1.82,1.82,0,0,0-.28,2.17c5.65,10.21,10.95,16.73,15.3,19.83,4.18,3,6.31,2.29,7.4-2.81s.54-13.57-2.27-25a1.81,1.81,0,0,0-1.68-1.39c-3.07-.17-6.31-.45-9.69-.8a2.48,2.48,0,0,0-2.22.87Zm-1.75-40.65c-1.42-3-1.25-3-3.5-.52-2.48,2.69-2.13,2.55,1.32,3.07s3.76.78,2.18-2.55Zm9.31,4.56c3.33.66,6.5,1.37,9.48,2.1a1.81,1.81,0,0,0,2-.85c6-10,9.05-17.84,9.55-23.14s-1.18-6.64-6.15-5-12,6.33-20.54,14.49a1.79,1.79,0,0,0-.35,2.15c1.37,2.74,2.77,5.67,4.14,8.79a2.61,2.61,0,0,0,1.87,1.49Zm19,4.75c10.69,3.38,18,7.16,22.1,10.82,6.86,6.19,5.65,13.12-2.7,16.92-5,2.27-13,3.71-24.09,3.78-2.48,0-2.93-.12-2.34,2.48,2.48,11.06,2.88,19.4,1.73,24.82-1.91,9-8.51,11.46-16,6.14-4.52-3.21-9.86-9.57-15.51-19.26-1.23-2.13-1.44-2.1-3.24-.45-8.3,7.63-15.3,12.15-20.54,13.85-8.77,2.84-14.18-1.65-13.31-10.78.52-5.51,3.36-13.33,8.94-23.09,1.21-2.08,1.06-2.27-1.21-3C95,147,87.61,143.22,83.49,139.51c-6.86-6.17-5.65-13.09,2.69-16.9,5-2.29,13.07-3.73,24.16-3.8,2.74,0,2.81-.12,2.25-2.58-2.46-11-2.86-19.31-1.7-24.7,1.91-9,8.51-11.46,16-6.15,4.49,3.19,9.83,9.52,15.44,19.14,1.47,2.53,1.63,2.08,3.66.24,8.16-7.44,15-11.84,20.19-13.52,8.77-2.86,14.18,1.65,13.31,10.78-.52,5.46-3.31,13.16-8.77,22.78-1.37,2.41-1.42,2.48,1.25,3.33Zm-35.89,29c-3.45-.52-3.78-.8-2.2,2.53,1.44,3,1.25,3,3.5.54,2.51-2.69,2.17-2.55-1.3-3.07Zm-11.49-2c-3.36-.66-6.5-1.37-9.48-2.1a1.83,1.83,0,0,0-2,.83c-6,10-9.05,17.87-9.55,23.16-.47,5.13,1.18,6.62,6.15,5s12-6.31,20.54-14.49a1.8,1.8,0,0,0,.35-2.15c-1.37-2.72-2.77-5.65-4.16-8.77a2.43,2.43,0,0,0-1.84-1.49Zm-4.35-36c3.07.17,6.29.43,9.69.8a2.61,2.61,0,0,0,2.22-.87c2.25-2.58,4.42-4.94,6.55-7.16a1.79,1.79,0,0,0,.28-2.15C133.33,99.5,128,93,123.68,89.88c-4.18-3-6.34-2.29-7.4,2.79s-.54,13.59,2.27,25a1.82,1.82,0,0,0,1.68,1.39Zm70.14,24c-3.95-3.54-11.51-7.26-22.84-10.54a1.82,1.82,0,0,0-2,.76c-1.68,2.58-3.52,5.22-5.53,8a2.46,2.46,0,0,0-.35,2.34c1.09,3.24,2.06,6.33,2.91,9.26a1.8,1.8,0,0,0,1.75,1.32c11.68.21,20-1.09,24.82-3.31,4.68-2.13,5.15-4.32,1.28-7.82ZM157.61,130c-3.59-.8-3.26-.57-2,2.67s1.21,3.66,3.31.61c1.87-2.74,1.91-2.55-1.3-3.29Zm-11.23-2.22c-3.81-.66-7.61-1.25-11.44-1.75a2.55,2.55,0,0,0-2.32.9c-2.48,3-4.89,6-7.23,9.05a2.55,2.55,0,0,0-.38,2.46c1.35,3.62,2.74,7.21,4.23,10.75a2.49,2.49,0,0,0,1.94,1.56c3.78.66,7.61,1.23,11.44,1.75a2.51,2.51,0,0,0,2.32-.92c2.46-3,4.89-6,7.23-9a2.49,2.49,0,0,0,.35-2.46q-2-5.43-4.21-10.78a2.49,2.49,0,0,0-1.94-1.54Zm-22.84-3c-3.31-.26-3.19-.4-2.22,2.76,1.11,3.52,1.16,3.12,3.33.4s2.55-2.88-1.11-3.17Zm-10.26-.52c-11.68-.19-20,1.09-24.82,3.31-4.68,2.15-5.15,4.33-1.28,7.82S98.69,142.68,110,146a1.81,1.81,0,0,0,2.06-.76c1.68-2.55,3.52-5.22,5.53-8a2.44,2.44,0,0,0,.35-2.34c-1.09-3.21-2.08-6.31-2.91-9.26a1.85,1.85,0,0,0-1.75-1.32Zm6.67,24.22c3.59.8,3.26.54,2-2.69s-1.21-3.64-3.31-.61c-1.87,2.74-1.94,2.58,1.3,3.31ZM139,52.68a86,86,0,1,1-33,6.52,86.18,86.18,0,0,1,33-6.52Zm59.58,26.78A84.3,84.3,0,0,0,61.15,106.8,84.3,84.3,0,1,0,198.58,79.46Z"/></g></g></svg>